<svg xmlns="http://www.w3.org/2000/svg" viewBox="0 0 500 500"><g id="freepik--background-complete--inject-1"><rect y="382.4" width="500" height="0.25" style="fill:#ebebeb"></rect><rect x="416.78" y="398.49" width="33.12" height="0.25" style="fill:#ebebeb"></rect><rect x="322.53" y="401.21" width="8.69" height="0.25" style="fill:#ebebeb"></rect><rect x="396.59" y="389.21" width="19.19" height="0.25" style="fill:#ebebeb"></rect><rect x="52.46" y="390.89" width="43.19" height="0.25" style="fill:#ebebeb"></rect><rect x="104.56" y="390.89" width="6.33" height="0.25" style="fill:#ebebeb"></rect><rect x="131.47" y="395.11" width="93.68" height="0.25" style="fill:#ebebeb"></rect><path d="M237,337.8H43.91a5.71,5.71,0,0,1-5.7-5.71V60.66A5.71,5.71,0,0,1,43.91,55H237a5.71,5.71,0,0,1,5.71,5.71V332.09A5.71,5.71,0,0,1,237,337.8ZM43.91,55.2a5.46,5.46,0,0,0-5.45,5.46V332.09a5.46,5.46,0,0,0,5.45,5.46H237a5.47,5.47,0,0,0,5.46-5.46V60.66A5.47,5.47,0,0,0,237,55.2Z" style="fill:#ebebeb"></path><path d="M453.31,337.8H260.21a5.72,5.72,0,0,1-5.71-5.71V60.66A5.72,5.72,0,0,1,260.21,55h193.1A5.71,5.71,0,0,1,459,60.66V332.09A5.71,5.71,0,0,1,453.31,337.8ZM260.21,55.2a5.47,5.47,0,0,0-5.46,5.46V332.09a5.47,5.47,0,0,0,5.46,5.46h193.1a5.47,5.47,0,0,0,5.46-5.46V60.66a5.47,5.47,0,0,0-5.46-5.46Z" style="fill:#ebebeb"></path><path d="M421.7,376.23l-.45-101.11-9.83-12.68L406.87,229,401,218.49l-3.17-23.4-5.37,10.66-3,64-3-7.33-2.42-24.9-4.86,8L373,247.84l-3.54,52.89L279.3,317.17l-18.79-24.56-7.64-47.86L245,232.26l-2.41-23.07-7.57,4v24.34l-6.44,5.66-2.75,49.41-8.08,17.08-2.3-30.53s-6.19-7.56-7.55-9.39-9.18-35-8-37.51-1.69-24-1.69-24l-7.8,7.14v35.69l-8.14,3.15L181,269.77l-20.76,5.13-3.34-23.84h-9.26l-2.9,13.58-8.43-.08L123,279.16l-11-32.87-11.15,7.92-8-28.47-8.44,16.69-3.12,54.12-4.33.77-2-11.66-8.11,11.66v78.91Z" style="fill:#f5f5f5"></path><path d="M238,140.64H188.25a7.94,7.94,0,0,1,.23-15.88,8.16,8.16,0,0,1,2.28.33,16.39,16.39,0,0,1-.18-2.44,16.84,16.84,0,0,1,16.83-16.83,17.52,17.52,0,0,1,3.1.29,14.7,14.7,0,0,1,27.27,7.44H238a13.56,13.56,0,1,1,0,27.11Z" style="fill:#f5f5f5"></path><path d="M390.47,133.56H371.75a3,3,0,0,1,.08-6,3,3,0,0,1,.86.12,6.86,6.86,0,0,1-.07-.92,6.34,6.34,0,0,1,6.33-6.33,6.45,6.45,0,0,1,1.17.11,5.53,5.53,0,0,1,10.26,2.8h.09a5.1,5.1,0,1,1,0,10.19Z" style="fill:#f5f5f5"></path><path d="M127.59,162H100.51a4.32,4.32,0,0,1,.12-8.64,4.23,4.23,0,0,1,1.24.18,9.68,9.68,0,0,1-.1-1.33,9.16,9.16,0,0,1,9.16-9.15,8.57,8.57,0,0,1,1.69.16,8,8,0,0,1,14.83,4h.14a7.38,7.38,0,0,1,0,14.75Z" style="fill:#f5f5f5"></path><path d="M303.29,150.81H276.21a4.32,4.32,0,0,1,.12-8.64,4.23,4.23,0,0,1,1.24.19,9.8,9.8,0,0,1-.1-1.33,9.16,9.16,0,0,1,9.16-9.16,9.4,9.4,0,0,1,1.69.16,8,8,0,0,1,14.83,4h.14a7.38,7.38,0,0,1,0,14.75Z" style="fill:#f5f5f5"></path><path d="M74,348.74l15.86-4.83,3.57-66.22,10.82-11.45L108,209.46l9.72-16.72,4.52,13,7.38,20.58,2.46,20.18,4.19,18,9,21.59,8.12-11.07s4.42-11,6.53-12.39,10.78-2.64,10.78-2.64l12,17.64v13.72l12.31,10,7.57,11.63c3.32,5.08,6.43,14.14,12,14.33,7.61.26,17.37-20.69,21-29.35,2.88-6.77,5.22-14.11,8.61-20.3,7.95-14.51,21.61-22.91,24.71-41.23q4.81,6.78,9.61,13.57c.83,1.17,1.8,2.42,2.93,2.34s1.8-1.13,2.53-2.15c4.84-6.68,9.82-13.66,12.39-22.82.81-2.86,1.37-5.91,2.4-8.61,1.48-3.89,3.82-6.8,5.92-10,8.06-12.14,12.69-28.48,17.13-44.38,9.19,15.72,24.76.76,28.89,26.13,1.62,10,3.52,19.78,5.87,29.42a399.12,399.12,0,0,0,37.11,96.34,366.29,366.29,0,0,0,20.36,33.08Q420.09,358,426.33,366c2.54,3.25,10.34,16.24,13.56,16.24H56.7Z" style="fill:#ebebeb"></path><path d="M86.32,382.62l16.42-34.42s7.59-.12,9.2-2.57,6-8.39,11.11-16.6,13.45-23.92,13.45-23.92l10.68,5.43s6.33,22.37,7.92,27.81,6.76,17.52,6.76,17.52l15.28,7.25s1.45-12.69,5.92-21.15,11.22-23.57,11.22-23.57l6.3-29.25,8.27-10.56L217,295s5.28,8.56,6.12,13.27,3,18.11,4.27,20.77,7.7,18.49,7.7,18.49l4,9,16.33.6s1.56-3.4,4.23-9.56,4.37-13.53,5.7-15.58,6-23.68,6-23.68l6-7.38,23.8,56.8s23.29,10.62,28,8.33,7.1-.47,11.46-5.3,17.56-58,18.08-61,2.11-2.54,7.65-7.62,8.35-9.53,8.52-6.39,6.67,23.1,7.18,28.83,2.18,14.5,2.73,20.69a49.73,49.73,0,0,0,4.12,15.6c1.58,3.28,12.8,31.84,12.8,31.84Z" style="fill:#e0e0e0"></path></g><g id="freepik--Shadow--inject-1"><ellipse id="freepik--path--inject-1" cx="250" cy="416.24" rx="193.89" ry="11.32" style="fill:#f5f5f5"></ellipse></g><g id="freepik--character-2--inject-1"><g id="freepik--group--inject-1"><path d="M297.75,261.68l-9.49.93a11.28,11.28,0,0,0-3.51-1.3c-1.29-.05-5.86.42-5.72.81s1.63,5,2.84,5.8,6.42.34,6.54-.15a10.76,10.76,0,0,1,.36-1.17l9.27-1.14Z" style="fill:#eec1bb"></path><path d="M331,253.05s-2.77,2.27-6.32,4.9c-4.7,3.49-10.74,7.62-13.45,8-4.75.6-18.8.75-18.8.75l-1.08-5s19.49-4.64,20.87-5.29,8.2-11.52,8.2-11.52l3.2,2.48Z" style="fill:#263238"></path><path d="M331,253.05s-2.77,2.27-6.32,4.9c-1.63-3.71-2-8.39-1.06-10.63Z" style="opacity:0.2;isolation:isolate"></path><path d="M400.73,392.9l7.06.11a.51.51,0,0,1,.49.41l1.06,5.18a.86.86,0,0,1-.68,1,.59.59,0,0,1-.19,0c-2.28-.07-3.94-.24-6.8-.28-1.77,0-7.1.07-9.53,0s-2.72-2.45-1.72-2.65c4.49-.91,7.88-2.21,9.33-3.47A1.36,1.36,0,0,1,400.73,392.9Z" style="fill:#263238"></path><path d="M409.36,393.26h-9.61S379.2,352.19,376,341.72,367.15,305,367.15,305h0c-.19,0-2.26.24-5.43.63-11.56,1.42-37.79,5.11-40.91,9.63-4,5.81-15.71,48-15.71,48l-8.23-5.15s5.94-35.34,11.66-50.56c5.25-13.95,41.37-17.92,41.94-19.65.73-2.21-1.28-10.07-1.28-10.07l26.57-12.36S383,278,384.51,282.29c4.19,12.23,7.1,45,7.82,50.9C393.69,344.45,409.36,393.26,409.36,393.26Z" style="fill:#FCFB00"></path><path d="M297.84,359.39l6.24,3.3a.51.51,0,0,1,.25.58l-1.4,5.11a.86.86,0,0,1-1.06.59l-.18-.07c-2-1.1-3.4-2-5.94-3.34-1.56-.82-6.35-3.15-8.51-4.29s-1.31-3.41-.33-3.14c4.42,1.23,8,1.6,9.9,1.14A1.38,1.38,0,0,1,297.84,359.39Z" style="fill:#263238"></path><path d="M361.71,305.63c.45-2.09.68-3.42.68-3.42-7.54-5.84-6.69-12.66-6.69-12.66,3.31,3.9,10.8,5.45,10.8,5.45l.64,10C367,305,364.88,305.24,361.71,305.63Z" style="opacity:0.2;isolation:isolate"></path><polygon points="376.69 268.74 375.26 265.7 349.96 278.3 351.69 280.94 376.69 268.74" style="fill:#263238"></polygon><polygon points="376.69 268.74 375.26 265.7 349.96 278.3 351.69 280.94 376.69 268.74" style="fill:#fff;opacity:0.2"></polygon><path d="M357.25,274.75l1.3,2.73a.41.41,0,0,1-.18.56l-4,1.77a.38.38,0,0,1-.48-.19L352.47,277a.42.42,0,0,1,.17-.59l4.12-1.84A.38.38,0,0,1,357.25,274.75Z" style="fill:#fff"></path><polygon points="362.39 272.11 363.98 275.81 365.29 275.43 363.54 271.53 362.39 272.11" style="fill:#FCFB00"></polygon><polygon points="372.51 267.07 374.39 270.61 375.31 270.34 373.32 266.66 372.51 267.07" style="fill:#FCFB00"></polygon><polygon points="350.9 277.83 352.69 281.33 352.08 281.9 349.96 278.3 350.9 277.83" style="fill:#FCFB00"></polygon><path d="M374.2,265.2l-25.14,11.67a1.75,1.75,0,0,1-.67.17,1.76,1.76,0,0,1-1.55-.78c-1.19-1.75-4.1-5.78-7.74-10.49-5.65-7.31-13.08-16.26-18.7-20.93a35.09,35.09,0,0,1,15.77-9.5c18.61-4.86,28.75,2.62,39.08,27.13A2.11,2.11,0,0,1,374.2,265.2Z" style="fill:#263238"></path><polygon points="348.07 277.02 349.07 278.64 376.5 266.24 375.31 263.93 348.07 277.02" style="fill:#263238"></polygon><polygon points="348.07 277.02 349.07 278.64 376.5 266.24 375.31 263.93 348.07 277.02" style="opacity:0.2;isolation:isolate"></polygon><path d="M365.28,265.47c-.63,2.44-10.5,8.11-16.89,11.57a1.76,1.76,0,0,1-1.55-.78c-1.19-1.75-4.1-5.78-7.74-10.49C343.63,262,350,255.56,350,255.56l-1.42-11.51,11-2.33S366.23,261.85,365.28,265.47Z" style="opacity:0.2;isolation:isolate"></path><path d="M341.33,234a13.15,13.15,0,0,1-2.64,5.23l-2.94.34-1.32,2.16-1.76-1.8-2.11,0a4.55,4.55,0,0,0,1.23-3.81,4.62,4.62,0,0,0-.18-.71,9.75,9.75,0,0,0-2.41-3.55l1.81-5.1.12-.34,1.63-4.61A40.36,40.36,0,0,0,336,229l.36.58C337.8,231.75,339.47,233.53,341.33,234Z" style="fill:#eec1bb"></path><path d="M340.34,271.88l-7.65,5.68a11.09,11.09,0,0,0-3.67.7c-1.14.62-4.82,3.37-4.49,3.64s4,3.46,5.42,3.5,5.68-3,5.52-3.49-.29-1.19-.29-1.19l7.36-5.76Z" style="fill:#eec1bb"></path><path d="M352.69,234.88c9-.29,10,24.72,7.87,27.36s-21.46,16.58-21.46,16.58l-4.46-3.89s19.2-16.55,18.47-18.58S348,246,348.37,241.71,350.67,235,352.69,234.88Z" style="fill:#263238"></path><path d="M336.43,229.19s0,.13,0,.36c-.15,1.24-.94,5.35-4.6,6.52a4.62,4.62,0,0,0-.18-.71,9.75,9.75,0,0,0-2.41-3.55l1.81-5.1a28,28,0,0,1,5,2.26Z" style="opacity:0.2;isolation:isolate"></path><path d="M329.66,208.4a4.74,4.74,0,0,0-5.89,1.07c-2.6,3-3.75,7.5-.26,10s11.65-6.73,11.65-6.73Z" style="fill:#263238"></path><path d="M339.56,221c-1.86,5.45-2.69,8.73-6.28,10.78-5.4,3.12-11.54-1.32-11.35-7.23.19-5.31,3.24-13.33,9.27-14A7.87,7.87,0,0,1,339.56,221Z" style="fill:#eec1bb"></path><path d="M330.72,220.18c-.09.46-.46.75-.76.67s-.43-.52-.31-1,.47-.75.76-.67S330.85,219.72,330.72,220.18Z" style="fill:#263238"></path><path d="M325.62,218.77c-.09.45-.47.74-.76.66s-.43-.51-.31-1,.47-.75.76-.67S325.74,218.34,325.62,218.77Z" style="fill:#263238"></path><path d="M327.18,219.44A16.63,16.63,0,0,1,324,222.7a2.76,2.76,0,0,0,2.06,1Z" style="fill:#d4827d"></path><path d="M330,217.89a.28.28,0,0,1,.28-.06,2.22,2.22,0,0,0,2-.26.27.27,0,0,1,.38,0,.27.27,0,0,1,0,.39h0a2.74,2.74,0,0,1-2.48.35.27.27,0,0,1-.18-.34h0A.75.75,0,0,1,330,217.89Z" style="fill:#263238"></path><path d="M331.29,225.38h0a4.25,4.25,0,0,0-3.89.29.16.16,0,0,0,0,.21.14.14,0,0,0,.19,0h0a4,4,0,0,1,3.61-.25.14.14,0,0,0,.18-.07v0a.14.14,0,0,0-.07-.18Z" style="fill:#263238"></path><path d="M326.42,217.08a.29.29,0,0,1,0,.16.29.29,0,0,1-.33.2h0a2.74,2.74,0,0,1-1.89-1.66.26.26,0,0,1,.18-.34h0a.27.27,0,0,1,.34.17h0a2.24,2.24,0,0,0,1.52,1.29A.3.3,0,0,1,326.42,217.08Z" style="fill:#263238"></path><path d="M344.5,213.69c-1.84-3.46-12.93-7.41-14.84-5.29a2.17,2.17,0,0,0-3,1.06,6.1,6.1,0,0,0-.24,3.52,12.16,12.16,0,0,1,1.31-.19c1.89,3,5.28,5.42,7.29,6.84a8.53,8.53,0,0,0,2,5.56c-1.28,4.84-1,6.65-1,6.65C345.48,230,346.21,216.91,344.5,213.69Z" style="fill:#263238"></path><path d="M340.37,227.77a5.47,5.47,0,0,1-3.93,1.41c-1.92-.1-2.27-2-1.22-3.46.94-1.31,3.08-2.9,4.75-2A2.44,2.44,0,0,1,340.37,227.77Z" style="fill:#eec1bb"></path><path d="M329.36,208.7s2.13-6.2,9.74-3.1c0,0-5.51-1.51-6.89,3.1Z" style="fill:#263238"></path><path d="M329.9,210.67a.26.26,0,0,1-.22-.13c-.07-.12-1.83-3.19-.7-5.24.58-1.07,1.83-1.65,3.69-1.72a.25.25,0,0,1,.26.24.26.26,0,0,1-.24.26c-1.68.06-2.78.56-3.27,1.46-1,1.81.68,4.72.69,4.75a.26.26,0,0,1-.09.35A.27.27,0,0,1,329.9,210.67Z" style="fill:#263238"></path><path d="M346.85,222.73h0a.25.25,0,0,1-.24-.25c.06-6.81-4.31-9.32-4.36-9.34a.26.26,0,0,1-.1-.34.25.25,0,0,1,.34-.1s4.68,2.66,4.62,9.78A.25.25,0,0,1,346.85,222.73Z" style="fill:#263238"></path><path d="M331.38,241.72l3.89,3.8s.24,5.24,7.27,6.13,22.47-11.58,28.59-8.51l1.38-3.06-3.46-2.48s-4.64-1.38-10.28,2.67-15.79,13.85-22.34,5l2-3.6-.43-1.05-1.54,1.58-2.9.6-.85-1.88Z" style="fill:#FCFB00"></path><path d="M339.06,232.86c.27,1.17.19,3.58-3.57,6.45l-1.1,2-1-1.72c-2-.84-1.21-4.28-1.94-4.05L328,239.85a37.44,37.44,0,0,0,2.05,6.26l3.31-4.89,1.06.93,1.22-1.51,4,2.5s4.9-4.95,4.37-9.76l-4.46-1.06A.44.44,0,0,0,339.06,232.86Z" style="fill:#263238"></path><path d="M339.06,232.86c.27,1.17.19,3.58-3.57,6.45l-1.1,2-1-1.72c-2-.84-1.21-4.28-1.94-4.05L328,239.85a37.44,37.44,0,0,0,2.05,6.26l3.31-4.89,1.06.93,1.22-1.51,4,2.5s4.9-4.95,4.37-9.76l-4.46-1.06A.44.44,0,0,0,339.06,232.86Z" style="fill:#fff;opacity:0.2;isolation:isolate"></path><polygon points="335.27 273.32 340.77 278.64 339.1 279.46 333.52 274.89 335.27 273.32" style="fill:#263238"></polygon><polygon points="335.27 273.32 340.77 278.64 339.1 279.46 333.52 274.89 335.27 273.32" style="fill:#fff;opacity:0.2;isolation:isolate"></polygon><polygon points="292.84 260.55 293.68 267.61 291.85 267.25 290.18 261.24 292.84 260.55" style="fill:#263238"></polygon><polygon points="292.84 260.55 293.68 267.61 291.85 267.25 290.18 261.24 292.84 260.55" style="fill:#fff;opacity:0.2;isolation:isolate"></polygon></g></g><g id="freepik--Flag--inject-1"><path d="M317.33,129.31v57.36a28.28,28.28,0,0,1-4.56,3.07c-11,5.95-22,1.56-33-2.94-12.72-5.2-25.45-10.54-38.17-.13V129.31c11-9,21.89-6.26,32.84-2,12.41,4.81,24.83,11.61,37.24,5.62A27.62,27.62,0,0,0,317.33,129.31Z" style="fill:#FCFB00"></path><g style="opacity:0.6000000000000001"><path d="M281.4,176.13v5.43l-3.31-1.35v-5.38a29.11,29.11,0,0,1-9.88-7.66c.6-1.45,1.21-2.89,1.81-4.32a25.78,25.78,0,0,0,8.07,6.74v-9.7c-4.48-3.19-9.28-6.54-9.28-13.24,0-4.93,3-8.41,9.28-6.54v-5.47L281.4,136v5.38a27.64,27.64,0,0,1,8.19,6c-.55,1.46-1.11,2.9-1.66,4.35a26.88,26.88,0,0,0-6.53-5.13v9.8c4.48,3.2,9.36,6.47,9.36,13.16C290.76,174.5,287.73,178,281.4,176.13ZM278.09,154V145.4c-2.86-.64-4.07.66-4.07,2.79C274,150.52,275.75,152.25,278.09,154Zm7.5,14.2c0-2.37-1.77-4.16-4.19-6v8.58C284.34,171.51,285.59,170.31,285.59,168.23Z" style="fill:#fff"></path></g><path d="M241.77,222.47h0a1.58,1.58,0,0,1-1.58-1.58V126.56a1.59,1.59,0,0,1,1.58-1.59h0a1.59,1.59,0,0,1,1.58,1.59v94.33A1.58,1.58,0,0,1,241.77,222.47Z" style="fill:#2e353a"></path><path d="M312.77,189.74c-11,5.95-22,1.56-33-2.94-3.95-5.86,1.1-16.13-.33-28.81-1.52-13.59-8-23.46-5-30.69,12.41,4.81,24.83,11.61,37.24,5.62C306.46,156,315.22,155.75,312.77,189.74Z" style="opacity:0.2;isolation:isolate"></path></g><g id="freepik--Mountain--inject-1"><path d="M390,395.07s-3.68-.2-4.05-10.26,6.12-12.75,11.11-11.52c0,0-.73-7.16,2.5-6.9s3,5.05,3,5.05,1.1-10.16,5.51-10.16,0,12,0,12,6.11-2.93,8.35,0-2.81,6.37-2.81,6.37,7.92,2.58,4.61,10.79c0,0,5.52.86,7.06,4.53,0,0-.44-7.41,1.54-6.91s1.55,7,1.55,7,3.31-7.15,6.18-4.62-1.33,8.57-1.33,8.57,5.52-2.67,6.4.87-3.09,4.88-3.09,4.88,5.74-1.33,5.74,5.25c0,0,11-1,13.68,4.86H390.21Z" style="fill:#263238"></path><path d="M390,395.07s-3.68-.2-4.05-10.26,6.12-12.75,11.11-11.52c0,0-.73-7.16,2.5-6.9s3,5.05,3,5.05,1.1-10.16,5.51-10.16,0,12,0,12,6.11-2.93,8.35,0-2.81,6.37-2.81,6.37,7.92,2.58,4.61,10.79c0,0,5.52.86,7.06,4.53,0,0-.44-7.41,1.54-6.91s1.55,7,1.55,7,3.31-7.15,6.18-4.62-1.33,8.57-1.33,8.57,5.52-2.67,6.4.87-3.09,4.88-3.09,4.88,5.74-1.33,5.74,5.25c0,0,11-1,13.68,4.86H390.21Z" style="fill:#fff;opacity:0.30000000000000004;isolation:isolate"></path><polygon points="416.78 414.88 384.45 335.68 363.49 335.68 346.98 304.71 306.46 296.35 288.44 266.78 267.43 266.78 258.42 203.58 229.15 205.03 219.4 243.84 199.88 245.42 173.57 321.06 145.22 329.72 125.58 363.3 98.34 365.65 76.8 414.88 416.78 414.88" style="fill:#2e353a"></polygon><polygon points="416.78 414.88 384.45 335.68 363.49 335.68 346.98 304.71 306.46 296.35 288.44 266.78 267.43 266.78 258.42 203.58 229.15 205.03 219.4 243.84 199.88 245.42 173.57 321.06 145.22 329.72 125.58 363.3 98.34 365.65 76.8 414.88 416.78 414.88" style="fill:#fff;opacity:0.4"></polygon><polygon points="199.88 245.42 229.15 252.8 236.16 332.16 260.68 338.55 270.06 414.88 235.16 414.88 220.15 332.16 173.57 321.06 199.88 245.42" style="fill:#fff;opacity:0.2"></polygon><polygon points="145.22 329.72 208.14 334.13 211.14 414.88 177.69 414.88 169.45 368.55 148.6 366.18 136.59 398.74 136.59 366.18 125.58 363.3 145.22 329.72" style="fill:#fff;opacity:0.2"></polygon><polygon points="98.34 365.65 125.58 370.93 128.09 414.88 76.8 414.88 98.34 365.65" style="fill:#fff;opacity:0.2"></polygon><polygon points="229.15 205.03 229.15 245.42 239.66 250 243.16 326.65 260.68 329.72 256.67 267.38 267.43 266.78 258.42 203.58 229.15 205.03" style="fill:#fff;opacity:0.2"></polygon><polygon points="288.44 266.78 267.43 275.48 270.06 329.72 304.7 336.67 295.7 301.73 306.46 296.35 288.44 266.78" style="fill:#fff;opacity:0.2"></polygon><polygon points="346.98 304.71 306.46 309.23 314.49 336.67 344.23 345.32 358.92 414.88 350.39 352.45 363.49 335.68 346.98 304.71" style="fill:#fff;opacity:0.2"></polygon><path d="M335,347.7c-.75-.48-35.27-4.75-35.27-4.75l-25.52,3.7v68.23h76.21Z" style="fill:#fff;opacity:0.2"></path><polygon points="164.61 373.3 148.85 371.45 138.34 414.88 168.36 414.88 164.61 373.3" style="fill:#fff;opacity:0.2"></polygon><polygon points="384.45 335.68 358.92 352.45 366.75 414.88 416.78 414.88 384.45 335.68" style="fill:#fff;opacity:0.2"></polygon><path d="M69.77,414.88H92.83a17.4,17.4,0,0,0,1.91-2.3s-8.07-29.59-14.63-39,4,21.18,4,21.18S74.88,375.32,72,375.94c-2.48.53,6.34,16.18,8.84,20.52-2.2-3.71-9.43-15.28-12.9-13-4.13,2.75,12,20.05,12,20.05s-14.5-10.87-16-7.84,14,12.68,14,12.68-14.75-3-16.29,2.21C60.92,413.48,65.51,414.52,69.77,414.88Z" style="fill:#FCFB00"></path><path d="M69.77,414.88H92.83a17.4,17.4,0,0,0,1.91-2.3s-8.07-29.59-14.63-39,4,21.18,4,21.18S74.88,375.32,72,375.94c-2.48.53,6.34,16.18,8.84,20.52-2.2-3.71-9.43-15.28-12.9-13-4.13,2.75,12,20.05,12,20.05s-14.5-10.87-16-7.84,14,12.68,14,12.68-14.75-3-16.29,2.21C60.92,413.48,65.51,414.52,69.77,414.88Z" style="fill:#fff;opacity:0.2;isolation:isolate"></path><path d="M94.38,410.42a.5.5,0,0,1-.44-.25c-.16-.3-16.58-29.86-34.87-38.74a.5.5,0,0,1-.23-.67.51.51,0,0,1,.67-.23c18.57,9,35.14,38.85,35.31,39.15a.51.51,0,0,1-.2.68A.53.53,0,0,1,94.38,410.42Z" style="fill:#FCFB00"></path><path d="M57.45,371.6a1.94,1.94,0,1,0,1.22-2.46A1.94,1.94,0,0,0,57.45,371.6Z" style="fill:#FCFB00"></path><path d="M68.36,384.45a1.66,1.66,0,0,0,3.15-1.06,1.66,1.66,0,0,0-3.15,1.06Z" style="fill:#FCFB00"></path><path d="M73.8,377.53a1.66,1.66,0,1,0,1-2.1A1.66,1.66,0,0,0,73.8,377.53Z" style="fill:#FCFB00"></path><path d="M72.38,389.45a1.66,1.66,0,1,0,1.05-2.11A1.68,1.68,0,0,0,72.38,389.45Z" style="fill:#FCFB00"></path><circle cx="80.38" cy="384.24" r="1.66" transform="translate(-159.62 73.6) rotate(-25.87)" style="fill:#FCFB00"></circle><path d="M65.43,371a1.66,1.66,0,1,0,1-2.1A1.67,1.67,0,0,0,65.43,371Z" style="fill:#FCFB00"></path><path d="M61.88,379.18a.5.5,0,0,1-.49-.46.49.49,0,0,1,.45-.54l7-.58-2.36-7a.5.5,0,0,1,1-.32l2.77,8.22-8.32.69Z" style="fill:#FCFB00"></path><path d="M70,384.73a.5.5,0,0,1-.05-1l4.87-.51,0-6.22a.5.5,0,0,1,.5-.5.48.48,0,0,1,.5.5l0,7.12-5.77.61Z" style="fill:#FCFB00"></path><path d="M80.76,389.83l-6.83-.42a.5.5,0,1,1,.06-1l5.79.35.1-4.54a.51.51,0,0,1,.51-.49.5.5,0,0,1,.49.51Z" style="fill:#FCFB00"></path><path d="M60,379.25a1.66,1.66,0,1,0,1-2.1A1.66,1.66,0,0,0,60,379.25Z" style="fill:#FCFB00"></path><path d="M82.79,414.88a9.5,9.5,0,0,1-.32-1.1s-6.47.25-7-1.62,7-3.82,7-3.82-9.22-4.73-7.39-6.93S84,403.62,84,403.62,75.72,394,77.73,392s9,6.72,9,6.72-6.86-14.54-4.23-15.12,8.5,14,8.5,14-2.63-19.2,0-19.53,4,21.64,4,21.64,1-20.76,3.11-19.61,0,22.83,0,22.83,3.94-18.49,6.09-16.4-3.81,21.14-3.81,21.14,3.31-8.42,4.87-5.81c1,1.68-1.85,8.45-4,13.05Z" style="fill:#FCFB00"></path><path d="M82.79,414.88a9.5,9.5,0,0,1-.32-1.1s-6.47.25-7-1.62,7-3.82,7-3.82-9.22-4.73-7.39-6.93S84,403.62,84,403.62,75.72,394,77.73,392s9,6.72,9,6.72-6.86-14.54-4.23-15.12,8.5,14,8.5,14-2.63-19.2,0-19.53,4,21.64,4,21.64,1-20.76,3.11-19.61,0,22.83,0,22.83,3.94-18.49,6.09-16.4-3.81,21.14-3.81,21.14,3.31-8.42,4.87-5.81c1,1.68-1.85,8.45-4,13.05Z" style="fill:#fff;opacity:0.4;isolation:isolate"></path><path d="M413,414.44s4.85-11.84,4.06-14.28-4.45,6.23-4.45,6.23,2-20.28-1.18-21.64-2.31,17.39-2.31,17.39-5.09-28-9.94-27.49,5.92,27.83,5.92,27.83-6.76-12.66-9.95-11.06,7.39,14.36,7.39,14.36-5.44-3.64-6.2-1.66S406.64,413.26,413,414.44Z" style="fill:#263238"></path><path d="M413,414.44s4.85-11.84,4.06-14.28-4.45,6.23-4.45,6.23,2-20.28-1.18-21.64-2.31,17.39-2.31,17.39-5.09-28-9.94-27.49,5.92,27.83,5.92,27.83-6.76-12.66-9.95-11.06,7.39,14.36,7.39,14.36-5.44-3.64-6.2-1.66S406.64,413.26,413,414.44Z" style="fill:#fff;opacity:0.2;isolation:isolate"></path><path d="M413,414.44s11.61,1.11,13.28-.19-6.08-1.69-6.08-1.69,16.26-4.16,16.4-7-14.1,3.13-14.1,3.13,20.25-11.86,18.46-15.45-19.85,12.43-19.85,12.43,7.88-8.8,5.74-10.82-9,9.77-9,9.77,1.28-5.23-.47-5.26S412.14,409.16,413,414.44Z" style="fill:#263238"></path><path d="M413,414.44s11.61,1.11,13.28-.19-6.08-1.69-6.08-1.69,16.26-4.16,16.4-7-14.1,3.13-14.1,3.13,20.25-11.86,18.46-15.45-19.85,12.43-19.85,12.43,7.88-8.8,5.74-10.82-9,9.77-9,9.77,1.28-5.23-.47-5.26S412.14,409.16,413,414.44Z" style="fill:#fff;opacity:0.2;isolation:isolate"></path><path d="M413,414.44s15.75-8.31,16.59-11-8,2.8-8,2.8,14.77-17.07,12.73-20.34-13.18,14.27-13.18,14.27,13.28-28.63,8.54-31.23-12.39,29-12.39,29,1.95-15.78-2-16.36-2.47,17.71-2.47,17.71-2.6-6.76-4.55-5.45S408,409.29,413,414.44Z" style="fill:#263238"></path><path d="M413,414.44s15.75-8.31,16.59-11-8,2.8-8,2.8,14.77-17.07,12.73-20.34-13.18,14.27-13.18,14.27,13.28-28.63,8.54-31.23-12.39,29-12.39,29,1.95-15.78-2-16.36-2.47,17.71-2.47,17.71-2.6-6.76-4.55-5.45S408,409.29,413,414.44Z" style="fill:#fff;opacity:0.4;isolation:isolate"></path><path d="M238.64,331.79,264.9,337,267.43,359l1.72-22.84,5.19-4.33s-7.11-10.88-10.14-9.5c-3.94,1.8-6.86-8.06-11.23-5.72-1.54.82-.78,3.45-1.75,4.52-1.6,1.75-3.64,1.41-5.57,2.37C241.86,325.35,240.51,327.85,238.64,331.79Z" style="fill:#263238"></path><path d="M270.44,328.75s-2.34-13.6-.72-15.59,1.9,7.42,1.9,7.42,5.44-19.65,8.92-19.75-4.14,17-4.14,17,14.88-24.3,19.2-22S280,319.64,280,319.64s10.88-9.36,13.28-6.72-12.08,10.73-12.08,10.73,6.38-1.44,6.38.69S276.83,330,270.44,328.75Z" style="fill:#FCFB00"></path><path d="M270.44,328.75s-2.34-13.6-.72-15.59,1.9,7.42,1.9,7.42,5.44-19.65,8.92-19.75-4.14,17-4.14,17,14.88-24.3,19.2-22S280,319.64,280,319.64s10.88-9.36,13.28-6.72-12.08,10.73-12.08,10.73,6.38-1.44,6.38.69S276.83,330,270.44,328.75Z" style="fill:#fff;opacity:0.2;isolation:isolate"></path><path d="M268.3,326.81s-11.18-2-12.26-3.84,6.27.62,6.27.62-13.66-9.75-12.75-12.47,12,8,12,8-14.6-18.37-11.63-21.07,14,18.76,14,18.76-4.17-11.06-1.45-12.16S267.4,317,267.4,317s.69-5.35,2.33-4.74S271,322.21,268.3,326.81Z" style="fill:#FCFB00"></path><path d="M268.3,326.81s-11.18-2-12.26-3.84,6.27.62,6.27.62-13.66-9.75-12.75-12.47,12,8,12,8-14.6-18.37-11.63-21.07,14,18.76,14,18.76-4.17-11.06-1.45-12.16S267.4,317,267.4,317s.69-5.35,2.33-4.74S271,322.21,268.3,326.81Z" style="fill:#fff;opacity:0.2;isolation:isolate"></path><path d="M267.46,325.32s-10.79-10.81-10.6-13.65,6.45,5.51,6.45,5.51-7.61-21.26-4.52-23.57,7.13,18.06,7.13,18.06-2-31.49,3.31-32.19,1.1,31.48,1.1,31.48,3.88-15.41,7.73-14.55S274,313.82,274,313.82s4.86-5.37,6.21-3.44S274,322.34,267.46,325.32Z" style="fill:#FCFB00"></path><path d="M267.46,325.32s-10.79-10.81-10.6-13.65,6.45,5.51,6.45,5.51-7.61-21.26-4.52-23.57,7.13,18.06,7.13,18.06-2-31.49,3.31-32.19,1.1,31.48,1.1,31.48,3.88-15.41,7.73-14.55S274,313.82,274,313.82s4.86-5.37,6.21-3.44S274,322.34,267.46,325.32Z" style="fill:#fff;opacity:0.4;isolation:isolate"></path><path d="M256.49,335.36l12.66,2.44,17.79-2.12s-8.32-10.1-10.73-9c-3.15,1.43-5.47-6.42-8.95-4.56-1.23.66-.63,2.76-1.4,3.6-1.28,1.4-2.9,1.13-4.44,1.9C258.4,329.12,258,332.22,256.49,335.36Z" style="fill:#263238"></path><path d="M256.49,335.36,264.9,337,267.43,359l1.72-21.16,17.79-2.12s-8.32-10.1-10.73-9c-3.15,1.43-5.47-6.42-8.95-4.56-1.23.66-.63,2.76-1.4,3.6-1.28,1.4-2.9,1.13-4.44,1.9C258.4,329.12,258,332.22,256.49,335.36Z" style="fill:#fff;opacity:0.2"></path></g><g id="freepik--character-1--inject-1"><path d="M167,247.64l3.81,3.6,2.73.57,3.91,3.7s-1.84,2.75-3.75,2-4-3.8-4-3.8l-4.7-4Z" style="fill:#ebb376"></path><path d="M169.82,249.77l-2.26,2.76s-2.07-1.76-4.69-4.2c-4-3.72-9.32-9-10.55-12-2-5-.3-20.06-.3-20.06l8.91-.05c-.28,5.62-4.06,12.34-4.2,16.69-.08,2.68,4.92,8.47,8.77,12.51C167.88,247.93,169.82,249.77,169.82,249.77Z" style="fill:#FCFB00"></path><polygon points="169.51 248 170.78 249.97 167.85 253.06 165.69 252.03 169.51 248" style="fill:#FCFB00"></polygon><polygon points="169.51 248 170.78 249.97 167.85 253.06 165.69 252.03 169.51 248" style="fill:#fff;opacity:0.6000000000000001"></polygon><path d="M165.5,245.42a18.46,18.46,0,0,1-2.63,2.91c-4-3.72-9.32-9-10.55-12-2-5-.3-20.06-.3-20.06l8.91-.05c-.28,5.62-4.06,12.34-4.2,16.69C156.65,235.59,161.65,241.38,165.5,245.42Z" style="opacity:0.2;isolation:isolate"></path><path d="M203,243.19h5.24l2.38-1.46H216s.55,3.26-1.33,4.05-5.54,0-5.54,0l-6.13.35Z" style="fill:#ebb376"></path><path d="M177.58,325.39a7.29,7.29,0,0,0-2.07-1.59h0s-2.09-2.82-2.15-10.37l-3.09-1.34a2.78,2.78,0,0,0-3.12.69,1.7,1.7,0,0,0-.27.39,18,18,0,0,0-.71,2.34,67.88,67.88,0,0,0-1.3,8.09l.59.09,1-5.05c.35-1.71,1.36.52,1.45,2.43s.59,4,4.36,4.69C176.67,326.53,178.53,326.64,177.58,325.39Z" style="fill:#263238"></path><path d="M174.15,301.13l-5.67,10.6s2.28,12,7,12.07l-2.32-11.34,6.4-9.11Z" style="fill:#ebb376"></path><path d="M118.15,369.29a7.16,7.16,0,0,0-1.93-1.75h0s-1.85-3-1.27-10.52l-3-1.6a2.79,2.79,0,0,0-3.16.43,1.56,1.56,0,0,0-.31.37,19.13,19.13,0,0,0-.9,2.27,66.08,66.08,0,0,0-2,7.95l.57.14,1.44-4.94c.49-1.68,1.31.62,1.24,2.54s.25,4.05,3.94,5C117.15,370.35,119,370.62,118.15,369.29Z" style="fill:#263238"></path><path d="M113.21,342.57l-3,12.35s1.26,12.19,6,12.62L114.86,356l3.59-10.8Z" style="fill:#ebb376"></path><path d="M177.39,228.38a55,55,0,0,0-6.21,3.52c-1.44.92-3,2-4.71,3.31h0a54.78,54.78,0,0,0-12.58,13.15l-19.32-8.78a109.66,109.66,0,0,1,8-14.47c1-1.55,2.12-3.09,3.28-4.56l.09-.12a17,17,0,0,1,22.34-3.8,42.44,42.44,0,0,1,3.48,2.46C180.13,225.71,177.39,228.38,177.39,228.38Z" style="fill:#FCFB00"></path><path d="M176.83,309.55l-6.47-1.89s14.72-28.33,12.31-31c-2.66-3-34-1.35-34-1.35-2.05,5-4.31,10.55-6.65,16.24-11.29,27.45-24.43,58.95-24.43,58.95l-6.15-1.53,17-79.84c-2.72-14.69,6-29.5,6-29.5l21.58,6.33-.23,4.43s39.85,6.76,40.15,22.33C196.21,280,176.83,309.55,176.83,309.55Z" style="fill:#263238"></path><path d="M148.71,275.27c-2.05,5-4.31,10.55-6.65,16.24a42.3,42.3,0,0,0-6.54-17.08,55.51,55.51,0,0,0-5-5.1c3.85,1.5,6.3-.09,6.3-.09-3.41-7.42-.76-15.12-.76-15.12C136.2,270.18,148.71,275.27,148.71,275.27Z" style="opacity:0.2;isolation:isolate"></path><polygon points="137.12 243.29 148.48 246.53 149.01 244.44 137.88 241.05 137.12 243.29"></polygon><polygon points="137.12 240.81 134.18 239.92 132.93 242.1 136.2 243.03 137.12 240.81"></polygon><polygon points="149.73 244.66 149.4 246.79 156.12 248.71 156.43 246.7 149.73 244.66"></polygon><path d="M177,224.54c3.67,4.28,5.54,11.76,8.42,15s21.1,3.25,21.1,3.25l.25,3.55s-17.32.91-22.2-1.29-14-14.36-14-14.36Z" style="fill:#FCFB00"></path><polygon points="205.06 241.73 207.33 242.28 207.33 246.54 205.06 247.28 205.06 241.73" style="fill:#FCFB00"></polygon><polygon points="205.06 241.73 207.33 242.28 207.33 246.54 205.06 247.28 205.06 241.73" style="fill:#fff;opacity:0.6000000000000001"></polygon><path d="M171.21,231.78l0,.12c-1.44.92-3,2-4.71,3.31a9.8,9.8,0,0,1,4.74-9.51A10.59,10.59,0,0,0,171.21,231.78Z" style="opacity:0.2;isolation:isolate"></path><path d="M182.17,207.33c0,.46-.12.84-.36.87s-.46-.34-.5-.79.12-.84.36-.86S182.13,206.88,182.17,207.33Z" style="fill:#263238"></path><path d="M181.57,206.58l.73-.46S182,207,181.57,206.58Z" style="fill:#263238"></path><path d="M181.19,208.6a11.63,11.63,0,0,0,1.54,2.36,1.53,1.53,0,0,1-1.49.58Z" style="fill:#d58745"></path><path d="M169.9,216.17l.18.14a8.57,8.57,0,0,0,3,1.43c3.13.71,5.26.27,6.65-1.15h0c1.94-2.13,2.41-5.89,2.11-10.42a17,17,0,0,0-1-5.28.25.25,0,0,1,0-.08c0-.06,0-.14-.08-.19a6.19,6.19,0,0,0-4.56-3.76,12.64,12.64,0,0,0-2.68-.29C164.63,196.52,163.11,211.16,169.9,216.17Z" style="fill:#ebb376"></path><path d="M170.08,216.31a8.37,8.37,0,0,0,3,1.31c3.13.7,5.26.16,6.65-1.28a8.83,8.83,0,0,1-5.61-.43A4.58,4.58,0,0,0,170.08,216.31Z" style="opacity:0.2;isolation:isolate"></path><path d="M180.8,200.83a9.28,9.28,0,0,1-5.34,8.88s-2.49,6.44-6.2,6.55c-5.06.15-9.55-7-7.83-14.37C163.66,192.37,178.06,191.53,180.8,200.83Z" style="fill:#263238"></path><path d="M170,194.29s5.9-1.52,9.18.84c3.82,2.76,5.28,5.63.79,10.1,0,0-9.94-3.17-13.24-2.48a36.29,36.29,0,0,0-5.65,1.67C160.35,197.87,166.68,193,170,194.29Z" style="fill:#263238"></path><path d="M179.4,205a.33.33,0,0,1-.3-.16.36.36,0,0,1,.1-.5,2.94,2.94,0,0,1,2.59-.09.35.35,0,0,1,.21.46.35.35,0,0,1-.46.21,2.24,2.24,0,0,0-1.94,0A.49.49,0,0,1,179.4,205Z" style="fill:#263238"></path><path d="M178.09,204.8a11.65,11.65,0,0,1-3.08-.43.25.25,0,0,1-.17-.31.26.26,0,0,1,.31-.17s4,1.17,6.41-.52a4.75,4.75,0,0,0,1.85-3.87,3.35,3.35,0,0,0-1.12-2.8c-3.45-3.12-13.61-1.56-13.71-1.54a.25.25,0,0,1-.29-.21.25.25,0,0,1,.21-.28c.42-.07,10.5-1.62,14.13,1.66a3.81,3.81,0,0,1,1.27,3.2,5.22,5.22,0,0,1-2.05,4.25A6.52,6.52,0,0,1,178.09,204.8Z" style="fill:#263238"></path><path d="M188.07,213.26a.27.27,0,0,1-.16-.06c-1.06-.88-4-.72-7.37-.54a7.12,7.12,0,0,1-5.85-2.43.24.24,0,0,1,0-.35.25.25,0,0,1,.35,0,6.85,6.85,0,0,0,5.44,2.24c3.63-.19,6.5-.35,7.71.65a.25.25,0,0,1-.16.45Z" style="fill:#263238"></path><path d="M185.83,196.27a.23.23,0,0,1-.16-.06c-5.24-4.51-15.51-1.71-15.62-1.68a.24.24,0,0,1-.3-.17.25.25,0,0,1,.17-.31c.43-.12,10.63-2.9,16.07,1.78a.25.25,0,0,1,0,.36A.24.24,0,0,1,185.83,196.27Z" style="fill:#263238"></path><path d="M171.88,194.29s-10.29-2.52-12.59,10.32,11.53,20.59,19.13,20.33,14.2-4.6,15.65-3.29c0,0-.79-1.72-5.14-1.06,0,0,5.38-.4,5.86-3.83,0,0-7.57,2.75-10.48,1.31l3.06-.15s-1.87-3.13-9-5.37a3.22,3.22,0,0,1-2.26-4.35Z" style="fill:#263238"></path><path d="M176.35,227.7A13.7,13.7,0,0,1,168,225c-7.34-5.47-8.47-17.54-8.48-17.66a.25.25,0,0,1,.5,0c0,.12,1.12,12,8.28,17.3,3.24,2.42,7.25,3.15,11.93,2.19a.25.25,0,0,1,.29.19.25.25,0,0,1-.19.3A19.48,19.48,0,0,1,176.35,227.7Z" style="fill:#263238"></path><path d="M178.42,207.92c0-1-.79-2.59-2.29-2.36s-2.4,4.07,1.43,4.91C178.11,210.59,178.44,209.93,178.42,207.92Z" style="fill:#ebb376"></path></g></svg>