<svg xmlns="http://www.w3.org/2000/svg" viewBox="0 0 500 500"><g id="freepik--background-simple--inject-12"><path d="M455,126.83C428.43,76.13,378,41,323.71,27.69,271.88,15,209.48,15.62,170.47,57.43c-25.69,27.53-36,65.86-58.65,95.59-11.27,14.78-25.37,21.54-40.14,31.88C35.7,210.11,9.23,250.68,15,296.56c9.7,76.71,79.68,117.91,150,122.54,92.94,6.11,159.22-6.31,215.52-42.29,29.25-18.69,58.41-40.87,76.26-71.56,27-46.41,25.89-104.95,8.43-154.78A178.75,178.75,0,0,0,455,126.83Z" style="fill:#FCFB00"></path><path d="M455,126.83C428.43,76.13,378,41,323.71,27.69,271.88,15,209.48,15.62,170.47,57.43c-25.69,27.53-36,65.86-58.65,95.59-11.27,14.78-25.37,21.54-40.14,31.88C35.7,210.11,9.23,250.68,15,296.56c9.7,76.71,79.68,117.91,150,122.54,92.94,6.11,159.22-6.31,215.52-42.29,29.25-18.69,58.41-40.87,76.26-71.56,27-46.41,25.89-104.95,8.43-154.78A178.75,178.75,0,0,0,455,126.83Z" style="fill:#fff;opacity:0.8"></path></g><g id="freepik--Floor--inject-12"><line x1="470.35" y1="452" x2="479" y2="452" style="fill:none;stroke:#263238;stroke-linecap:round;stroke-linejoin:round"></line><line x1="178.69" y1="452" x2="461.13" y2="452" style="fill:none;stroke:#263238;stroke-linecap:round;stroke-linejoin:round"></line><line x1="26" y1="452" x2="171.45" y2="452" style="fill:none;stroke:#263238;stroke-linecap:round;stroke-linejoin:round"></line></g><g id="freepik--Lights--inject-12"><path d="M19.39,50.38A120.69,120.69,0,0,0,38.67,59a204.44,204.44,0,0,0,20.26,6.12c3.41.93,6.88,1.6,10.31,2.41l5.2,1c1.73.34,3.46.69,5.21,1,3.48.56,6.95,1.19,10.46,1.61l5.25.7c1.75.24,3.51.38,5.26.58a417.47,417.47,0,0,0,42.28,2.23c14.12,0,28.23-.66,42.31-1.73A694,694,0,0,0,269,60.47c6.89-1.55,13.8-3,20.67-4.64s13.72-3.35,20.55-5.14S323.81,47,330.6,45.08l10.16-3,5.08-1.51,2.56-.76,1.28-.38.64-.19.32-.1c.1,0,.22-.1.31,0,5.09,2.65,10.22,5,15.44,7.23s10.49,4.29,15.82,6.21a277.8,277.8,0,0,0,32.58,9.62,217.63,217.63,0,0,0,33.58,5.07c5.65.43,11.32.47,17,.36a157.19,157.19,0,0,0,16.92-1.46" style="fill:none;stroke:#263238;stroke-linecap:round;stroke-linejoin:round"></path><path d="M47.65,61.77l-2.71-.87.11-4.85c1.77.56,3.52,1.15,5.3,1.68Z" style="fill:#263238"></path><path d="M52.05,55.33c-.92,3.11-2.54,2.51-4.55,1.85s-3.7-1-2.65-4.11c.73-2.15,3.57-4.79,5.11-6.16a.88.88,0,0,1,1.43.46C51.86,49.4,52.69,53.14,52.05,55.33Z" style="fill:#FCFB00"></path><path d="M48.94,52.93a1.59,1.59,0,0,1-1.86,1.21,1.56,1.56,0,0,1-.8-2,1.6,1.6,0,0,1,1.86-1.21A1.59,1.59,0,0,1,48.94,52.93Z" style="fill:#fff"></path><path d="M78,69.72l2.82.46L81.49,75c-1.91-.33-3.82-.6-5.72-1Z" style="fill:#263238"></path><path d="M74.3,76.57c.6-3.19,2.31-2.68,4.48-2.34s4,.5,3.44,3.7c-.35,2.26-2.89,5.25-4.38,6.81a1.08,1.08,0,0,1-1.69-.28C75.26,82.54,73.88,78.81,74.3,76.57Z" style="fill:#FCFB00"></path><path d="M77.93,78.63a1.64,1.64,0,0,1,1.76-1.45,1.73,1.73,0,1,1-1.76,1.45Z" style="fill:#fff"></path><polygon points="121.72 73.81 118.87 73.68 117.74 68.96 123.36 69.23 121.72 73.81" style="fill:#263238"></polygon><path d="M124.44,66.51c-.14,3.24-1.87,3-4,2.91s-3.87-.07-3.66-3.31c.15-2.28,2.26-5.49,3.46-7.23a.93.93,0,0,1,1.56.07C122.8,60.77,124.54,64.22,124.44,66.51Z" style="fill:#FCFB00"></path><path d="M120.77,65a1.62,1.62,0,0,1-1.53,1.65,1.57,1.57,0,0,1-1.32-1.79,1.61,1.61,0,0,1,1.52-1.63A1.57,1.57,0,0,1,120.77,65Z" style="fill:#fff"></path><path d="M153.09,75c.95,0,1.9,0,2.86,0l1.55,4.6c-1.92.09-3.84.09-5.76.11Z" style="fill:#263238"></path><path d="M150.8,82.44c0-3.24,1.73-3.11,3.92-3.13s3.94-.29,4,3c.08,2.29-1.83,5.73-3,7.55a1,1,0,0,1-1.68,0C152.89,88.08,150.83,84.73,150.8,82.44Z" style="fill:#FCFB00"></path><path d="M154.72,83.79A1.63,1.63,0,0,1,156.17,82a1.59,1.59,0,0,1,1.52,1.66,1.63,1.63,0,0,1-1.44,1.76A1.6,1.6,0,0,1,154.72,83.79Z" style="fill:#fff"></path><polygon points="196.87 71.59 194.03 71.85 192.18 67.35 197.81 66.83 196.87 71.59" style="fill:#263238"></polygon><path d="M198.48,64c.34,3.22-1.41,3.24-3.55,3.43s-3.86.5-4.15-2.72c-.21-2.28,1.39-5.81,2.33-7.68a1,1,0,0,1,1.58-.14C196,58.54,198.23,61.71,198.48,64Z" style="fill:#FCFB00"></path><path d="M194.58,63a1.57,1.57,0,0,1-1.27,1.83A1.73,1.73,0,1,1,194.58,63Z" style="fill:#fff"></path><polygon points="228.1 68.32 230.93 67.91 233.06 72.3 227.38 73.13 228.1 68.32" style="fill:#263238"></polygon><path d="M226.82,76c-.47-3.2,1.29-3.32,3.45-3.63s3.88-.72,4.39,2.47c.36,2.27-1.07,5.9-2,7.82a1,1,0,0,1-1.64.24C229.61,81.32,227.15,78.27,226.82,76Z" style="fill:#FCFB00"></path><path d="M230.86,76.82a1.59,1.59,0,0,1,1.2-1.9,1.62,1.62,0,0,1,1.72,1.48,1.58,1.58,0,0,1-1.2,1.9A1.61,1.61,0,0,1,230.86,76.82Z" style="fill:#fff"></path><path d="M271.17,59.74l-2.78.61-2.34-4.28c1.85-.34,3.69-.78,5.54-1.19Z" style="fill:#263238"></path><path d="M271.94,52c.68,3.16-1.05,3.4-3.15,3.87s-3.79.91-4.44-2.26c-.46-2.24.75-5.9,1.49-7.87a1,1,0,0,1,1.55-.34C268.86,46.86,271.45,49.73,271.94,52Z" style="fill:#FCFB00"></path><path d="M268,51.44a1.58,1.58,0,0,1-1.06,2A1.6,1.6,0,0,1,265.13,52a1.46,1.46,0,1,1,2.82-.58Z" style="fill:#fff"></path><polygon points="301.9 53.28 304.67 52.59 307.21 56.76 301.65 58.13 301.9 53.28" style="fill:#263238"></polygon><path d="M301.37,61.06c-.78-3.15,1-3.43,3.08-4s3.78-1.08,4.6,2c.57,2.22-.51,5.95-1.21,8a1,1,0,0,1-1.6.4C304.67,66.07,301.93,63.28,301.37,61.06Z" style="fill:#FCFB00"></path><path d="M305.46,61.47a1.59,1.59,0,0,1,1-2,1.61,1.61,0,0,1,1.85,1.3,1.58,1.58,0,0,1-1,2A1.62,1.62,0,0,1,305.46,61.47Z" style="fill:#fff"></path><path d="M344,40.85l-2.73.82-2.7-4.06,5.63-1.67A34,34,0,0,0,344,40.85Z" style="fill:#263238"></path><path d="M344.93,32.84A2.92,2.92,0,0,1,344,36a5.06,5.06,0,0,1-1.23.68c-.44.17-.93.31-1.45.46-2.06.62-3.7,1.25-4.61-1.85-.65-2.2.25-6,.82-8a1,1,0,0,1,1.53-.46c.4.35.88.77,1.38,1.25l.76.76c.3.24.75.46,1.08.71A5.78,5.78,0,0,1,344.93,32.84Z" style="fill:#FCFB00"></path><path d="M340.12,32.83a1.47,1.47,0,1,1-1.87-1.23A1.6,1.6,0,0,1,340.12,32.83Z" style="fill:#fff"></path><path d="M372.94,49.55l2.65,1.05-.32,4.85c-1.81-.67-3.6-1.4-5.4-2.11Z" style="fill:#263238"></path><path d="M367.92,55.53c1.22-3,2.81-2.19,4.86-1.39s3.76,1.28,2.62,4.32c-.8,2.15-3.9,4.58-5.67,5.8a1.08,1.08,0,0,1-1.59-.63C367.66,61.54,367,57.65,367.92,55.53Z" style="fill:#FCFB00"></path><path d="M371.06,58.28a1.51,1.51,0,1,1,.78,2.14A1.61,1.61,0,0,1,371.06,58.28Z" style="fill:#fff"></path><path d="M415,62c-.93-.22-1.86-.41-2.78-.64L412,56.49c1.8.46,3.62.86,5.44,1.26Z" style="fill:#263238"></path><path d="M418.92,55.26c-.68,3.16-2.33,2.64-4.41,2.18s-3.77-.78-3-3.92c.56-2.21,3.18-5,4.63-6.51a.91.91,0,0,1,1.49.34C418.3,49.32,419.4,53,418.92,55.26Z" style="fill:#FCFB00"></path><path d="M415.62,53.1a1.56,1.56,0,0,1-1.77,1.33,1.74,1.74,0,0,1,.8-3.32A1.6,1.6,0,0,1,415.62,53.1Z" style="fill:#fff"></path><path d="M445.9,67.54c1,.1,1.9.14,2.85.2l1.15,4.74c-1.95-.11-3.89-.23-5.83-.43Z" style="fill:#263238"></path><path d="M442.82,74.71c.31-3.23,2.08-2.9,4.29-2.73s4,.1,3.85,3.33c-.11,2.29-2.37,5.53-3.74,7.22a1.13,1.13,0,0,1-1.76-.11C444.36,80.53,442.6,77,442.82,74.71Z" style="fill:#FCFB00"></path><path d="M446.68,76.44a1.66,1.66,0,0,1,1.64-1.61,1.72,1.72,0,1,1-1.64,1.61Z" style="fill:#fff"></path></g><g id="freepik--Wall--inject-12"><rect x="394.33" y="176" width="50.34" height="20.38" style="opacity:0.2"></rect><rect x="423.83" y="256.81" width="50.34" height="20.38" style="opacity:0.2"></rect><rect x="337.83" y="176" width="50.34" height="20.38" style="opacity:0.2"></rect><rect x="337.83" y="231" width="50.34" height="20.38" style="opacity:0.2"></rect><rect x="105.43" y="232" width="50.34" height="20.38" style="opacity:0.2"></rect><rect x="424.3" y="204.16" width="50.34" height="20.38" style="opacity:0.1"></rect><rect x="396.83" y="230.81" width="50.34" height="20.38" style="opacity:0.1"></rect><rect x="279.41" y="176" width="50.34" height="20.38" style="opacity:0.2"></rect><rect x="251.84" y="204.16" width="50.34" height="20.38" style="opacity:0.1"></rect><rect x="309.38" y="204.16" width="50.34" height="20.38" style="opacity:0.1"></rect><rect x="164.49" y="176" width="50.34" height="20.38" style="opacity:0.2"></rect><rect x="136.92" y="204.16" width="50.34" height="20.38" style="opacity:0.1"></rect><rect x="194.46" y="204.16" width="50.34" height="20.38" style="opacity:0.1"></rect><rect x="49.57" y="176" width="50.34" height="20.38" style="opacity:0.2"></rect><rect x="46.83" y="250.81" width="50.34" height="20.38" style="opacity:0.2"></rect><rect x="22" y="204.16" width="50.34" height="20.38" style="opacity:0.1"></rect><rect x="79.54" y="204.16" width="50.34" height="20.38" style="opacity:0.1"></rect><rect x="394.33" y="61" width="50.34" height="20.38" style="opacity:0.2"></rect><rect x="423.83" y="141.81" width="50.34" height="20.38" style="opacity:0.2"></rect><rect x="337.83" y="61" width="50.34" height="20.38" style="opacity:0.2"></rect><rect x="337.83" y="116" width="50.34" height="20.38" style="opacity:0.2"></rect><rect x="105.43" y="117" width="50.34" height="20.38" style="opacity:0.2"></rect><rect x="366.76" y="89.16" width="50.34" height="20.38" style="opacity:0.1"></rect><rect x="424.3" y="89.16" width="50.34" height="20.38" style="opacity:0.1"></rect><rect x="396.83" y="115.81" width="50.34" height="20.38" style="opacity:0.1"></rect><rect x="279.41" y="61" width="50.34" height="20.38" style="opacity:0.2"></rect><rect x="251.84" y="89.16" width="50.34" height="20.38" style="opacity:0.1"></rect><rect x="309.38" y="89.16" width="50.34" height="20.38" style="opacity:0.1"></rect><rect x="192.49" y="39" width="50.34" height="20.38" style="opacity:0.2"></rect><rect x="136.92" y="89.16" width="50.34" height="20.38" style="opacity:0.1"></rect><rect x="164.49" y="117.64" width="50.34" height="20.38" style="opacity:0.2"></rect><rect x="194.46" y="145.81" width="50.34" height="20.38" style="opacity:0.1"></rect><rect x="46.83" y="135.81" width="50.34" height="20.38" style="opacity:0.2"></rect><rect x="337.83" y="280" width="50.34" height="20.38" style="opacity:0.2"></rect><rect x="337.83" y="335" width="50.34" height="20.38" style="opacity:0.2"></rect><rect x="105.43" y="336" width="50.34" height="20.38" style="opacity:0.2"></rect><rect x="424.3" y="308.17" width="50.34" height="20.38" style="opacity:0.1"></rect><rect x="396.83" y="334.81" width="50.34" height="20.38" style="opacity:0.1"></rect><rect x="279.41" y="280" width="50.34" height="20.38" style="opacity:0.2"></rect><rect x="251.84" y="308.17" width="50.34" height="20.38" style="opacity:0.1"></rect><rect x="309.38" y="308.17" width="50.34" height="20.38" style="opacity:0.1"></rect><rect x="285.38" y="366.17" width="50.34" height="20.38" style="opacity:0.1"></rect><rect x="357.38" y="393.17" width="50.34" height="20.38" style="opacity:0.1"></rect><rect x="167.38" y="393.17" width="50.34" height="20.38" style="opacity:0.1"></rect><rect x="23.83" y="393.17" width="50.34" height="20.38" style="opacity:0.1"></rect><rect x="206.84" y="239.16" width="50.34" height="20.38" style="opacity:0.1"></rect><rect x="264.38" y="239.16" width="50.34" height="20.38" style="opacity:0.1"></rect><rect x="164.49" y="280" width="50.34" height="20.38" style="opacity:0.2"></rect><rect x="136.92" y="308.17" width="50.34" height="20.38" style="opacity:0.1"></rect><rect x="219.92" y="338.17" width="50.34" height="20.38" style="opacity:0.1"></rect><rect x="194.46" y="308.17" width="50.34" height="20.38" style="opacity:0.1"></rect><rect x="49.57" y="280" width="50.34" height="20.38" style="opacity:0.2"></rect><rect x="46.83" y="354.81" width="50.34" height="20.38" style="opacity:0.2"></rect><rect x="22" y="308.17" width="50.34" height="20.38" style="opacity:0.1"></rect><rect x="79.54" y="308.17" width="50.34" height="20.38" style="opacity:0.1"></rect></g><g id="freepik--Plant--inject-12"><line x1="393.37" y1="213.59" x2="413.19" y2="403.55" style="fill:none;stroke:#263238;stroke-miterlimit:10;stroke-width:2px"></line><line x1="410" y1="367.19" x2="401.01" y2="357.7" style="fill:none;stroke:#263238;stroke-miterlimit:10;stroke-width:2px"></line><path d="M403.74,360.55a10.18,10.18,0,0,0-3.58-7.63c-2.3-2.06-14.44-7.17-15.6-2.89C383.31,354.68,395.74,363.81,403.74,360.55Z" style="fill:#FCFB00;stroke:#263238;stroke-miterlimit:10"></path><line x1="403.74" y1="360.55" x2="392.18" y2="353.34" style="fill:none;stroke:#263238;stroke-miterlimit:10;stroke-width:0.5px"></line><line x1="412.25" y1="388.8" x2="403.26" y2="379.31" style="fill:none;stroke:#263238;stroke-miterlimit:10;stroke-width:2px"></line><path d="M406,382.15a10.16,10.16,0,0,0-3.57-7.62c-2.31-2.06-14.45-7.17-15.6-2.9C385.56,376.29,398,385.42,406,382.15Z" style="fill:#FCFB00;stroke:#263238;stroke-miterlimit:10"></path><line x1="405.99" y1="382.15" x2="394.44" y2="374.95" style="fill:none;stroke:#263238;stroke-miterlimit:10;stroke-width:0.5px"></line><line x1="404.49" y1="314.48" x2="395.51" y2="304.98" style="fill:none;stroke:#263238;stroke-miterlimit:10;stroke-width:2px"></line><path d="M398.24,307.83a10.18,10.18,0,0,0-3.58-7.63c-2.31-2.06-14.45-7.16-15.6-2.89C377.81,302,390.23,311.1,398.24,307.83Z" style="fill:#FCFB00;stroke:#263238;stroke-miterlimit:10"></path><line x1="398.24" y1="307.83" x2="386.68" y2="300.63" style="fill:none;stroke:#263238;stroke-miterlimit:10;stroke-width:0.5px"></line><line x1="406.75" y1="336.08" x2="397.76" y2="326.59" style="fill:none;stroke:#263238;stroke-miterlimit:10;stroke-width:2px"></line><path d="M400.49,329.43a10.16,10.16,0,0,0-3.57-7.62c-2.31-2.06-14.45-7.17-15.6-2.89C380.06,323.57,392.49,332.7,400.49,329.43Z" style="fill:#FCFB00;stroke:#263238;stroke-miterlimit:10"></path><line x1="400.49" y1="329.43" x2="388.93" y2="322.23" style="fill:none;stroke:#263238;stroke-miterlimit:10;stroke-width:0.5px"></line><line x1="400.83" y1="279.38" x2="391.84" y2="269.89" style="fill:none;stroke:#263238;stroke-miterlimit:10;stroke-width:2px"></line><path d="M394.58,272.73a10.19,10.19,0,0,0-3.58-7.62c-2.31-2.06-14.45-7.17-15.6-2.89C374.15,266.87,386.57,276,394.58,272.73Z" style="fill:#FCFB00;stroke:#263238;stroke-miterlimit:10"></path><line x1="394.58" y1="272.73" x2="383.02" y2="265.53" style="fill:none;stroke:#263238;stroke-miterlimit:10;stroke-width:0.5px"></line><line x1="397.15" y1="244.13" x2="388.17" y2="234.64" style="fill:none;stroke:#263238;stroke-miterlimit:10;stroke-width:2px"></line><path d="M390.9,237.49a10.22,10.22,0,0,0-3.58-7.63c-2.31-2.06-14.45-7.16-15.6-2.89C370.47,231.62,382.89,240.76,390.9,237.49Z" style="fill:#FCFB00;stroke:#263238;stroke-miterlimit:10"></path><line x1="390.9" y1="237.49" x2="379.34" y2="230.28" style="fill:none;stroke:#263238;stroke-miterlimit:10;stroke-width:0.5px"></line><line x1="408.49" y1="354.41" x2="415.32" y2="343.27" style="fill:none;stroke:#263238;stroke-miterlimit:10;stroke-width:2px"></line><path d="M413.24,346.61a10.16,10.16,0,0,1,1.92-8.19c1.83-2.5,12.66-10,14.67-6.05C432,336.66,421.74,348.16,413.24,346.61Z" style="fill:#FCFB00;stroke:#263238;stroke-miterlimit:10"></path><line x1="413.24" y1="346.61" x2="423.64" y2="336.67" style="fill:none;stroke:#263238;stroke-miterlimit:10;stroke-width:0.5px"></line><line x1="402.55" y1="297.56" x2="409.39" y2="286.42" style="fill:none;stroke:#263238;stroke-miterlimit:10;stroke-width:2px"></line><path d="M407.3,289.76a10.15,10.15,0,0,1,1.93-8.19c1.83-2.5,12.65-10,14.66-6.05C426.08,279.81,415.81,291.31,407.3,289.76Z" style="fill:#FCFB00;stroke:#263238;stroke-miterlimit:10"></path><line x1="407.3" y1="289.76" x2="417.71" y2="279.82" style="fill:none;stroke:#263238;stroke-miterlimit:10;stroke-width:0.5px"></line><line x1="399.95" y1="272.58" x2="406.78" y2="261.43" style="fill:none;stroke:#263238;stroke-miterlimit:10;stroke-width:2px"></line><path d="M404.69,264.78a10.21,10.21,0,0,1,1.93-8.2c1.83-2.49,12.66-10,14.67-6C423.47,254.82,413.2,266.33,404.69,264.78Z" style="fill:#FCFB00;stroke:#263238;stroke-miterlimit:10"></path><line x1="404.69" y1="264.78" x2="415.1" y2="254.83" style="fill:none;stroke:#263238;stroke-miterlimit:10;stroke-width:0.5px"></line><line x1="396.12" y1="235.95" x2="402.96" y2="224.81" style="fill:none;stroke:#263238;stroke-miterlimit:10;stroke-width:2px"></line><path d="M400.87,228.15A10.15,10.15,0,0,1,402.8,220c1.83-2.5,12.65-10,14.66-6.06C419.65,218.2,409.38,229.7,400.87,228.15Z" style="fill:#FCFB00;stroke:#263238;stroke-miterlimit:10"></path><line x1="400.87" y1="228.15" x2="411.28" y2="218.21" style="fill:none;stroke:#263238;stroke-miterlimit:10;stroke-width:0.5px"></line><path d="M393.2,212.53a10.17,10.17,0,0,1,1.93-8.2c1.83-2.49,12.65-10,14.66-6.05C412,202.58,401.71,214.08,393.2,212.53Z" style="fill:#FCFB00;stroke:#263238;stroke-miterlimit:10"></path><line x1="393.2" y1="212.53" x2="403.61" y2="202.58" style="fill:none;stroke:#263238;stroke-miterlimit:10;stroke-width:0.5px"></line><path d="M393.8,213a10.17,10.17,0,0,1-7.95-2.77c-2.28-2.09-8.61-13.64-4.48-15.22C385.87,193.24,396.23,204.66,393.8,213Z" style="fill:#FCFB00;stroke:#263238;stroke-miterlimit:10"></path><line x1="393.8" y1="212.96" x2="385" y2="201.57" style="fill:none;stroke:#263238;stroke-miterlimit:10;stroke-width:0.5px"></line><line x1="445.66" y1="239.75" x2="425.94" y2="429.72" style="fill:none;stroke:#263238;stroke-miterlimit:10;stroke-width:2px"></line><line x1="430.3" y1="393.49" x2="423.46" y2="382.35" style="fill:none;stroke:#263238;stroke-miterlimit:10;stroke-width:2px"></line><path d="M425.55,385.69a10.19,10.19,0,0,0-1.93-8.19c-1.84-2.49-12.67-10-14.67-6C406.76,375.75,417,387.24,425.55,385.69Z" style="fill:#FCFB00;stroke:#263238;stroke-miterlimit:10"></path><line x1="425.55" y1="385.69" x2="415.72" y2="376.27" style="fill:none;stroke:#263238;stroke-miterlimit:10;stroke-width:0.5px"></line><line x1="435.77" y1="340.77" x2="428.93" y2="329.63" style="fill:none;stroke:#263238;stroke-miterlimit:10;stroke-width:2px"></line><path d="M431,333a10.19,10.19,0,0,0-1.93-8.19c-1.84-2.5-12.67-10-14.67-6C412.23,323,422.51,334.52,431,333Z" style="fill:#FCFB00;stroke:#263238;stroke-miterlimit:10"></path><line x1="431.02" y1="332.97" x2="421.19" y2="323.54" style="fill:none;stroke:#263238;stroke-miterlimit:10;stroke-width:0.5px"></line><line x1="433.53" y1="362.37" x2="426.69" y2="351.23" style="fill:none;stroke:#263238;stroke-miterlimit:10;stroke-width:2px"></line><path d="M428.78,354.58a10.2,10.2,0,0,0-1.94-8.2c-1.83-2.49-12.66-10-14.67-6C410,344.63,420.27,356.13,428.78,354.58Z" style="fill:#FCFB00;stroke:#263238;stroke-miterlimit:10"></path><line x1="428.78" y1="354.58" x2="418.95" y2="345.15" style="fill:none;stroke:#263238;stroke-miterlimit:10;stroke-width:0.5px"></line><line x1="439.41" y1="305.67" x2="432.57" y2="294.53" style="fill:none;stroke:#263238;stroke-miterlimit:10;stroke-width:2px"></line><path d="M434.66,297.88a10.17,10.17,0,0,0-1.93-8.2c-1.83-2.49-12.66-10-14.67-6C415.87,287.93,426.15,299.43,434.66,297.88Z" style="fill:#FCFB00;stroke:#263238;stroke-miterlimit:10"></path><line x1="434.66" y1="297.88" x2="424.83" y2="288.45" style="fill:none;stroke:#263238;stroke-miterlimit:10;stroke-width:0.5px"></line><line x1="443.07" y1="270.42" x2="436.23" y2="259.28" style="fill:none;stroke:#263238;stroke-miterlimit:10;stroke-width:2px"></line><path d="M438.32,262.63a10.21,10.21,0,0,0-1.93-8.2c-1.84-2.49-12.67-10-14.67-6C419.53,252.68,429.81,264.18,438.32,262.63Z" style="fill:#FCFB00;stroke:#263238;stroke-miterlimit:10"></path><line x1="438.32" y1="262.63" x2="428.49" y2="253.2" style="fill:none;stroke:#263238;stroke-miterlimit:10;stroke-width:0.5px"></line><line x1="431.45" y1="380.67" x2="440.44" y2="371.17" style="fill:none;stroke:#263238;stroke-miterlimit:10;stroke-width:2px"></line><path d="M437.71,374a10.19,10.19,0,0,1,3.57-7.63c2.31-2.06,14.44-7.18,15.6-2.9C458.13,368.14,445.71,377.28,437.71,374Z" style="fill:#FCFB00;stroke:#263238;stroke-miterlimit:10"></path><line x1="437.71" y1="374.02" x2="449.94" y2="366.42" style="fill:none;stroke:#263238;stroke-miterlimit:10;stroke-width:0.5px"></line><line x1="437.35" y1="323.81" x2="446.34" y2="314.32" style="fill:none;stroke:#263238;stroke-miterlimit:10;stroke-width:2px"></line><path d="M443.61,317.16a10.16,10.16,0,0,1,3.57-7.62c2.31-2.07,14.44-7.18,15.6-2.91C464,311.28,451.61,320.43,443.61,317.16Z" style="fill:#FCFB00;stroke:#263238;stroke-miterlimit:10"></path><line x1="443.61" y1="317.16" x2="455.84" y2="309.57" style="fill:none;stroke:#263238;stroke-miterlimit:10;stroke-width:0.5px"></line><line x1="439.95" y1="298.83" x2="448.93" y2="289.33" style="fill:none;stroke:#263238;stroke-miterlimit:10;stroke-width:2px"></line><path d="M446.2,292.18a10.19,10.19,0,0,1,3.57-7.63c2.31-2.06,14.45-7.18,15.6-2.9C466.63,286.3,454.2,295.44,446.2,292.18Z" style="fill:#FCFB00;stroke:#263238;stroke-miterlimit:10"></path><line x1="446.2" y1="292.18" x2="458.43" y2="284.58" style="fill:none;stroke:#263238;stroke-miterlimit:10;stroke-width:0.5px"></line><line x1="443.75" y1="262.2" x2="452.73" y2="252.7" style="fill:none;stroke:#263238;stroke-miterlimit:10;stroke-width:2px"></line><path d="M450,255.55a10.19,10.19,0,0,1,3.57-7.63c2.31-2.06,14.45-7.17,15.6-2.9C470.43,249.67,458,258.81,450,255.55Z" style="fill:#FCFB00;stroke:#263238;stroke-miterlimit:10"></path><line x1="450" y1="255.55" x2="462.23" y2="247.96" style="fill:none;stroke:#263238;stroke-miterlimit:10;stroke-width:0.5px"></line><path d="M445.71,238.68a10.16,10.16,0,0,1,3.57-7.62c2.31-2.07,14.44-7.18,15.6-2.91C466.14,232.8,453.71,242,445.71,238.68Z" style="fill:#FCFB00;stroke:#263238;stroke-miterlimit:10"></path><line x1="445.71" y1="238.68" x2="457.94" y2="231.09" style="fill:none;stroke:#263238;stroke-miterlimit:10;stroke-width:0.5px"></line><path d="M446.21,239.23a10.21,10.21,0,0,1-7.21-4.36c-1.81-2.51-5.62-15.11-1.25-15.81C442.51,218.3,450.3,231.61,446.21,239.23Z" style="fill:#FCFB00;stroke:#263238;stroke-miterlimit:10"></path><line x1="446.21" y1="239.23" x2="439.94" y2="226.26" style="fill:none;stroke:#263238;stroke-miterlimit:10;stroke-width:0.5px"></line><line x1="423.07" y1="162.39" x2="423.07" y2="402.62" style="fill:none;stroke:#263238;stroke-miterlimit:10;stroke-width:2px"></line><line x1="423.26" y1="366.5" x2="415.3" y2="356.13" style="fill:none;stroke:#263238;stroke-miterlimit:10;stroke-width:2px"></line><path d="M417.72,359.24a10.18,10.18,0,0,0-2.76-7.95c-2.08-2.29-13.63-8.63-15.22-4.5C398,351.29,409.42,361.66,417.72,359.24Z" style="fill:#FCFB00;stroke:#263238;stroke-miterlimit:10"></path><line x1="417.72" y1="359.24" x2="406.98" y2="350.88" style="fill:none;stroke:#263238;stroke-miterlimit:10;stroke-width:0.5px"></line><line x1="423.26" y1="321.36" x2="415.3" y2="310.98" style="fill:none;stroke:#263238;stroke-miterlimit:10;stroke-width:2px"></line><path d="M417.72,314.09a10.18,10.18,0,0,0-2.76-7.95c-2.08-2.29-13.63-8.63-15.22-4.49C398,306.14,409.42,316.51,417.72,314.09Z" style="fill:#FCFB00;stroke:#263238;stroke-miterlimit:10"></path><line x1="417.72" y1="314.09" x2="406.98" y2="305.73" style="fill:none;stroke:#263238;stroke-miterlimit:10;stroke-width:0.5px"></line><line x1="423.26" y1="268.35" x2="415.3" y2="257.98" style="fill:none;stroke:#263238;stroke-miterlimit:10;stroke-width:2px"></line><path d="M417.72,261.09a10.18,10.18,0,0,0-2.76-7.95c-2.08-2.29-13.63-8.63-15.22-4.5C398,253.14,409.42,263.51,417.72,261.09Z" style="fill:#FCFB00;stroke:#263238;stroke-miterlimit:10"></path><line x1="417.72" y1="261.09" x2="406.98" y2="252.73" style="fill:none;stroke:#263238;stroke-miterlimit:10;stroke-width:0.5px"></line><line x1="423.26" y1="233.07" x2="415.3" y2="222.69" style="fill:none;stroke:#263238;stroke-miterlimit:10;stroke-width:2px"></line><path d="M417.72,225.81a10.21,10.21,0,0,0-2.76-8c-2.08-2.29-13.63-8.63-15.22-4.49C398,217.85,409.42,228.23,417.72,225.81Z" style="fill:#FCFB00;stroke:#263238;stroke-miterlimit:10"></path><line x1="417.72" y1="225.81" x2="406.98" y2="217.44" style="fill:none;stroke:#263238;stroke-miterlimit:10;stroke-width:0.5px"></line><line x1="423.26" y1="197.63" x2="415.3" y2="187.25" style="fill:none;stroke:#263238;stroke-miterlimit:10;stroke-width:2px"></line><path d="M417.72,190.37a10.21,10.21,0,0,0-2.76-8c-2.08-2.29-13.63-8.63-15.22-4.49C398,182.41,409.42,192.79,417.72,190.37Z" style="fill:#FCFB00;stroke:#263238;stroke-miterlimit:10"></path><line x1="417.72" y1="190.37" x2="406.98" y2="182" style="fill:none;stroke:#263238;stroke-miterlimit:10;stroke-width:0.5px"></line><line x1="423.08" y1="380.29" x2="431.03" y2="369.91" style="fill:none;stroke:#263238;stroke-miterlimit:10;stroke-width:2px"></line><path d="M428.61,373a10.2,10.2,0,0,1,2.77-8c2.08-2.29,13.63-8.63,15.22-4.49C448.32,365.07,436.91,375.45,428.61,373Z" style="fill:#FCFB00;stroke:#263238;stroke-miterlimit:10"></path><line x1="428.61" y1="373.03" x2="440" y2="364.21" style="fill:none;stroke:#263238;stroke-miterlimit:10;stroke-width:0.5px"></line><line x1="423.08" y1="308.49" x2="431.03" y2="298.11" style="fill:none;stroke:#263238;stroke-miterlimit:10;stroke-width:2px"></line><path d="M428.61,301.22a10.17,10.17,0,0,1,2.77-8c2.08-2.29,13.63-8.63,15.22-4.5C448.32,293.27,436.91,303.64,428.61,301.22Z" style="fill:#FCFB00;stroke:#263238;stroke-miterlimit:10"></path><line x1="428.61" y1="301.22" x2="440" y2="292.41" style="fill:none;stroke:#263238;stroke-miterlimit:10;stroke-width:0.5px"></line><line x1="423.08" y1="273.05" x2="431.03" y2="262.67" style="fill:none;stroke:#263238;stroke-miterlimit:10;stroke-width:2px"></line><path d="M428.61,265.78a10.18,10.18,0,0,1,2.77-7.95c2.08-2.29,13.63-8.63,15.22-4.49C448.32,257.83,436.91,268.21,428.61,265.78Z" style="fill:#FCFB00;stroke:#263238;stroke-miterlimit:10"></path><line x1="428.61" y1="265.78" x2="440" y2="256.97" style="fill:none;stroke:#263238;stroke-miterlimit:10;stroke-width:0.5px"></line><line x1="423.08" y1="226.21" x2="431.03" y2="215.83" style="fill:none;stroke:#263238;stroke-miterlimit:10;stroke-width:2px"></line><path d="M428.61,218.94a10.17,10.17,0,0,1,2.77-7.95c2.08-2.29,13.63-8.63,15.22-4.49C448.32,211,436.91,221.36,428.61,218.94Z" style="fill:#FCFB00;stroke:#263238;stroke-miterlimit:10"></path><line x1="428.61" y1="218.94" x2="440" y2="210.13" style="fill:none;stroke:#263238;stroke-miterlimit:10;stroke-width:0.5px"></line><line x1="423.08" y1="189.38" x2="431.03" y2="179.01" style="fill:none;stroke:#263238;stroke-miterlimit:10;stroke-width:2px"></line><path d="M428.61,182.12a10.17,10.17,0,0,1,2.77-8c2.08-2.29,13.63-8.63,15.22-4.5C448.32,174.17,436.91,184.54,428.61,182.12Z" style="fill:#FCFB00;stroke:#263238;stroke-miterlimit:10"></path><line x1="428.61" y1="182.12" x2="440" y2="173.31" style="fill:none;stroke:#263238;stroke-miterlimit:10;stroke-width:0.5px"></line><path d="M422.6,165.79a10.2,10.2,0,0,1,2.77-8c2.08-2.29,13.63-8.63,15.22-4.49C442.32,157.83,430.9,168.21,422.6,165.79Z" style="fill:#FCFB00;stroke:#263238;stroke-miterlimit:10"></path><line x1="422.6" y1="165.79" x2="433.99" y2="156.97" style="fill:none;stroke:#263238;stroke-miterlimit:10;stroke-width:0.5px"></line><path d="M423.16,166.28a10.18,10.18,0,0,1-7.62-3.59c-2.06-2.31-7.15-14.46-2.87-15.6C417.32,145.84,426.44,158.28,423.16,166.28Z" style="fill:#FCFB00;stroke:#263238;stroke-miterlimit:10"></path><line x1="423.16" y1="166.28" x2="415.59" y2="154.03" style="fill:none;stroke:#263238;stroke-miterlimit:10;stroke-width:0.5px"></line><polygon points="432.95 464.93 407.51 464.93 404.33 400.68 436.13 400.68 432.95 464.93" style="fill:#263238;stroke:#263238;stroke-miterlimit:10"></polygon></g><g id="freepik--character-2--inject-12"><ellipse cx="320.5" cy="470" rx="52.5" ry="15" style="opacity:0.2"></ellipse><path d="M213.5,178.75s-3.75,2.75-3.75,5.25,2,10.25,3.75,11.25a16.76,16.76,0,0,0,7.5,1.5c1.5-.25,4.5-2.5,3.75-3.25l-.75-.75-2.5-.5a5.39,5.39,0,0,0,3-1c1.25-1,1.75-3.75,1.75-3.75s-1.75-4-3.75-4.5S213.5,178.75,213.5,178.75Z" style="fill:#fff;stroke:#263238;stroke-linecap:round;stroke-linejoin:round"></path><path d="M246,185.5s-13.5-10.5-16.25-10.75a32,32,0,0,0-9.75.5c-2.75.75-6.5,2-6.5,3.5s-.75,9.5-.75,11.75,3.25,5.5,4.5,5.5,1.75-.5,1.75-2-2.25-3.75-2.25-3.75l2-4,4,.25s3.5,6.25,8,6.75a30,30,0,0,0,7.5,0l6.25,3.25,5.75-5.75Z" style="fill:#fff;stroke:#263238;stroke-linecap:round;stroke-linejoin:round"></path><line x1="223.65" y1="182.06" x2="219.35" y2="180.45" style="fill:#fff;stroke:#263238;stroke-linecap:round;stroke-linejoin:round"></line><polygon points="214 190 214.25 204.75 221.75 205 221.75 189.75 214 190" style="fill:#FCFB00;stroke:#263238;stroke-linecap:round;stroke-linejoin:round"></polygon><path d="M228,179.25s-5.75,3-9.75,5.75-8,2.75-6.75,4.5,1.75,2.25,5,1.75,7.75-1.75,7.75-1.75a70.93,70.93,0,0,0,9.5,1c3.75,0,7-2.75,7-2.75" style="fill:#fff;stroke:#263238;stroke-linecap:round;stroke-linejoin:round"></path><path d="M256.25,193.75l-4.75-5.5s-3.75-1.25-8,3-4,7.25-4,7.25l3.75,5S251.25,193.75,256.25,193.75Z" style="fill:#263238;stroke:#263238;stroke-linecap:round;stroke-linejoin:round"></path><path d="M303.31,454.22s-9.46,6.23-15.91,10.53-1.5,6.66,3,7.52,15.69-1.07,20-1.72,17.4-4.3,19.12-6.45,1.72-4.29.43-4.94-19.34-5.8-21.27-5.8A30,30,0,0,0,303.31,454.22Z" style="fill:#fff;stroke:#263238;stroke-linecap:round;stroke-linejoin:round"></path><path d="M285.37,466.86s3.31,2.73,13,3.31,22.37-6,22.37-6" style="fill:none;stroke:#263238;stroke-linecap:round;stroke-linejoin:round"></path><path d="M285.37,466.86s3.31,2.73,13,3.31,22.37-6,22.37-6" style="fill:none;stroke:#263238;stroke-linecap:round;stroke-linejoin:round"></path><path d="M326.3,459.59A89.25,89.25,0,0,1,316,467.11c-5.58,3.44-12.67,6.24-11.39,9.89s12.25,3.65,19.35,3,10.31-2.58,15.68-4.3,9.68-4.94,10.75-7.52S329.31,459,326.3,459.59Z" style="fill:#fff;stroke:#263238;stroke-linecap:round;stroke-linejoin:round"></path><path d="M305,475s2.14,2.53,16.15,2a48.19,48.19,0,0,0,23.53-7.2" style="fill:none;stroke:#263238;stroke-linecap:round;stroke-linejoin:round"></path><path d="M284,361.3s-.27,16.48,1.1,22.25,5.5,7.42,6.59,7.42-4.94-31.32-4.94-31.32S283.42,359.93,284,361.3Z" style="fill:#FCFB00;stroke:#263238;stroke-linecap:round;stroke-linejoin:round"></path><path d="M285.62,358.28s-3.29-1.65-3.29.55S283.7,366,284.8,366h1.1Z" style="fill:#FCFB00;stroke:#263238;stroke-linecap:round;stroke-linejoin:round"></path><path d="M281.78,288.78s-3.58,35.44,0,54.67,10.71,57.68,12.36,62.35,10.44,39,10.44,39-2.2,3-2.2,4.12-.28,5.22-.28,5.22a71,71,0,0,0,11.54,4.67c5.77,1.65,9.89,2.47,9.89,2.47s6.59,2.2,10.71,3.85,14,5.49,14,5.49a31.34,31.34,0,0,0,6.59-6c2.48-3.3,1.38-12.09.55-14.29s-2.19-5.49-2.19-9.06-.28-40.38-.28-41.48,2.75-71.7,2.75-76.37V293.45c0-.82-15.93-.55-32.42-.55s-42-8.24-42-8.24Z" style="fill:#FCFB00;stroke:#263238;stroke-linecap:round;stroke-linejoin:round"></path><path d="M298.81,305l8.79,9.89s5.77,73.34,7.41,80.76,12.37,55.21,12.37,55.21-3.3,1.65-2.48,4.4-1.37,6-1.37,6" style="fill:none;stroke:#263238;stroke-linecap:round;stroke-linejoin:round"></path><path d="M330.4,367.07s-.83,13.46,0,19.78,3.29,8.24,6.31,8.24,14.84-2.2,16.76-2.75,2.47-4.12,1.92-9.34-2.47-19.5-2.47-19.5S340.84,366.79,330.4,367.07Z" style="fill:#FCFB00;stroke:#263238;stroke-linecap:round;stroke-linejoin:round"></path><path d="M354,358.83s-6.32,2.2-10.71,2.2-14,.55-14,.55v6.59a35.55,35.55,0,0,0,8.51.55c4.67-.28,16.21-3,16.21-3A53.08,53.08,0,0,1,354,358.83Z" style="fill:#FCFB00;stroke:#263238;stroke-linecap:round;stroke-linejoin:round"></path><path d="M330.4,303.07s.27,8.51,4.12,13.18a11.43,11.43,0,0,0,8.79,4.4" style="fill:none;stroke:#263238;stroke-linecap:round;stroke-linejoin:round"></path><line x1="345.7" y1="355.94" x2="345.78" y2="360.48" style="fill:none;stroke:#263238;stroke-linecap:round;stroke-linejoin:round"></line><line x1="344.8" y1="306.17" x2="345.61" y2="351.27" style="fill:none;stroke:#263238;stroke-linecap:round;stroke-linejoin:round"></line><line x1="344.68" y1="299.77" x2="344.73" y2="302.6" style="fill:none;stroke:#263238;stroke-linecap:round;stroke-linejoin:round"></line><path d="M346.34,446.12c.61,4.67,2,7.31,3.56,7.75,1.92.55,2.2,4.67,0,5.77l-2.2,1.1s-1.1-1.37.83,2.47-2.48,6.32-2.48,6.32" style="fill:none;stroke:#263238;stroke-linecap:round;stroke-linejoin:round"></path><path d="M346.05,395.64s-.27,40.1,0,47" style="fill:none;stroke:#263238;stroke-linecap:round;stroke-linejoin:round"></path><path d="M277.11,278.62s.27,8,.82,9.34S284.8,297.85,301,300s35.71,0,54.12-3.84c0,0,5.22-3,6-4.67s-.82-8.52-.82-8.52-21.43,5.5-37.36,5.5-38.73-8.79-42-9.89S277.11,278.62,277.11,278.62Z" style="fill:#263238;stroke:#263238;stroke-linecap:round;stroke-linejoin:round"></path><path d="M305,165.25A81.37,81.37,0,0,0,292.25,173c-5,4-8.25,14.25-10.75,20s-5,16.5-5,16.5-10.5-10.75-14.25-15-10.25-3-16,2.75-4.5,10-1.75,15.25S265,236,271,241s8,3.75,8,3.75S274.5,274,275.5,278s12.75,13.25,29,15.5,41,.25,47-2.75S361.75,287,363,283.5a59.69,59.69,0,0,0,2-10s2.75-77.25,1.5-87.25-2-13.25-5-15.5-13.5-4.75-23.25-5S305,165.25,305,165.25Z" style="fill:#ababab;stroke:#263238;stroke-linecap:round;stroke-linejoin:round"></path><path d="M335.5,256s3.5,15,6,20a68.45,68.45,0,0,1,3.5,8l-6.5,2.25a82.14,82.14,0,0,1-6.25-16,114.57,114.57,0,0,1-2.5-12Z" style="fill:#263238;stroke:#263238;stroke-linecap:round;stroke-linejoin:round"></path><polygon points="284.5 247.75 286.75 253.25 278.25 267.75 278 259.75 284.5 247.75" style="fill:#263238;stroke:#263238;stroke-linecap:round;stroke-linejoin:round"></polygon><path d="M312.5,178.75s-3,19.5-8.25,53.5S301,292,301,292" style="fill:none;stroke:#263238;stroke-linecap:round;stroke-linejoin:round"></path><path d="M330.5,222.26c6.53.51,13.52.31,18.75-1.76" style="fill:none;stroke:#263238;stroke-linecap:round;stroke-linejoin:round"></path><path d="M311.5,219a114.23,114.23,0,0,0,15.05,2.86" style="fill:none;stroke:#263238;stroke-linecap:round;stroke-linejoin:round"></path><path d="M289.47,184.1c.49-1.51,1-2.89,1.53-4.1" style="fill:none;stroke:#263238;stroke-linecap:round;stroke-linejoin:round"></path><path d="M279,244.75s3.65-36.89,9.44-57.27" style="fill:none;stroke:#263238;stroke-linecap:round;stroke-linejoin:round"></path><path d="M293.35,215.81a23.39,23.39,0,0,0,5.9,1.19" style="fill:none;stroke:#263238;stroke-linecap:round;stroke-linejoin:round"></path><path d="M284.75,211.25a30.43,30.43,0,0,0,5.95,3.52" style="fill:none;stroke:#263238;stroke-linecap:round;stroke-linejoin:round"></path><path d="M280.75,243.25s7.75,5.25,17,5.5" style="fill:none;stroke:#263238;stroke-linecap:round;stroke-linejoin:round"></path><path d="M312.77,251.42A96.61,96.61,0,0,0,347,252.75" style="fill:none;stroke:#263238;stroke-linecap:round;stroke-linejoin:round"></path><path d="M307.25,250s1,.33,2.83.79" style="fill:none;stroke:#263238;stroke-linecap:round;stroke-linejoin:round"></path><path d="M276.5,209.5s-.5,11.25,2.25,17.5" style="fill:none;stroke:#263238;stroke-linecap:round;stroke-linejoin:round"></path><path d="M316.37,270.09a27.72,27.72,0,0,0-1.92,4" style="fill:#fff;stroke:#263238;stroke-linecap:round;stroke-linejoin:round"></path><path d="M328.43,260.63s-6.23,1-11,7.83" style="fill:none;stroke:#263238;stroke-linecap:round;stroke-linejoin:round"></path><path d="M311.5,178.25s4.5,3.5,17.5,2,23.5-6.75,28-7.25,6-.75,6-.75-5.25-10.25-11.75-14.5-13.5-6.5-17.75-6.5-16,3.75-23.25,9.25-10.25,4-6.75,9A50.77,50.77,0,0,0,311.5,178.25Z" style="fill:#263238;stroke:#263238;stroke-linecap:round;stroke-linejoin:round"></path><path d="M310.25,157.75s.5,18.5,1.25,20.5,21.75-12.75,23.75-16.5S341,138.5,341,138.5s-8.75,1.75-11.75,3.75-7.25,7.75-11.75,10A25.07,25.07,0,0,0,310.25,157.75Z" style="fill:#fff;stroke:#263238;stroke-linecap:round;stroke-linejoin:round"></path><path d="M328,150.25l-9.71,1.57c-.26.15-.53.3-.79.43a25.07,25.07,0,0,0-7.25,5.5s.07,2.46.19,5.68C325,158,328,150.25,328,150.25Z" style="fill:#263238;stroke:#263238;stroke-linecap:round;stroke-linejoin:round"></path><path d="M299.75,119.25s-1.25,13.25-1.25,17.5-1,19.5,3.25,22,15.5,0,18.5-1.75,6.75-5,7.75-6.75a38.89,38.89,0,0,0,1.75-3.5,48.63,48.63,0,0,1,4-3.25c1.5-1,5-.25,6.25-4.5s2.5-5.75,1.25-10.25-5.5-12-7.75-14-15-7.5-20.5-5.25S300.5,115.5,299.75,119.25Z" style="fill:#fff;stroke:#263238;stroke-linecap:round;stroke-linejoin:round"></path><path d="M305.75,126.75A16.48,16.48,0,0,1,304,133c-1.5,2.5-4.75,3.75-2.25,5.25a19.42,19.42,0,0,0,6.25,2" style="fill:none;stroke:#263238;stroke-linecap:round;stroke-linejoin:round"></path><path d="M304.5,144s8.5,2.5,12.5-5.25" style="fill:none;stroke:#263238;stroke-linecap:round;stroke-linejoin:round"></path><ellipse cx="312.38" cy="129.38" rx="1.38" ry="2.13" style="fill:#263238"></ellipse><ellipse cx="302.38" cy="127.63" rx="1.38" ry="2.13" style="fill:#263238"></ellipse><path d="M310.5,123.75a8.56,8.56,0,0,1,6.75,1.25" style="fill:none;stroke:#263238;stroke-linecap:round;stroke-linejoin:round"></path><path d="M300.75,122.5s3.25-2.25,5.25,0" style="fill:none;stroke:#263238;stroke-linecap:round;stroke-linejoin:round"></path><path d="M304.75,93.5s-6.5,1.25-9.75,6.5a59.76,59.76,0,0,0-5.25,11.5l9.5-2.75s-2.5,6.25-5.75,7.75-5.5,2.25-5.5,2.25,6.25,2.75,12.5,2S315.75,114,315.75,114L312,120.25s-2,1,6.5,0,11.75-2.5,11.75-2.5-4.75,8.25-5.25,9a27.73,27.73,0,0,1-2.75,2.75l5,.25S325,130.5,325,132s-.5,5-.5,5l5-2.25-.25,1.75a30.2,30.2,0,0,1,3.5-.75A23.56,23.56,0,0,0,337,134.5s.5,4.5-.25,6.25-5,3.25-5,3.25l-.5,5a42.55,42.55,0,0,0,5.25-.25c.75-.25,2-2,2-2l-1.25,3.75s1.25.25,5.25-1.25,7-9.5,7-9.5S355.5,128,356,120s-4.5-19.25-10.25-24S318,84,304.75,93.5Z" style="fill:#263238;stroke:#263238;stroke-linecap:round;stroke-linejoin:round"></path><path d="M352,187.5s-7.75,13.25-6.25,18.25S360,245.5,360,245.5a72.58,72.58,0,0,1-10.25,7.25c-5,2.75-12.88,5.72-12.88,8.47s2.15,13.3,5.65,14.3,11.23,1.23,22.48-2,27.25-16.75,29.5-24-2-19.5-4.25-23.75-13.75-33.25-17.75-41S362,174.5,359.75,175" style="fill:#ababab;stroke:#263238;stroke-linecap:round;stroke-linejoin:round"></path><path d="M381,246.31a19.71,19.71,0,0,0,3.79-1.31" style="fill:none;stroke:#263238;stroke-linecap:round;stroke-linejoin:round"></path><path d="M360,245.5s9.26,2.43,17.85,1.37" style="fill:none;stroke:#263238;stroke-linecap:round;stroke-linejoin:round"></path><path d="M370.53,204c.81-.21,1.64-.39,2.47-.53" style="fill:none;stroke:#263238;stroke-linecap:round;stroke-linejoin:round"></path><path d="M350.5,217s7.48-8.39,17.3-12.09" style="fill:none;stroke:#263238;stroke-linecap:round;stroke-linejoin:round"></path><path d="M383.21,229.14c.76,0,1.52,0,2.29.11" style="fill:none;stroke:#263238;stroke-linecap:round;stroke-linejoin:round"></path><path d="M359.25,238s8.53-6.82,19.25-8.49" style="fill:none;stroke:#263238;stroke-linecap:round;stroke-linejoin:round"></path></g><g id="freepik--character-1--inject-12"><ellipse cx="119.5" cy="470" rx="52.5" ry="15" style="opacity:0.2"></ellipse><path d="M86.23,264.25s-8.48,13.5-8.15,25.17,8.34,69.33,8.34,69.33-4.34,20-2.67,29,15.33,67.67,15.33,67.67-1,14.66,1.34,20.66,10.33,12,12.33,9.67,5-3,1.67-13.67-6-16.33-6-19.66-1.34-34,.33-40.34,3.33-47,3.33-53.33V336.08l3-34.66,15,78s-6,9.66-7.33,16-3.67,37-5,42.33-3.67,22.33-4.33,24.33,1.66,3.67,3.66,4,15.67,5.67,19.34,5.34,9.33-1,7.33-3.67-15.67-16.33-16-17.33,19.67-51.34,22-59,3.67-12.67,4.67-17.34,1-61.33-1.67-84.66-2.05-26.08-2.05-26.08l-59.62-7.26Z" style="fill:#263238;stroke:#263238;stroke-linecap:round;stroke-linejoin:round"></path><path d="M116.32,160.2s-.91,5-1.36,10.86-2.26,6.33-4.07,7.23-18.55,5.43-20.36,6.56S87.37,209.51,88.72,217s1.59,33,1.59,33-4.08,13.34-4.08,14.25,17.42,7.91,37.1,7.69,26.69-5.66,27.37-8.6,2.94-22.39,2.94-23.07,5.64,14,9.24,14.38S202,244.21,202,244.21s16.17,2,19.14,2,4.77-3.79,3.95-5.76-13.42-8.89-17.48-9.34-12.71,4.76-12.71,4.76l-21.82-3.11s-12.21-34.16-15.83-41.62-3.17-8.82-9.73-11.31-15.15-5-15.15-5l-.45-8.37Z" style="fill:#ababab;stroke:#263238;stroke-linecap:round;stroke-linejoin:round"></path><path d="M224.11,243s7.38-2.46,7.52-3.5.51-7.91-.06-9.15-1-.14-2.06,3.45-2.45,4.88-5.6,6.16S224.11,243,224.11,243Z" style="fill:#fff;stroke:#263238;stroke-linecap:round;stroke-linejoin:round"></path><path d="M207.62,231.16c-4.05-.45-12.71,4.76-12.71,4.76l-13.14-1.82c-2.86,1.63-3.89,5.5-3.1,9.78.63,3.39,3.09,4.91,5.63,5.55,9.15-2.61,17.71-5.22,17.71-5.22s16.17,2,19.14,2,4.77-3.79,3.95-5.76S211.68,231.61,207.62,231.16Z" style="fill:#fff;stroke:#263238;stroke-linecap:round;stroke-linejoin:round"></path><rect x="201.75" y="200.3" width="28.67" height="38.33" style="fill:#FCFB00;stroke:#263238;stroke-linecap:round;stroke-linejoin:round"></rect><rect x="205.4" y="211.4" width="23.12" height="20.98" style="fill:#fff;stroke:#263238;stroke-linecap:round;stroke-linejoin:round"></rect><path d="M208.5,214.86c1,0,1.37.56,1.37,1.49v.74c0,1-.45,1.47-1.42,1.47h-.61V221h-.68v-6.12Zm-.05,3.09c.5,0,.75-.24.75-.82v-.81c0-.56-.2-.84-.7-.84h-.66V218Z" style="fill:#263238"></path><path d="M210.41,221v-6.12h.68v5.49h1.75V221Z" style="fill:#263238"></path><path d="M215.53,217.57v.61H214v2.17h1.84V221h-2.52v-6.12h2.52v.62H214v2.09Z" style="fill:#263238"></path><path d="M217.2,219.74,217,221h-.63l1.17-6.12h1l1.17,6.12H219l-.23-1.24Zm.09-.58h1.36l-.69-3.54Z" style="fill:#263238"></path><path d="M222.85,216.32v.17h-.65v-.2c0-.55-.21-.88-.7-.88s-.7.33-.7.87c0,1.37,2.06,1.5,2.06,3.23,0,.92-.45,1.53-1.38,1.53s-1.38-.61-1.38-1.53v-.35h.64v.38c0,.55.23.88.72.88s.72-.33.72-.88c0-1.36-2.05-1.49-2.05-3.22,0-.94.44-1.53,1.36-1.53S222.85,215.4,222.85,216.32Z" style="fill:#263238"></path><path d="M225.63,217.57v.61h-1.49v2.17H226V221h-2.51v-6.12H226v.62h-1.83v2.09Z" style="fill:#263238"></path><path d="M211.11,227.26V230h-.68V223.9h.68v2.75h1.5V223.9h.68V230h-.68v-2.76Z" style="fill:#263238"></path><path d="M216.17,226.61v.61h-1.49v2.18h1.83V230H214V223.9h2.51v.62h-1.83v2.09Z" style="fill:#263238"></path><path d="M217.15,230V223.9h.68v5.5h1.75V230Z" style="fill:#263238"></path><path d="M221.43,223.9c1,0,1.38.57,1.38,1.49v.74a1.28,1.28,0,0,1-1.43,1.47h-.6V230h-.68V223.9Zm-.05,3.09c.51,0,.75-.23.75-.82v-.81c0-.56-.2-.84-.7-.84h-.65V227Z" style="fill:#263238"></path><rect x="201.75" y="200.3" width="28.67" height="5" style="fill:#fff;stroke:#263238;stroke-linecap:round;stroke-linejoin:round"></rect><path d="M222.41,244.53s7.38-2.46,7.52-3.5.52-7.91-.06-9.16-1.05-.13-2.05,3.45-2.46,4.89-5.61,6.17S222.41,244.53,222.41,244.53Z" style="fill:#fff;stroke:#263238;stroke-linecap:round;stroke-linejoin:round"></path><path d="M200,239.67s5.26-3.18,8.88-2.57,11.73,4.66,11.73,4.66,6.47-8.39,7.07-5.92-3.07,8.27-5.65,9.53-12.82-.11-12.82-.11" style="fill:#fff;stroke:#263238;stroke-linecap:round;stroke-linejoin:round"></path><path d="M126,191.19c12.22-1.81,6.34-16.29,6.34-16.29l-.46-8.37-15.6-6.33s-.91,5-1.36,10.86c-.39,5.13-1.82,7.5-3.38,8.63C112.76,183.67,116.51,192.6,126,191.19Z" style="fill:#fff;stroke:#263238;stroke-linecap:round;stroke-linejoin:round"></path><path d="M148.44,133.06a32.55,32.55,0,0,1,2,11.08c0,6.11-2.49,14.25.91,16.74s5.88.22,5.88.22.22,6.79-7.47,10-14,2.94-19.67-.68-5.66-13.35-5.66-21.72.45-13.79.68-14.47,22.39-.68,22.39-.68Z" style="fill:#263238;stroke:#263238;stroke-linecap:round;stroke-linejoin:round"></path><path d="M144.59,134.41s1.58,15.61,1.58,21-5.65,13.12-12.21,14.93-12.89-2.72-17.64-10.18-.91-23.75-.91-23.75S138.48,133.06,144.59,134.41Z" style="fill:#fff;stroke:#263238;stroke-linecap:round;stroke-linejoin:round"></path><path d="M138.94,141.88s-.91,2.49-.46,4.07,4.3,2.94,2.27,4.75-5.43,1.81-5.43,1.81" style="fill:none;stroke:#263238;stroke-linecap:round;stroke-linejoin:round"></path><path d="M129.89,155a7.71,7.71,0,0,0,8.59,1.58" style="fill:none;stroke:#263238;stroke-linecap:round;stroke-linejoin:round"></path><path d="M131.7,143.69c0,1.12-.56,2-1.25,2s-1.24-.91-1.24-2,.56-2,1.24-2S131.7,142.56,131.7,143.69Z" style="fill:#263238"></path><path d="M143,143.69c0,1.12-.56,2-1.25,2s-1.24-.91-1.24-2,.56-2,1.24-2S143,142.56,143,143.69Z" style="fill:#263238"></path><path d="M125.82,139.39s1.13-1.58,5.65-1.13" style="fill:none;stroke:#263238;stroke-linecap:round;stroke-linejoin:round"></path><path d="M139.84,138.48s2.26-1.35,4.53,1.59" style="fill:none;stroke:#263238;stroke-linecap:round;stroke-linejoin:round"></path><path d="M122.88,135.54s-3.62,12.9-3.85,19.91.91,11.76,3.85,11.08A11,11,0,0,0,127,165a8.21,8.21,0,0,1-3.39,8.82c-5,3.39-13.58,7-22.17,4.3s-7.92-17.64-5.2-22.85a54.81,54.81,0,0,0,4.29-12.89C100.94,140.52,115.19,133.06,122.88,135.54Z" style="fill:#263238;stroke:#263238;stroke-linecap:round;stroke-linejoin:round"></path><path d="M144.59,121.07s-4.52-9-7-11.31S109.53,98.68,107,98.22s-12,3.4-13.57,7-14.7,22.39-15.38,26-1.13,18.32.68,19.22,1.13,2.26,1.81.91S87.82,131,89.4,129.66a41.78,41.78,0,0,1,5.43-3.39l1.58,6.56s21-7.46,28.05-9.05S144.59,121.07,144.59,121.07Z" style="fill:#FCFB00;stroke:#263238;stroke-linecap:round;stroke-linejoin:round"></path><path d="M98.12,146.32a65.77,65.77,0,0,1,16.46-7.66c8.42-2.3,35.21-3.44,35.21-3.44s-2.3-11.1-3.45-14.16-15.69-4.21-28.32.38S94.29,131,94.29,133.3,98.12,146.32,98.12,146.32Z" style="fill:#fff;stroke:#263238;stroke-linecap:round;stroke-linejoin:round"></path><path d="M85.33,156.81a5.43,5.43,0,1,1-5.43-5.43A5.43,5.43,0,0,1,85.33,156.81Z" style="fill:none;stroke:#263238;stroke-linecap:round;stroke-linejoin:round"></path><path d="M108.85,178.75s-3.39,64.46-3.39,67.63a5.26,5.26,0,0,1-4.75,5.43c-2.49.22-10.4-1.81-10.4-1.81l-.91,2.48,5.66,2.27-6.34,80.52a65.62,65.62,0,0,0,29,7.69c16.73.45,37.09-7.47,39.13-9A37.19,37.19,0,0,0,160,331.2l-5.88-69.67s2.49-28.27-.9-38.68-17-46.59-17-46.59l-1.58-.45,10,33.7s-20.13,4.07-34.61,1.36l.91-32.58Z" style="fill:#FCFB00;stroke:#263238;stroke-linecap:round;stroke-linejoin:round"></path><path d="M146.05,258.33c-3.94,6.58-11.19,16.59-21.74,23.1" style="fill:none;stroke:#263238;stroke-linecap:round;stroke-linejoin:round"></path><path d="M149.59,251.69s-.53,1.21-1.58,3.19" style="fill:none;stroke:#263238;stroke-linecap:round;stroke-linejoin:round"></path><path d="M137.69,276s-11.4,7.44-14.87,12.39" style="fill:none;stroke:#263238;stroke-linecap:round;stroke-linejoin:round"></path><path d="M96.64,183.72a27.34,27.34,0,0,0-8.14,2.49c-4.07,2-10.86,18.32-12.67,23.3s-9,24-9,24-3.39-4.52-7-10.4S58,213.81,58,210.19s1.13-4.07-.68-7.92-5-4.75-7-4.07-3.84,5.2-3.17,10.63S51,225.34,52.53,231.9s3.85,17.19,7.47,22.39,5.2,9.5,6.1,9,21.72-33,24-36.87,4.75-9.05,5.65-13.12" style="fill:#ababab;stroke:#263238;stroke-linecap:round;stroke-linejoin:round"></path><path d="M59.77,223.08C56.15,217.2,58,213.81,58,210.19s1.13-4.07-.68-7.92-5-4.75-7-4.07-3.84,5.2-3.17,10.63S51,225.34,52.53,231.9c.38,1.58.8,3.39,1.27,5.31a14.93,14.93,0,0,0,5.29-2.82,11.73,11.73,0,0,0,3.75-6.54C61.89,226.43,60.84,224.82,59.77,223.08Z" style="fill:#fff;stroke:#263238;stroke-linecap:round;stroke-linejoin:round"></path><path d="M54.91,205.26s2.59,5.39,2.12,7.54a22.44,22.44,0,0,1-1.92,4.78" style="fill:none;stroke:#263238;stroke-linecap:round;stroke-linejoin:round"></path><path d="M53.77,166.26A2.6,2.6,0,1,1,56.23,169,2.6,2.6,0,0,1,53.77,166.26Z" style="fill:#263238;stroke:#263238;stroke-linecap:round;stroke-linejoin:round"></path><path d="M54.08,185l-.46,24.37A2.69,2.69,0,0,1,50.79,212h0a2.69,2.69,0,0,1-2.54-3l2.92-24.84Z" style="fill:#263238;stroke:#263238;stroke-linecap:round;stroke-linejoin:round"></path><path d="M46,170c.57,2.07.56,6.6.55,11.13,0,7.16,11,7.73,11.75.61.46-4.51.92-9,1.71-11s1.54-3.54,1.54-3.54l-7.68-.4-1.35-.07-7.68-.41S45.38,168,46,170Z" style="fill:#fff;stroke:#263238;stroke-linecap:round;stroke-linejoin:round"></path><path d="M48.35,191.75c3.11-.19,6.67,0,7.22,1.63.82,2.41.13,3.94-1.81,4-2.61.09-7.92.76-9.83.38s-3.13-4.63,0-5.43A30.54,30.54,0,0,1,48.35,191.75Z" style="fill:#fff;stroke:#263238;stroke-linecap:round;stroke-linejoin:round"></path><path d="M49.19,197.86c3.11-.19,6.67,0,7.22,1.63.82,2.41.13,3.94-1.81,4-2.61.09-7.93.76-9.83.38s-3.14-4.63,0-5.43A30.73,30.73,0,0,1,49.19,197.86Z" style="fill:#fff;stroke:#263238;stroke-linecap:round;stroke-linejoin:round"></path><path d="M62.59,198.05c.67,3,1,6.59-.49,7.38-2.26,1.19-3.87.74-4.24-1.17-.49-2.57-2-7.71-1.9-9.65s4.09-3.81,5.36-.87A28.6,28.6,0,0,1,62.59,198.05Z" style="fill:#fff;stroke:#263238;stroke-linecap:round;stroke-linejoin:round"></path><path d="M49,203.92c2.55-.16,5.48,0,5.93,1.34.67,2,.1,3.23-1.49,3.29-2.14.07-6.5.62-8.07.31s-2.57-3.8,0-4.45A22.41,22.41,0,0,1,49,203.92Z" style="fill:#fff;stroke:#263238;stroke-linecap:round;stroke-linejoin:round"></path><path d="M49.85,208.61c2.19-.14,4.7,0,5.09,1.14.58,1.7.09,2.78-1.28,2.83-1.84.07-5.59.54-6.93.27s-2.21-3.26,0-3.83A20,20,0,0,1,49.85,208.61Z" style="fill:#fff;stroke:#263238;stroke-linecap:round;stroke-linejoin:round"></path><path d="M143.75,467.75c-2-2.67-15.67-16.33-16-17.33-.21-.63,7.53-20.55,13.94-37.26-9.29,1.68-17.07-2.34-20.59-4.62-1.17,11.28-2.47,25.71-3.35,29.21-1.33,5.33-3.67,22.33-4.33,24.33s1.66,3.67,3.66,4,15.67,5.67,19.34,5.34S145.75,470.42,143.75,467.75Z" style="fill:#FCFB00;stroke:#263238;stroke-linecap:round;stroke-linejoin:round"></path><path d="M112.75,485.75c2-2.33,5-3,1.67-13.67s-6-16.33-6-19.66-1.34-34,.33-40.34c0-.2.1-.43.16-.69-5,1.66-14.17.89-19.93.15,4.47,19.69,10.1,43.88,10.1,43.88s-1,14.66,1.34,20.66S110.75,488.08,112.75,485.75Z" style="fill:#FCFB00;stroke:#263238;stroke-linecap:round;stroke-linejoin:round"></path><path d="M86.75,406.08s1.33,11.67,3,13.67,10,2,12.67,1.67,7.66-.67,8-2.67.66-12,.66-13.33-7,0-12.33,0S87.08,404.42,86.75,406.08Z" style="fill:#FCFB00;stroke:#263238;stroke-linecap:round;stroke-linejoin:round"></path><path d="M120.17,403S118,414.58,119,417s9.44,5.12,12.22,5.66,7.91,1.83,8.85,0,4.34-11.22,4.74-12.49-7-2.25-12.39-4S121,401.56,120.17,403Z" style="fill:#FCFB00;stroke:#263238;stroke-linecap:round;stroke-linejoin:round"></path></g></svg>