<svg width="268" height="268" viewBox="0 0 268 268" fill="none" xmlns="http://www.w3.org/2000/svg">
<path d="M223.726 175.234H237.92V169.237H223.726V175.234Z" fill="#EBEBEB"/>
<path d="M231.648 182.797H245.842V176.8H231.648V182.797Z" fill="#EBEBEB"/>
<path d="M110.636 109.001H124.829V103.003H110.636V109.001Z" fill="#EBEBEB"/>
<path d="M118.558 116.564H132.751V110.566H118.558V116.564Z" fill="#EBEBEB"/>
<path d="M126.442 109.001H140.636V103.003H126.442V109.001Z" fill="#EBEBEB"/>
<path d="M22.1582 182.792H36.3514V176.794H22.1582V182.792Z" fill="#EBEBEB"/>
<path d="M30.0803 31.0449H44.2736V25.0471H30.0803V31.0449Z" fill="#EBEBEB"/>
<path d="M22.1582 38.6079H36.3514V32.6101H22.1582V38.6079Z" fill="#EBEBEB"/>
<path d="M223.726 31.0449H237.92V25.0471H223.726V31.0449Z" fill="#EBEBEB"/>
<path d="M241.543 38.1953H165.002V123.591H241.543V38.1953Z" fill="#DBDBDB"/>
<path d="M236.505 43.239H170.046V118.595H236.505V43.239Z" fill="#EBEBEB"/>
<path d="M199.478 56.564H176.055V84.3234H199.478V56.564Z" fill="white"/>
<path d="M188.608 58.4507C188.608 58.6171 188.558 58.7798 188.466 58.9182C188.373 59.0566 188.242 59.1644 188.088 59.2281C187.934 59.2918 187.765 59.3085 187.602 59.276C187.439 59.2435 187.289 59.1634 187.171 59.0457C187.053 58.928 186.973 58.7781 186.941 58.6148C186.908 58.4516 186.925 58.2824 186.989 58.1286C187.052 57.9748 187.16 57.8434 187.299 57.7509C187.437 57.6585 187.6 57.6091 187.766 57.6091C187.989 57.6091 188.203 57.6978 188.361 57.8556C188.519 58.0134 188.608 58.2275 188.608 58.4507Z" fill="#A6A6A6"/>
<path d="M180.514 62.1223C182.883 61.9401 185.252 61.9294 187.616 61.9026C189.98 61.8758 192.354 61.9401 194.723 62.1223C192.354 62.3046 189.985 62.3153 187.616 62.3421C185.247 62.3689 182.883 62.3046 180.514 62.1223Z" fill="#EBEBEB"/>
<path d="M180.514 64.3199C183.08 64.0268 185.672 64.0268 188.238 64.3199C186.956 64.4787 185.665 64.5521 184.373 64.5396C183.083 64.5493 181.794 64.4759 180.514 64.3199Z" fill="#EBEBEB"/>
<path d="M180.514 66.5121C182.155 66.356 183.802 66.2827 185.451 66.2924C187.097 66.28 188.743 66.3533 190.382 66.5121C188.736 66.6836 187.096 66.7212 185.451 66.7319C183.805 66.7426 182.16 66.6836 180.514 66.5121Z" fill="#EBEBEB"/>
<path d="M180.514 68.7042C182.572 68.5327 184.631 68.4899 186.689 68.4845C188.747 68.4791 190.805 68.5327 192.863 68.7042C190.805 68.8758 188.747 68.9187 186.689 68.924C184.631 68.9294 182.572 68.8758 180.514 68.7042Z" fill="#EBEBEB"/>
<path d="M180.514 70.8965C182.299 70.725 184.089 70.6875 185.874 70.6768C187.659 70.666 189.449 70.725 191.234 70.8965C189.444 71.068 187.654 71.1109 185.874 71.1163C184.095 71.1216 182.299 71.068 180.514 70.8965Z" fill="#EBEBEB"/>
<path d="M180.514 73.0889C182.803 72.9066 185.091 72.8959 187.38 72.8691C189.669 72.8423 191.958 72.9066 194.246 73.0889C191.958 73.2765 189.669 73.2872 187.38 73.314C185.091 73.3408 182.803 73.2711 180.514 73.0889Z" fill="#EBEBEB"/>
<path d="M180.514 75.2865C181.986 75.1305 183.466 75.0571 184.947 75.0668C186.429 75.0544 187.911 75.1278 189.385 75.2865C186.435 75.5795 183.464 75.5795 180.514 75.2865Z" fill="#EBEBEB"/>
<path d="M180.514 77.4788C182.883 77.2965 185.252 77.2858 187.616 77.259C189.98 77.2322 192.354 77.2965 194.723 77.4788C192.354 77.661 189.985 77.6717 187.616 77.6985C185.247 77.7253 182.883 77.661 180.514 77.4788Z" fill="#EBEBEB"/>
<path d="M180.514 79.6709C182.883 79.4887 185.252 79.4779 187.616 79.4511C189.98 79.4243 192.354 79.4887 194.723 79.6709C192.354 79.8531 189.985 79.8692 187.616 79.8907C185.247 79.9121 182.883 79.8639 180.514 79.6709Z" fill="#EBEBEB"/>
<path d="M230.764 73.8713H203.047V106.717H230.764V73.8713Z" fill="white"/>
<path d="M206.43 76.2619C206.43 76.4284 206.38 76.5911 206.288 76.7295C206.195 76.8678 206.064 76.9757 205.91 77.0394C205.756 77.1031 205.587 77.1198 205.424 77.0873C205.261 77.0548 205.111 76.9747 204.993 76.857C204.875 76.7393 204.795 76.5893 204.763 76.4261C204.73 76.2629 204.747 76.0937 204.811 75.9399C204.874 75.7861 204.982 75.6547 205.121 75.5622C205.259 75.4698 205.422 75.4204 205.588 75.4204C205.811 75.4204 206.025 75.5091 206.183 75.6669C206.341 75.8247 206.43 76.0387 206.43 76.2619Z" fill="#A6A6A6"/>
<path d="M206.923 82.0667C207.941 81.9119 208.97 81.8366 209.999 81.8416C211.028 81.8339 212.055 81.9092 213.071 82.0667C211.032 82.3597 208.962 82.3597 206.923 82.0667Z" fill="#EBEBEB"/>
<path d="M206.923 84.5431C208.244 84.3879 209.574 84.3128 210.905 84.3179C212.234 84.3101 213.563 84.3853 214.882 84.5431C212.237 84.8361 209.568 84.8361 206.923 84.5431Z" fill="#EBEBEB"/>
<path d="M206.923 87.0195C208.146 86.8636 209.378 86.7902 210.61 86.7997C211.843 86.7872 213.075 86.8607 214.298 87.0195C211.848 87.3125 209.372 87.3125 206.923 87.0195Z" fill="#EBEBEB"/>
<path d="M206.923 89.5119C208.146 89.3561 209.378 89.2827 210.61 89.2921C211.843 89.2797 213.075 89.3531 214.298 89.5119C211.848 89.8049 209.372 89.8049 206.923 89.5119Z" fill="#EBEBEB"/>
<path d="M206.923 91.9721C207.987 91.8159 209.063 91.7425 210.139 91.7524C211.215 91.7397 212.29 91.8132 213.355 91.9721C211.221 92.2671 209.057 92.2671 206.923 91.9721Z" fill="#EBEBEB"/>
<path d="M206.923 94.4484C208.284 94.2924 209.653 94.219 211.023 94.2286C212.393 94.2163 213.763 94.2897 215.124 94.4484C212.398 94.7414 209.648 94.7414 206.923 94.4484Z" fill="#EBEBEB"/>
<path d="M206.923 96.9248C209.17 96.6318 211.445 96.6318 213.692 96.9248C211.445 97.2178 209.17 97.2178 206.923 96.9248Z" fill="#EBEBEB"/>
<path d="M206.923 99.4012C209.743 99.1081 212.587 99.1081 215.408 99.4012C212.587 99.6942 209.743 99.6942 206.923 99.4012Z" fill="#EBEBEB"/>
<path d="M206.923 101.877C209.743 101.584 212.587 101.584 215.408 101.877C212.587 102.171 209.743 102.171 206.923 101.877Z" fill="#EBEBEB"/>
<path d="M219.036 82.0667C220.374 81.9116 221.72 81.8364 223.067 81.8416C224.412 81.8338 225.757 81.909 227.092 82.0667C224.42 82.3586 221.725 82.3586 219.052 82.0667H219.036Z" fill="#EBEBEB"/>
<path d="M219.036 84.5431C219.91 84.3886 220.797 84.3132 221.684 84.3179C222.572 84.3101 223.458 84.3855 224.332 84.5431C222.579 84.8357 220.789 84.8357 219.036 84.5431Z" fill="#EBEBEB"/>
<path d="M219.036 87.0194C220.293 86.8636 221.559 86.7902 222.826 86.7997C224.093 86.7874 225.359 86.8608 226.615 87.0194C224.098 87.3125 221.554 87.3125 219.036 87.0194Z" fill="#EBEBEB"/>
<path d="M219.036 89.5119C220.259 89.356 221.491 89.2826 222.724 89.2921C223.957 89.2798 225.189 89.3532 226.412 89.5119C223.962 89.8049 221.486 89.8049 219.036 89.5119Z" fill="#EBEBEB"/>
<path d="M219.036 91.9721C220.374 91.8161 221.72 91.7427 223.067 91.7523C224.412 91.74 225.757 91.8134 227.092 91.9721C224.42 92.2639 221.725 92.2639 219.052 91.9721H219.036Z" fill="#EBEBEB"/>
<path d="M219.036 94.4485C220.101 94.2921 221.176 94.2187 222.252 94.2288C223.329 94.2157 224.404 94.2892 225.468 94.4485C223.335 94.744 221.17 94.744 219.036 94.4485Z" fill="#EBEBEB"/>
<path d="M219.036 96.9248C221.554 96.6318 224.098 96.6318 226.615 96.9248C224.098 97.2179 221.554 97.2179 219.036 96.9248Z" fill="#EBEBEB"/>
<path d="M219.036 99.4012C220.98 99.1081 222.957 99.1081 224.9 99.4012C222.957 99.6942 220.98 99.6942 219.036 99.4012Z" fill="#EBEBEB"/>
<path d="M219.036 101.877C220.899 101.584 222.796 101.584 224.659 101.877C222.796 102.171 220.899 102.171 219.036 101.877Z" fill="#EBEBEB"/>
<path d="M211.42 48.9314H197.323V63.0282H211.42V48.9314Z" fill="#A6A6A6"/>
<path d="M205.213 50.384C205.213 50.5504 205.164 50.7131 205.071 50.8515C204.979 50.9899 204.847 51.0978 204.693 51.1615C204.54 51.2252 204.37 51.2418 204.207 51.2094C204.044 51.1769 203.894 51.0967 203.776 50.979C203.659 50.8614 203.579 50.7114 203.546 50.5482C203.514 50.3849 203.53 50.2157 203.594 50.062C203.658 49.9082 203.766 49.7768 203.904 49.6843C204.042 49.5918 204.205 49.5425 204.371 49.5425C204.595 49.5425 204.809 49.6311 204.966 49.789C205.124 49.9468 205.213 50.1608 205.213 50.384Z" fill="#EBEBEB"/>
<path d="M236.446 43.239H234.543V118.681H236.446V43.239Z" fill="#C7C7C7"/>
<path d="M83.9561 63.9338C91.3843 53.5313 88.9732 39.0768 78.5708 31.6486C68.1684 24.2204 53.7138 26.6315 46.2856 37.0339C38.8574 47.4363 41.2685 61.8909 51.6709 69.3191C62.0734 76.7473 76.5279 74.3362 83.9561 63.9338Z" fill="#EBEBEB"/>
<path d="M83.8422 64.2418C91.1599 54.4849 89.1826 40.6431 79.4256 33.3253C69.6686 26.0076 55.8269 27.9849 48.5091 37.7419C41.1914 47.4989 43.1687 61.3407 52.9257 68.6584C62.6827 75.9761 76.5244 73.9988 83.8422 64.2418Z" fill="#DBDBDB"/>
<path d="M78.174 67.8522C87.4823 61.2248 89.6557 48.3065 83.0284 38.9981C76.4011 29.6898 63.4827 27.5164 54.1744 34.1437C44.8661 40.7711 42.6927 53.6894 49.32 62.9978C55.9473 72.3061 68.8657 74.4795 78.174 67.8522Z" fill="white"/>
<path opacity="0.5" d="M86.3978 46.6318C76.9749 52.3402 61.4899 61.7041 52.8389 66.839C50.3829 64.7705 48.4414 62.1594 47.168 59.2117L75.8064 32.6958C78.4826 34.1041 80.8178 36.0816 82.6476 38.4892C84.4774 40.8969 85.7575 43.6763 86.3978 46.6318Z" fill="#EBEBEB"/>
<path opacity="0.5" d="M86.832 51.7239C86.7603 54.0166 86.3055 56.2812 85.4866 58.4239L59.6782 70.6286C58.5547 70.2543 57.4645 69.7863 56.4193 69.2296C64.2181 64.7433 78.4596 56.5479 86.832 51.7239Z" fill="#EBEBEB"/>
<path d="M66.3782 31.8115H65.9762V34.9471H66.3782V31.8115Z" fill="#C7C7C7"/>
<path d="M56.7595 34.2739L56.4114 34.4749L57.9792 37.1904L58.3273 36.9894L56.7595 34.2739Z" fill="#C7C7C7"/>
<path d="M49.8223 41.027L49.6213 41.3767L52.3493 42.9445L52.5503 42.5948L49.8223 41.027Z" fill="#C7C7C7"/>
<path d="M50.1267 50.802H46.9911V51.204H50.1267V50.802Z" fill="#C7C7C7"/>
<path d="M52.1713 58.856L49.4561 60.4243L49.6571 60.7724L52.3724 59.2041L52.1713 58.856Z" fill="#C7C7C7"/>
<path d="M57.9749 64.8098L56.4081 67.5259L56.7563 67.7268L58.3231 65.0107L57.9749 64.8098Z" fill="#C7C7C7"/>
<path d="M66.3782 67.0535H65.9762V70.1891H66.3782V67.0535Z" fill="#C7C7C7"/>
<path d="M74.3759 64.7973L74.0277 64.9983L75.5955 67.7138L75.9437 67.5128L74.3759 64.7973Z" fill="#C7C7C7"/>
<path d="M80.1807 58.8555L79.9796 59.2036L82.6948 60.7719L82.8959 60.4238L80.1807 58.8555Z" fill="#C7C7C7"/>
<path d="M85.3634 50.802H82.2278V51.204H85.3634V50.802Z" fill="#C7C7C7"/>
<path d="M82.6937 41.2311L79.9788 42.7998L80.1799 43.1479L82.8948 41.5791L82.6937 41.2311Z" fill="#C7C7C7"/>
<path d="M75.5993 34.2788L74.033 36.9951L74.3812 37.1959L75.9476 34.4796L75.5993 34.2788Z" fill="#C7C7C7"/>
<path d="M66.48 33.2319L67.1607 52.3939L65.1936 52.3725L65.944 33.2266L66.48 33.2319Z" fill="#C7C7C7"/>
<path d="M78.4168 44.3164L65.5206 52.544L64.5826 50.8235L78.1595 43.8501L78.4168 44.3164Z" fill="#A6A6A6"/>
<path d="M66.8445 51.0003C66.8445 51.1329 66.8052 51.2624 66.7316 51.3726C66.658 51.4828 66.5533 51.5686 66.4309 51.6193C66.3085 51.6701 66.1738 51.6833 66.0438 51.6575C65.9138 51.6316 65.7945 51.5678 65.7008 51.4741C65.6071 51.3804 65.5432 51.261 65.5174 51.1311C65.4915 51.0011 65.5048 50.8664 65.5555 50.7439C65.6062 50.6215 65.6921 50.5169 65.8023 50.4433C65.9125 50.3696 66.042 50.3303 66.1745 50.3303C66.2627 50.3296 66.3501 50.3465 66.4318 50.3799C66.5134 50.4133 66.5875 50.4626 66.6499 50.525C66.7122 50.5873 66.7616 50.6615 66.795 50.7431C66.8284 50.8247 66.8452 50.9122 66.8445 51.0003Z" fill="#C7C7C7"/>
<path d="M249.76 232.088L220.821 232.222L191.883 232.265L134 232.356L76.1174 232.27L47.1787 232.222L18.2347 232.088L47.1787 231.959L76.1174 231.911L134 231.82L191.883 231.911L220.821 231.959L249.76 232.088Z" fill="#263238"/>
<path d="M223.759 75.6992C223.719 74.0586 223.782 72.417 223.946 70.7841C224.089 69.1504 224.33 67.5269 224.67 65.9226C224.709 67.5633 224.647 69.2048 224.482 70.8377C224.34 72.4714 224.098 74.0949 223.759 75.6992Z" fill="#263238"/>
<path d="M220.864 76.262C220.013 74.8595 219.249 73.406 218.575 71.9097C217.878 70.4251 217.275 68.898 216.769 67.3376C218.457 70.1534 219.83 73.1461 220.864 76.262Z" fill="#263238"/>
<path d="M218.645 78.197C217.207 77.4082 215.818 76.533 214.486 75.5759C213.138 74.6377 211.851 73.6155 210.632 72.5154C213.501 74.1125 216.188 76.0176 218.645 78.197Z" fill="#263238"/>
<path d="M217.686 80.9788C214.403 81.0336 211.125 80.728 207.909 80.0676C209.548 80.0281 211.188 80.0907 212.819 80.2552C214.454 80.3976 216.08 80.6393 217.686 80.9788Z" fill="#263238"/>
<path d="M228.079 84.554C230.957 86.1509 233.653 88.0559 236.119 90.2356C234.678 89.4507 233.289 88.5753 231.959 87.6145C230.605 86.6745 229.309 85.6524 228.079 84.554Z" fill="#263238"/>
<path d="M229.038 81.772C232.322 81.7176 235.603 82.0232 238.82 82.6832C237.18 82.7229 235.538 82.6602 233.905 82.4956C232.27 82.3532 230.644 82.1116 229.038 81.772Z" fill="#263238"/>
<path d="M228.475 78.8778C229.878 78.0265 231.331 77.2622 232.828 76.589C234.312 75.8917 235.839 75.2884 237.4 74.7827C235.998 75.6346 234.547 76.4007 233.053 77.0768C231.566 77.7715 230.037 78.3729 228.475 78.8778Z" fill="#263238"/>
<path d="M226.54 76.648C227.329 75.2085 228.206 73.8194 229.167 72.4886C230.101 71.1398 231.122 69.8525 232.222 68.6348C230.627 71.5136 228.721 74.2096 226.54 76.6748V76.648Z" fill="#263238"/>
<path d="M104.52 197.672C103.925 198.427 53.8787 200.673 51.4989 199.987C51.3832 199.953 51.2718 199.906 51.1666 199.848C48.2186 198.465 35.569 188.913 33.5536 184.888C31.9456 181.672 41.481 164.07 44.8096 161.052C47.0233 159.053 51.129 158.265 51.129 158.265C51.129 158.265 62.7174 124.818 69.8622 117.818C71.6578 116.06 102.692 115.374 108.234 117.904C110.609 118.976 116.382 124.872 116.542 125.944C116.676 127.493 105.104 196.905 104.52 197.672Z" fill="#37474F"/>
<path d="M104.863 197.672C104.268 198.427 54.2272 200.673 51.842 199.987C51.727 199.951 51.6157 199.905 51.5096 199.848C56.3336 186.882 78.8456 126.046 79.4888 125.655C80.132 125.263 109.784 125.44 116.886 125.955C117.036 127.493 105.463 196.905 104.863 197.672Z" fill="#263238"/>
<path d="M86.4836 120.284C85.9852 119.812 85.6528 113.016 86.5748 111.66C87.6039 110.143 99.5031 110.893 100.205 112.196C100.907 113.498 101.245 120.284 100.886 120.53C100.527 120.777 98.5436 121.007 98.2757 120.573C98.0076 120.139 98.0237 114.522 97.8147 114.222C97.6056 113.922 89.2708 113.386 88.9814 113.814C88.692 114.243 89.3941 119.925 89.0618 120.171C88.7295 120.418 86.9714 120.745 86.4836 120.284Z" fill="#37474F"/>
<path d="M61.909 151.165L58.235 149.443L56.2538 153.671L59.9279 155.393L61.909 151.165Z" fill="#DBDBDB"/>
<path d="M61.7315 154.566L55.7423 151.759L53.4814 156.584L59.4706 159.39L61.7315 154.566Z" fill="#C7C7C7"/>
<path d="M60.7877 167.296L50.4376 189.38L36.2014 182.701L46.5462 160.623C48.5991 156.255 52.9246 154.191 57.2662 156.217C61.6078 158.243 62.8353 162.944 60.7877 167.296Z" fill="#FCFB00"/>
<path opacity="0.1" d="M60.7877 167.296L50.4376 189.38L36.2014 182.701L46.5462 160.623C48.5991 156.255 52.9246 154.191 57.2662 156.217C61.6078 158.243 62.8353 162.944 60.7877 167.296Z" fill="black"/>
<path d="M55.744 157.509C55.7088 157.582 55.6596 157.647 55.5992 157.701C55.5388 157.755 55.4684 157.796 55.392 157.823C55.3156 157.85 55.2347 157.861 55.1539 157.856C55.0731 157.852 54.9941 157.831 54.9212 157.796C54.8484 157.761 54.7832 157.711 54.7293 157.651C54.6755 157.591 54.6341 157.52 54.6074 157.444C54.5808 157.367 54.5695 157.287 54.5741 157.206C54.5788 157.125 54.5993 157.046 54.6345 156.973C54.7055 156.826 54.8322 156.713 54.9865 156.659C55.1408 156.606 55.3101 156.615 55.4572 156.686C55.6044 156.757 55.7172 156.884 55.771 157.038C55.8248 157.193 55.8151 157.362 55.744 157.509Z" fill="white"/>
<path d="M60.4876 165.812C60.4361 165.921 60.3534 166.012 60.25 166.075C60.1465 166.137 60.027 166.167 59.9064 166.161C59.7858 166.156 59.6696 166.114 59.5725 166.043C59.4753 165.971 59.4015 165.872 59.3604 165.759C59.3194 165.645 59.3128 165.522 59.3417 165.405C59.3705 165.288 59.4334 165.182 59.5225 165.1C59.6115 165.019 59.7227 164.965 59.842 164.947C59.9613 164.929 60.0834 164.946 60.1928 164.997C60.2658 165.031 60.3314 165.079 60.3858 165.138C60.4401 165.198 60.4822 165.267 60.5096 165.343C60.537 165.419 60.5492 165.499 60.5454 165.58C60.5416 165.66 60.522 165.739 60.4876 165.812Z" fill="white"/>
<path d="M53.927 163.416C53.8926 163.488 53.8441 163.553 53.7845 163.607C53.7249 163.661 53.6553 163.702 53.5796 163.729C53.504 163.756 53.4238 163.768 53.3436 163.764C53.2634 163.76 53.1848 163.74 53.1123 163.705C53.0398 163.67 52.9749 163.621 52.9214 163.56C52.8679 163.5 52.8268 163.43 52.8004 163.354C52.774 163.278 52.7629 163.197 52.7677 163.117C52.7724 163.036 52.793 162.958 52.8282 162.885C52.8634 162.813 52.9125 162.748 52.9728 162.694C53.0331 162.641 53.1033 162.599 53.1794 162.573C53.2556 162.547 53.3362 162.536 53.4166 162.54C53.4971 162.545 53.5758 162.566 53.6483 162.601C53.7919 162.673 53.9014 162.799 53.9535 162.952C54.0056 163.104 53.9961 163.27 53.927 163.416Z" fill="white"/>
<path d="M51.9921 168.974C51.9586 169.048 51.9109 169.114 51.8516 169.168C51.7923 169.223 51.7226 169.266 51.6467 169.293C51.5708 169.32 51.4902 169.332 51.4096 169.328C51.329 169.324 51.25 169.304 51.1773 169.269C51.0682 169.217 50.9767 169.135 50.9145 169.031C50.8522 168.928 50.822 168.808 50.8277 168.688C50.8333 168.567 50.8746 168.451 50.9462 168.354C51.0178 168.257 51.1166 168.183 51.2302 168.142C51.3437 168.101 51.4668 168.094 51.584 168.123C51.7012 168.152 51.8073 168.215 51.8888 168.304C51.9703 168.393 52.0236 168.504 52.042 168.623C52.0604 168.743 52.043 168.865 51.9921 168.974Z" fill="white"/>
<path d="M43.6626 171.826C43.6292 171.899 43.5815 171.965 43.5222 172.02C43.4629 172.075 43.3932 172.117 43.3173 172.144C43.2414 172.172 43.1608 172.184 43.0802 172.18C42.9996 172.176 42.9206 172.155 42.8479 172.12C42.7754 172.085 42.7105 172.036 42.657 171.976C42.6035 171.916 42.5624 171.845 42.536 171.769C42.5096 171.693 42.4985 171.612 42.5033 171.532C42.508 171.452 42.5286 171.373 42.5638 171.3C42.599 171.228 42.6481 171.163 42.7084 171.109C42.7687 171.056 42.8389 171.015 42.915 170.988C42.9912 170.962 43.0718 170.951 43.1522 170.956C43.2327 170.96 43.3114 170.981 43.3839 171.016C43.4558 171.051 43.5201 171.099 43.5732 171.158C43.6262 171.218 43.6669 171.287 43.6928 171.362C43.7188 171.438 43.7295 171.518 43.7243 171.597C43.7191 171.677 43.6981 171.754 43.6626 171.826Z" fill="white"/>
<path d="M45.4206 166.637C45.3854 166.71 45.3362 166.775 45.2758 166.829C45.2154 166.883 45.145 166.924 45.0686 166.951C44.9922 166.977 44.9113 166.989 44.8306 166.984C44.7498 166.979 44.6707 166.959 44.5979 166.924C44.525 166.889 44.4598 166.839 44.406 166.779C44.3521 166.719 44.3107 166.648 44.2841 166.572C44.2575 166.495 44.2461 166.414 44.2508 166.334C44.2554 166.253 44.2759 166.174 44.3111 166.101C44.3822 165.954 44.5088 165.841 44.6631 165.787C44.8174 165.733 44.9867 165.743 45.1339 165.814C45.281 165.885 45.3939 166.012 45.4476 166.166C45.5014 166.321 45.4917 166.49 45.4206 166.637Z" fill="white"/>
<path d="M48.0095 161.475C47.9743 161.548 47.9251 161.613 47.8647 161.667C47.8043 161.721 47.7339 161.763 47.6575 161.789C47.5811 161.816 47.5002 161.827 47.4194 161.823C47.3386 161.818 47.2596 161.797 47.1867 161.762C47.1139 161.727 47.0487 161.678 46.9948 161.617C46.941 161.557 46.8996 161.487 46.8729 161.41C46.8463 161.334 46.835 161.253 46.8396 161.172C46.8443 161.091 46.8648 161.012 46.9 160.939C46.971 160.792 47.0977 160.679 47.252 160.626C47.4063 160.572 47.5756 160.582 47.7227 160.653C47.8699 160.724 47.9827 160.85 48.0365 161.005C48.0903 161.159 48.0806 161.328 48.0095 161.475Z" fill="white"/>
<path d="M51.9116 159.406C51.8608 159.516 51.7785 159.609 51.6753 159.672C51.572 159.735 51.4523 159.766 51.3314 159.761C51.2104 159.756 51.0938 159.715 50.9961 159.643C50.8984 159.572 50.8242 159.473 50.7827 159.359C50.7413 159.246 50.7346 159.122 50.7634 159.005C50.7923 158.887 50.8554 158.781 50.9447 158.699C51.034 158.617 51.1456 158.564 51.2652 158.546C51.3849 158.528 51.5072 158.546 51.6168 158.597C51.7628 158.666 51.8758 158.789 51.931 158.941C51.9863 159.093 51.9793 159.26 51.9116 159.406Z" fill="white"/>
<path d="M49.8908 165.168C49.8393 165.278 49.7566 165.369 49.6532 165.431C49.5497 165.494 49.4302 165.524 49.3096 165.518C49.189 165.512 49.0728 165.471 48.9756 165.4C48.8785 165.328 48.8047 165.229 48.7636 165.116C48.7226 165.002 48.716 164.879 48.7449 164.762C48.7737 164.644 48.8366 164.538 48.9257 164.457C49.0147 164.375 49.1259 164.322 49.2452 164.304C49.3645 164.285 49.4866 164.303 49.596 164.354C49.669 164.388 49.7346 164.436 49.789 164.495C49.8433 164.555 49.8854 164.624 49.9128 164.7C49.9402 164.775 49.9524 164.856 49.9486 164.936C49.9448 165.017 49.9252 165.096 49.8908 165.168Z" fill="white"/>
<path d="M58.1239 161.727C58.0724 161.836 57.9897 161.928 57.8862 161.99C57.7828 162.052 57.6632 162.083 57.5426 162.077C57.4221 162.071 57.3058 162.03 57.2087 161.958C57.1115 161.887 57.0377 161.788 56.9967 161.674C56.9556 161.561 56.9491 161.438 56.9779 161.321C57.0067 161.203 57.0696 161.097 57.1587 161.016C57.2477 160.934 57.3589 160.881 57.4782 160.863C57.5975 160.844 57.7196 160.862 57.8291 160.913C57.9021 160.946 57.9676 160.995 58.022 161.054C58.0763 161.113 58.1184 161.183 58.1458 161.259C58.1732 161.334 58.1854 161.415 58.1816 161.495C58.1778 161.576 58.1582 161.654 58.1239 161.727Z" fill="white"/>
<path d="M56.28 167.43C56.2285 167.54 56.1458 167.631 56.0423 167.693C55.9389 167.755 55.8194 167.786 55.6988 167.78C55.5782 167.774 55.462 167.733 55.3648 167.661C55.2676 167.59 55.1939 167.491 55.1528 167.378C55.1117 167.264 55.1052 167.141 55.134 167.024C55.1629 166.906 55.2258 166.8 55.3148 166.719C55.4039 166.637 55.5151 166.584 55.6344 166.566C55.7537 166.547 55.8757 166.565 55.9852 166.616C56.0582 166.65 56.1237 166.698 56.1781 166.757C56.2325 166.816 56.2746 166.886 56.302 166.962C56.3294 167.037 56.3415 167.118 56.3377 167.198C56.334 167.279 56.3143 167.358 56.28 167.43Z" fill="white"/>
<path d="M47.7683 170.448C47.7168 170.557 47.6341 170.649 47.5306 170.711C47.4272 170.773 47.3076 170.803 47.1871 170.798C47.0665 170.792 46.9503 170.751 46.8531 170.679C46.7559 170.607 46.6821 170.509 46.6411 170.395C46.6 170.282 46.5935 170.158 46.6223 170.041C46.6511 169.924 46.7141 169.818 46.8031 169.736C46.8921 169.655 47.0033 169.602 47.1226 169.583C47.242 169.565 47.364 169.582 47.4735 169.633C47.5465 169.667 47.612 169.715 47.6664 169.775C47.7208 169.834 47.7628 169.904 47.7902 169.979C47.8176 170.055 47.8298 170.135 47.826 170.216C47.8223 170.296 47.8026 170.375 47.7683 170.448Z" fill="white"/>
<path d="M51.6919 177.652C51.6403 177.761 51.5577 177.852 51.4542 177.915C51.3508 177.977 51.2312 178.007 51.1106 178.001C50.9901 177.996 50.8738 177.955 50.7767 177.883C50.6795 177.811 50.6057 177.712 50.5647 177.599C50.5236 177.485 50.5171 177.362 50.5459 177.245C50.5747 177.128 50.6376 177.022 50.7267 176.94C50.8157 176.859 50.9269 176.806 51.0462 176.787C51.1655 176.769 51.2876 176.786 51.3971 176.837C51.4701 176.871 51.5356 176.919 51.59 176.979C51.6443 177.038 51.6864 177.107 51.7138 177.183C51.7412 177.259 51.7534 177.339 51.7496 177.42C51.7458 177.5 51.7262 177.579 51.6919 177.652Z" fill="white"/>
<path d="M49.6496 181.784C49.5981 181.894 49.5154 181.985 49.412 182.047C49.3085 182.109 49.189 182.14 49.0684 182.134C48.9478 182.128 48.8316 182.087 48.7344 182.015C48.6373 181.944 48.5635 181.845 48.5224 181.732C48.4813 181.618 48.4748 181.495 48.5037 181.378C48.5325 181.26 48.5954 181.154 48.6844 181.073C48.7735 180.991 48.8847 180.938 49.004 180.92C49.1233 180.901 49.2454 180.919 49.3548 180.97C49.4278 181.004 49.4934 181.052 49.5477 181.111C49.6021 181.17 49.6442 181.24 49.6716 181.316C49.699 181.391 49.7111 181.472 49.7074 181.552C49.7036 181.633 49.684 181.712 49.6496 181.784Z" fill="white"/>
<path d="M45.9995 175.106C45.9655 175.179 45.9175 175.244 45.8581 175.299C45.7987 175.353 45.7291 175.395 45.6534 175.423C45.5777 175.45 45.4973 175.462 45.4169 175.458C45.3365 175.455 45.2576 175.435 45.1848 175.401C45.0756 175.349 44.9841 175.267 44.9219 175.163C44.8597 175.06 44.8295 174.94 44.8351 174.82C44.8408 174.699 44.882 174.583 44.9537 174.486C45.0253 174.388 45.1241 174.315 45.2376 174.274C45.3511 174.232 45.4743 174.226 45.5915 174.255C45.7087 174.284 45.8147 174.346 45.8962 174.436C45.9778 174.525 46.0311 174.636 46.0494 174.755C46.0678 174.874 46.0504 174.996 45.9995 175.106Z" fill="white"/>
<path d="M40.2483 180.343C40.2131 180.415 40.1639 180.481 40.1035 180.534C40.0431 180.588 39.9727 180.63 39.8963 180.656C39.8199 180.683 39.739 180.694 39.6582 180.69C39.5774 180.685 39.4983 180.665 39.4255 180.629C39.3526 180.594 39.2874 180.545 39.2336 180.485C39.1798 180.424 39.1383 180.354 39.1117 180.277C39.0851 180.201 39.0738 180.12 39.0784 180.039C39.083 179.959 39.1035 179.879 39.1387 179.807C39.2098 179.659 39.3364 179.547 39.4907 179.493C39.645 179.439 39.8144 179.449 39.9615 179.52C40.1086 179.591 40.2215 179.718 40.2753 179.872C40.3291 180.026 40.3193 180.195 40.2483 180.343Z" fill="white"/>
<path d="M50.041 173.954C49.9895 174.063 49.9068 174.154 49.8033 174.216C49.6999 174.279 49.5803 174.309 49.4598 174.303C49.3392 174.298 49.223 174.256 49.1258 174.185C49.0286 174.113 48.9548 174.014 48.9138 173.901C48.8727 173.787 48.8662 173.664 48.895 173.547C48.9238 173.43 48.9868 173.324 49.0758 173.242C49.1648 173.161 49.276 173.107 49.3953 173.089C49.5147 173.071 49.6367 173.088 49.7462 173.139C49.8192 173.173 49.8847 173.221 49.9391 173.28C49.9935 173.34 50.0355 173.409 50.0629 173.485C50.0903 173.561 50.1025 173.641 50.0987 173.721C50.095 173.802 50.0753 173.881 50.041 173.954Z" fill="white"/>
<path d="M47.9987 178.488C47.9472 178.597 47.8645 178.689 47.7611 178.751C47.6577 178.813 47.5381 178.843 47.4175 178.838C47.2969 178.832 47.1807 178.791 47.0836 178.719C46.9864 178.647 46.9126 178.549 46.8715 178.435C46.8305 178.322 46.8239 178.199 46.8528 178.081C46.8816 177.964 46.9445 177.858 47.0336 177.777C47.1226 177.695 47.2338 177.642 47.3531 177.623C47.4724 177.605 47.5945 177.622 47.7039 177.673C47.7769 177.707 47.8425 177.755 47.8969 177.815C47.9512 177.874 47.9933 177.944 48.0207 178.019C48.0481 178.095 48.0603 178.175 48.0565 178.256C48.0527 178.336 48.0331 178.415 47.9987 178.488Z" fill="white"/>
<path d="M45.8923 182.985C45.8408 183.094 45.7581 183.186 45.6547 183.248C45.5512 183.31 45.4317 183.34 45.3111 183.335C45.1905 183.329 45.0743 183.288 44.9771 183.216C44.8799 183.145 44.8062 183.046 44.7651 182.932C44.724 182.819 44.7175 182.696 44.7463 182.578C44.7752 182.461 44.8381 182.355 44.9271 182.274C45.0162 182.192 45.1274 182.139 45.2467 182.12C45.366 182.102 45.4881 182.119 45.5975 182.17C45.6705 182.204 45.7361 182.252 45.7904 182.312C45.8448 182.371 45.8869 182.441 45.9143 182.516C45.9417 182.592 45.9538 182.673 45.95 182.753C45.9463 182.833 45.9267 182.912 45.8923 182.985Z" fill="white"/>
<path d="M47.7416 186.389C47.6719 186.535 47.5472 186.648 47.3947 186.703C47.2422 186.759 47.0741 186.751 46.9268 186.684C46.854 186.648 46.7888 186.599 46.7349 186.539C46.6811 186.478 46.6397 186.408 46.6131 186.332C46.5864 186.255 46.5751 186.174 46.5797 186.093C46.5844 186.013 46.6049 185.934 46.6401 185.861C46.6753 185.788 46.7245 185.723 46.7849 185.669C46.8453 185.615 46.9157 185.574 46.9921 185.547C47.0685 185.52 47.1494 185.509 47.2301 185.514C47.3109 185.518 47.39 185.539 47.4628 185.574C47.6064 185.647 47.716 185.772 47.768 185.925C47.8201 186.077 47.8106 186.243 47.7416 186.389Z" fill="white"/>
<path d="M42.1617 176.081C42.0906 176.228 41.964 176.341 41.8097 176.395C41.6554 176.449 41.4861 176.439 41.3389 176.368C41.1918 176.297 41.0789 176.17 41.0252 176.016C40.9714 175.862 40.9811 175.692 41.0522 175.545C41.0874 175.473 41.1366 175.407 41.197 175.353C41.2574 175.3 41.3278 175.258 41.4042 175.232C41.4806 175.205 41.5615 175.194 41.6423 175.198C41.723 175.203 41.8021 175.223 41.8749 175.259C41.9478 175.294 42.013 175.343 42.0668 175.403C42.1207 175.464 42.1621 175.534 42.1887 175.611C42.2154 175.687 42.2267 175.768 42.222 175.849C42.2174 175.929 42.1969 176.009 42.1617 176.081Z" fill="white"/>
<path d="M44.0002 179.378C43.9487 179.487 43.866 179.579 43.7626 179.641C43.6591 179.703 43.5396 179.733 43.419 179.728C43.2984 179.722 43.1822 179.681 43.085 179.609C42.9879 179.537 42.9141 179.439 42.873 179.325C42.8319 179.212 42.8254 179.088 42.8542 178.971C42.8831 178.854 42.946 178.748 43.035 178.666C43.1241 178.585 43.2353 178.532 43.3546 178.513C43.4739 178.495 43.596 178.512 43.7054 178.563C43.7784 178.597 43.844 178.645 43.8983 178.705C43.9527 178.764 43.9948 178.834 44.0222 178.909C44.0496 178.985 44.0617 179.065 44.058 179.146C44.0542 179.226 44.0346 179.305 44.0002 179.378Z" fill="white"/>
<path d="M51.3542 185.547C51.3027 185.656 51.22 185.748 51.1166 185.81C51.0131 185.872 50.8936 185.902 50.773 185.897C50.6524 185.891 50.5362 185.85 50.439 185.778C50.3419 185.707 50.2681 185.608 50.227 185.494C50.1859 185.381 50.1794 185.258 50.2082 185.14C50.2371 185.023 50.3 184.917 50.389 184.836C50.4781 184.754 50.5893 184.701 50.7086 184.682C50.8279 184.664 50.95 184.681 51.0594 184.732C51.2059 184.802 51.3189 184.927 51.3741 185.079C51.4293 185.232 51.4221 185.4 51.3542 185.547Z" fill="white"/>
<path d="M42.0814 183.789C42.0299 183.898 41.9472 183.99 41.8437 184.052C41.7403 184.114 41.6207 184.144 41.5002 184.139C41.3796 184.133 41.2634 184.092 41.1662 184.02C41.069 183.949 40.9953 183.85 40.9542 183.736C40.9131 183.623 40.9066 183.5 40.9354 183.382C40.9642 183.265 41.0272 183.159 41.1162 183.078C41.2053 182.996 41.3164 182.943 41.4358 182.924C41.5551 182.906 41.6771 182.923 41.7866 182.974C41.8596 183.008 41.9251 183.056 41.9795 183.116C42.0339 183.175 42.076 183.245 42.1033 183.32C42.1307 183.396 42.1429 183.476 42.1391 183.557C42.1354 183.637 42.1157 183.716 42.0814 183.789Z" fill="white"/>
<path d="M55.5832 176.741C55.5317 176.85 55.449 176.941 55.3456 177.004C55.2421 177.066 55.1226 177.096 55.002 177.09C54.8814 177.085 54.7652 177.043 54.668 176.972C54.5709 176.9 54.4971 176.801 54.456 176.688C54.4149 176.574 54.4084 176.451 54.4372 176.334C54.4661 176.217 54.529 176.111 54.618 176.029C54.7071 175.948 54.8183 175.894 54.9376 175.876C55.0569 175.858 55.179 175.875 55.2884 175.926C55.3614 175.96 55.427 176.008 55.4813 176.067C55.5357 176.127 55.5778 176.196 55.6052 176.272C55.6326 176.348 55.6447 176.428 55.641 176.509C55.6372 176.589 55.6176 176.668 55.5832 176.741Z" fill="white"/>
<path d="M53.5464 181.093C53.4948 181.202 53.4121 181.294 53.3087 181.356C53.2053 181.418 53.0857 181.448 52.9651 181.443C52.8445 181.437 52.7283 181.396 52.6312 181.324C52.534 181.252 52.4602 181.154 52.4191 181.04C52.3781 180.927 52.3715 180.803 52.4004 180.686C52.4292 180.569 52.4921 180.463 52.5812 180.381C52.6702 180.3 52.7814 180.247 52.9007 180.228C53.02 180.21 53.1421 180.227 53.2515 180.278C53.3245 180.312 53.3901 180.36 53.4445 180.42C53.4988 180.479 53.5409 180.549 53.5683 180.624C53.5957 180.7 53.6079 180.78 53.6041 180.861C53.6003 180.941 53.5807 181.02 53.5464 181.093Z" fill="white"/>
<path d="M53.9377 173.16C53.8862 173.269 53.8035 173.361 53.7001 173.423C53.5966 173.485 53.4771 173.515 53.3565 173.51C53.2359 173.504 53.1197 173.463 53.0225 173.391C52.9254 173.32 52.8516 173.221 52.8105 173.107C52.7694 172.994 52.7629 172.871 52.7917 172.753C52.8206 172.636 52.8835 172.53 52.9725 172.449C53.0616 172.367 53.1728 172.314 53.2921 172.295C53.4114 172.277 53.5335 172.294 53.6429 172.345C53.7159 172.379 53.7815 172.427 53.8358 172.487C53.8902 172.546 53.9323 172.616 53.9597 172.691C53.9871 172.767 53.9992 172.848 53.9955 172.928C53.9917 173.008 53.9721 173.087 53.9377 173.16Z" fill="white"/>
<path d="M58.2364 171.804C58.1849 171.913 58.1022 172.005 57.9988 172.067C57.8953 172.129 57.7758 172.159 57.6552 172.154C57.5346 172.148 57.4184 172.107 57.3212 172.035C57.2241 171.964 57.1503 171.865 57.1092 171.751C57.0681 171.638 57.0616 171.515 57.0904 171.397C57.1193 171.28 57.1822 171.174 57.2712 171.093C57.3603 171.011 57.4715 170.958 57.5908 170.939C57.7101 170.921 57.8322 170.938 57.9416 170.989C58.0146 171.023 58.0802 171.071 58.1345 171.131C58.1889 171.19 58.231 171.26 58.2584 171.336C58.2858 171.411 58.2979 171.492 58.2942 171.572C58.2904 171.652 58.2708 171.731 58.2364 171.804Z" fill="white"/>
<path d="M34.5344 183.017C35.7351 188.913 48.8349 195.27 49.73 195.243C50.6252 195.217 59.3191 173.696 59.3191 173.696C59.3191 173.696 48.7224 170.212 43.952 164.016C43.952 164.016 34.1592 181.168 34.5344 183.017Z" fill="#455A64"/>
<path d="M135.656 231.874H84.956C81.8686 220.082 79.0332 209.678 77.2269 203.106C76.0906 198.974 75.3616 196.353 75.2222 195.86C75.2148 195.831 75.2058 195.802 75.1954 195.774H127.922L129.53 203.165C130.168 206.156 130.977 209.93 131.91 214.244C131.985 214.62 132.07 215 132.151 215.397C133.212 220.339 134.407 225.94 135.656 231.874Z" fill="#455A64"/>
<path d="M92.6422 231.874H91.6882C89.0939 222.315 86.5622 212.738 84.093 203.144L83.8894 202.335C83.8411 202.115 84.1681 202.013 84.2324 202.233C84.3235 202.538 84.4146 202.838 84.5004 203.144C87.2983 212.696 89.989 222.279 92.6422 231.874Z" fill="#263238"/>
<path d="M123.816 195.86C123.403 198.365 122.801 200.836 122.015 203.251C121.425 205.17 120.713 207.244 119.909 209.383C119.737 209.871 119.544 210.343 119.373 210.825C116.816 217.337 113.477 223.973 110.025 227.125H109.998C109.593 227.512 109.152 227.858 108.679 228.159L105.742 229.976C105.745 229.99 105.745 230.005 105.742 230.019C105.742 230.196 105.608 230.834 105.442 231.863H55.953C54.6881 220.403 57.3252 209.683 59.6246 202.962C60.4294 200.532 61.389 198.156 62.4976 195.849L123.816 195.86Z" fill="#455A64"/>
<path d="M117.92 224.332C114.81 226.04 111.607 227.572 108.326 228.92C107.452 229.295 106.578 229.665 105.688 230.024C105.635 230.024 105.581 230.073 105.528 230.089C104.763 230.407 103.996 230.712 103.228 231.005C102.478 231.295 101.733 231.595 100.972 231.874H99.2993C100.452 231.295 101.658 230.802 102.832 230.266C104.461 229.551 106.096 228.836 107.736 228.122C108.481 227.8 109.226 227.473 109.966 227.141H109.993C112.549 226.004 115.095 224.868 117.727 223.925C117.99 223.796 118.161 224.193 117.92 224.332Z" fill="#263238"/>
<path d="M105.715 230.062C105.715 230.448 105.683 231.086 105.608 231.874H105.072C105.244 231.134 105.399 230.528 105.549 230.089C105.548 230.073 105.548 230.057 105.549 230.041C105.576 229.971 105.672 229.966 105.694 230.041C105.694 230.041 105.715 230.046 105.715 230.062Z" fill="#263238"/>
<path d="M67.284 198.942C66.614 200.282 66.0084 201.622 65.4456 203.026C62.0321 211.42 60.7433 220.526 61.6936 229.537C61.7847 230.319 61.8972 231.097 62.0152 231.874H61.1576C60.8191 229.61 60.6221 227.328 60.568 225.04C60.391 217.472 61.8652 209.956 64.8881 203.016C65.5206 201.574 66.2228 200.159 66.9892 198.781C66.9998 198.762 67.0141 198.745 67.0312 198.731C67.0484 198.717 67.0681 198.707 67.0893 198.7C67.1104 198.694 67.1326 198.692 67.1545 198.695C67.1764 198.697 67.1977 198.704 67.217 198.714C67.2364 198.725 67.2535 198.739 67.2673 198.756C67.2812 198.773 67.2915 198.793 67.2977 198.814C67.3039 198.835 67.3059 198.857 67.3036 198.879C67.3012 198.901 67.2946 198.923 67.284 198.942Z" fill="#263238"/>
<path d="M104.472 216.265C104.52 214.357 104.654 212.454 104.75 210.552C104.97 206.06 105.147 201.541 105.565 197.066C105.565 197.029 105.58 196.993 105.606 196.967C105.632 196.941 105.668 196.927 105.705 196.927C105.742 196.927 105.777 196.941 105.803 196.967C105.829 196.993 105.844 197.029 105.844 197.066C105.898 200.539 105.764 204.034 105.694 207.502C105.656 209.238 105.608 210.98 105.56 212.717C105.466 214.375 105.455 216.037 105.528 217.697C105.619 218.951 105.892 221.384 107.527 221.534C109.071 221.679 110.287 220.017 110.673 218.801C111.649 215.703 111.997 212.369 112.313 209.153C112.501 207.25 112.721 199.505 112.619 197.564C112.619 197.441 112.801 197.446 112.812 197.564C112.919 199.526 113.187 201.477 113.251 203.46C113.316 205.444 113.321 207.384 113.198 209.356C113.075 211.232 112.919 213.108 112.635 214.979C112.444 216.679 112.039 218.349 111.429 219.948C110.861 221.266 109.885 222.478 108.406 222.767C108.229 222.797 108.05 222.815 107.87 222.821C107.87 223.223 107.795 223.63 107.768 224.027C107.725 224.659 107.645 225.281 107.559 225.908C107.473 226.523 107.345 227.132 107.179 227.73C107.044 228.336 106.828 228.92 106.535 229.467C106.524 229.484 106.508 229.497 106.489 229.504C106.47 229.511 106.449 229.512 106.429 229.507C106.41 229.502 106.392 229.49 106.38 229.474C106.367 229.459 106.36 229.439 106.358 229.419C106.344 228.817 106.394 228.215 106.509 227.623C106.594 227.012 106.68 226.39 106.803 225.79C106.927 225.19 107.039 224.595 107.162 224C107.243 223.603 107.296 223.191 107.372 222.789C106.894 222.704 106.445 222.503 106.064 222.203C105.683 221.903 105.383 221.513 105.19 221.068C104.488 219.583 104.434 217.852 104.472 216.265Z" fill="#263238"/>
<path d="M103.561 130.087C109.955 138.1 135.029 166.535 148.965 169.188C158.35 170.984 188.5 155.638 195.104 150.08C197.784 147.807 182.706 125.311 179.024 126.217C175.036 127.198 153.339 141.622 150.519 141.456C147.7 141.29 125.494 128.806 112.024 123.28C103.93 119.935 99.9586 125.579 103.561 130.087Z" fill="#AD6359"/>
<path d="M186.823 155.44C192.622 153.205 210.208 140.871 213.13 137.666C216.051 134.461 223.791 124.647 221.561 122.16C219.331 119.673 216.844 122.369 216.844 122.369C216.844 122.369 219.776 117.304 216.989 115.401C214.764 113.884 211.05 117.491 211.05 117.491C211.05 117.491 213.971 111.772 210.964 110.244C208.225 108.851 205.208 113.75 205.208 113.75C205.208 113.75 207.164 108.717 204.27 107.886C200.786 106.878 197.393 115.588 193.903 118.885C193.11 119.63 169.703 131.116 169.703 131.116L186.823 155.44Z" fill="#AD6359"/>
<path d="M205.079 113.498C201.863 119.764 200.362 122.262 194.895 126.271C194.788 126.346 194.895 126.523 195.002 126.453C200.695 123.012 202.699 120.177 205.379 113.589C205.524 113.284 205.229 113.209 205.079 113.498Z" fill="#263238"/>
<path d="M210.986 117.491C207.796 123.923 205.358 126.341 199.96 130.956C199.88 131.02 199.96 131.159 200.067 131.1C205.744 127.011 208.874 124.379 211.216 117.545C211.323 117.239 211.13 117.202 210.986 117.491Z" fill="#263238"/>
<path d="M216.576 122.599C213.039 128.592 210.568 131.54 204.747 135.345C204.717 135.362 204.695 135.391 204.686 135.424C204.677 135.457 204.681 135.492 204.698 135.522C204.715 135.552 204.744 135.574 204.777 135.583C204.81 135.592 204.845 135.588 204.875 135.571C211.184 132.263 214.303 128.603 216.748 122.707C216.914 122.326 216.796 122.208 216.576 122.599Z" fill="#263238"/>
<path d="M239.93 140.293C224.541 144.784 209.378 149.281 194.638 153.773C185.81 133.941 184.507 114.109 178.461 94.277C193.871 89.78 209.013 85.2883 223.812 80.7913C232.624 100.618 233.9 120.455 239.93 140.293Z" fill="white"/>
<path d="M239.93 140.293C232.258 142.572 224.657 144.849 217.128 147.121C209.599 149.394 202.126 151.665 194.707 153.934L194.557 153.982L194.482 153.821C185.617 133.989 184.298 114.157 178.204 94.3252C178.177 94.2395 178.156 94.1537 178.129 94.0679L178.381 93.9929C193.791 89.5227 208.933 85.0524 223.732 80.5929L223.909 80.5393L223.989 80.7216C228.384 90.6644 230.887 100.607 233.047 110.55C235.208 120.493 236.96 130.382 239.93 140.293ZM239.93 140.293C236.869 130.371 234.993 120.461 232.774 110.523C230.555 100.586 228.047 90.7287 223.662 80.8341L223.914 80.9628C209.137 85.4812 193.973 90.0051 178.563 94.5236L178.74 94.1912C184.759 114.023 186.03 133.882 194.82 153.725L194.6 153.612C201.976 151.39 209.442 149.167 217 146.944C224.557 144.722 232.201 142.504 239.93 140.293Z" fill="#263238"/>
<path d="M185.745 102.912C194.439 100.411 203.082 97.9093 211.672 95.408C211.822 95.9172 211.972 96.4264 212.117 96.9356C203.509 99.4369 194.841 101.938 186.115 104.44C185.992 103.952 185.869 103.448 185.745 102.912Z" fill="#DBDBDB"/>
<path d="M186.667 106.793C195.404 104.291 204.102 101.79 212.76 99.2886L213.162 100.816C204.493 103.318 195.778 105.819 187.016 108.32C186.903 107.811 186.785 107.302 186.667 106.793Z" fill="#DBDBDB"/>
<path d="M187.536 110.652C196.305 108.151 205.043 105.649 213.751 103.148C213.875 103.684 214.003 104.166 214.121 104.676C205.406 107.177 196.651 109.678 187.857 112.18C187.761 111.67 187.648 111.161 187.536 110.652Z" fill="#DBDBDB"/>
<path d="M188.372 114.506C201.236 110.847 214.061 107.186 226.846 103.523L227.216 105.056C214.438 108.712 201.568 112.373 188.699 116.033C188.586 115.524 188.479 115.015 188.372 114.506Z" fill="#DBDBDB"/>
<path d="M189.208 118.365C202.072 114.702 214.927 111.041 227.773 107.382C227.891 107.892 228.009 108.401 228.122 108.91C215.29 112.573 202.426 116.233 189.53 119.893C189.406 119.383 189.299 118.874 189.208 118.365Z" fill="#DBDBDB"/>
<path d="M190.017 122.208L228.609 111.231C228.722 111.767 228.834 112.249 228.942 112.758C216.078 116.419 203.214 120.075 190.35 123.736C190.237 123.237 190.13 122.744 190.017 122.208Z" fill="#DBDBDB"/>
<path d="M190.87 126.078C203.694 122.415 216.558 118.754 229.462 115.095C229.574 115.631 229.681 116.114 229.789 116.623C216.925 120.282 204.071 123.943 191.229 127.605C191.1 127.096 190.982 126.587 190.87 126.078Z" fill="#DBDBDB"/>
<path d="M191.765 129.932C204.538 126.271 217.402 122.615 230.271 118.955C230.383 119.464 230.491 119.973 230.598 120.482C217.734 124.145 204.915 127.804 192.14 131.459C192.011 130.95 191.888 130.441 191.765 129.932Z" fill="#DBDBDB"/>
<path d="M192.729 133.791C205.433 130.128 218.223 126.467 231.102 122.808C231.214 123.318 231.321 123.827 231.434 124.336C218.591 127.999 205.826 131.66 193.137 135.319C192.997 134.809 192.863 134.3 192.729 133.791Z" fill="#DBDBDB"/>
<path d="M193.78 137.645C206.387 133.989 219.113 130.33 231.959 126.667C232.077 127.203 232.19 127.686 232.313 128.195C219.513 131.856 206.789 135.517 194.225 139.178C194.075 138.663 193.925 138.154 193.78 137.645Z" fill="#DBDBDB"/>
<path d="M194.932 141.504C207.439 137.845 220.083 134.184 232.865 130.521C232.989 131.057 233.112 131.54 233.24 132.049C220.505 135.712 207.9 139.373 195.426 143.032C195.259 142.523 195.104 142.04 194.932 141.504Z" fill="#DBDBDB"/>
<path d="M196.214 145.363C208.584 141.704 221.127 138.043 233.841 134.381C233.975 134.89 234.109 135.399 234.248 135.908C221.598 139.567 209.103 143.228 196.76 146.891L196.214 145.363Z" fill="#DBDBDB"/>
<path d="M169.703 131.122C169.703 131.122 175.401 125.285 177.963 122.385C180.525 119.485 186.646 110.282 189.969 110.502C193.721 110.748 191.009 120.445 186.469 125.655C186.469 125.655 192.499 135.27 188.377 140.486C187.482 141.611 180.986 145.181 179.372 144.849L169.703 131.122Z" fill="#AD6359"/>
<path d="M186.196 126.351C188.677 130.007 190.403 135.576 188.624 139.612C188.615 139.635 188.615 139.66 188.624 139.683C188.633 139.706 188.649 139.725 188.671 139.737C188.692 139.748 188.717 139.752 188.741 139.747C188.765 139.741 188.786 139.728 188.801 139.708C191.293 135.64 189.337 129.176 186.946 126.04C186.48 125.424 185.552 125.424 186.196 126.351Z" fill="#263238"/>
<path d="M169.703 131.122L186.823 155.44C186.873 156.984 186.45 158.507 185.609 159.803C184.769 161.1 183.552 162.108 182.122 162.692C177.014 164.927 155.885 172.549 147.518 169.725C139.151 166.9 115.283 146.328 104.986 132.655C94.6898 118.981 109.907 121.699 112.807 123.007C115.706 124.315 149.748 140.357 150.959 140.33C152.17 140.304 160.071 134.295 163.823 132.43C167.575 130.564 169.703 131.122 169.703 131.122Z" fill="#FCFB00"/>
<path opacity="0.1" d="M159.728 169.537C154.904 170.421 150.439 170.711 147.529 169.724C139.156 166.894 115.288 146.333 104.992 132.649C104.338 131.786 103.791 130.982 103.33 130.253L159.728 169.537Z" fill="black"/>
<path d="M180.155 160.462C178.584 158.538 177.277 156.4 175.91 154.341C174.543 152.283 173.23 150.278 171.906 148.231C169.226 144.109 166.455 140.014 164.059 135.737C164.051 135.717 164.051 135.696 164.057 135.676C164.064 135.656 164.077 135.639 164.095 135.628C164.112 135.616 164.133 135.611 164.154 135.614C164.175 135.616 164.194 135.625 164.209 135.64C167.302 139.537 169.998 143.75 172.71 147.893C174.071 149.969 175.402 152.063 176.703 154.175C178.024 156.177 179.232 158.251 180.321 160.387C180.369 160.489 180.219 160.543 180.155 160.462Z" fill="#263238"/>
<g opacity="0.1">
<path d="M174.666 165.501L172.731 166.16C172.63 165.45 172.582 164.733 172.587 164.016C172.587 162.66 172.694 161.336 172.678 160.044C172.682 158.752 172.557 157.463 172.303 156.196C172.044 154.954 171.609 153.756 171.011 152.637C170.866 152.358 170.7 152.101 170.544 151.833C170.389 151.565 170.212 151.34 170.035 151.093C169.655 150.605 169.258 150.101 168.845 149.608L166.38 146.612C165.544 145.604 164.718 144.591 163.903 143.557C163.089 142.522 162.295 141.45 161.561 140.341C160.799 139.194 160.141 137.981 159.594 136.718C159.406 136.256 159.245 135.783 159.112 135.302C159.803 134.847 160.484 134.407 161.127 134C161.339 134.578 161.584 135.144 161.861 135.694C162.453 136.777 163.106 137.826 163.818 138.835C165.254 140.925 166.766 143.032 168.283 145.16C169.038 146.232 169.815 147.304 170.523 148.413C170.877 148.976 171.231 149.544 171.547 150.16C171.702 150.471 171.858 150.777 171.997 151.12C172.136 151.463 172.238 151.774 172.335 152.106C173.128 154.743 173.246 157.402 173.551 160.001C173.758 161.864 174.131 163.705 174.666 165.501Z" fill="black"/>
<path d="M167.902 167.597C167.366 167.747 166.862 167.891 166.332 168.031C165.688 165.812 165.651 163.625 165.603 161.465V158.12C165.603 157.584 165.603 157.021 165.56 156.48C165.548 155.955 165.496 155.432 165.404 154.915C165.385 154.798 165.355 154.683 165.313 154.572L165.179 154.207L165.018 153.854C164.959 153.736 164.89 153.623 164.831 153.505C164.559 153.043 164.235 152.613 163.866 152.224C163.095 151.441 162.221 150.768 161.266 150.225C160.789 149.935 160.296 149.689 159.798 149.426L158.292 148.66C157.213 148.157 156.24 147.455 155.424 146.591C155.222 146.349 155.042 146.089 154.888 145.814C154.808 145.674 154.738 145.524 154.668 145.379L154.502 144.951C154.309 144.385 154.164 143.804 154.068 143.214C153.886 142.073 153.818 140.917 153.864 139.762C153.864 139.424 153.896 139.087 153.923 138.749L154.995 138.042C154.995 138.615 154.995 139.183 155.043 139.751C155.087 140.831 155.209 141.906 155.408 142.967C155.512 143.477 155.651 143.978 155.826 144.468L155.965 144.822C156.019 144.924 156.056 145.031 156.115 145.138C156.227 145.349 156.355 145.551 156.496 145.744C157.151 146.569 157.916 147.301 158.769 147.92C159.642 148.59 160.591 149.196 161.529 149.812C162.498 150.402 163.421 151.065 164.289 151.795C164.735 152.175 165.142 152.597 165.506 153.055C165.689 153.29 165.859 153.535 166.015 153.789L166.235 154.18C166.308 154.324 166.37 154.473 166.423 154.625C166.609 155.19 166.74 155.772 166.814 156.362C166.905 156.93 166.953 157.498 167.002 158.061C167.093 159.187 167.146 160.302 167.221 161.406C167.296 162.51 167.377 163.614 167.484 164.697C167.558 165.672 167.697 166.641 167.902 167.597Z" fill="black"/>
</g>
<path d="M57.0626 206.499C57.1162 206.569 130.264 203.149 130.741 202.699C130.961 202.49 131.91 198.325 130.789 192.542C127.429 175.202 117.357 139.783 108.476 124.797C106.257 121.045 96.2549 115.529 88.9975 122.615C74.2843 136.98 62.7335 173.535 58.1828 193.614C55.9531 203.428 56.7624 206.081 57.0626 206.499Z" fill="#FCFB00"/>
<g opacity="0.1">
<path d="M130.462 190.886C130.243 190.886 130.023 190.886 129.808 190.918C127.729 191.117 125.663 191.441 123.623 191.888C119.415 192.746 115.133 193.711 110.818 194.67C108.674 195.147 106.498 195.651 104.273 196.015C103.159 196.192 102.038 196.369 100.875 196.455C100.286 196.492 99.7067 196.535 99.0742 196.525C98.4417 196.514 97.9057 196.466 97.3215 196.396C92.6851 195.897 88.4668 194.327 84.2056 193.089C79.9444 191.851 75.5492 191.004 71.6364 191.02C70.6716 191.02 69.6317 191.1 68.5865 191.197C67.5413 191.293 66.4961 191.449 65.4402 191.604C63.3337 191.942 61.2058 192.365 59.0833 192.826L58.3168 192.998C58.5741 191.872 58.8528 190.693 59.1583 189.476C60.998 188.868 62.8697 188.362 64.7649 187.959C65.8797 187.716 67.0125 187.523 68.1631 187.38C68.742 187.311 69.3208 187.252 69.9051 187.22C70.5119 187.179 71.1207 187.179 71.7275 187.22C74.0957 187.38 76.4159 187.965 78.5776 188.946C80.6894 189.825 82.6619 190.864 84.6987 191.706C86.7103 192.567 88.8043 193.221 90.9484 193.657C93.0566 194.073 95.2134 194.187 97.3536 193.995C97.8896 193.957 98.4256 193.877 98.9134 193.807C99.4012 193.737 99.8943 193.609 100.398 193.491C101.417 193.217 102.456 192.955 103.491 192.623L109.8 190.752C111.911 190.114 114.045 189.492 116.194 188.908C118.343 188.324 120.53 187.804 122.765 187.391C125.005 186.966 127.277 186.74 129.557 186.716C129.889 188.174 130.189 189.573 130.462 190.886Z" fill="black"/>
<path d="M127.273 177.287C125.784 176.758 124.262 176.325 122.717 175.99C121.855 175.812 120.981 175.697 120.102 175.647H119.464C119.265 175.647 119.072 175.647 118.874 175.674C118.47 175.713 118.069 175.778 117.673 175.867C115.956 176.345 114.312 177.054 112.785 177.974C111.177 178.895 109.569 179.967 108.015 181.034C106.454 182.153 104.811 183.153 103.1 184.025C102.215 184.467 101.291 184.826 100.339 185.097C99.8522 185.228 99.3583 185.332 98.8598 185.408L98.088 185.456C97.815 185.475 97.541 185.475 97.2679 185.456C96.2646 185.376 95.2717 185.196 94.3038 184.92C93.3605 184.684 92.4439 184.384 91.5381 184.089C89.721 183.489 87.9469 182.84 86.1781 182.224C84.4093 181.608 82.6351 181.007 80.877 180.461C79.1682 179.9 77.4195 179.47 75.6457 179.174C74.817 179.049 73.9758 179.031 73.1426 179.121C72.2654 179.22 71.3966 179.383 70.543 179.608C68.767 180.082 67.0232 180.669 65.3223 181.366C63.7894 181.988 62.2635 182.653 60.7449 183.36C60.911 182.744 61.0826 182.122 61.2809 181.49C62.3529 180.836 63.441 180.218 64.5451 179.635C66.2686 178.722 68.0607 177.944 69.9051 177.309C70.8611 176.992 71.8393 176.746 72.8317 176.575C73.8703 176.394 74.9287 176.354 75.978 176.457C80.0516 176.864 83.6374 178.3 87.1643 179.71L92.3957 181.854C93.2586 182.213 94.127 182.551 94.9846 182.878C95.8091 183.203 96.6565 183.466 97.5198 183.666C97.7178 183.708 97.9184 183.736 98.1202 183.752L98.7741 183.778H99.4333C99.6585 183.778 99.8782 183.736 100.098 183.714C100.997 183.596 101.88 183.377 102.73 183.06C104.453 182.37 106.076 181.451 107.554 180.327C108.31 179.791 109.028 179.163 109.762 178.568L111.949 176.719C113.434 175.508 115.031 174.275 117.068 173.621C117.58 173.451 118.108 173.333 118.644 173.267C118.917 173.23 119.18 173.225 119.469 173.208H120.246C121.255 173.28 122.255 173.438 123.237 173.68C124.394 173.955 125.53 174.314 126.635 174.752L127.273 177.287Z" fill="black"/>
</g>
<path d="M81.3165 124.352C57.4377 134.477 38.8975 143.294 41.5882 152.471C42.6602 156.072 48.8778 165.79 56.8856 165.779C63.1783 165.779 74.3968 155.681 87.1804 138.02C93.8 128.881 96.3942 117.952 81.3165 124.352Z" fill="#FCFB00"/>
<path d="M85.551 142.865C84.5326 143.707 83.5195 144.57 82.5279 145.449L83.1658 144.709C84.8756 142.683 86.564 140.641 88.2524 138.599C88.2846 138.556 88.2149 138.502 88.1774 138.545C84.9614 141.965 81.7454 145.353 78.4919 148.761C75.2383 152.17 66.7535 160.805 64.6899 162.499C64.647 162.537 64.6899 162.606 64.7435 162.574C66.6087 161.116 71.8455 156.732 73.5178 155.097C76.0441 152.624 78.4722 150.073 80.802 147.443C82.502 146.042 84.1249 144.549 85.6635 142.973C85.7225 142.914 85.6207 142.807 85.551 142.865Z" fill="#263238"/>
<path d="M50.1267 160.226C39.6854 155.938 32.9211 124.266 30.359 102.949C29.8713 98.8919 61.9455 94.9845 61.983 99.3529C62.1117 124.288 61.5649 164.911 50.1267 160.226Z" fill="#AD6359"/>
<path d="M26.3283 86.3336C26.5159 93.1354 32.3422 110.164 35.0275 112.946C37.7129 115.728 58.0755 105.978 59.1958 102.226C60.316 98.474 61.2808 76.1657 56.7945 70.87C52.3082 65.5743 26.1299 79.2906 26.3283 86.3336Z" fill="#AD6359"/>
<path d="M62.0634 80.4C60.2839 83.5356 57.6093 79.6443 57.6093 79.6443C57.6093 79.6443 60.1124 86.1728 57.0304 88.6973C54.0502 91.12 50.979 86.3068 50.7592 85.9637C50.8878 86.3121 53.0318 92.3957 49.6872 94.588C46.1925 96.8874 43.9413 91.5274 43.7912 91.179C43.7912 91.5488 43.9895 96.3836 41.0522 97.4877C36.0085 99.3852 35.2152 87.025 31.8223 84.2807C31.8223 84.2807 26.5213 86.7463 26.3337 86.8642C26.3337 86.8642 25.3421 77.8808 29.2924 73.5071C29.8565 72.8613 30.6248 72.4283 31.4694 72.28C32.314 72.1318 33.1838 72.2773 33.9342 72.6924C33.9342 72.6924 33.1998 68.9404 35.7887 67.1126C37.118 66.1746 39.8034 67.4771 39.8034 67.4771C39.8034 67.4771 39.337 64.4487 41.7383 62.964C43.6572 61.774 46.0263 63.2641 46.0263 63.2641C46.0263 63.2641 46.9268 60.15 49.2798 59.5657C54.0342 58.3704 65.8637 73.6679 62.0634 80.4Z" fill="#AD6359"/>
<path d="M46.4498 63.4248C46.4441 63.4149 46.4417 63.4034 46.443 63.392C46.4443 63.3807 46.4492 63.37 46.4569 63.3616C46.4647 63.3532 46.475 63.3475 46.4863 63.3454C46.4975 63.3433 46.5091 63.3448 46.5194 63.3498C51.6382 67.4287 56.012 73.4802 57.7754 79.8211C57.8344 80.0301 57.5182 80.2177 57.411 79.9979C54.345 73.8071 51.129 68.5543 46.4498 63.4248Z" fill="#263238"/>
<path d="M39.7605 67.3592C39.7123 67.3056 39.8034 67.2199 39.8677 67.2681C45.1205 71.5025 49.8587 78.4544 51.0272 86.0281C51.0701 86.2854 50.845 86.5641 50.7753 86.264C49.6175 81.2792 43.9949 71.9581 39.7605 67.3592Z" fill="#263238"/>
<path d="M43.684 91.7203C42.2796 84.5219 38.7099 78.4972 34.1539 72.8371C34.0949 72.762 34.2075 72.687 34.2718 72.7352C37.2573 74.8792 39.7819 78.8081 41.4917 82.0187C43.1371 84.9621 43.9852 88.2842 43.952 91.656C43.952 91.8061 43.7108 91.8758 43.684 91.7203Z" fill="#263238"/>
<path d="M57.6092 79.6282C57.9733 80.9233 58.2173 82.2493 58.3382 83.5892C58.5034 84.8881 58.3184 86.2076 57.8022 87.4109C57.5416 87.9518 57.0887 88.3761 56.5319 88.6008C55.9682 88.8214 55.3572 88.8933 54.7577 88.8099C54.1669 88.68 53.6103 88.4266 53.1244 88.0663C52.6384 87.706 52.2343 87.247 51.9383 86.7195L50.3839 84.2056L50.9735 87.1054C51.2435 88.3915 51.3033 89.7129 51.1504 91.0182C50.9843 92.2885 50.4804 93.5106 49.5103 94.1538C49.0615 94.4983 48.5082 94.6787 47.9426 94.6651C47.377 94.6514 46.8331 94.4445 46.4015 94.0787C45.4518 93.2391 44.7323 92.1709 44.3111 90.9753L43.03 87.7164L43.1694 91.2004C43.2131 92.17 43.1302 93.1412 42.9228 94.0895C42.7629 94.9955 42.3397 95.8344 41.7061 96.5015C41.4073 96.7887 41.0344 96.9871 40.6292 97.0742C40.2239 97.1613 39.8025 97.1337 39.412 96.9946C38.587 96.5528 37.9047 95.8854 37.4449 95.0703C36.4352 93.3187 35.5642 91.4908 34.8399 89.6031C34.4379 88.6598 34.0306 87.7164 33.5803 86.7891C33.1784 85.8333 32.5794 84.9731 31.8223 84.2646C32.4864 85.0388 32.9943 85.9343 33.3177 86.9017C33.6929 87.8504 34.0252 88.8206 34.3575 89.7907C34.9767 91.7708 35.7826 93.6875 36.7642 95.5152C37.2801 96.5151 38.0751 97.3437 39.0529 97.9004C39.6179 98.1432 40.2414 98.2157 40.847 98.1091C41.4526 98.0024 42.0138 97.7213 42.4619 97.3001C43.2817 96.499 43.8419 95.4701 44.0699 94.3467C44.3165 93.2933 44.4246 92.2122 44.3915 91.1307L43.2551 91.3559C43.731 92.779 44.5719 94.0525 45.6939 95.0489C46.3306 95.585 47.1343 95.8826 47.9666 95.8904C48.7833 95.87 49.575 95.6049 50.2392 95.1293C51.5953 94.1859 52.1527 92.5833 52.3135 91.1629C52.4636 89.7289 52.3748 88.2799 52.0509 86.8749L51.0807 87.2662C51.4732 87.9063 52.0008 88.4529 52.6267 88.8677C53.2526 89.2825 53.9616 89.5555 54.7041 89.6675C55.451 89.7351 56.2027 89.6077 56.8856 89.2976C57.5826 88.9692 58.1355 88.3973 58.44 87.6896C59.0296 86.3228 58.9063 84.8863 58.7187 83.5463C58.4968 82.2029 58.1246 80.8886 57.6092 79.6282Z" fill="#263238"/>
<path d="M59.8283 103.662C59.8283 103.662 76.3692 73.3785 60.9003 72.9765C57.1483 72.88 42.2421 78.9261 43.3195 81.9438C44.7131 85.8458 51.3595 84.6506 55.4545 83.2355C55.4545 83.2355 50.5608 91.8544 55.5456 97.0536C57.4029 98.9463 58.8595 101.194 59.8283 103.662Z" fill="#AD6359"/>
<path d="M61.9723 72.9605C60.4992 72.9029 59.0256 73.0618 57.5986 73.4321C56.1613 73.7621 54.7483 74.1901 53.3695 74.7132C50.5866 75.7151 47.8964 76.958 45.3295 78.4277C44.651 78.8183 44.0304 79.3018 43.4857 79.8641C43.1753 80.1913 42.941 80.583 42.7996 81.0112C42.7196 81.2475 42.6815 81.496 42.687 81.7455C42.6939 81.9904 42.7391 82.2328 42.821 82.4637C43.128 83.2938 43.7184 83.9886 44.488 84.4255C45.2042 84.8027 45.9804 85.053 46.7821 85.1652C48.301 85.348 49.84 85.27 51.3327 84.9347C52.7898 84.6342 54.223 84.2276 55.6207 83.718L55.015 82.9729C54.4934 83.9775 54.0681 85.0292 53.7447 86.1139C53.4132 87.1855 53.1923 88.2883 53.0854 89.4049C52.9919 90.5256 53.0605 91.6539 53.2891 92.7549C53.5189 93.8436 53.9536 94.8786 54.5702 95.8048C54.0897 94.8256 53.7763 93.7731 53.6429 92.6906C53.5262 91.6197 53.555 90.5378 53.7286 89.4746C53.8915 88.4157 54.1609 87.376 54.5326 86.3712C54.897 85.3702 55.3527 84.4049 55.8941 83.4875L56.5748 82.3673L55.2884 82.7478C53.9245 83.1855 52.5333 83.5329 51.1237 83.7877C49.7534 84.0663 48.3471 84.1224 46.959 83.9538C45.6565 83.7555 44.3165 83.1445 43.952 82.0778C43.5446 81.1666 44.7828 80.1429 45.9352 79.3978C47.1473 78.6307 48.3998 77.9293 49.6872 77.2967C50.979 76.6321 52.2814 75.9889 53.6107 75.4153C56.3229 74.3273 59.0511 73.1909 61.9723 72.9605Z" fill="#263238"/>
<path d="M63.248 105.512L29.8927 112.801C29.8927 112.801 27.6951 119.126 29.6355 125.692C33.3178 138.149 44.3004 164.89 53.1605 164.284C62.7549 163.614 65.0865 130.189 64.9525 113.82C64.856 108.272 63.248 105.512 63.248 105.512Z" fill="#FCFB00"/>
<g opacity="0.1">
<path d="M64.9149 118.52C64.9149 119.222 64.9149 119.946 64.8667 120.664C64.0627 121.066 63.2587 121.447 62.3904 121.774C61.7633 122.02 61.1201 122.245 60.4661 122.438C60.1338 122.535 59.8015 122.631 59.4638 122.706C59.1105 122.79 58.7525 122.853 58.3918 122.894C56.9942 123.029 55.5838 122.912 54.2271 122.551C52.9139 122.245 51.6597 121.827 50.3893 121.538C49.1352 121.23 47.8529 121.05 46.5623 121.002C45.2979 120.965 44.0347 121.108 42.8103 121.425C42.5101 121.5 42.2046 121.597 41.9205 121.688C41.6365 121.779 41.3845 121.897 41.0844 122.015C40.5216 122.272 39.9427 122.551 39.3638 122.824L35.8745 124.529C34.706 125.102 33.5214 125.676 32.3261 126.223C31.6025 126.566 30.8629 126.882 30.1125 127.187C29.9463 126.651 29.7909 126.153 29.6461 125.665C29.5336 125.295 29.4371 124.925 29.3621 124.556C31.1898 123.837 33.039 123.087 34.8936 122.331C36.1103 121.849 37.3163 121.34 38.5813 120.911C39.2137 120.702 39.8462 120.487 40.5162 120.327C40.8539 120.246 41.1916 120.166 41.5882 120.112C41.9849 120.059 42.2743 120.032 42.6173 120.016C45.3724 119.855 47.9773 120.359 50.5823 120.664C53.0804 121.013 55.615 121.013 58.1131 120.664C58.6491 120.568 59.2709 120.423 59.8712 120.262C60.4715 120.101 61.0665 119.914 61.6668 119.726C62.712 119.362 63.8215 118.954 64.9149 118.52Z" fill="black"/>
<path d="M64.7327 124.352C64.7327 124.738 64.7005 125.124 64.6791 125.515C64.2396 125.885 63.7947 126.244 63.3337 126.587C62.4208 127.284 61.4569 127.911 60.4501 128.463C59.9315 128.738 59.3942 128.977 58.8421 129.176C58.2535 129.38 57.6409 129.506 57.0197 129.551C54.6023 129.707 52.3779 129.219 50.1803 128.742L46.9214 127.991C46.3854 127.868 45.8494 127.756 45.3134 127.648C44.8011 127.54 44.2816 127.468 43.759 127.434C43.6412 127.426 43.523 127.426 43.4053 127.434L43.0193 127.482L42.6334 127.557C42.5101 127.557 42.3815 127.627 42.2529 127.659C41.7225 127.824 41.2134 128.051 40.736 128.335C39.7939 128.901 38.9352 129.595 38.1846 130.398C37.7933 130.795 37.4342 131.218 37.0644 131.636L35.9924 132.928C35.2547 133.861 34.3449 134.643 33.3124 135.233C33.204 135.293 33.0911 135.345 32.9747 135.388C32.8085 134.954 32.6477 134.525 32.4869 134.097C32.5673 134.064 32.6531 134.038 32.7335 134C33.687 133.553 34.5759 132.98 35.376 132.296C36.2336 131.599 37.0429 130.822 37.8577 130.05C38.6592 129.244 39.5211 128.5 40.4358 127.825C40.9071 127.482 41.4096 127.185 41.9366 126.936C42.21 126.812 42.4726 126.71 42.7728 126.614L43.2069 126.491C43.357 126.459 43.5339 126.426 43.684 126.41C44.2758 126.354 44.8717 126.354 45.4635 126.41C46.037 126.459 46.5998 126.539 47.1573 126.625C48.2721 126.802 49.3709 127.005 50.4644 127.193C51.5578 127.38 52.6459 127.557 53.7233 127.702C54.7733 127.863 55.8341 127.943 56.8964 127.943C57.393 127.934 57.8865 127.862 58.365 127.729C58.8651 127.586 59.3542 127.407 59.8283 127.193C60.8186 126.746 61.7783 126.233 62.7013 125.66C63.3873 125.256 64.0645 124.82 64.7327 124.352Z" fill="black"/>
</g>
<path d="M62.8352 114.49C46.3371 119.121 34.4272 121.27 32.1063 121.629C32.0936 121.629 32.0813 121.624 32.0722 121.615C32.0632 121.606 32.0581 121.594 32.0581 121.581C32.0581 121.568 32.0632 121.556 32.0722 121.547C32.0813 121.538 32.0936 121.533 32.1063 121.533C43.5714 118.016 61.7096 114.382 62.8245 114.291C62.8473 114.295 62.868 114.307 62.8834 114.324C62.8987 114.341 62.9078 114.363 62.909 114.386C62.9103 114.409 62.9036 114.432 62.8902 114.451C62.8768 114.47 62.8574 114.483 62.8352 114.49Z" fill="#263238"/>
<path d="M64.4594 134.322C64.0681 137.447 63.1783 142.405 62.4601 145.471C62.4118 145.663 62.3636 145.856 62.3207 146.049C62.5243 147.149 62.6266 148.265 62.6262 149.383C62.6262 150.691 62.5137 151.983 62.3797 153.28C62.3797 153.334 62.2886 153.328 62.2939 153.28C62.3797 151.989 62.369 150.694 62.2618 149.405C62.2028 148.638 62.1385 147.866 62.0742 147.095C61.372 150.021 60.6323 152.948 59.7211 155.815C59.7211 155.869 59.6246 155.815 59.6407 155.783C60.3268 152.669 61.0611 149.56 61.6346 146.425C62.2082 143.289 63.5214 135.93 64.0681 132.816C64.5022 130.345 64.5826 133.341 64.4594 134.322Z" fill="#263238"/>
<path d="M94.872 121.302C95.2633 122.444 101.583 129.492 106.9 128.721C108.637 128.463 107.666 118.949 107.666 118.949L107.757 118.231L109.001 108.165L94.9417 101.052C94.9417 101.052 94.7059 120.815 94.872 121.302Z" fill="#AD6359"/>
<path d="M108.99 108.17L107.736 118.226L107.65 118.949C107.65 118.949 107.822 120.675 107.891 122.669C100.505 122.299 96.6354 117.154 94.813 113.52C94.8451 107.811 94.9256 101.052 94.9256 101.052L108.99 108.17Z" fill="#263238"/>
<path d="M124.668 91.0129C129.803 112.121 117.738 117.577 113.182 118.681C109.049 119.678 94.8506 122.557 87.5663 102.092C80.2821 81.6275 88.4722 72.5691 97.8039 69.7819C107.136 66.9947 119.528 69.8999 124.668 91.0129Z" fill="#AD6359"/>
<path d="M118.606 91.6185C118.105 91.6258 117.604 91.6061 117.105 91.5596C116.575 91.6142 116.042 91.4917 115.588 91.2112C115.463 91.095 115.379 90.9403 115.351 90.7714C115.323 90.6026 115.352 90.4292 115.433 90.2785C115.635 90.0038 115.908 89.7885 116.222 89.6555C116.536 89.5225 116.88 89.4767 117.218 89.5228C117.917 89.5039 118.597 89.7466 119.126 90.2035C119.24 90.3147 119.32 90.4566 119.355 90.6121C119.391 90.7676 119.38 90.93 119.325 91.0797C119.27 91.2293 119.173 91.3599 119.045 91.4555C118.918 91.5511 118.765 91.6077 118.606 91.6185Z" fill="#263238"/>
<path d="M103.587 94.8346C104.062 94.6796 104.529 94.5007 104.986 94.2986C105.504 94.1741 105.965 93.882 106.299 93.4678C106.381 93.3168 106.409 93.1428 106.38 92.9737C106.351 92.8046 106.266 92.6502 106.139 92.5351C105.857 92.3436 105.528 92.2311 105.188 92.2094C104.848 92.1877 104.508 92.2577 104.204 92.4119C103.538 92.627 102.977 93.0816 102.628 93.6875C102.562 93.8298 102.537 93.988 102.557 94.1436C102.578 94.2993 102.642 94.4459 102.743 94.5663C102.843 94.6867 102.976 94.7759 103.126 94.8234C103.276 94.8709 103.436 94.8748 103.587 94.8346Z" fill="#263238"/>
<path d="M109.944 109.414C110.336 109.719 110.738 110.153 111.274 110.143C111.82 110.075 112.346 109.892 112.817 109.607C112.827 109.603 112.838 109.602 112.848 109.604C112.858 109.606 112.868 109.611 112.875 109.619C112.883 109.626 112.888 109.635 112.89 109.646C112.892 109.656 112.891 109.667 112.887 109.676C112.708 109.988 112.448 110.245 112.135 110.42C111.821 110.596 111.466 110.683 111.107 110.673C110.799 110.629 110.511 110.494 110.28 110.285C110.048 110.075 109.885 109.802 109.81 109.499C109.778 109.414 109.88 109.344 109.944 109.414Z" fill="#263238"/>
<path d="M115.272 105.903C114.888 106.87 114.262 107.723 113.455 108.379C113.002 108.717 112.455 108.904 111.89 108.915C110.652 108.947 110.32 107.897 110.282 106.932C110.261 106.418 110.302 105.903 110.405 105.399C111.932 106.082 113.638 106.258 115.272 105.903Z" fill="white"/>
<path d="M114.532 107.27C114.473 107.35 114.409 107.441 114.339 107.522C113.95 107.567 113.556 107.567 113.166 107.522C113.632 107.436 114.088 107.356 114.532 107.27Z" fill="#DBDBDB"/>
<path d="M111.922 107.42C111.621 107.423 111.321 107.39 111.027 107.323C110.771 107.257 110.522 107.167 110.282 107.055C110.282 107.023 110.282 106.98 110.282 106.948C110.282 106.916 110.282 106.841 110.282 106.787C110.815 107.032 111.363 107.244 111.922 107.42Z" fill="#DBDBDB"/>
<path d="M115.17 103.126C115.17 103.126 115.83 105.27 116.001 106.283C116.001 106.38 115.776 106.466 115.433 106.541C115.433 106.541 115.406 106.541 115.39 106.541C114.535 106.848 113.611 106.914 112.721 106.731C111.83 106.549 111.007 106.125 110.341 105.506C110.318 105.489 110.303 105.464 110.299 105.436C110.295 105.407 110.302 105.379 110.32 105.356C110.337 105.333 110.362 105.318 110.39 105.314C110.418 105.31 110.447 105.318 110.47 105.335C111.93 106.014 113.572 106.202 115.149 105.871C115.149 105.576 113.884 102.226 114.05 102.226C114.752 102.226 116.006 102.328 116.473 102.365C116.071 100.972 114.742 97.0749 114.018 94.5343C113.975 94.3789 114.216 94.2824 114.275 94.4271C115.598 97.2288 116.733 100.115 117.673 103.067C117.743 103.314 115.61 103.228 115.17 103.126Z" fill="#263238"/>
<path d="M104.761 98.7848C104.768 98.4055 104.877 98.0352 105.077 97.7128C105.196 97.5445 105.347 97.4021 105.522 97.2943C105.697 97.1864 105.892 97.1155 106.096 97.0857C106.304 97.0611 106.516 97.0856 106.713 97.1572C106.91 97.2289 107.088 97.3457 107.232 97.4984C107.481 97.7694 107.665 98.094 107.768 98.4471C107.824 98.6588 107.867 98.8736 107.897 99.0903C107.96 99.5419 107.92 100.002 107.779 100.436C107.754 100.107 107.693 99.7812 107.597 99.4655C107.514 99.1818 107.412 98.9042 107.291 98.6347C107.028 98.0987 106.632 97.6539 106.176 97.7396C105.721 97.8254 105.394 98.2327 105.276 98.8116C105.176 99.4353 105.136 100.067 105.158 100.698C104.882 100.099 104.747 99.4445 104.761 98.7848Z" fill="#263238"/>
<path d="M119.362 95.944C119.214 95.6006 118.975 95.3041 118.67 95.0864C118.498 94.974 118.304 94.8983 118.102 94.8642C117.899 94.8301 117.691 94.8382 117.491 94.888C117.289 94.9428 117.102 95.0446 116.947 95.1853C116.791 95.326 116.671 95.5014 116.596 95.6974C116.467 96.039 116.421 96.4065 116.462 96.7694C116.487 96.9866 116.528 97.2017 116.585 97.4126C116.692 97.8564 116.903 98.2681 117.202 98.6132C117.097 98.3007 117.031 97.9768 117.003 97.6484C116.98 97.3523 116.98 97.0548 117.003 96.7587C117.036 96.153 117.239 95.6063 117.695 95.5152C118.151 95.424 118.606 95.6706 118.938 96.1852C119.266 96.7257 119.541 97.2965 119.759 97.8897C119.783 97.2187 119.647 96.5516 119.362 95.944Z" fill="#263238"/>
<path d="M85.4759 103.984C91.9347 104.054 94.8398 96.1851 92.9799 90.1069C92.9799 90.1069 110.218 91.3611 110.223 77.5859C111.534 79.3707 113.264 80.8055 115.261 81.7636C117.258 82.7217 119.459 83.1738 121.672 83.0799L123.886 88.0272C125.612 87.4162 127.182 82.3242 122.658 78.6633C122.658 78.6633 121.961 71.84 116.671 68.0291C115.239 66.9303 113.52 66.2688 111.721 66.1243C109.922 65.9798 108.119 66.3583 106.53 67.2143C103.425 65.2368 99.6731 64.5447 96.0673 65.2847C89.8389 66.4639 87.5824 72.3599 87.5824 72.3599C87.5824 72.3599 79.2047 74.5039 78.122 80.5822C77.7726 82.3156 77.795 84.1034 78.1877 85.8275C78.5804 87.5516 79.3344 89.1728 80.4 90.5839C80.4 90.5839 78.4168 93.0763 79.7997 98.1469C80.668 101.379 83.541 103.984 85.4759 103.984Z" fill="#263238"/>
<path d="M109.762 76.4014C109.958 77.5067 110.037 78.6295 109.998 79.7514C109.99 80.8583 109.846 81.96 109.569 83.0317C109.041 85.1526 107.731 86.9959 105.903 88.1934C104.129 89.4851 101.856 89.8014 99.6907 90.1444C98.5812 90.1766 97.4663 90.2891 96.346 90.257C95.2258 90.2248 94.1056 90.1391 92.9692 90.1176C94.0788 90.3159 95.199 90.4714 96.3246 90.6536C97.4502 90.8359 98.5919 90.7233 99.7389 90.7608C101.99 90.5357 104.359 90.2248 106.337 88.858C108.306 87.5369 109.68 85.4975 110.164 83.1764C110.603 80.9202 110.465 78.5898 109.762 76.4014Z" fill="#263238"/>
<path d="M87.5824 72.3601C85.4101 72.5056 83.2914 73.0987 81.3594 74.1021C79.3431 75.0961 77.7427 76.7704 76.8409 78.8296C76.4626 79.8778 76.2545 80.9799 76.2245 82.0939C76.1542 83.1995 76.2738 84.309 76.5783 85.3742C77.1509 87.53 78.5157 89.3904 80.4 90.5841C78.7759 89.2129 77.6462 87.347 77.184 85.2723C76.7315 83.2404 76.8729 81.1211 77.5913 79.1673C77.9623 78.217 78.5077 77.3444 79.1993 76.5945C79.9335 75.8563 80.7563 75.2117 81.6488 74.6756C83.4915 73.5942 85.4943 72.8126 87.5824 72.3601Z" fill="#263238"/>
<path d="M106.551 67.236C108.13 66.5525 109.807 66.1255 111.52 65.971C113.19 65.8087 114.873 66.0781 116.408 66.7536C117.91 67.4924 119.201 68.5986 120.16 69.9696C121.151 71.3764 121.931 72.9203 122.476 74.5524C122.219 72.8046 121.602 71.1292 120.664 69.6319C119.756 68.052 118.382 66.7917 116.729 66.024C115.077 65.2562 113.227 65.0187 111.434 65.3439C109.689 65.6139 108.023 66.2594 106.551 67.236Z" fill="#263238"/>
<path d="M119.051 83.8144C117.139 83.2884 115.327 82.4479 113.691 81.3274C112.891 80.7686 112.17 80.1052 111.547 79.3549C110.917 78.5807 110.378 77.7373 109.939 76.8411C110.088 77.8641 110.453 78.8435 111.011 79.714C111.57 80.6002 112.299 81.367 113.155 81.9706C114.004 82.573 114.943 83.0379 115.937 83.3481C116.94 83.6822 117.994 83.84 119.051 83.8144Z" fill="#263238"/>
<path d="M105.463 106.814C104.046 106.914 102.629 106.614 101.374 105.948C100.119 105.283 99.0761 104.278 98.3637 103.049C97.6514 101.819 97.2983 100.415 97.3448 98.995C97.3912 97.5751 97.8352 96.1967 98.6264 95.0166C99.4175 93.8366 100.524 92.9022 101.82 92.32C103.116 91.7377 104.549 91.5309 105.957 91.723C107.365 91.9152 108.69 92.4986 109.782 93.4068C110.875 94.315 111.691 95.5117 112.137 96.8606C112.764 98.772 112.609 100.854 111.705 102.651C110.801 104.448 109.221 105.814 107.313 106.45C106.713 106.645 106.092 106.768 105.463 106.814ZM104.472 92.6852C103.925 92.7247 103.385 92.8309 102.864 93.0014C101.276 93.526 99.9488 94.6359 99.151 96.1051C98.3533 97.5742 98.1455 99.2922 98.5699 100.909C98.9944 102.526 100.019 103.921 101.436 104.809C102.852 105.697 104.554 106.011 106.194 105.689C107.834 105.366 109.29 104.43 110.265 103.072C111.24 101.714 111.66 100.035 111.44 98.378C111.221 96.7207 110.378 95.2093 109.083 94.1517C107.789 93.094 106.14 92.5696 104.472 92.6852Z" fill="#FCFB00"/>
<path d="M121.897 103.534C118.997 103.737 116.167 100.956 115.428 97.0643C115.047 95.2109 115.253 93.2851 116.017 91.5542C116.302 90.7912 116.778 90.1145 117.401 89.5898C118.023 89.065 118.771 88.71 119.571 88.559C120.371 88.4081 121.196 88.4663 121.967 88.7281C122.738 88.9899 123.429 89.4464 123.971 90.0534C125.315 91.3835 126.208 93.1001 126.528 94.9632C127.305 99.0743 125.456 102.891 122.39 103.469C122.227 103.501 122.063 103.523 121.897 103.534ZM120.139 89.512C120.01 89.512 119.887 89.512 119.759 89.5603C119.127 89.7105 118.542 90.0099 118.05 90.4334C117.559 90.8568 117.176 91.3918 116.934 91.9937C116.258 93.5301 116.08 95.2394 116.425 96.882C117.1 100.441 119.684 102.955 122.203 102.478C124.722 102.001 126.207 98.7259 125.531 95.1615C125.254 93.5054 124.465 91.9778 123.275 90.7931C122.871 90.3723 122.383 90.041 121.843 89.8203C121.303 89.5997 120.722 89.4947 120.139 89.512Z" fill="#FCFB00"/>
<path d="M112.12 97.7558L111.456 97.2198C112.26 96.2389 114.259 94.7488 116.108 96.0995L115.572 96.7856C113.948 95.5689 112.195 97.67 112.12 97.7558Z" fill="#FCFB00"/>
<path d="M82.0938 105.12L81.2737 104.874C81.3916 104.493 82.4422 101.122 84.2592 100.462C85.9637 99.8514 97.4234 98.7794 97.9111 98.7312L97.9915 99.5834C94.7058 99.889 85.8672 100.789 84.554 101.266C83.3534 101.706 82.3725 104.198 82.0938 105.12Z" fill="#FCFB00"/>
<path d="M92.0473 103.062C92.0473 103.062 86.3335 97.0804 83.5517 99.2137C80.7698 101.347 85.7761 110.529 89.5495 111.311C90.0255 111.445 90.5236 111.482 91.0141 111.419C91.5045 111.356 91.9772 111.194 92.4036 110.944C92.8301 110.694 93.2017 110.36 93.4959 109.962C93.7902 109.565 94.0012 109.112 94.1162 108.631L92.0473 103.062Z" fill="#AD6359"/>
<path d="M85.0525 101.808C85.0418 101.811 85.0324 101.818 85.0258 101.827C85.0192 101.836 85.0156 101.847 85.0156 101.859C85.0156 101.87 85.0192 101.881 85.0258 101.89C85.0324 101.899 85.0418 101.906 85.0525 101.91C87.7325 102.537 89.3834 104.659 90.6751 106.927C89.7907 106.112 88.6973 105.758 87.5931 106.836C87.5342 106.894 87.5931 106.986 87.6842 106.959C88.1031 106.752 88.5755 106.68 89.037 106.752C89.4984 106.824 89.9264 107.036 90.2624 107.361C90.8187 107.91 91.3146 108.518 91.7418 109.172C91.8919 109.376 92.2778 109.172 92.1545 108.953L92.1223 108.894C91.6935 105.694 88.5311 101.604 85.0525 101.808Z" fill="#263238"/>
<path d="M86.0923 122.744C85.2132 121.672 90.868 118.456 92.3367 119.667C93.8053 120.879 101.24 139.735 98.8276 160.194C96.4156 180.653 56.816 202.699 55.342 199.639C54.7309 198.352 55.5135 194.766 56.4783 193.619C57.8344 192.011 86.43 174.259 89.2547 161.572C91.7632 150.289 88.322 125.531 86.0923 122.744Z" fill="#455A64"/>
<path d="M108.385 122.315C107.195 120.059 113.321 121.876 113.991 123.093C114.661 124.309 122.851 143.857 124.266 156.635C124.802 161.754 126.812 175.535 126.812 175.535C126.812 175.535 120.83 157.048 115.899 141.568C113.803 134.999 111.293 128.568 108.385 122.315Z" fill="#455A64"/>
<path d="M224.321 203.015C224.321 203.015 230.593 180.391 235.577 172.71C240.562 165.029 249.921 156.587 249.921 156.587C249.921 156.587 249.722 191.464 224.321 203.015Z" fill="#FCFB00"/>
<path d="M224.772 202.608C226.882 199.073 228.788 195.421 230.48 191.668C231.199 187.625 232.241 183.646 233.594 179.769C233.621 179.699 233.723 179.737 233.707 179.812C232.876 183.382 231.906 186.924 231.027 190.489C233.557 184.984 235.963 179.41 238.976 174.205C239.671 171.69 240.647 169.261 241.886 166.964C241.918 166.9 242.025 166.932 241.993 167.001C241.23 168.771 240.577 170.586 240.037 172.436C241.457 170.114 243.05 167.901 244.802 165.817C244.914 165.688 245.134 165.817 245.022 165.972C240.991 171.145 238.209 177.025 235.561 182.98C238.411 179.872 241.04 176.569 243.43 173.096C243.43 173.064 243.505 173.096 243.483 173.133C240.993 177.028 238.174 180.702 235.057 184.116C233.128 188.479 231.23 192.858 228.931 197.012C233.53 193.105 237.067 188.05 240.567 183.172C240.575 183.161 240.585 183.152 240.597 183.144C240.608 183.137 240.621 183.132 240.634 183.129C240.648 183.127 240.662 183.127 240.675 183.13C240.688 183.132 240.701 183.138 240.712 183.146C240.723 183.153 240.733 183.163 240.741 183.175C240.748 183.186 240.753 183.199 240.756 183.212C240.758 183.226 240.758 183.24 240.755 183.253C240.752 183.266 240.747 183.279 240.739 183.29C237.234 188.65 233.61 193.683 228.572 197.644C227.551 199.469 226.427 201.233 225.206 202.929C225.163 202.987 225.099 203.025 225.028 203.036C224.958 203.046 224.885 203.028 224.828 202.986C224.77 202.943 224.732 202.879 224.721 202.808C224.711 202.738 224.729 202.665 224.772 202.608Z" fill="#263238"/>
<path d="M222.376 205.052C222.376 205.052 233.632 184.191 230.373 163.968C227.114 143.744 223.592 136.541 223.592 136.541C223.592 136.541 205.878 167.998 222.376 205.052Z" fill="#FCFB00"/>
<path d="M217.75 172.26C218.704 177.99 220.161 183.625 222.102 189.101C222.134 181.677 222.274 174.259 222.472 166.835C221.199 162.332 220.479 157.69 220.328 153.012C220.328 152.878 220.526 152.883 220.537 153.012C220.894 157.021 221.555 160.997 222.515 164.906C222.687 158.785 222.883 152.663 223.105 146.542C223.105 146.521 223.113 146.501 223.128 146.485C223.143 146.47 223.164 146.462 223.185 146.462C223.206 146.462 223.227 146.47 223.242 146.485C223.257 146.501 223.265 146.521 223.265 146.542C223.265 156.105 223.265 165.667 223.201 175.234C224.576 171.536 225.662 167.737 226.449 163.871C226.452 163.864 226.457 163.858 226.463 163.854C226.469 163.85 226.477 163.848 226.484 163.848C226.492 163.848 226.499 163.85 226.505 163.854C226.511 163.858 226.516 163.864 226.519 163.871C226.176 168.336 224.825 172.656 223.19 176.8C223.148 182.915 223.083 189.026 222.944 195.141C224.852 188.64 226.889 182.347 227.441 175.476C227.441 175.466 227.443 175.457 227.446 175.449C227.45 175.44 227.455 175.433 227.461 175.426C227.468 175.42 227.475 175.415 227.484 175.411C227.492 175.408 227.501 175.406 227.511 175.406C227.52 175.406 227.529 175.408 227.537 175.411C227.546 175.415 227.553 175.42 227.56 175.426C227.566 175.433 227.571 175.44 227.575 175.449C227.578 175.457 227.58 175.466 227.58 175.476C227.436 183.049 225.49 190.736 223.008 197.859C222.981 197.929 222.937 197.992 222.88 198.041C222.826 200.271 222.762 202.504 222.687 204.741C222.687 204.807 222.661 204.869 222.614 204.916C222.568 204.962 222.505 204.988 222.44 204.988C222.375 204.988 222.312 204.962 222.266 204.916C222.219 204.869 222.193 204.807 222.193 204.741C222.101 200.171 222.063 195.601 222.081 191.03C219.551 185.134 218.2 178.6 217.637 172.27C217.648 172.211 217.745 172.201 217.75 172.26Z" fill="#263238"/>
<path d="M218.522 169.033C218.918 170.848 219.181 172.689 219.31 174.543C219.31 174.607 219.219 174.613 219.203 174.543C218.764 172.736 218.455 170.9 218.275 169.049C218.259 168.92 218.495 168.893 218.522 169.033Z" fill="#263238"/>
<path d="M225.12 153.784C225.12 153.719 225.227 153.741 225.227 153.784C225.213 155.07 225.022 156.349 224.659 157.584C224.632 157.686 224.488 157.637 224.509 157.541C224.75 156.303 224.9 155.043 225.12 153.784Z" fill="#263238"/>
<path d="M218.27 206.649C218.27 206.649 218.726 184.872 212.513 174.05C206.301 163.228 195.994 157.712 195.994 157.712C195.994 157.712 200.148 196.095 218.27 206.649Z" fill="#FCFB00"/>
<path d="M206.944 188.029C209.555 191.807 212.154 195.452 215.354 198.749C214.111 194.296 212.681 189.919 211.066 185.617C207.582 182.545 204.13 179.362 201.992 175.159C201.959 175.095 202.056 175.036 202.093 175.1C204.393 178.82 207.453 181.8 210.696 184.663C208.205 178.179 205.318 171.855 202.051 165.726C202.039 165.695 202.039 165.662 202.05 165.631C202.061 165.601 202.083 165.575 202.111 165.558C202.139 165.542 202.171 165.535 202.204 165.541C202.236 165.546 202.265 165.562 202.286 165.586C204.273 168.8 206.084 172.119 207.711 175.529C207.126 173.198 206.639 170.818 206.065 168.508C206.062 168.495 206.063 168.481 206.07 168.47C206.076 168.458 206.087 168.449 206.1 168.446C206.113 168.442 206.126 168.444 206.138 168.451C206.15 168.457 206.158 168.468 206.162 168.481C207.266 171.391 208.359 174.607 208.713 177.716C210.889 182.547 212.718 187.526 214.186 192.617C214.025 189.353 213.821 186.104 213.489 182.846C213.489 182.787 213.585 182.771 213.596 182.846C214.286 186.459 214.6 190.134 214.534 193.812C215.429 197.055 216.185 200.341 216.791 203.648C216.791 203.739 216.678 203.776 216.657 203.685C216.319 202.297 215.949 200.925 215.585 199.553C215.585 199.553 215.536 199.553 215.515 199.553C212.181 196.192 209.019 192.37 206.939 188.088C206.896 188.023 206.928 188.007 206.944 188.029Z" fill="#263238"/>
<path d="M199.746 170.308C200.437 171.059 201.07 171.852 201.74 172.624C202.389 173.278 202.988 173.98 203.53 174.725C203.53 174.757 203.53 174.795 203.482 174.773C202.699 174.191 202.003 173.502 201.413 172.726C200.759 171.996 200.167 171.212 199.644 170.384C199.606 170.325 199.698 170.255 199.746 170.308Z" fill="#263238"/>
<path d="M236.73 203.991L235.947 210.959L233.583 232.088H213.001L210.648 210.969L209.86 204.001H236.735L236.73 203.991Z" fill="#455A64"/>
<path d="M236.73 203.991L235.947 210.959H210.648L209.86 203.991H236.735H236.73Z" fill="#37474F"/>
<path d="M208.027 206.832H238.557V198.926H208.027V206.832Z" fill="#455A64"/>
<path d="M208.852 224.804H147.266V232.093H208.852V224.804Z" fill="#37474F"/>
<path d="M161.856 224.804H159.347V232.093H161.856V224.804Z" fill="#455A64"/>
<path d="M201.606 224.804H195.586V232.093H201.606V224.804Z" fill="#455A64"/>
<path d="M204.42 203.492H141.515V213.124H204.42V203.492Z" fill="#37474F"/>
<path d="M193.292 206.617H178.182V209.999H193.292V206.617Z" fill="#FCFB00"/>
<path d="M200.866 208.306C200.892 208.706 200.797 209.104 200.593 209.45C200.389 209.795 200.087 210.071 199.724 210.242C199.361 210.414 198.956 210.472 198.56 210.409C198.164 210.347 197.795 210.167 197.503 209.892C197.211 209.618 197.007 209.262 196.92 208.871C196.832 208.48 196.864 208.071 197.012 207.698C197.16 207.325 197.416 207.006 197.748 206.78C198.079 206.555 198.471 206.435 198.872 206.435C199.384 206.419 199.882 206.607 200.256 206.958C200.63 207.309 200.849 207.793 200.866 208.306Z" fill="#FCFB00"/>
<path d="M170.26 194.97H138.481V203.471H170.26V194.97Z" fill="#263238"/>
<path d="M199.633 194.97H170.26V203.471H199.633V194.97Z" fill="#263238"/>
<path d="M170.26 195.854H138.481V202.592H170.26V195.854Z" fill="white"/>
<path d="M141.247 197.248C144.577 197.205 147.907 197.173 151.238 197.152L155.756 197.119L165.742 197.152C169.07 197.152 166.932 197.2 170.26 197.248C166.932 197.296 169.07 197.328 165.742 197.35L155.756 197.377L151.238 197.35C147.907 197.321 144.577 197.287 141.247 197.248Z" fill="#DBDBDB"/>
<path d="M141.247 198.561C144.577 198.515 147.907 198.483 151.238 198.465L155.756 198.433L165.742 198.459C169.07 198.459 166.932 198.513 170.26 198.561C166.932 198.61 169.07 198.642 165.742 198.658L155.756 198.69L151.238 198.658C147.907 198.643 144.577 198.611 141.247 198.561Z" fill="#DBDBDB"/>
<path d="M141.247 199.88C144.577 199.837 147.907 199.805 151.238 199.783L155.756 199.756L165.742 199.783C169.07 199.783 166.932 199.837 170.26 199.88C166.932 199.928 169.07 199.965 165.742 199.981H155.756H151.238C147.907 199.964 144.577 199.93 141.247 199.88Z" fill="#DBDBDB"/>
<path d="M141.247 201.204C144.577 201.157 147.907 201.125 151.238 201.107L155.756 201.075L165.742 201.107C169.07 201.107 166.932 201.155 170.26 201.204C166.932 201.252 169.07 201.284 165.742 201.3L155.756 201.332L151.238 201.3C147.907 201.286 144.577 201.254 141.247 201.204Z" fill="#DBDBDB"/>
<path d="M180.905 194.97H176.767V203.471H180.905V194.97Z" fill="#455A64"/>
<path d="M198.116 194.97H195.334V203.471H198.116V194.97Z" fill="#455A64"/>
<path d="M166.042 224.798H201.831V213.114H166.042V224.798Z" fill="#FCFB00"/>
<path d="M138.867 224.798H166.042V213.114H138.867V224.798Z" fill="#FCFB00"/>
<path d="M166.042 223.587H201.831V214.33H166.042V223.587Z" fill="white"/>
<path d="M199.51 221.684C196.723 221.734 193.934 221.766 191.143 221.781L182.776 221.813L174.409 221.781C171.618 221.781 168.828 221.749 166.037 221.684C168.831 221.638 171.622 221.606 174.409 221.588L182.776 221.556L191.143 221.588C193.934 221.606 196.723 221.638 199.51 221.684Z" fill="#DBDBDB"/>
<path d="M199.51 219.867C196.723 219.917 193.934 219.949 191.143 219.964L182.776 219.996L174.409 219.969C171.618 219.948 168.828 219.914 166.037 219.867C168.831 219.821 171.622 219.789 174.409 219.771L182.776 219.76L191.143 219.792C193.934 219.796 196.723 219.821 199.51 219.867Z" fill="#DBDBDB"/>
<path d="M199.51 218.05C196.723 218.096 193.934 218.13 191.143 218.152L182.776 218.179L174.409 218.152C171.618 218.13 168.828 218.096 166.037 218.05C168.831 218.004 171.622 217.971 174.409 217.954L182.776 217.921L191.143 217.954C193.934 217.971 196.723 218.004 199.51 218.05Z" fill="#DBDBDB"/>
<path d="M199.51 216.233C196.723 216.28 193.934 216.314 191.143 216.335L182.776 216.362L174.409 216.335C171.618 216.335 168.828 216.301 166.037 216.233C168.831 216.183 171.622 216.151 174.409 216.137L182.776 216.104L191.143 216.137C193.936 216.153 196.712 216.19 199.51 216.233Z" fill="#DBDBDB"/>
<path d="M148.279 213.119H143.192V224.804H148.279V213.119Z" fill="#455A64"/>
<path d="M168.797 55.5619C168.796 59.1085 167.81 62.5851 165.949 65.6041C164.088 68.6231 161.425 71.0658 158.257 72.6599C155.089 74.2539 151.54 74.9367 148.006 74.632C144.473 74.3274 141.094 73.0472 138.245 70.9344L128.865 73.3303L132.773 64.5935C131.398 62.0263 130.627 59.1795 130.519 56.2696C130.41 53.3596 130.966 50.4632 132.145 47.8006C133.324 45.138 135.095 42.7794 137.322 40.904C139.55 39.0286 142.176 37.6858 145.001 36.9779C147.825 36.27 150.774 36.2155 153.623 36.8185C156.472 37.4216 159.145 38.6664 161.441 40.4582C163.736 42.25 165.593 44.5417 166.869 47.1589C168.146 49.7761 168.809 52.65 168.808 55.5619H168.797Z" fill="white"/>
<path d="M168.797 55.5618C168.792 59.1093 167.809 62.5867 165.956 65.6118C165.491 66.3556 164.983 67.0715 164.434 67.7558C163.863 68.4294 163.251 69.0667 162.601 69.664C162.284 69.9703 161.951 70.2602 161.604 70.5323L160.532 71.331C160.178 71.5936 159.787 71.8026 159.412 72.0438L158.849 72.3922C158.656 72.4994 158.452 72.5906 158.259 72.687C157.857 72.88 157.466 73.0837 157.064 73.2659L155.821 73.7322C155.407 73.8907 154.982 74.0197 154.55 74.1182C154.121 74.22 153.703 74.3647 153.264 74.429C152.394 74.6004 151.512 74.7079 150.627 74.7506C149.735 74.8215 148.839 74.8215 147.947 74.7506C146.175 74.6056 144.431 74.2197 142.764 73.6036C141.097 72.9751 139.523 72.1241 138.084 71.0737L138.245 71.1058L128.876 73.5393L128.404 73.6626L128.602 73.2177L132.488 64.4702V64.7006C131.098 62.1057 130.331 59.2228 130.248 56.2801C130.141 53.3316 130.711 50.3978 131.913 47.7035C133.115 45.0091 134.918 42.6258 137.184 40.7361C139.441 38.8591 142.097 37.5242 144.95 36.834C147.785 36.1471 150.738 36.1114 153.588 36.7299C156.438 37.3483 159.11 38.6046 161.405 40.4045C163.7 42.2044 165.556 44.5009 166.836 47.1216C168.115 49.7422 168.784 52.6188 168.792 55.535L168.797 55.5618ZM168.797 55.5618C168.782 52.6553 168.107 49.7902 166.824 47.1822C165.541 44.5742 163.683 42.2913 161.39 40.5056C159.091 38.7416 156.426 37.5146 153.591 36.9144C150.751 36.3425 147.819 36.4213 145.015 37.1449C142.222 37.8576 139.63 39.1996 137.436 41.0684C135.261 42.9492 133.525 45.2837 132.349 47.9078C131.193 50.5357 130.648 53.392 130.757 56.2611C130.866 59.1302 131.624 61.9372 132.976 64.4702L133.035 64.5827L132.987 64.7006L129.069 73.4321L128.795 73.1051L138.192 70.7521H138.277L138.352 70.8057C141.156 72.9307 144.498 74.2302 148 74.5577C148.873 74.6398 149.752 74.6524 150.627 74.5952C151.502 74.5595 152.374 74.4646 153.237 74.3111C153.671 74.2522 154.089 74.1074 154.518 74.011C154.948 73.9215 155.371 73.7996 155.783 73.6465L157.021 73.2016L158.211 72.6388C158.409 72.5423 158.613 72.4566 158.806 72.3494L159.342 72.0117C159.712 71.7812 160.109 71.5775 160.462 71.3202L161.534 70.5323C161.882 70.2624 162.214 69.9744 162.531 69.6694C163.18 69.0761 163.792 68.4443 164.364 67.7773C164.917 67.0943 165.427 66.3783 165.892 65.6333C167.771 62.6085 168.777 59.1227 168.797 55.5618Z" fill="#263238"/>
<path d="M146.542 66.9572L137.961 58.2687L140.845 55.4171L145.856 60.4931L156.276 44.1665L159.69 46.3427L146.542 66.9572Z" fill="#FCFB00"/>
</svg>
