<svg xmlns="http://www.w3.org/2000/svg" viewBox="0 0 500 500"><g id="freepik--background-complete--inject-27"><rect y="382.4" width="500" height="0.25" style="fill:#ebebeb"></rect><rect x="416.78" y="398.49" width="33.12" height="0.25" style="fill:#ebebeb"></rect><rect x="322.53" y="401.21" width="8.69" height="0.25" style="fill:#ebebeb"></rect><rect x="396.59" y="389.21" width="19.19" height="0.25" style="fill:#ebebeb"></rect><rect x="52.46" y="390.89" width="43.19" height="0.25" style="fill:#ebebeb"></rect><rect x="104.56" y="390.89" width="6.33" height="0.25" style="fill:#ebebeb"></rect><rect x="131.47" y="395.11" width="93.68" height="0.25" style="fill:#ebebeb"></rect><path d="M237,337.8H43.91a5.71,5.71,0,0,1-5.7-5.71V60.66A5.71,5.71,0,0,1,43.91,55H237a5.71,5.71,0,0,1,5.71,5.71V332.09A5.71,5.71,0,0,1,237,337.8ZM43.91,55.2a5.46,5.46,0,0,0-5.45,5.46V332.09a5.46,5.46,0,0,0,5.45,5.46H237a5.47,5.47,0,0,0,5.46-5.46V60.66A5.47,5.47,0,0,0,237,55.2Z" style="fill:#ebebeb"></path><path d="M453.31,337.8H260.21a5.72,5.72,0,0,1-5.71-5.71V60.66A5.72,5.72,0,0,1,260.21,55h193.1A5.71,5.71,0,0,1,459,60.66V332.09A5.71,5.71,0,0,1,453.31,337.8ZM260.21,55.2a5.47,5.47,0,0,0-5.46,5.46V332.09a5.47,5.47,0,0,0,5.46,5.46h193.1a5.47,5.47,0,0,0,5.46-5.46V60.66a5.47,5.47,0,0,0-5.46-5.46Z" style="fill:#ebebeb"></path><polygon points="203.22 148.46 236.45 129.13 262.05 129.13 295.83 147.54 295.83 272.83 203.22 272.83 203.22 148.46" style="fill:#e0e0e0"></polygon><path d="M296.78,272.83H203.22V148.46l.95-.92A65.83,65.83,0,0,1,250,129.13h0a65.83,65.83,0,0,1,45.83,18.41l.95.92Zm-87.36-6.21h81.16V151.12a60,60,0,0,0-81.16,0Z" style="fill:#fafafa"></path><polygon points="247.67 267.37 252.33 267.37 252.33 225.79 291.75 225.79 291.75 221.14 252.33 221.14 252.33 178.61 291.75 178.61 291.75 173.95 252.33 173.95 252.33 134.53 247.67 134.53 247.67 173.95 208.25 173.95 208.25 178.61 247.67 178.61 247.67 221.14 208.25 221.14 208.25 225.79 247.67 225.79 247.67 267.37" style="fill:#f0f0f0"></polygon><path d="M299.89,275.93H200.11V147.19l.91-.91a69.36,69.36,0,0,1,98,0l.91.91Zm-93.57-6.2h87.36v-120a63.13,63.13,0,0,0-87.36,0Z" style="fill:#f0f0f0"></path><rect x="403.61" y="374.45" width="21.6" height="8.54" style="fill:#f5f5f5"></rect><rect x="427.09" y="374.45" width="9.85" height="8.54" style="fill:#f5f5f5"></rect><rect x="380.12" y="374.45" width="21.6" height="8.54" style="fill:#f5f5f5"></rect><rect x="356.63" y="374.45" width="21.6" height="8.54" style="fill:#f5f5f5"></rect><rect x="333.15" y="374.45" width="21.6" height="8.54" style="fill:#f5f5f5"></rect><rect x="309.66" y="374.45" width="21.6" height="8.54" style="fill:#f5f5f5"></rect><rect x="286.17" y="374.45" width="21.6" height="8.54" style="fill:#f5f5f5"></rect><rect x="262.69" y="374.45" width="21.6" height="8.54" style="fill:#f5f5f5"></rect><rect x="239.2" y="374.45" width="21.6" height="8.54" style="fill:#f5f5f5"></rect><rect x="215.72" y="374.45" width="21.6" height="8.54" style="fill:#f5f5f5"></rect><rect x="192.23" y="374.45" width="21.6" height="8.54" style="fill:#f5f5f5"></rect><rect x="168.74" y="374.45" width="21.6" height="8.54" style="fill:#f5f5f5"></rect><rect x="145.26" y="374.45" width="21.6" height="8.54" style="fill:#f5f5f5"></rect><rect x="121.77" y="374.45" width="21.6" height="8.54" style="fill:#f5f5f5"></rect><rect x="98.28" y="374.45" width="21.6" height="8.54" style="fill:#f5f5f5"></rect><rect x="74.8" y="374.45" width="21.6" height="8.54" style="fill:#f5f5f5"></rect><rect x="63.05" y="374.45" width="9.85" height="8.54" style="fill:#f5f5f5"></rect><rect x="415.35" y="363.75" width="21.6" height="8.54" style="fill:#f5f5f5"></rect><rect x="391.86" y="363.75" width="21.6" height="8.54" style="fill:#f5f5f5"></rect><rect x="368.38" y="363.75" width="21.6" height="8.54" style="fill:#f5f5f5"></rect><rect x="344.89" y="363.75" width="21.6" height="8.54" style="fill:#f5f5f5"></rect><rect x="321.4" y="363.75" width="21.6" height="8.54" style="fill:#f5f5f5"></rect><rect x="297.92" y="363.75" width="21.6" height="8.54" style="fill:#f5f5f5"></rect><rect x="274.43" y="363.75" width="21.6" height="8.54" style="fill:#f5f5f5"></rect><rect x="250.94" y="363.75" width="21.6" height="8.54" style="fill:#f5f5f5"></rect><rect x="227.46" y="363.75" width="21.6" height="8.54" style="fill:#f5f5f5"></rect><rect x="203.97" y="363.75" width="21.6" height="8.54" style="fill:#f5f5f5"></rect><rect x="180.49" y="363.75" width="21.6" height="8.54" style="fill:#f5f5f5"></rect><rect x="157" y="363.75" width="21.6" height="8.54" style="fill:#f5f5f5"></rect><rect x="133.51" y="363.75" width="21.6" height="8.54" style="fill:#f5f5f5"></rect><rect x="110.03" y="363.75" width="21.6" height="8.54" style="fill:#f5f5f5"></rect><rect x="86.54" y="363.75" width="21.6" height="8.54" style="fill:#f5f5f5"></rect><rect x="63.05" y="363.75" width="21.6" height="8.54" style="fill:#f5f5f5"></rect><rect x="403.61" y="353.05" width="21.6" height="8.54" style="fill:#f5f5f5"></rect><rect x="427.09" y="353.05" width="9.85" height="8.54" style="fill:#f5f5f5"></rect><rect x="380.12" y="353.05" width="21.6" height="8.54" style="fill:#f5f5f5"></rect><rect x="356.63" y="353.05" width="21.6" height="8.54" style="fill:#f5f5f5"></rect><rect x="333.15" y="353.05" width="21.6" height="8.54" style="fill:#f5f5f5"></rect><rect x="309.66" y="353.05" width="21.6" height="8.54" style="fill:#f5f5f5"></rect><rect x="286.17" y="353.05" width="21.6" height="8.54" style="fill:#f5f5f5"></rect><rect x="262.69" y="353.05" width="21.6" height="8.54" style="fill:#f5f5f5"></rect><rect x="239.2" y="353.05" width="21.6" height="8.54" style="fill:#f5f5f5"></rect><rect x="215.72" y="353.05" width="21.6" height="8.54" style="fill:#f5f5f5"></rect><rect x="192.23" y="353.05" width="21.6" height="8.54" style="fill:#f5f5f5"></rect><rect x="168.74" y="353.05" width="21.6" height="8.54" style="fill:#f5f5f5"></rect><rect x="145.26" y="353.05" width="21.6" height="8.54" style="fill:#f5f5f5"></rect><rect x="121.77" y="353.05" width="21.6" height="8.54" style="fill:#f5f5f5"></rect><rect x="98.28" y="353.05" width="21.6" height="8.54" style="fill:#f5f5f5"></rect><rect x="74.8" y="353.05" width="21.6" height="8.54" style="fill:#f5f5f5"></rect><rect x="63.05" y="353.05" width="9.85" height="8.54" style="fill:#f5f5f5"></rect><rect x="415.35" y="342.35" width="21.6" height="8.54" style="fill:#f5f5f5"></rect><rect x="391.86" y="342.35" width="21.6" height="8.54" style="fill:#f5f5f5"></rect><rect x="368.38" y="342.35" width="21.6" height="8.54" style="fill:#f5f5f5"></rect><rect x="344.89" y="342.35" width="21.6" height="8.54" style="fill:#f5f5f5"></rect><rect x="321.4" y="342.35" width="21.6" height="8.54" style="fill:#f5f5f5"></rect><rect x="297.92" y="342.35" width="21.6" height="8.54" style="fill:#f5f5f5"></rect><rect x="274.43" y="342.35" width="21.6" height="8.54" style="fill:#f5f5f5"></rect><rect x="250.94" y="342.35" width="21.6" height="8.54" style="fill:#f5f5f5"></rect><rect x="227.46" y="342.35" width="21.6" height="8.54" style="fill:#f5f5f5"></rect><rect x="203.97" y="342.35" width="21.6" height="8.54" style="fill:#f5f5f5"></rect><rect x="180.49" y="342.35" width="21.6" height="8.54" style="fill:#f5f5f5"></rect><rect x="157" y="342.35" width="21.6" height="8.54" style="fill:#f5f5f5"></rect><rect x="133.51" y="342.35" width="21.6" height="8.54" style="fill:#f5f5f5"></rect><rect x="110.03" y="342.35" width="21.6" height="8.54" style="fill:#f5f5f5"></rect><rect x="86.54" y="342.35" width="21.6" height="8.54" style="fill:#f5f5f5"></rect><rect x="63.05" y="342.35" width="21.6" height="8.54" style="fill:#f5f5f5"></rect><rect x="403.61" y="331.65" width="21.6" height="8.54" style="fill:#f5f5f5"></rect><rect x="427.09" y="331.65" width="9.85" height="8.54" style="fill:#f5f5f5"></rect><rect x="380.12" y="331.65" width="21.6" height="8.54" style="fill:#f5f5f5"></rect><rect x="356.63" y="331.65" width="21.6" height="8.54" style="fill:#f5f5f5"></rect><rect x="333.15" y="331.65" width="21.6" height="8.54" style="fill:#f5f5f5"></rect><rect x="309.66" y="331.65" width="21.6" height="8.54" style="fill:#f5f5f5"></rect><rect x="286.17" y="331.65" width="21.6" height="8.54" style="fill:#f5f5f5"></rect><rect x="262.69" y="331.65" width="21.6" height="8.54" style="fill:#f5f5f5"></rect><rect x="239.2" y="331.65" width="21.6" height="8.54" style="fill:#f5f5f5"></rect><rect x="215.72" y="331.65" width="21.6" height="8.54" style="fill:#f5f5f5"></rect><rect x="192.23" y="331.65" width="21.6" height="8.54" style="fill:#f5f5f5"></rect><rect x="168.74" y="331.65" width="21.6" height="8.54" style="fill:#f5f5f5"></rect><rect x="145.26" y="331.65" width="21.6" height="8.54" style="fill:#f5f5f5"></rect><rect x="121.77" y="331.65" width="21.6" height="8.54" style="fill:#f5f5f5"></rect><rect x="98.28" y="331.65" width="21.6" height="8.54" style="fill:#f5f5f5"></rect><rect x="74.8" y="331.65" width="21.6" height="8.54" style="fill:#f5f5f5"></rect><rect x="63.05" y="331.65" width="9.85" height="8.54" style="fill:#f5f5f5"></rect><rect x="415.35" y="320.95" width="21.6" height="8.54" style="fill:#f5f5f5"></rect><rect x="391.86" y="320.95" width="21.6" height="8.54" style="fill:#f5f5f5"></rect><rect x="368.38" y="320.95" width="21.6" height="8.54" style="fill:#f5f5f5"></rect><rect x="344.89" y="320.95" width="21.6" height="8.54" style="fill:#f5f5f5"></rect><rect x="321.4" y="320.95" width="21.6" height="8.54" style="fill:#f5f5f5"></rect><rect x="297.92" y="320.95" width="21.6" height="8.54" style="fill:#f5f5f5"></rect><rect x="274.43" y="320.95" width="21.6" height="8.54" style="fill:#f5f5f5"></rect><rect x="250.94" y="320.95" width="21.6" height="8.54" style="fill:#f5f5f5"></rect><rect x="227.46" y="320.95" width="21.6" height="8.54" style="fill:#f5f5f5"></rect><rect x="203.97" y="320.95" width="21.6" height="8.54" style="fill:#f5f5f5"></rect><rect x="180.49" y="320.95" width="21.6" height="8.54" style="fill:#f5f5f5"></rect><rect x="157" y="320.95" width="21.6" height="8.54" style="fill:#f5f5f5"></rect><rect x="133.51" y="320.95" width="21.6" height="8.54" style="fill:#f5f5f5"></rect><rect x="110.03" y="320.95" width="21.6" height="8.54" style="fill:#f5f5f5"></rect><rect x="86.54" y="320.95" width="21.6" height="8.54" style="fill:#f5f5f5"></rect><rect x="63.05" y="320.95" width="21.6" height="8.54" style="fill:#f5f5f5"></rect></g><g id="freepik--Shadow--inject-27"><ellipse id="freepik--path--inject-27" cx="250" cy="416.24" rx="193.89" ry="11.32" style="fill:#f5f5f5"></ellipse></g><g id="freepik--speech-bubble-2--inject-27"><circle cx="279.08" cy="145.93" r="17.96" transform="translate(-21.45 240.08) rotate(-45)" style="fill:#FCFB00"></circle><path d="M276.92,153.91a2.09,2.09,0,0,1,2.19-2.08,2.06,2.06,0,0,1,2.13,2.08,2.08,2.08,0,0,1-2.13,2.11A2.12,2.12,0,0,1,276.92,153.91Zm.19-17h4l-.67,12.63h-2.67Z" style="fill:#fff"></path><polygon points="282.73 161.18 289.11 167.66 287.65 158.9 282.73 161.18" style="fill:#FCFB00"></polygon></g><g id="freepik--speech-bubble-1--inject-27"><circle cx="222.68" cy="174.07" r="17.96" transform="translate(-57.87 208.44) rotate(-45)" style="fill:#FCFB00"></circle><path d="M225.57,170.68c0-1.36-1.16-2.28-3-2.28a4.58,4.58,0,0,0-4,1.87l-2.35-1.53a7.73,7.73,0,0,1,6.58-3c3.57,0,5.95,1.63,5.95,4.42,0,4-4.16,4.32-4.16,7.18h-3.08C221.52,173.79,225.57,173.11,225.57,170.68Zm-4.44,10.61a1.93,1.93,0,1,1,1.94,1.9A1.86,1.86,0,0,1,221.13,181.29Z" style="fill:#fff"></path><polygon points="219.03 189.31 212.66 195.8 214.11 187.04 219.03 189.31" style="fill:#FCFB00"></polygon></g><g id="freepik--character-2--inject-27"><path d="M313,407.89l7.64-.21a.62.62,0,0,1,.61.46l1.61,6.15a1,1,0,0,1-1,1.27c-2.76,0-6.75,0-10.21.07-4.05.11-6.62-.09-11.37,0-2.87.08-3.77-2.79-2.58-3.08,5.43-1.34,9-1.07,13.6-4.1A3.24,3.24,0,0,1,313,407.89Z" style="fill:#263238"></path><g style="opacity:0.4"><path d="M313,407.89l7.64-.21a.62.62,0,0,1,.61.46l1.61,6.15a1,1,0,0,1-1,1.27c-2.76,0-6.75,0-10.21.07-4.05.11-6.62-.09-11.37,0-2.87.08-3.77-2.79-2.58-3.08,5.43-1.34,9-1.07,13.6-4.1A3.24,3.24,0,0,1,313,407.89Z" style="fill:#fff"></path></g><path d="M352.89,407.89l7.64-.21a.62.62,0,0,1,.61.46l1.61,6.15a1,1,0,0,1-1,1.27c-2.75,0-6.74,0-10.2.07-4.05.11-6.62-.09-11.37,0-2.87.08-3.77-2.79-2.58-3.08,5.43-1.34,9-1.07,13.6-4.1A3.24,3.24,0,0,1,352.89,407.89Z" style="fill:#263238"></path><g style="opacity:0.4"><path d="M352.89,407.89l7.64-.21a.62.62,0,0,1,.61.46l1.61,6.15a1,1,0,0,1-1,1.27c-2.75,0-6.74,0-10.2.07-4.05.11-6.62-.09-11.37,0-2.87.08-3.77-2.79-2.58-3.08,5.43-1.34,9-1.07,13.6-4.1A3.24,3.24,0,0,1,352.89,407.89Z" style="fill:#fff"></path></g><path d="M344.32,256.84c5.85,15.26,17.54,150.83,17.54,150.83l-12,1.3L329.62,296.06,323,407.82l-11.86-.11C308.28,326.45,310,272.86,310,272.86l-.87-6Z" style="fill:#263238"></path><path d="M344.21,256.63l-35.16,10c-18.21-34.72-16-54.81-16-54.81a152.09,152.09,0,0,1,13-8.16,220.89,220.89,0,0,1,21.67-10.41,108.55,108.55,0,0,0,1.75,11.3c.71,3.66,1.54,7.43,2.31,10.78.56,2.39,1.08,4.58,1.5,6.35,1.23,5.18,2.63,10.05,4,14.42C340.47,246.33,343.54,253.92,344.21,256.63Z" style="fill:#FCFB00"></path><path d="M313.87,199.94s-5.62,9-8,9.78c-1.66.57-5-1.28-5-1.28a7.37,7.37,0,0,0,1.85-3c.83-2.82-1.09-5.2-3.31-7.21l3.46-12a49,49,0,0,0,3.35,6.6h0C308.32,196.3,311,199.42,313.87,199.94Z" style="fill:#e4897b"></path><path d="M306.22,192.86h0c.78,4.42.67,9.87-3.5,12.59.83-2.82-1.09-5.2-3.31-7.21l3.46-12A49,49,0,0,0,306.22,192.86Z" style="opacity:0.2"></path><path d="M305.89,209.72s2.52,1.06,5.3,1.95c2-2.68,6.44-9.4,4.47-12.58-.85-.78-3.7-.13-3.7-.13S311,203.93,305.89,209.72Z" style="fill:#FCFB00"></path><path d="M305.89,209.72a19.83,19.83,0,0,0-1.61,5.39c-2.6-.29-4.7-7-4.32-8a7.81,7.81,0,0,1,2.94-2.57A6.39,6.39,0,0,0,305.89,209.72Z" style="fill:#FCFB00"></path><g style="opacity:0.5"><path d="M305.89,209.72s2.52,1.06,5.3,1.95c2-2.68,6.44-9.4,4.47-12.58-.85-.78-3.7-.13-3.7-.13S311,203.93,305.89,209.72Z" style="fill:#fff"></path><path d="M305.89,209.72a19.83,19.83,0,0,0-1.61,5.39c-2.6-.29-4.7-7-4.32-8a7.81,7.81,0,0,1,2.94-2.57A6.39,6.39,0,0,0,305.89,209.72Z" style="fill:#fff"></path></g><path d="M328.66,318.63l.95-22.56-2.41-11.53S324.49,305.5,328.66,318.63Z" style="opacity:0.2"></path><path d="M286.08,182c-.44,2.89.91,8.48,4.48,6S286.84,177,286.08,182Z" style="fill:#263238"></path><path d="M306.52,182.6c1.52,7,2.77,11.06.27,15.55-3.77,6.76-13.22,5.92-16.82-.53-3.23-5.8-5.17-16.3.84-20.89A9.91,9.91,0,0,1,306.52,182.6Z" style="fill:#e4897b"></path><path d="M297.55,187.38c.16.56,0,1.1-.38,1.2s-.8-.27-1-.84,0-1.1.38-1.2S297.39,186.82,297.55,187.38Z" style="fill:#263238"></path><path d="M291.17,189.11c.16.56,0,1.1-.38,1.2s-.8-.27-1-.84,0-1.1.38-1.2S291,188.55,291.17,189.11Z" style="fill:#263238"></path><path d="M292.28,188.84a20.15,20.15,0,0,1-1.44,5.38,3.48,3.48,0,0,0,2.81-.27Z" style="fill:#de5753"></path><path d="M297.94,184.8a.37.37,0,0,1-.35-.05,2.79,2.79,0,0,0-2.43-.53.34.34,0,0,1-.44-.21.33.33,0,0,1,.21-.43,3.43,3.43,0,0,1,3.08.63.35.35,0,0,1,.07.48A.49.49,0,0,1,297.94,184.8Z" style="fill:#263238"></path><path d="M286.8,187.67a.34.34,0,0,1-.47-.38,3.35,3.35,0,0,1,1.86-2.5.35.35,0,0,1,.45.18.35.35,0,0,1-.18.45,2.62,2.62,0,0,0-1.46,2A.32.32,0,0,1,286.8,187.67Z" style="fill:#263238"></path><path d="M294.15,180s1.55-1.88,2.81-.64,2.26,5.18,2.26,5.18l.2-.8s4.81,8.09,7.78,4.93,5.84-13.45-3.71-15.74c0,0-1.46-1.88-7.24-1.44s-11.53,5.62-11.7,9.57,2,5.54,2,5.54a5.45,5.45,0,0,1,.48-2.44,2.4,2.4,0,0,0,1.83,1.31,4,4,0,0,1-.13-2.27,4.61,4.61,0,0,0,1.39,1.5c-.61-3.85,1.74-5.3,2.55-5.49A1.42,1.42,0,0,1,294.15,180Z" style="fill:#263238"></path><path d="M310.81,187.6a6.71,6.71,0,0,1-2.18,4.72c-1.77,1.61-3.74.28-4.16-1.95-.37-2,.1-5.26,2.31-6A3.1,3.1,0,0,1,310.81,187.6Z" style="fill:#e4897b"></path><path d="M294.8,196.89a.24.24,0,0,1-.23-.16.25.25,0,0,1,.15-.32s3.13-1.17,3.53-4a.25.25,0,0,1,.28-.21.24.24,0,0,1,.21.28c-.44,3.16-3.71,4.38-3.85,4.43Z" style="fill:#263238"></path><polygon points="309.42 268.64 308.19 264.95 343.98 254.43 345.47 260.99 309.42 268.64" style="fill:#263238"></polygon><polygon points="311.23 265.11 311.85 267.17 308.97 267.93 308.33 265.89 311.23 265.11"></polygon><polygon points="331.25 259.7 331.89 261.87 313.14 266.83 312.52 264.76 331.25 259.7"></polygon><polygon points="345.1 258.37 333.2 261.52 332.54 259.36 344.57 256.11 345.1 258.37"></polygon><path d="M319.9,265.27a1,1,0,0,1-.92-.66l-.24-.71h0a.94.94,0,0,1,.06-.77.93.93,0,0,1,.6-.48l3.15-.85a1,1,0,0,1,.74.09.92.92,0,0,1,.45.59l.2.75a.93.93,0,0,1-.1.73.92.92,0,0,1-.59.45l-3.1.82A.77.77,0,0,1,319.9,265.27Zm-.69-1.53.24.71a.48.48,0,0,0,.57.3l3.1-.82a.46.46,0,0,0,.29-.22.48.48,0,0,0,0-.35l-.2-.75a.44.44,0,0,0-.22-.28.45.45,0,0,0-.36-.05l-3.15.85a.48.48,0,0,0-.29.23.5.5,0,0,0,0,.38Z" style="fill:#fff"></path><path d="M322,263.56a.24.24,0,0,1-.24-.19.25.25,0,0,1,.18-.3l1-.26a.25.25,0,1,1,.13.49l-1,.25Z" style="fill:#fff"></path><path d="M309.26,162.76l2.3-.9a2.87,2.87,0,0,1,2.62.27l3.63,2.38a5.36,5.36,0,0,1,2.43,4.28l0,1.08c-3.72,1.75-9,.9-9,.9l-1.54-.07a2.4,2.4,0,0,1-2.35-2.47l.11-3A2.75,2.75,0,0,1,309.26,162.76Z" style="fill:#e4897b"></path><path d="M331.89,216.1c-3.58-3.19-6.43-9.84-6.43-9.84a4.85,4.85,0,0,1,4.12-.94C330.29,209,331.12,212.75,331.89,216.1Z" style="opacity:0.2"></path><path d="M322.65,196.93c4.2-2.25,9.36-4.7,12.31-8.31,0,0,.05.28.06.21a7.51,7.51,0,0,0-1.35-2.54c-4.94-6.34-11.6-11.58-17.75-16.81l2.57-3.92c7.82,4.33,15.38,9,21.51,15.66,10.21,10.86-4.28,20.13-13.41,24.31l-3.94-8.6Z" style="fill:#dc897c"></path><polyline points="318.56 198.05 325.39 211.8 337.81 204.51 333.72 189.43 317.93 198.05" style="fill:#FCFB00"></polyline><path d="M300.82,221.13a149.9,149.9,0,0,0-8.93,19.57,20.17,20.17,0,0,0-1.44,7c-.25-.41-1-1-1.43-.95,2.05.08,4.58-1.23,6.62-2.1,4.25-2,8.57-4.48,12.78-6.95l2.88,3.69c-5.26,4.83-20.42,18.8-27.43,11.67-6.85-7.5,4.56-28.83,8.68-36.54l8.27,4.59Z" style="fill:#dc897c"></path><path d="M306,241.33l-.08-9.09,7.86,1.2s.95,6.35-3.65,9Z" style="fill:#e4897b"></path><polygon points="308.87 226.49 314.52 228.79 313.75 233.44 309.86 235.55 305.89 232.24 308.87 226.49" style="fill:#e4897b"></polygon><path d="M301.25,227.07l-2.44,4.12h0l-1.71,2.9L294,239.32l-11.63-5.45s4.19-15.23,10.66-22.07C293,211.8,306.64,221,301.25,227.07Z" style="fill:#FCFB00"></path></g><g id="freepik--character-1--inject-27"><path d="M189.08,239.55a43.27,43.27,0,0,1,0-27.37c4.11-12.32,12.28-10.78,12.28-10.78s3.51-5.46,8.94-2.84,15.19,9.79,9.92,22.62-4.28,15.34-2.4,19.17-2.11,6.79-2,9.72,1.56,3.76,1.56,3.76-12.8,6.24-28.44-1.51C189,252.32,190.92,244.92,189.08,239.55Z" style="fill:#263238"></path><path d="M166.29,309.09s-.15,1.18-.44,3.33c-.22,1.65-.53,3.88-.92,6.58-.25,1.77-.54,3.75-.86,5.91,0,.13,0,.26,0,.41-.41,2.73-.88,5.75-1.38,9-3.28,20.83-8.55,50.7-15.08,74.31l-4.61-.35s-1.4-33.42,5.65-55.24L149,334.3l.16-7,0-2,.15-6,.1-4.27.16-7Z" style="fill:#ebb376"></path><path d="M149.64,308.09l16.65,1s-.15,1.18-.44,3.33c-.22,1.65-.53,3.88-.92,6.58l-15.55.33.1-4.27Z" style="isolation:isolate;opacity:0.2"></path><path d="M142.09,406.8c0-.58,7.11-.13,7.11-.13s4.37,4.45,8.62,5.45,1.87,3.55-2.87,3.55H143.21C139.84,415.67,142,412.79,142.09,406.8Z" style="fill:#263238"></path><path d="M152.94,408.49a8.83,8.83,0,0,1-2.94-.9.18.18,0,0,1-.07,0h0l0,0a.17.17,0,0,1,0-.14c0-.07.62-1.73,1.59-2.13a1.06,1.06,0,0,1,.92,0c.32.15.48.35.46.59s-.52.75-1.1,1.06a3,3,0,0,1,1.59.17.77.77,0,0,1,.38.49.66.66,0,0,1-.17.75A1,1,0,0,1,152.94,408.49Zm-2.29-1c1,.45,2.35.84,2.68.56,0,0,.12-.09,0-.37a.4.4,0,0,0-.21-.25A4.72,4.72,0,0,0,150.65,407.47Zm1.27-2a.75.75,0,0,0-.29.06,3.2,3.2,0,0,0-1.22,1.52c1.05-.4,2.07-1,2.09-1.27,0-.1-.16-.19-.25-.23A.67.67,0,0,0,151.92,405.52Z" style="fill:#FCFB00"></path><path d="M186.65,408.52l-4.59.44s-7.08-32.69-3.84-55.39L175.9,338l-1.37-9.16-.24-1.59-1.24-8.38-.82-5.51-.63-4.2,16.58-1.84s.06,1.21.14,3.43c.06,1.91.15,4.56.24,7.8q.09,2.89.16,6.36c0,1.26.05,2.56.08,3.92.06,2.86.11,5.93.14,9.17C189.16,358.63,188.88,386.1,186.65,408.52Z" style="fill:#ebb376"></path><path d="M188.56,318.51l-15.51.32-.82-5.51-.63-4.2,16.58-1.84s.06,1.21.14,3.43C188.38,312.62,188.47,315.27,188.56,318.51Z" style="isolation:isolate;opacity:0.2"></path><path d="M180.86,406.8c0-.58,7.12-.13,7.12-.13s4.37,4.45,8.61,5.45,1.88,3.55-2.87,3.55H182C178.61,415.67,180.72,412.79,180.86,406.8Z" style="fill:#263238"></path><path d="M191.72,408.49a8.82,8.82,0,0,1-2.95-.9.15.15,0,0,1-.06,0h0l0,0a.22.22,0,0,1,0-.14c0-.07.63-1.73,1.59-2.13a1.06,1.06,0,0,1,.92,0c.32.15.48.35.47.59s-.53.75-1.11,1.06a2.94,2.94,0,0,1,1.59.17.77.77,0,0,1,.38.49.66.66,0,0,1-.17.75A1,1,0,0,1,191.72,408.49Zm-2.3-1c1.05.45,2.35.84,2.68.56,0,0,.12-.09.05-.37a.38.38,0,0,0-.2-.25A4.76,4.76,0,0,0,189.42,407.47Zm1.27-2a.79.79,0,0,0-.29.06,3.2,3.2,0,0,0-1.22,1.52c1.06-.4,2.07-1,2.09-1.27,0-.1-.15-.19-.25-.23A.67.67,0,0,0,190.69,405.52Z" style="fill:#FCFB00"></path><path d="M200.89,244.68c-1.42,2.14-11.35,18.58-16.89,25.11l-26.79-6c2.66-3.26,9.36-17.9,12.07-23.55.9-1.87,1.58-4.06,2.49-6.42a37.94,37.94,0,0,1,2.37-5.13c.18-.31.35-.62.53-.91,3.32-5.57,6.05-7.38,6.05-7.38,6.47,2.91,13.67,5.73,16.66,8.27,1,.85,2,1.75,2.93,2.63a7.44,7.44,0,0,1,1.54,2.11A12.07,12.07,0,0,1,200.89,244.68Z" style="fill:#FCFB00"></path><path d="M158.75,260.07S145,281.26,148.4,316l18.2,1.06,3-17.11,1,17.15,18.52-.49c-.84-27.89-3.68-41-3.68-41l.69-9.29Z" style="fill:#263238"></path><g style="opacity:0.2"><polygon points="166.4 267.72 181.04 270.88 181.84 266.31 167.2 263.12 166.4 267.72" style="fill:#fff"></polygon><polygon points="165.91 262.84 158.57 261.24 157.11 265.72 165.11 267.44 165.91 262.84" style="fill:#fff"></polygon><polygon points="182.96 266.55 182.16 271.12 185.45 271.82 186.24 267.26 182.96 266.55" style="fill:#fff"></polygon></g><path d="M180.42,266.41a2.08,2.08,0,0,0-1.22-.82l-3.46-.75a1.47,1.47,0,0,0-1.83,1.17l-.37,2.13a1.88,1.88,0,0,0,.34,1.38,2.09,2.09,0,0,0,1.07.79l.15,0,3.46.74a1.47,1.47,0,0,0,1.83-1.17l.36-2.12A1.91,1.91,0,0,0,180.42,266.41Zm-1.79,3.81-3.46-.75a1,1,0,0,1-.59-.39.94.94,0,0,1-.16-.68l.37-2.12a.7.7,0,0,1,.88-.57l3.46.75.07,0a1,1,0,0,1,.52.38.92.92,0,0,1,.16.67l-.06.33a.31.31,0,0,0-.13-.06l-1-.22a.51.51,0,0,0-.64.44.69.69,0,0,0,.53.71l1,.22h0l-.12.7A.7.7,0,0,1,178.63,270.22Z" style="fill:#fff"></path><path d="M169.56,300c4.14-5.78,7.17-10.59,7.17-10.59s-2.1,16.07-6.17,27.74Z" style="isolation:isolate;opacity:0.2"></path><path d="M200.55,216.8l-.05,2-.17,7.91a12.68,12.68,0,0,0-1.84,1.15l-.26.21a1.55,1.55,0,0,0-.21,2.53s0,2.71-4.65,5.72c-1.5-8.35-4.4-11.65-4.4-11.65,1.81.21,4.79-1,6.77-2.69.15-.13.29-.25.43-.39a31.79,31.79,0,0,0,3-3.16C199.7,217.89,200.15,217.31,200.55,216.8Z" style="fill:#ebb376"></path><path d="M200.55,216.8l-.05,2-.17,7.91a12.68,12.68,0,0,0-1.84,1.15,10.15,10.15,0,0,1-2.32-6.27,31.79,31.79,0,0,0,3-3.16C199.7,217.89,200.15,217.31,200.55,216.8Z" style="opacity:0.2"></path><path d="M210.66,205.38c6,3.05,6.36,7.26,3.66,13.71-3.38,8.06-7.89,12.72-14.61,7.24C190.59,218.9,200.63,200.31,210.66,205.38Z" style="fill:#ebb376"></path><path d="M210.58,216.78a14.46,14.46,0,0,0,.49,3.4,1.85,1.85,0,0,1-1.93-.12Z" style="fill:#d58745"></path><path d="M207.13,214.42c-.24.5-.7.78-1,.62s-.41-.69-.17-1.19.71-.78,1-.62S207.37,213.92,207.13,214.42Z" style="fill:#263238"></path><path d="M206.81,213.18l1.29.09S207.12,213.93,206.81,213.18Z" style="fill:#263238"></path><path d="M213.42,217.29c-.23.5-.7.78-1,.62s-.42-.7-.18-1.2.71-.78,1-.62S213.66,216.79,213.42,217.29Z" style="fill:#263238"></path><path d="M213.1,216.05l1.3.09S213.41,216.8,213.1,216.05Z" style="fill:#263238"></path><path d="M209.18,210.5a.3.3,0,0,1-.16-.05,3.25,3.25,0,0,0-2.81-.38.29.29,0,0,1-.37-.14.28.28,0,0,1,.14-.37,3.76,3.76,0,0,1,3.36.43.28.28,0,0,1,.07.39A.27.27,0,0,1,209.18,210.5Z" style="fill:#263238"></path><path d="M215.86,214.17a.29.29,0,0,1-.25-.14,2.9,2.9,0,0,0-1.94-1.57.28.28,0,0,1-.25-.31.3.3,0,0,1,.31-.25,3.43,3.43,0,0,1,2.37,1.86.28.28,0,0,1-.11.38A.31.31,0,0,1,215.86,214.17Z" style="fill:#263238"></path><path d="M198.92,212.23s5.33-3.54,6.84-7.59c0,0,14.44,1.16,8.89,13.6,0,0,6.62-10.19-3.64-15.68s-17.89,9.73-14.81,17C196.2,219.53,195.61,214.45,198.92,212.23Z" style="fill:#263238"></path><path d="M207.22,222.68h-.06a3.6,3.6,0,0,1-3-3.61.31.31,0,0,1,.29-.27.28.28,0,0,1,.27.3,3,3,0,0,0,2.55,3,.28.28,0,0,1-.05.55Z" style="fill:#263238"></path><path d="M198,210.76a.17.17,0,0,0,.06.22l.05,0,6.22,2.63a2.87,2.87,0,0,0,1.12,3.3,3.45,3.45,0,0,0,4.56-.43,2.09,2.09,0,0,0,.27-.39,1.1,1.1,0,0,1,.88-.09.58.58,0,0,1,.27.44,2.87,2.87,0,0,0,1.13,3.28,3.46,3.46,0,0,0,4.56-.43,2.81,2.81,0,0,0-.63-4.16,3.46,3.46,0,0,0-4.56.42,2.55,2.55,0,0,0-.27.4.84.84,0,0,0-.29-.27,1.26,1.26,0,0,0-.87-.06,2.86,2.86,0,0,0-1.11-3.3,3.47,3.47,0,0,0-4.57.43,3,3,0,0,0-.35.52l-6.2-2.63A.22.22,0,0,0,198,210.76Zm14.26,5.06a3,3,0,0,1,4-.37,2.45,2.45,0,0,1,.55,3.63,3,3,0,0,1-4,.38A2.46,2.46,0,0,1,212.3,215.82Zm-7.11-2.8a3,3,0,0,1,4-.38,2.47,2.47,0,0,1,.55,3.64,3,3,0,0,1-4,.37A2.45,2.45,0,0,1,205.19,213Z" style="fill:#263238"></path><g style="isolation:isolate;opacity:0.30000000000000004"><path d="M198,210.76a.17.17,0,0,0,.06.22l.05,0,6.22,2.63a2.87,2.87,0,0,0,1.12,3.3,3.45,3.45,0,0,0,4.56-.43,2.09,2.09,0,0,0,.27-.39,1.1,1.1,0,0,1,.88-.09.58.58,0,0,1,.27.44,2.87,2.87,0,0,0,1.13,3.28,3.46,3.46,0,0,0,4.56-.43,2.81,2.81,0,0,0-.63-4.16,3.46,3.46,0,0,0-4.56.42,2.55,2.55,0,0,0-.27.4.84.84,0,0,0-.29-.27,1.26,1.26,0,0,0-.87-.06,2.86,2.86,0,0,0-1.11-3.3,3.47,3.47,0,0,0-4.57.43,3,3,0,0,0-.35.52l-6.2-2.63A.22.22,0,0,0,198,210.76Zm14.26,5.06a3,3,0,0,1,4-.37,2.45,2.45,0,0,1,.55,3.63,3,3,0,0,1-4,.38A2.46,2.46,0,0,1,212.3,215.82Zm-7.11-2.8a3,3,0,0,1,4-.38,2.47,2.47,0,0,1,.55,3.64,3,3,0,0,1-4,.37A2.45,2.45,0,0,1,205.19,213Z" style="fill:#fff"></path></g><path d="M199.27,214a3,3,0,0,0-1.63-3.86c-2-.74-4.81,2.65-.62,5.92C197.62,216.53,198.32,216.07,199.27,214Z" style="fill:#ebb376"></path><path d="M203.17,238.72c3.33,7.69,6.26,14.77,7.5,23.32.72,4.78-1.11,10-7,9.17-4-.72-7.28-3.17-10.31-5.51a47.13,47.13,0,0,1-4.53-4.08,2,2,0,0,1,2.43-3.1c4.35,2.23,8.53,5.08,13.18,5.78.2,0,.3-.06.12-.05a1.18,1.18,0,0,0-.49.21,1.91,1.91,0,0,0-.52.53c-.16.27-.1.19-.1,0-.14-4.07-1.9-8.47-3.26-12.43-1.33-3.55-2.78-7.17-4.26-10.64a4,4,0,0,1,7.27-3.19Z" style="fill:#e9b376"></path><path d="M192.73,260.12l1-7.06-6.72,1.3s.14,6.77,2.22,7.15Z" style="fill:#ebb376"></path><polygon points="189.56 248.21 185.12 250.33 186.99 254.36 193.71 253.06 189.56 248.21" style="fill:#ebb376"></polygon><path d="M208.87,252.2l-9.49,2.66-.79-1.12-3.17-4.41-1.71-11,7.49-6C206.67,237.14,208.87,252.2,208.87,252.2Z" style="fill:#FCFB00"></path><path d="M198.59,253.74l-1.81-2.52a62.09,62.09,0,0,0,3.77-7S200.9,250.5,198.59,253.74Z" style="opacity:0.2"></path><path d="M178.78,231.74s-3.59,3-7,2.07a37.94,37.94,0,0,1,2.37-5.13c.18-.31.35-.62.53-.91A6.88,6.88,0,0,1,178.78,231.74Z" style="opacity:0.2"></path><path d="M189.39,197l-1.47-1.29a2.25,2.25,0,0,0-2-.51l-3.34.78a4.24,4.24,0,0,0-3,2.52l-.32.79c2.29,2.31,6.46,3.12,6.46,3.12l1.16.36a1.89,1.89,0,0,0,2.42-1.19l.75-2.3A2.19,2.19,0,0,0,189.39,197Z" style="fill:#ebb376"></path><path d="M176.79,227.39c-5.49-4.14-22-16.32-16-24.1,1.63-1.82,3.42-2.42,5.32-3.17a79.36,79.36,0,0,1,18.24-3.61,2,2,0,0,1,.76,3.85c-6,2.15-13.08,3.91-18.49,7.16-.25.17-.42.38-.26.24a1.48,1.48,0,0,0,.36-.77c3.22,5.41,9.65,9.9,14.72,14a4,4,0,0,1-4.64,6.44Z" style="fill:#e9b376"></path><path d="M186.86,223.05l-14.21-10L168,224.56s4.16,6.67,9.46,7.29S186.86,223.05,186.86,223.05Z" style="fill:#FCFB00"></path></g><g id="freepik--wall-2--inject-27"><rect x="314.96" y="74.69" width="97.46" height="340.97" style="fill:#FCFB00"></rect><rect x="314.96" y="74.69" width="97.46" height="340.97" style="fill:#fff;opacity:0.5"></rect><g style="opacity:0.30000000000000004"><rect x="364.71" y="129.51" width="30.12" height="8.65" style="fill:#fff"></rect><rect x="332.54" y="129.51" width="30.12" height="8.65" style="fill:#fff"></rect><rect x="316.45" y="129.51" width="14.03" height="8.65" style="fill:#fff"></rect><rect x="396.89" y="129.51" width="14.03" height="8.65" style="fill:#fff"></rect></g><g style="opacity:0.30000000000000004"><rect x="348.63" y="140.11" width="30.12" height="8.65" style="fill:#fff"></rect><rect x="316.45" y="140.11" width="30.12" height="8.65" style="fill:#fff"></rect><rect x="380.8" y="140.11" width="30.12" height="8.65" style="fill:#fff"></rect></g><g style="opacity:0.30000000000000004"><rect x="364.71" y="108.3" width="30.12" height="8.65" style="fill:#fff"></rect><rect x="332.54" y="108.3" width="30.12" height="8.65" style="fill:#fff"></rect><rect x="316.45" y="108.3" width="14.03" height="8.65" style="fill:#fff"></rect><rect x="396.89" y="108.3" width="14.03" height="8.65" style="fill:#fff"></rect></g><g style="opacity:0.30000000000000004"><rect x="348.63" y="118.9" width="30.12" height="8.65" style="fill:#fff"></rect><rect x="316.45" y="118.9" width="30.12" height="8.65" style="fill:#fff"></rect><rect x="380.8" y="118.9" width="30.12" height="8.65" style="fill:#fff"></rect></g><g style="opacity:0.30000000000000004"><rect x="364.71" y="87.09" width="30.12" height="8.65" style="fill:#fff"></rect><rect x="332.54" y="87.09" width="30.12" height="8.65" style="fill:#fff"></rect><rect x="316.45" y="87.09" width="14.03" height="8.65" style="fill:#fff"></rect><rect x="396.89" y="87.09" width="14.03" height="8.65" style="fill:#fff"></rect></g><g style="opacity:0.30000000000000004"><rect x="348.63" y="97.69" width="30.12" height="8.65" style="fill:#fff"></rect><rect x="316.45" y="97.69" width="30.12" height="8.65" style="fill:#fff"></rect><rect x="380.8" y="97.69" width="30.12" height="8.65" style="fill:#fff"></rect></g><g style="opacity:0.30000000000000004"><rect x="348.63" y="76.48" width="30.12" height="8.65" style="fill:#fff"></rect><rect x="316.45" y="76.48" width="30.12" height="8.65" style="fill:#fff"></rect><rect x="380.8" y="76.48" width="30.12" height="8.65" style="fill:#fff"></rect></g><g style="opacity:0.30000000000000004"><rect x="364.71" y="150.72" width="30.12" height="8.65" style="fill:#fff"></rect><rect x="332.54" y="150.72" width="30.12" height="8.65" style="fill:#fff"></rect><rect x="316.45" y="150.72" width="14.03" height="8.65" style="fill:#fff"></rect><rect x="396.89" y="150.72" width="14.03" height="8.65" style="fill:#fff"></rect></g><g style="opacity:0.30000000000000004"><rect x="348.63" y="161.32" width="30.12" height="8.65" style="fill:#fff"></rect><rect x="316.45" y="161.32" width="30.12" height="8.65" style="fill:#fff"></rect><rect x="380.8" y="161.32" width="30.12" height="8.65" style="fill:#fff"></rect></g><g style="opacity:0.30000000000000004"><rect x="364.71" y="171.93" width="30.12" height="8.65" style="fill:#fff"></rect><rect x="332.54" y="171.93" width="30.12" height="8.65" style="fill:#fff"></rect><rect x="316.45" y="171.93" width="14.03" height="8.65" style="fill:#fff"></rect><rect x="396.89" y="171.93" width="14.03" height="8.65" style="fill:#fff"></rect></g><g style="opacity:0.30000000000000004"><rect x="348.63" y="182.53" width="30.12" height="8.65" style="fill:#fff"></rect><rect x="316.45" y="182.53" width="30.12" height="8.65" style="fill:#fff"></rect><rect x="380.8" y="182.53" width="30.12" height="8.65" style="fill:#fff"></rect></g><g style="opacity:0.30000000000000004"><rect x="364.71" y="193.13" width="30.12" height="8.65" style="fill:#fff"></rect><rect x="332.54" y="193.13" width="30.12" height="8.65" style="fill:#fff"></rect><rect x="316.45" y="193.13" width="14.03" height="8.65" style="fill:#fff"></rect><rect x="396.89" y="193.13" width="14.03" height="8.65" style="fill:#fff"></rect></g><g style="opacity:0.30000000000000004"><rect x="348.63" y="203.74" width="30.12" height="8.65" style="fill:#fff"></rect><rect x="316.45" y="203.74" width="30.12" height="8.65" style="fill:#fff"></rect><rect x="380.8" y="203.74" width="30.12" height="8.65" style="fill:#fff"></rect></g><g style="opacity:0.30000000000000004"><rect x="364.71" y="214.34" width="30.12" height="8.65" style="fill:#fff"></rect><rect x="332.54" y="214.34" width="30.12" height="8.65" style="fill:#fff"></rect><rect x="316.45" y="214.34" width="14.03" height="8.65" style="fill:#fff"></rect><rect x="396.89" y="214.34" width="14.03" height="8.65" style="fill:#fff"></rect></g><g style="opacity:0.30000000000000004"><rect x="348.63" y="224.95" width="30.12" height="8.65" style="fill:#fff"></rect><rect x="316.45" y="224.95" width="30.12" height="8.65" style="fill:#fff"></rect><rect x="380.8" y="224.95" width="30.12" height="8.65" style="fill:#fff"></rect></g><g style="opacity:0.30000000000000004"><rect x="364.71" y="235.55" width="30.12" height="8.65" style="fill:#fff"></rect><rect x="332.54" y="235.55" width="30.12" height="8.65" style="fill:#fff"></rect><rect x="316.45" y="235.55" width="14.03" height="8.65" style="fill:#fff"></rect><rect x="396.89" y="235.55" width="14.03" height="8.65" style="fill:#fff"></rect></g><g style="opacity:0.30000000000000004"><rect x="348.63" y="246.16" width="30.12" height="8.65" style="fill:#fff"></rect><rect x="316.45" y="246.16" width="30.12" height="8.65" style="fill:#fff"></rect><rect x="380.8" y="246.16" width="30.12" height="8.65" style="fill:#fff"></rect></g><g style="opacity:0.30000000000000004"><rect x="364.71" y="256.76" width="30.12" height="8.65" style="fill:#fff"></rect><rect x="332.54" y="256.76" width="30.12" height="8.65" style="fill:#fff"></rect><rect x="316.45" y="256.76" width="14.03" height="8.65" style="fill:#fff"></rect><rect x="396.89" y="256.76" width="14.03" height="8.65" style="fill:#fff"></rect></g><g style="opacity:0.30000000000000004"><rect x="348.63" y="267.37" width="30.12" height="8.65" style="fill:#fff"></rect><rect x="316.45" y="267.37" width="30.12" height="8.65" style="fill:#fff"></rect><rect x="380.8" y="267.37" width="30.12" height="8.65" style="fill:#fff"></rect></g><g style="opacity:0.30000000000000004"><rect x="364.71" y="277.97" width="30.12" height="8.65" style="fill:#fff"></rect><rect x="332.54" y="277.97" width="30.12" height="8.65" style="fill:#fff"></rect><rect x="316.45" y="277.97" width="14.03" height="8.65" style="fill:#fff"></rect><rect x="396.89" y="277.97" width="14.03" height="8.65" style="fill:#fff"></rect></g><g style="opacity:0.30000000000000004"><rect x="348.63" y="288.58" width="30.12" height="8.65" style="fill:#fff"></rect><rect x="316.45" y="288.58" width="30.12" height="8.65" style="fill:#fff"></rect><rect x="380.8" y="288.58" width="30.12" height="8.65" style="fill:#fff"></rect></g><g style="opacity:0.30000000000000004"><rect x="364.71" y="299.18" width="30.12" height="8.65" style="fill:#fff"></rect><rect x="332.54" y="299.18" width="30.12" height="8.65" style="fill:#fff"></rect><rect x="316.45" y="299.18" width="14.03" height="8.65" style="fill:#fff"></rect><rect x="396.89" y="299.18" width="14.03" height="8.65" style="fill:#fff"></rect></g><g style="opacity:0.30000000000000004"><rect x="348.63" y="309.79" width="30.12" height="8.65" style="fill:#fff"></rect><rect x="316.45" y="309.79" width="30.12" height="8.65" style="fill:#fff"></rect><rect x="380.8" y="309.79" width="30.12" height="8.65" style="fill:#fff"></rect></g><g style="opacity:0.30000000000000004"><rect x="364.71" y="320.39" width="30.12" height="8.65" style="fill:#fff"></rect><rect x="332.54" y="320.39" width="30.12" height="8.65" style="fill:#fff"></rect><rect x="316.45" y="320.39" width="14.03" height="8.65" style="fill:#fff"></rect><rect x="396.89" y="320.39" width="14.03" height="8.65" style="fill:#fff"></rect></g><g style="opacity:0.30000000000000004"><rect x="348.63" y="331" width="30.12" height="8.65" style="fill:#fff"></rect><rect x="316.45" y="331" width="30.12" height="8.65" style="fill:#fff"></rect><rect x="380.8" y="331" width="30.12" height="8.65" style="fill:#fff"></rect></g><g style="opacity:0.30000000000000004"><rect x="364.71" y="341.6" width="30.12" height="8.65" style="fill:#fff"></rect><rect x="332.54" y="341.6" width="30.12" height="8.65" style="fill:#fff"></rect><rect x="316.45" y="341.6" width="14.03" height="8.65" style="fill:#fff"></rect><rect x="396.89" y="341.6" width="14.03" height="8.65" style="fill:#fff"></rect></g><g style="opacity:0.30000000000000004"><rect x="348.63" y="352.21" width="30.12" height="8.65" style="fill:#fff"></rect><rect x="316.45" y="352.21" width="30.12" height="8.65" style="fill:#fff"></rect><rect x="380.8" y="352.21" width="30.12" height="8.65" style="fill:#fff"></rect></g><g style="opacity:0.30000000000000004"><rect x="364.71" y="362.81" width="30.12" height="8.65" style="fill:#fff"></rect><rect x="332.54" y="362.81" width="30.12" height="8.65" style="fill:#fff"></rect><rect x="316.45" y="362.81" width="14.03" height="8.65" style="fill:#fff"></rect><rect x="396.89" y="362.81" width="14.03" height="8.65" style="fill:#fff"></rect></g><g style="opacity:0.30000000000000004"><rect x="348.63" y="373.41" width="30.12" height="8.65" style="fill:#fff"></rect><rect x="316.45" y="373.41" width="30.12" height="8.65" style="fill:#fff"></rect><rect x="380.8" y="373.41" width="30.12" height="8.65" style="fill:#fff"></rect></g><g style="opacity:0.30000000000000004"><rect x="364.71" y="384.02" width="30.12" height="8.65" style="fill:#fff"></rect><rect x="332.54" y="384.02" width="30.12" height="8.65" style="fill:#fff"></rect><rect x="316.45" y="384.02" width="14.03" height="8.65" style="fill:#fff"></rect><rect x="396.89" y="384.02" width="14.03" height="8.65" style="fill:#fff"></rect></g><g style="opacity:0.30000000000000004"><rect x="348.63" y="394.62" width="30.12" height="8.65" style="fill:#fff"></rect><rect x="316.45" y="394.62" width="30.12" height="8.65" style="fill:#fff"></rect><rect x="380.8" y="394.62" width="30.12" height="8.65" style="fill:#fff"></rect></g><g style="opacity:0.30000000000000004"><rect x="364.71" y="405.23" width="30.12" height="8.65" style="fill:#fff"></rect><rect x="332.54" y="405.23" width="30.12" height="8.65" style="fill:#fff"></rect><rect x="316.45" y="405.23" width="14.03" height="8.65" style="fill:#fff"></rect><rect x="396.89" y="405.23" width="14.03" height="8.65" style="fill:#fff"></rect></g></g><g id="freepik--wall-1--inject-27"><rect x="88.82" y="74.69" width="97.46" height="340.97" transform="translate(275.1 490.36) rotate(180)" style="fill:#FCFB00"></rect><rect x="88.82" y="74.69" width="97.46" height="340.97" transform="translate(275.1 490.36) rotate(180)" style="fill:#fff;opacity:0.5"></rect><g style="opacity:0.30000000000000004"><rect x="106.4" y="129.51" width="30.12" height="8.65" transform="translate(242.93 267.66) rotate(180)" style="fill:#fff"></rect><rect x="138.58" y="129.51" width="30.12" height="8.65" transform="translate(307.28 267.66) rotate(180)" style="fill:#fff"></rect><rect x="170.75" y="129.51" width="14.03" height="8.65" transform="translate(355.54 267.66) rotate(180)" style="fill:#fff"></rect><rect x="90.32" y="129.51" width="14.03" height="8.65" transform="translate(194.67 267.66) rotate(180)" style="fill:#fff"></rect></g><g style="opacity:0.30000000000000004"><rect x="122.49" y="140.11" width="30.12" height="8.65" transform="translate(275.1 288.87) rotate(180)" style="fill:#fff"></rect><rect x="154.67" y="140.11" width="30.12" height="8.65" transform="translate(339.45 288.87) rotate(180)" style="fill:#fff"></rect><rect x="90.32" y="140.11" width="30.12" height="8.65" transform="translate(210.75 288.87) rotate(180)" style="fill:#fff"></rect></g><g style="opacity:0.30000000000000004"><rect x="106.4" y="108.3" width="30.12" height="8.65" transform="translate(242.93 225.24) rotate(180)" style="fill:#fff"></rect><rect x="138.58" y="108.3" width="30.12" height="8.65" transform="translate(307.28 225.24) rotate(180)" style="fill:#fff"></rect><rect x="170.75" y="108.3" width="14.03" height="8.65" transform="translate(355.54 225.24) rotate(180)" style="fill:#fff"></rect><rect x="90.32" y="108.3" width="14.03" height="8.65" transform="translate(194.67 225.24) rotate(180)" style="fill:#fff"></rect></g><g style="opacity:0.30000000000000004"><rect x="122.49" y="118.9" width="30.12" height="8.65" transform="translate(275.1 246.45) rotate(180)" style="fill:#fff"></rect><rect x="154.67" y="118.9" width="30.12" height="8.65" transform="translate(339.45 246.45) rotate(180)" style="fill:#fff"></rect><rect x="90.32" y="118.9" width="30.12" height="8.65" transform="translate(210.75 246.45) rotate(180)" style="fill:#fff"></rect></g><g style="opacity:0.30000000000000004"><rect x="106.4" y="87.09" width="30.12" height="8.65" transform="translate(242.93 182.82) rotate(180)" style="fill:#fff"></rect><rect x="138.58" y="87.09" width="30.12" height="8.65" transform="translate(307.28 182.82) rotate(180)" style="fill:#fff"></rect><rect x="170.75" y="87.09" width="14.03" height="8.65" transform="translate(355.54 182.82) rotate(180)" style="fill:#fff"></rect><rect x="90.32" y="87.09" width="14.03" height="8.65" transform="translate(194.67 182.82) rotate(180)" style="fill:#fff"></rect></g><g style="opacity:0.30000000000000004"><rect x="122.49" y="97.69" width="30.12" height="8.65" transform="translate(275.1 204.03) rotate(180)" style="fill:#fff"></rect><rect x="154.67" y="97.69" width="30.12" height="8.65" transform="translate(339.45 204.03) rotate(180)" style="fill:#fff"></rect><rect x="90.32" y="97.69" width="30.12" height="8.65" transform="translate(210.75 204.03) rotate(180)" style="fill:#fff"></rect></g><g style="opacity:0.30000000000000004"><rect x="122.49" y="76.48" width="30.12" height="8.65" transform="translate(275.1 161.61) rotate(180)" style="fill:#fff"></rect><rect x="154.67" y="76.48" width="30.12" height="8.65" transform="translate(339.45 161.61) rotate(180)" style="fill:#fff"></rect><rect x="90.32" y="76.48" width="30.12" height="8.65" transform="translate(210.75 161.61) rotate(180)" style="fill:#fff"></rect></g><g style="opacity:0.30000000000000004"><rect x="106.4" y="150.72" width="30.12" height="8.65" transform="translate(242.93 310.08) rotate(180)" style="fill:#fff"></rect><rect x="138.58" y="150.72" width="30.12" height="8.65" transform="translate(307.28 310.08) rotate(180)" style="fill:#fff"></rect><rect x="170.75" y="150.72" width="14.03" height="8.65" transform="translate(355.54 310.08) rotate(180)" style="fill:#fff"></rect><rect x="90.32" y="150.72" width="14.03" height="8.65" transform="translate(194.67 310.08) rotate(180)" style="fill:#fff"></rect></g><g style="opacity:0.30000000000000004"><rect x="122.49" y="161.32" width="30.12" height="8.65" transform="translate(275.1 331.29) rotate(180)" style="fill:#fff"></rect><rect x="154.67" y="161.32" width="30.12" height="8.65" transform="translate(339.45 331.29) rotate(180)" style="fill:#fff"></rect><rect x="90.32" y="161.32" width="30.12" height="8.65" transform="translate(210.75 331.29) rotate(180)" style="fill:#fff"></rect></g><g style="opacity:0.30000000000000004"><rect x="106.4" y="171.93" width="30.12" height="8.65" transform="translate(242.93 352.5) rotate(180)" style="fill:#fff"></rect><rect x="138.58" y="171.93" width="30.12" height="8.65" transform="translate(307.28 352.5) rotate(180)" style="fill:#fff"></rect><rect x="170.75" y="171.93" width="14.03" height="8.65" transform="translate(355.54 352.5) rotate(180)" style="fill:#fff"></rect><rect x="90.32" y="171.93" width="14.03" height="8.65" transform="translate(194.67 352.5) rotate(180)" style="fill:#fff"></rect></g><g style="opacity:0.30000000000000004"><rect x="122.49" y="182.53" width="30.12" height="8.65" transform="translate(275.1 373.71) rotate(180)" style="fill:#fff"></rect><rect x="154.67" y="182.53" width="30.12" height="8.65" transform="translate(339.45 373.71) rotate(180)" style="fill:#fff"></rect><rect x="90.32" y="182.53" width="30.12" height="8.65" transform="translate(210.75 373.71) rotate(180)" style="fill:#fff"></rect></g><g style="opacity:0.30000000000000004"><rect x="106.4" y="193.13" width="30.12" height="8.65" transform="translate(242.93 394.92) rotate(180)" style="fill:#fff"></rect><rect x="138.58" y="193.13" width="30.12" height="8.65" transform="translate(307.28 394.92) rotate(180)" style="fill:#fff"></rect><rect x="170.75" y="193.13" width="14.03" height="8.65" transform="translate(355.54 394.92) rotate(180)" style="fill:#fff"></rect><rect x="90.32" y="193.13" width="14.03" height="8.65" transform="translate(194.67 394.92) rotate(180)" style="fill:#fff"></rect></g><g style="opacity:0.30000000000000004"><rect x="122.49" y="203.74" width="30.12" height="8.65" transform="translate(275.1 416.13) rotate(180)" style="fill:#fff"></rect><rect x="154.67" y="203.74" width="30.12" height="8.65" transform="translate(339.45 416.13) rotate(180)" style="fill:#fff"></rect><rect x="90.32" y="203.74" width="30.12" height="8.65" transform="translate(210.75 416.13) rotate(180)" style="fill:#fff"></rect></g><g style="opacity:0.30000000000000004"><rect x="106.4" y="214.34" width="30.12" height="8.65" transform="translate(242.93 437.34) rotate(180)" style="fill:#fff"></rect><rect x="138.58" y="214.34" width="30.12" height="8.65" transform="translate(307.28 437.34) rotate(180)" style="fill:#fff"></rect><rect x="170.75" y="214.34" width="14.03" height="8.65" transform="translate(355.54 437.34) rotate(180)" style="fill:#fff"></rect><rect x="90.32" y="214.34" width="14.03" height="8.65" transform="translate(194.67 437.34) rotate(180)" style="fill:#fff"></rect></g><g style="opacity:0.30000000000000004"><rect x="122.49" y="224.95" width="30.12" height="8.65" transform="translate(275.1 458.54) rotate(180)" style="fill:#fff"></rect><rect x="154.67" y="224.95" width="30.12" height="8.65" transform="translate(339.45 458.54) rotate(180)" style="fill:#fff"></rect><rect x="90.32" y="224.95" width="30.12" height="8.65" transform="translate(210.75 458.54) rotate(180)" style="fill:#fff"></rect></g><g style="opacity:0.30000000000000004"><rect x="106.4" y="235.55" width="30.12" height="8.65" transform="translate(242.93 479.75) rotate(180)" style="fill:#fff"></rect><rect x="138.58" y="235.55" width="30.12" height="8.65" transform="translate(307.28 479.75) rotate(180)" style="fill:#fff"></rect><rect x="170.75" y="235.55" width="14.03" height="8.65" transform="translate(355.54 479.75) rotate(180)" style="fill:#fff"></rect><rect x="90.32" y="235.55" width="14.03" height="8.65" transform="translate(194.67 479.75) rotate(180)" style="fill:#fff"></rect></g><g style="opacity:0.30000000000000004"><rect x="122.49" y="246.16" width="30.12" height="8.65" transform="translate(275.1 500.96) rotate(180)" style="fill:#fff"></rect><rect x="154.67" y="246.16" width="30.12" height="8.65" transform="translate(339.45 500.96) rotate(180)" style="fill:#fff"></rect><rect x="90.32" y="246.16" width="30.12" height="8.65" transform="translate(210.75 500.96) rotate(180)" style="fill:#fff"></rect></g><g style="opacity:0.30000000000000004"><rect x="106.4" y="256.76" width="30.12" height="8.65" transform="translate(242.93 522.17) rotate(180)" style="fill:#fff"></rect><rect x="138.58" y="256.76" width="30.12" height="8.65" transform="translate(307.28 522.17) rotate(180)" style="fill:#fff"></rect><rect x="170.75" y="256.76" width="14.03" height="8.65" transform="translate(355.54 522.17) rotate(180)" style="fill:#fff"></rect><rect x="90.32" y="256.76" width="14.03" height="8.65" transform="translate(194.67 522.17) rotate(180)" style="fill:#fff"></rect></g><g style="opacity:0.30000000000000004"><rect x="122.49" y="267.37" width="30.12" height="8.65" transform="translate(275.1 543.38) rotate(180)" style="fill:#fff"></rect><rect x="154.67" y="267.37" width="30.12" height="8.65" transform="translate(339.45 543.38) rotate(180)" style="fill:#fff"></rect><rect x="90.32" y="267.37" width="30.12" height="8.65" transform="translate(210.75 543.38) rotate(180)" style="fill:#fff"></rect></g><g style="opacity:0.30000000000000004"><rect x="106.4" y="277.97" width="30.12" height="8.65" transform="translate(242.93 564.59) rotate(180)" style="fill:#fff"></rect><rect x="138.58" y="277.97" width="30.12" height="8.65" transform="translate(307.28 564.59) rotate(180)" style="fill:#fff"></rect><rect x="170.75" y="277.97" width="14.03" height="8.65" transform="translate(355.54 564.59) rotate(180)" style="fill:#fff"></rect><rect x="90.32" y="277.97" width="14.03" height="8.65" transform="translate(194.67 564.59) rotate(180)" style="fill:#fff"></rect></g><g style="opacity:0.30000000000000004"><rect x="122.49" y="288.58" width="30.12" height="8.65" transform="translate(275.1 585.8) rotate(180)" style="fill:#fff"></rect><rect x="154.67" y="288.58" width="30.12" height="8.65" transform="translate(339.45 585.8) rotate(180)" style="fill:#fff"></rect><rect x="90.32" y="288.58" width="30.12" height="8.65" transform="translate(210.75 585.8) rotate(180)" style="fill:#fff"></rect></g><g style="opacity:0.30000000000000004"><rect x="106.4" y="299.18" width="30.12" height="8.65" transform="translate(242.93 607.01) rotate(180)" style="fill:#fff"></rect><rect x="138.58" y="299.18" width="30.12" height="8.65" transform="translate(307.28 607.01) rotate(180)" style="fill:#fff"></rect><rect x="170.75" y="299.18" width="14.03" height="8.65" transform="translate(355.54 607.01) rotate(180)" style="fill:#fff"></rect><rect x="90.32" y="299.18" width="14.03" height="8.65" transform="translate(194.67 607.01) rotate(180)" style="fill:#fff"></rect></g><g style="opacity:0.30000000000000004"><rect x="122.49" y="309.79" width="30.12" height="8.65" transform="translate(275.1 628.22) rotate(180)" style="fill:#fff"></rect><rect x="154.67" y="309.79" width="30.12" height="8.65" transform="translate(339.45 628.22) rotate(180)" style="fill:#fff"></rect><rect x="90.32" y="309.79" width="30.12" height="8.65" transform="translate(210.75 628.22) rotate(180)" style="fill:#fff"></rect></g><g style="opacity:0.30000000000000004"><rect x="106.4" y="320.39" width="30.12" height="8.65" transform="translate(242.93 649.43) rotate(180)" style="fill:#fff"></rect><rect x="138.58" y="320.39" width="30.12" height="8.65" transform="translate(307.28 649.43) rotate(180)" style="fill:#fff"></rect><rect x="170.75" y="320.39" width="14.03" height="8.65" transform="translate(355.54 649.43) rotate(180)" style="fill:#fff"></rect><rect x="90.32" y="320.39" width="14.03" height="8.65" transform="translate(194.67 649.43) rotate(180)" style="fill:#fff"></rect></g><g style="opacity:0.30000000000000004"><rect x="122.49" y="331" width="30.12" height="8.65" transform="translate(275.1 670.64) rotate(180)" style="fill:#fff"></rect><rect x="154.67" y="331" width="30.12" height="8.65" transform="translate(339.45 670.64) rotate(180)" style="fill:#fff"></rect><rect x="90.32" y="331" width="30.12" height="8.65" transform="translate(210.75 670.64) rotate(180)" style="fill:#fff"></rect></g><g style="opacity:0.30000000000000004"><rect x="106.4" y="341.6" width="30.12" height="8.65" transform="translate(242.93 691.85) rotate(180)" style="fill:#fff"></rect><rect x="138.58" y="341.6" width="30.12" height="8.65" transform="translate(307.28 691.85) rotate(180)" style="fill:#fff"></rect><rect x="170.75" y="341.6" width="14.03" height="8.65" transform="translate(355.54 691.85) rotate(180)" style="fill:#fff"></rect><rect x="90.32" y="341.6" width="14.03" height="8.65" transform="translate(194.67 691.85) rotate(180)" style="fill:#fff"></rect></g><g style="opacity:0.30000000000000004"><rect x="122.49" y="352.21" width="30.12" height="8.65" transform="translate(275.1 713.06) rotate(180)" style="fill:#fff"></rect><rect x="154.67" y="352.21" width="30.12" height="8.65" transform="translate(339.45 713.06) rotate(180)" style="fill:#fff"></rect><rect x="90.32" y="352.21" width="30.12" height="8.65" transform="translate(210.75 713.06) rotate(180)" style="fill:#fff"></rect></g><g style="opacity:0.30000000000000004"><rect x="106.4" y="362.81" width="30.12" height="8.65" transform="translate(242.93 734.27) rotate(180)" style="fill:#fff"></rect><rect x="138.58" y="362.81" width="30.12" height="8.65" transform="translate(307.28 734.27) rotate(180)" style="fill:#fff"></rect><rect x="170.75" y="362.81" width="14.03" height="8.65" transform="translate(355.54 734.27) rotate(180)" style="fill:#fff"></rect><rect x="90.32" y="362.81" width="14.03" height="8.65" transform="translate(194.67 734.27) rotate(180)" style="fill:#fff"></rect></g><g style="opacity:0.30000000000000004"><rect x="122.49" y="373.41" width="30.12" height="8.65" transform="translate(275.1 755.48) rotate(180)" style="fill:#fff"></rect><rect x="154.67" y="373.41" width="30.12" height="8.65" transform="translate(339.45 755.48) rotate(180)" style="fill:#fff"></rect><rect x="90.32" y="373.41" width="30.12" height="8.65" transform="translate(210.75 755.48) rotate(180)" style="fill:#fff"></rect></g><g style="opacity:0.30000000000000004"><rect x="106.4" y="384.02" width="30.12" height="8.65" transform="translate(242.93 776.69) rotate(180)" style="fill:#fff"></rect><rect x="138.58" y="384.02" width="30.12" height="8.65" transform="translate(307.28 776.69) rotate(180)" style="fill:#fff"></rect><rect x="170.75" y="384.02" width="14.03" height="8.65" transform="translate(355.54 776.69) rotate(180)" style="fill:#fff"></rect><rect x="90.32" y="384.02" width="14.03" height="8.65" transform="translate(194.67 776.69) rotate(180)" style="fill:#fff"></rect></g><g style="opacity:0.30000000000000004"><rect x="122.49" y="394.62" width="30.12" height="8.65" transform="translate(275.1 797.9) rotate(180)" style="fill:#fff"></rect><rect x="154.67" y="394.62" width="30.12" height="8.65" transform="translate(339.45 797.9) rotate(180)" style="fill:#fff"></rect><rect x="90.32" y="394.62" width="30.12" height="8.65" transform="translate(210.75 797.9) rotate(180)" style="fill:#fff"></rect></g><g style="opacity:0.30000000000000004"><rect x="106.4" y="405.23" width="30.12" height="8.65" transform="translate(242.93 819.1) rotate(180)" style="fill:#fff"></rect><rect x="138.58" y="405.23" width="30.12" height="8.65" transform="translate(307.28 819.1) rotate(180)" style="fill:#fff"></rect><rect x="170.75" y="405.23" width="14.03" height="8.65" transform="translate(355.54 819.1) rotate(180)" style="fill:#fff"></rect><rect x="90.32" y="405.23" width="14.03" height="8.65" transform="translate(194.67 819.1) rotate(180)" style="fill:#fff"></rect></g></g><g id="freepik--plant-2--inject-27"><path d="M404.71,382.37c0-.36-1.22-36.06-7-41.69-5.62-5.47-12.08-.2-12.35,0l-.64-.76c.07-.07,7.43-6.06,13.69,0,6.08,5.92,7.27,40.9,7.32,42.38Z" style="fill:#263238"></path><path d="M405.21,389.4c0-.43-4-42.9,11.54-60.71l.75.66c-15.23,17.48-11.34,59.53-11.3,59.95Z" style="fill:#263238"></path><path d="M404.72,384.9l-1-.06c0-.48,3-48.24-8.33-58.69l.68-.73C407.79,336.18,404.85,382.92,404.72,384.9Z" style="fill:#263238"></path><path d="M406.2,384.88h-1c0-1.32.38-32.3,9.2-37.36a6.28,6.28,0,0,1,5.73-.55c5.33,2.2,8,11.69,8.08,12.09l-1,.26c0-.09-2.62-9.41-7.51-11.43a5.35,5.35,0,0,0-4.85.5C406.57,353.15,406.21,384.56,406.2,384.88Z" style="fill:#263238"></path><path d="M402.78,384.9l-1-.06c0-.24,1.33-24.45-5.2-33-1.57-2.06-3.28-3-5.08-2.91-4.26.29-7.84,6.54-7.87,6.6l-.87-.49c.15-.28,3.87-6.78,8.67-7.11,2.16-.14,4.15,1,5.94,3.3C404.13,360.08,402.84,383.89,402.78,384.9Z" style="fill:#263238"></path><path d="M404.12,388.2c-.18-2.36-4.27-57.67,2.94-67.43l.81.59c-7,9.46-2.79,66.19-2.75,66.76Z" style="fill:#263238"></path><path d="M422.07,352.6s-4.32,1.6-3,5.36,15,10,15,10,5.73-5.24.47-13.78S422.18,349.91,422.07,352.6Z" style="fill:#FCFB00"></path><path d="M422.07,352.6s-4.32,1.6-3,5.36,15,10,15,10,5.73-5.24.47-13.78S422.18,349.91,422.07,352.6Z" style="fill:#fff;isolation:isolate;opacity:0.2"></path><path d="M403.28,345.44s4.6-.19,4.86,3.78-10,14.94-10,14.94-7.3-2.64-5.73-12.54S402.13,343,403.28,345.44Z" style="fill:#FCFB00"></path><path d="M403.28,345.44s4.6-.19,4.86,3.78-10,14.94-10,14.94-7.3-2.64-5.73-12.54S402.13,343,403.28,345.44Z" style="fill:#fff;isolation:isolate;opacity:0.2"></path><path d="M399.38,326.45s3.07-.33,2.82-2.2-11.93-6.68-18.82,1.1c0,0,4.41,7.58,10.79,7.68S399.38,326.45,399.38,326.45Z" style="fill:#FCFB00"></path><path d="M399.38,326.45s3.07-.33,2.82-2.2-11.93-6.68-18.82,1.1c0,0,4.41,7.58,10.79,7.68S399.38,326.45,399.38,326.45Z" style="fill:#fff;isolation:isolate;opacity:0.2"></path><path d="M405.1,321.91s-2.78,1.35-3.56-.37,6.59-12,16.56-9c0,0,.26,8.77-5.1,12.23S405.1,321.91,405.1,321.91Z" style="fill:#FCFB00"></path><path d="M405.1,321.91s-2.78,1.35-3.56-.37,6.59-12,16.56-9c0,0,.26,8.77-5.1,12.23S405.1,321.91,405.1,321.91Z" style="fill:#fff;isolation:isolate;opacity:0.2"></path><path d="M390.57,351.09s2.12-1.71-.17-2.54-13.5-.6-13.62,10.51c0,0,13.07,2.17,14.68-2.06S390.57,351.09,390.57,351.09Z" style="fill:#FCFB00"></path><path d="M390.57,351.09s2.12-1.71-.17-2.54-13.5-.6-13.62,10.51c0,0,13.07,2.17,14.68-2.06S390.57,351.09,390.57,351.09Z" style="fill:#fff;isolation:isolate;opacity:0.2"></path><path d="M417.2,326.17s-2.11-1.71.17-2.54,13.5-.6,13.62,10.51c0,0-13.06,2.17-14.68-2.06S417.2,326.17,417.2,326.17Z" style="fill:#FCFB00"></path><path d="M417.2,326.17s-2.11-1.71.17-2.54,13.5-.6,13.62,10.51c0,0-13.06,2.17-14.68-2.06S417.2,326.17,417.2,326.17Z" style="fill:#fff;isolation:isolate;opacity:0.2"></path><path d="M410.3,335.12s-.19-2.07,1.49-1.26,7.53,7.12,1.47,13.11c0,0-8.16-6-6.69-9.19S410.3,335.12,410.3,335.12Z" style="fill:#FCFB00"></path><path d="M410.3,335.12s-.19-2.07,1.49-1.26,7.53,7.12,1.47,13.11c0,0-8.16-6-6.69-9.19S410.3,335.12,410.3,335.12Z" style="fill:#fff;isolation:isolate;opacity:0.2"></path><path d="M388.68,338.09s1.26-1.66-.59-1.87-10.17,2-8.23,10.31c0,0,10.12-.76,10.56-4.21S388.68,338.09,388.68,338.09Z" style="fill:#FCFB00"></path><path d="M388.68,338.09s1.26-1.66-.59-1.87-10.17,2-8.23,10.31c0,0,10.12-.76,10.56-4.21S388.68,338.09,388.68,338.09Z" style="fill:#fff;isolation:isolate;opacity:0.2"></path><polygon points="422.88 415.67 388.14 415.67 384.39 377.64 426.62 377.64 422.88 415.67" style="fill:#FCFB00"></polygon><polygon points="422.88 415.67 388.14 415.67 384.39 377.64 426.62 377.64 422.88 415.67" style="isolation:isolate;opacity:0.2"></polygon><rect x="382.54" y="373.44" width="45.94" height="8.39" style="fill:#FCFB00"></rect></g><g id="freepik--plant-1--inject-27"><path d="M92.1,381.06s-3.94-22.32,1.26-44.21,3.81-26.44,8.16-31c0,0-.2,3.8,0,9.52S100.33,336,100.33,351,101.27,388.42,92.1,381.06Z" style="fill:#FCFB00"></path><path d="M92.1,381.06s-3.94-22.32,1.26-44.21,3.81-26.44,8.16-31c0,0-.2,3.8,0,9.52S100.33,336,100.33,351,101.27,388.42,92.1,381.06Z" style="fill:#fff;isolation:isolate;opacity:0.2"></path><path d="M89.26,383.53s-3.17.45-6.07-14.94S78.13,344,74.06,334.21s-1.85-22.68-1.85-22.68a40.78,40.78,0,0,0,4.65,12.66c3.43,5.54,8.18,16.06,12.4,28.34S95.85,382,89.26,383.53Z" style="fill:#FCFB00"></path><path d="M98,380.48c-4-2,1.93-29,8.85-39.92s5.86-18,8.57-20c0,0,.65,2.35,0,8.09s-.46,15.2-4.61,23.92S105.58,384.29,98,380.48Z" style="fill:#FCFB00"></path><path d="M89.26,383.53s-3.17.45-6.07-14.94S78.13,344,74.06,334.21s-1.85-22.68-1.85-22.68a40.78,40.78,0,0,0,4.65,12.66c3.43,5.54,8.18,16.06,12.4,28.34S95.85,382,89.26,383.53Z" style="fill:#fff;isolation:isolate;opacity:0.30000000000000004"></path><path d="M98,380.48c-4-2,1.93-29,8.85-39.92s5.86-18,8.57-20c0,0,.65,2.35,0,8.09s-.46,15.2-4.61,23.92S105.58,384.29,98,380.48Z" style="fill:#fff;isolation:isolate;opacity:0.30000000000000004"></path><path d="M92.1,381.06c.76-5.19-13.33-18.14-16.29-20.95s-6.33-10.73-6.33-10.73-.67,9.85,2.73,13.82,7.66,8.41,10.27,14.8S91,388.62,92.1,381.06Z" style="fill:#FCFB00"></path><path d="M98.55,382.51c-4.72-3.26,1.7-9,8-14.56s7-9.93,8.91-13.76,6.42-4.81,6.42-4.81-2.8,3.1-3.26,4.81-7.77,16-9.55,21.69S102.71,385.37,98.55,382.51Z" style="fill:#FCFB00"></path><path d="M92.1,381.06c.76-5.19-13.33-18.14-16.29-20.95s-6.33-10.73-6.33-10.73-.67,9.85,2.73,13.82,7.66,8.41,10.27,14.8S91,388.62,92.1,381.06Z" style="fill:#fff;isolation:isolate;opacity:0.4"></path><path d="M98.55,382.51c-4.72-3.26,1.7-9,8-14.56s7-9.93,8.91-13.76,6.42-4.81,6.42-4.81-2.8,3.1-3.26,4.81-7.77,16-9.55,21.69S102.71,385.37,98.55,382.51Z" style="fill:#fff;isolation:isolate;opacity:0.4"></path><polygon points="112.55 415.67 77.81 415.67 74.06 377.64 116.29 377.64 112.55 415.67" style="fill:#FCFB00"></polygon><polygon points="112.55 415.67 77.81 415.67 74.06 377.64 116.29 377.64 112.55 415.67" style="isolation:isolate;opacity:0.2"></polygon><rect x="72.21" y="373.44" width="45.94" height="8.39" style="fill:#FCFB00"></rect></g></svg>
