<svg xmlns="http://www.w3.org/2000/svg" viewBox="0 0 500 500"><g id="freepik--background-complete--inject-6"><rect x="134.54" y="93.54" width="60.85" height="73.81" transform="translate(329.93 260.88) rotate(180)" style="fill:#ebebeb"></rect><rect x="141.49" y="100.27" width="46.94" height="60.34" transform="translate(329.93 260.88) rotate(180)" style="fill:#fff"></rect><rect x="186.6" y="100.27" width="1.83" height="60.34" transform="translate(375.04 260.88) rotate(180)" style="fill:#c7c7c7"></rect><rect x="132.71" y="93.54" width="1.83" height="73.81" transform="translate(267.25 260.88) rotate(180)" style="fill:#c7c7c7"></rect><rect x="152.85" y="114.22" width="11.07" height="32.98" style="fill:#ebebeb"></rect><path d="M178,125.25H147.52V108.09H178Zm-29.51-1H177V109.09H148.52Z" style="fill:#ebebeb"></path><rect x="306.44" y="93.54" width="60.85" height="73.81" transform="translate(673.74 260.88) rotate(180)" style="fill:#ebebeb"></rect><rect x="313.4" y="100.27" width="46.94" height="60.34" transform="translate(673.74 260.88) rotate(180)" style="fill:#fff"></rect><rect x="358.51" y="100.27" width="1.83" height="60.34" transform="translate(718.85 260.88) rotate(180)" style="fill:#c7c7c7"></rect><rect x="304.61" y="93.54" width="1.83" height="73.81" transform="translate(611.05 260.88) rotate(180)" style="fill:#c7c7c7"></rect><rect x="333.54" y="114.22" width="11.07" height="32.98" transform="translate(678.15 261.43) rotate(180)" style="fill:#ebebeb"></rect><path d="M349.94,125.25H319.42V108.09h30.52Zm-29.52-1h28.52V109.09H320.42Z" style="fill:#ebebeb"></path><rect x="219.74" y="105.56" width="60.85" height="73.81" transform="translate(500.34 284.93) rotate(180)" style="fill:#ebebeb"></rect><rect x="226.7" y="112.3" width="46.94" height="60.34" transform="translate(500.34 284.93) rotate(180)" style="fill:#fff"></rect><rect x="271.81" y="112.3" width="1.83" height="60.34" transform="translate(545.45 284.93) rotate(180)" style="fill:#c7c7c7"></rect><rect x="217.91" y="105.56" width="1.83" height="73.81" transform="translate(437.66 284.93) rotate(180)" style="fill:#c7c7c7"></rect><rect x="245.23" y="127.89" width="9.48" height="23.98" transform="translate(499.94 279.76) rotate(180)" style="fill:#ebebeb"></rect><path d="M261.22,159.49H234.75V142h26.47Zm-25.47-1h24.47V143H235.75Z" style="fill:#dbdbdb"></path><path d="M56.59,260.77a2.5,2.5,0,0,1,2.61,0l.66.38c.23.12.46.24.7.35A2.49,2.49,0,0,1,62,263.67l.1,3.21,10.44-.33-.1-3.2a2.47,2.47,0,0,1,1.31-2.25,15.19,15.19,0,0,0,1.32-.82,2.49,2.49,0,0,1,2.59-.17l2.82,1.52,4.94-9.21-2.82-1.51a2.5,2.5,0,0,1-1.3-2.25,11.62,11.62,0,0,0,0-1.56,2.47,2.47,0,0,1,1.15-2.33l2.73-1.69-5.51-8.88-2.74,1.7a2.49,2.49,0,0,1-2.59,0c-.22-.13-.44-.26-.67-.38l-.68-.35A2.49,2.49,0,0,1,71.49,233l-.1-3.21L61,230.11l.1,3.19a2.51,2.51,0,0,1-1.31,2.26,12.19,12.19,0,0,0-1.33.82,2.49,2.49,0,0,1-2.59.17L53,235l-4.94,9.21,2.82,1.51a2.48,2.48,0,0,1,1.3,2.25,13.65,13.65,0,0,0,.05,1.57,2.48,2.48,0,0,1-1.16,2.33l-2.71,1.68,5.5,8.88Zm2.62-16.48a8.55,8.55,0,1,1,3.5,11.58A8.56,8.56,0,0,1,59.21,244.29Z" style="fill:#dbdbdb"></path><path d="M351.59,196.24a1.75,1.75,0,0,1,.85,1.61c0,.18,0,.36,0,.54s0,.37,0,.55a1.73,1.73,0,0,1-.85,1.6l-1.94,1.13L353.3,208l1.95-1.12a1.73,1.73,0,0,1,1.82.07c.31.19.62.38.94.54a1.74,1.74,0,0,1,1,1.55v2.24h7.31V209a1.75,1.75,0,0,1,1-1.55c.33-.16.64-.35.95-.54a1.73,1.73,0,0,1,1.82-.07l2,1.12,3.65-6.33-1.95-1.13a1.74,1.74,0,0,1-.85-1.61c0-.18,0-.36,0-.54s0-.36,0-.54a1.75,1.75,0,0,1,.85-1.61l1.95-1.12L372,188.78,370,189.9a1.75,1.75,0,0,1-1.83-.06c-.3-.2-.62-.38-.94-.55a1.73,1.73,0,0,1-1-1.54v-2.24H359v2.24a1.73,1.73,0,0,1-1,1.54c-.32.17-.64.35-.94.55a1.75,1.75,0,0,1-1.83.06l-1.94-1.12-3.65,6.34Zm11-3.84a6,6,0,1,1-6,6A6,6,0,0,1,362.63,192.4Z" style="fill:#dbdbdb"></path><path d="M388.16,173.45A28.5,28.5,0,1,0,416.66,145,28.5,28.5,0,0,0,388.16,173.45Zm15.19,0a13.31,13.31,0,1,1,13.31,13.3A13.31,13.31,0,0,1,403.35,173.45Z" style="fill:#ebebeb"></path><polygon points="411.18 146.14 422.13 146.14 421.53 138.38 411.78 138.38 411.18 146.14" style="fill:#ebebeb"></polygon><polygon points="432.03 149.83 439.78 157.58 444.84 151.67 437.95 144.78 432.03 149.83" style="fill:#ebebeb"></polygon><polygon points="444.17 167.19 444.17 178.15 451.93 177.54 451.93 167.79 444.17 167.19" style="fill:#ebebeb"></polygon><polygon points="440.48 188.04 432.73 195.79 438.64 200.85 445.53 193.96 440.48 188.04" style="fill:#ebebeb"></polygon><polygon points="423.12 200.18 412.16 200.18 412.77 207.94 422.51 207.94 423.12 200.18" style="fill:#ebebeb"></polygon><polygon points="402.27 196.49 394.52 188.74 389.46 194.65 396.35 201.54 402.27 196.49" style="fill:#ebebeb"></polygon><polygon points="390.13 179.13 390.13 168.18 382.37 168.78 382.37 178.53 390.13 179.13" style="fill:#ebebeb"></polygon><polygon points="393.82 158.28 401.57 150.53 395.66 145.47 388.76 152.36 393.82 158.28" style="fill:#ebebeb"></polygon><path d="M67.79,68.76A28.49,28.49,0,1,0,96.28,40.27,28.5,28.5,0,0,0,67.79,68.76Zm15.18,0a13.31,13.31,0,1,1,13.31,13.3A13.31,13.31,0,0,1,83,68.76Z" style="fill:#ebebeb"></path><polygon points="90.8 41.45 101.76 41.45 101.16 33.69 91.41 33.69 90.8 41.45" style="fill:#ebebeb"></polygon><polygon points="111.66 45.14 119.41 52.89 124.46 46.97 117.57 40.08 111.66 45.14" style="fill:#ebebeb"></polygon><polygon points="123.8 62.49 123.8 73.45 131.55 72.85 131.55 63.1 123.8 62.49" style="fill:#ebebeb"></polygon><polygon points="120.1 83.35 112.36 91.1 118.27 96.15 125.16 89.26 120.1 83.35" style="fill:#ebebeb"></polygon><polygon points="102.75 95.49 91.79 95.49 92.4 103.24 102.14 103.24 102.75 95.49" style="fill:#ebebeb"></polygon><polygon points="81.89 91.8 74.14 84.05 69.09 89.96 75.98 96.85 81.89 91.8" style="fill:#ebebeb"></polygon><polygon points="69.75 74.44 69.75 63.48 62 64.09 62 73.83 69.75 74.44" style="fill:#ebebeb"></polygon><polygon points="73.45 53.58 81.19 45.84 75.28 40.78 68.39 47.67 73.45 53.58" style="fill:#ebebeb"></polygon></g><g id="freepik--Floor--inject-6"><polygon points="39.97 462.11 92.48 461.87 144.99 461.78 250 461.61 355.01 461.78 407.52 461.87 460.03 462.11 407.52 462.36 355.01 462.44 250 462.61 144.99 462.44 92.48 462.36 39.97 462.11" style="fill:#263238"></polygon></g><g id="freepik--speech-bubble--inject-6"><path d="M222.07,59.41a24.26,24.26,0,0,1-40.54,15.35l-12.14,1.78,6.08-10.49a24.25,24.25,0,0,1,25-33.29A24.27,24.27,0,0,1,222.07,59.41Z" style="fill:#fff"></path><path d="M222.07,59.41a24.48,24.48,0,0,1-4.9,12.3,22.1,22.1,0,0,1-4.76,4.7,23.8,23.8,0,0,1-5.85,3.26A24.5,24.5,0,0,1,200,81.23a23.84,23.84,0,0,1-3.38.06,19.94,19.94,0,0,1-3.35-.35,24.5,24.5,0,0,1-12-5.92l.29.08L169.45,77l-.88.13.45-.78,6-10.51,0,.42a24.55,24.55,0,0,1,1.49-21.63,24.92,24.92,0,0,1,7.6-8.09,24.51,24.51,0,0,1,37.95,22.9Zm0,0a24,24,0,0,0-27.52-26.25,23.92,23.92,0,0,0-10,4A25.11,25.11,0,0,0,177.27,45a24,24,0,0,0-3.08,10.27,24.34,24.34,0,0,0,1.71,10.57l.09.21-.12.2-6.11,10.48-.43-.65,12.15-1.7.17,0,.12.11a23.88,23.88,0,0,0,11.61,6,22.87,22.87,0,0,0,3.3.4,24.53,24.53,0,0,0,3.32,0,23.73,23.73,0,0,0,6.48-1.43,22.36,22.36,0,0,0,5.85-3.15,22.17,22.17,0,0,0,4.77-4.64A24.47,24.47,0,0,0,222.07,59.41Z" style="fill:#263238"></path><path d="M192.28,57.74a2.22,2.22,0,0,0,3.93,1.41,1.07,1.07,0,0,1,1.91.65v5.56H182.88V59.8a1.05,1.05,0,0,1,1.06-1.06,1.07,1.07,0,0,1,.84.41,2.25,2.25,0,0,0,1.72.81,2.22,2.22,0,1,0-1.72-3.62,1.1,1.1,0,0,1-.84.41,1.06,1.06,0,0,1-1.06-1.06V50.12h5.56a1.05,1.05,0,0,0,1.06-1.06,1.07,1.07,0,0,0-.41-.84,2.22,2.22,0,1,1,3.63-1.72,2.21,2.21,0,0,1-.82,1.72,1.1,1.1,0,0,0-.41.84,1.06,1.06,0,0,0,1.06,1.06h5.57v5.57a1.07,1.07,0,0,1-1.07,1.06,1.1,1.1,0,0,1-.84-.41,2.19,2.19,0,0,0-1.71-.82A2.22,2.22,0,0,0,192.28,57.74Z" style="fill:#FCFB00"></path><path d="M213.69,48.2l2.38,15.06-5.5.86a1.05,1.05,0,0,1-1.21-.88,1,1,0,0,1,.28-.89,2.26,2.26,0,0,0,.53-1.83,2.22,2.22,0,1,0-4.38.69,2.2,2.2,0,0,0,1.07,1.57,1.1,1.1,0,0,1,.54.77,1.06,1.06,0,0,1-.89,1.21l-5.5.87-.86-5.49a1.06,1.06,0,0,0-1.22-.89,1.11,1.11,0,0,0-.76.54,2.22,2.22,0,1,1-2.26-3.32,2.18,2.18,0,0,1,1.82.54,1.09,1.09,0,0,0,.89.28,1.06,1.06,0,0,0,.89-1.21l-.87-5.51,5.5-.86a1.06,1.06,0,0,1,.94,1.78,2.19,2.19,0,0,0-.53,1.82,2.21,2.21,0,1,0,4.37-.69,2.18,2.18,0,0,0-1.06-1.56,1.1,1.1,0,0,1-.54-.77,1.06,1.06,0,0,1,.88-1.22Z" style="fill:#455a64"></path></g><g id="freepik--Puzzle--inject-6"><rect x="200.81" y="286.29" width="43.95" height="43.95" transform="matrix(0, -1, 1, 0, -85.48, 531.05)" style="fill:#c7c7c7"></rect><rect x="200.81" y="242.34" width="43.95" height="43.95" transform="translate(-41.53 487.1) rotate(-90)" style="fill:#c7c7c7"></rect><rect x="156.86" y="242.34" width="43.95" height="43.95" transform="translate(-85.48 443.15) rotate(-90)" style="fill:#c7c7c7"></rect><rect x="156.86" y="198.39" width="43.95" height="43.95" transform="translate(-41.53 399.2) rotate(-90)" style="fill:#c7c7c7"></rect><path d="M156.86,242.34c3.66-.22,7.33-.32,11-.4s7.32-.11,11-.13,7.33,0,11,.13l5.5.14c1.83.09,3.66.14,5.49.26-1.83.12-3.66.17-5.49.26l-5.5.15c-3.66.09-7.32.11-11,.12s-7.32,0-11-.12S160.52,242.56,156.86,242.34Z" style="fill:#a6a6a6"></path><path d="M200.81,286.29c3.66-.22,7.32-.32,11-.4s7.32-.11,11-.13,7.33,0,11,.13l5.5.14c1.83.09,3.66.14,5.49.26-1.83.12-3.66.17-5.49.26l-5.5.15c-3.66.09-7.32.11-11,.12s-7.32,0-11-.12S204.47,286.51,200.81,286.29Z" style="fill:#a6a6a6"></path><path d="M200.81,286.29c-.22-3.66-.32-7.32-.4-11s-.11-7.32-.13-11,0-7.33.12-11l.15-5.49c.09-1.84.14-3.67.26-5.5.12,1.83.17,3.66.26,5.5l.15,5.49c.09,3.66.11,7.32.12,11s0,7.32-.13,11S201,282.63,200.81,286.29Z" style="fill:#a6a6a6"></path><rect x="200.81" y="198.4" width="22.3" height="43.94" transform="translate(423.91 440.75) rotate(180)" style="fill:#a6a6a6"></rect><rect x="244.76" y="242.36" width="22.3" height="87.89" transform="translate(511.81 572.6) rotate(180)" style="fill:#a6a6a6"></rect><rect x="376.61" y="374.19" width="43.95" height="43.95" transform="translate(2.42 794.75) rotate(-90)" style="fill:#FCFB00"></rect><rect x="332.66" y="374.19" width="43.95" height="43.95" transform="translate(-41.53 750.8) rotate(-90)" style="fill:#FCFB00"></rect><rect x="376.61" y="418.14" width="43.95" height="43.95" transform="translate(-41.53 838.7) rotate(-90)" style="fill:#FCFB00"></rect><rect x="376.61" y="330.24" width="43.95" height="43.95" transform="translate(46.37 750.8) rotate(-90)" style="fill:#FCFB00"></rect><rect x="420.56" y="330.25" width="22.3" height="131.84" transform="translate(863.41 792.34) rotate(180)" style="fill:#FCFB00"></rect><rect x="420.56" y="330.25" width="22.3" height="131.84" transform="translate(863.41 792.34) rotate(180)" style="opacity:0.1"></rect><path d="M376.59,418.14c-.22-3.66-.32-7.32-.41-11s-.11-7.32-.12-11,0-7.33.12-11l.15-5.49c.09-1.84.14-3.67.26-5.5.12,1.83.17,3.66.26,5.5l.14,5.49c.1,3.66.11,7.32.13,11s0,7.32-.13,11S376.8,414.48,376.59,418.14Z" style="opacity:0.1"></path><path d="M376.59,418.14c3.66-.22,7.32-.32,11-.4s7.33-.11,11-.13,7.33,0,11,.12l5.49.15c1.83.09,3.67.14,5.5.26-1.83.12-3.67.17-5.5.26l-5.49.15c-3.66.09-7.33.11-11,.12s-7.32,0-11-.12S380.25,418.36,376.59,418.14Z" style="opacity:0.1"></path><path d="M376.59,374.19c3.66-.22,7.32-.32,11-.4s7.33-.11,11-.13,7.33,0,11,.12l5.49.15c1.83.09,3.67.14,5.5.26-1.83.12-3.67.17-5.5.26l-5.49.15c-3.66.09-7.33.11-11,.12s-7.32,0-11-.12S380.25,374.41,376.59,374.19Z" style="opacity:0.1"></path><rect x="200.81" y="374.19" width="43.95" height="43.95" transform="translate(-173.38 618.95) rotate(-90)" style="fill:#263238"></rect><rect x="200.81" y="330.24" width="43.95" height="43.95" transform="translate(-129.43 575) rotate(-90)" style="fill:#263238"></rect><rect x="244.76" y="330.24" width="43.95" height="43.95" transform="translate(-85.48 618.95) rotate(-90)" style="fill:#263238"></rect><rect x="244.76" y="286.29" width="43.95" height="43.95" transform="translate(-41.53 575) rotate(-90)" style="fill:#263238"></rect><path d="M244.76,374.19c-.22-3.66-.32-7.32-.41-11s-.11-7.32-.12-11,0-7.33.12-11l.15-5.49c.09-1.84.14-3.67.26-5.5.12,1.83.17,3.66.26,5.5l.15,5.49c.09,3.66.11,7.32.12,11s0,7.32-.13,11S245,370.53,244.76,374.19Z" style="fill:#455a64"></path><path d="M244.76,330.25c3.66-.22,7.32-.32,11-.41s7.32-.11,11-.12,7.33,0,11,.12l5.5.15c1.83.09,3.66.14,5.49.26-1.83.12-3.66.17-5.49.26l-5.5.14c-3.66.1-7.32.11-11,.13s-7.32,0-11-.13S248.42,330.47,244.76,330.25Z" style="fill:#455a64"></path><path d="M200.81,374.19c3.66-.22,7.32-.32,11-.4s7.32-.11,11-.13,7.33,0,11,.12l5.5.15c1.83.09,3.66.14,5.49.26-1.83.12-3.66.17-5.49.26l-5.5.15c-3.66.09-7.32.11-11,.12s-7.32,0-11-.12S204.47,374.41,200.81,374.19Z" style="fill:#455a64"></path><rect x="244.76" y="374.19" width="43.95" height="43.95" style="fill:#c7c7c7"></rect><rect x="288.71" y="374.19" width="43.95" height="43.95" style="fill:#c7c7c7"></rect><rect x="288.71" y="330.24" width="43.95" height="43.95" style="fill:#c7c7c7"></rect><rect x="332.66" y="330.24" width="43.95" height="43.95" style="fill:#c7c7c7"></rect><path d="M332.66,374.19c-.22-3.66-.32-7.32-.41-11s-.11-7.32-.12-11,0-7.33.12-11l.15-5.49c.09-1.84.14-3.67.26-5.5.12,1.83.17,3.66.26,5.5l.15,5.49c.09,3.66.11,7.32.12,11s0,7.32-.13,11S332.88,370.53,332.66,374.19Z" style="fill:#a6a6a6"></path><path d="M288.71,418.14c-.22-3.66-.32-7.32-.41-11s-.11-7.32-.12-11,0-7.33.12-11l.15-5.49c.09-1.84.14-3.67.26-5.5.12,1.83.17,3.66.26,5.5l.15,5.49c.09,3.66.11,7.32.12,11s0,7.32-.13,11S288.93,414.48,288.71,418.14Z" style="fill:#a6a6a6"></path><path d="M288.71,374.19c3.66-.22,7.32-.32,11-.4s7.32-.11,11-.13,7.33,0,11,.12l5.5.15c1.83.09,3.66.14,5.49.26-1.83.12-3.66.17-5.49.26l-5.5.15c-3.66.09-7.32.11-11,.12s-7.32,0-11-.12S292.37,374.41,288.71,374.19Z" style="fill:#a6a6a6"></path><rect x="156.86" y="418.14" width="43.95" height="43.95" transform="translate(-261.28 618.95) rotate(-90)" style="fill:#FCFB00"></rect><rect x="156.86" y="374.19" width="43.95" height="43.95" transform="translate(-217.33 575) rotate(-90)" style="fill:#FCFB00"></rect><rect x="156.86" y="330.24" width="43.95" height="43.95" transform="translate(-173.38 531.05) rotate(-90)" style="fill:#FCFB00"></rect><rect x="156.86" y="286.29" width="43.95" height="43.95" transform="translate(-129.43 487.1) rotate(-90)" style="fill:#FCFB00"></rect><path d="M156.86,330.24c3.66-.22,7.33-.32,11-.4s7.32-.11,11-.13,7.33,0,11,.13l5.5.14c1.83.09,3.66.14,5.49.26-1.83.12-3.66.17-5.49.26l-5.5.15c-3.66.09-7.32.11-11,.12s-7.32,0-11-.12S160.52,330.46,156.86,330.24Z" style="opacity:0.1"></path><path d="M156.86,374.19c3.66-.22,7.33-.32,11-.4s7.32-.11,11-.13,7.33,0,11,.12l5.5.15c1.83.09,3.66.14,5.49.26-1.83.12-3.66.17-5.49.26l-5.5.15c-3.66.09-7.32.11-11,.12s-7.32,0-11-.12S160.52,374.41,156.86,374.19Z" style="opacity:0.1"></path><path d="M156.86,418.14c3.66-.22,7.33-.32,11-.4s7.32-.11,11-.13,7.33,0,11,.12l5.5.15c1.83.09,3.66.14,5.49.26-1.83.12-3.66.17-5.49.26l-5.5.15c-3.66.09-7.32.11-11,.12s-7.32,0-11-.12S160.52,418.36,156.86,418.14Z" style="opacity:0.1"></path><rect x="200.81" y="418.14" width="43.95" height="43.95" style="fill:#455a64"></rect><rect x="244.76" y="418.14" width="43.95" height="43.95" style="fill:#455a64"></rect><rect x="288.71" y="418.14" width="43.95" height="43.95" style="fill:#455a64"></rect><rect x="332.66" y="418.14" width="43.95" height="43.95" style="fill:#455a64"></rect><path d="M244.76,462.08c-.22-3.66-.32-7.32-.41-11s-.11-7.33-.12-11,0-7.32.12-11l.15-5.49c.09-1.83.14-3.66.26-5.49.12,1.83.17,3.66.26,5.49l.15,5.49c.09,3.67.11,7.33.12,11s0,7.33-.13,11S245,458.42,244.76,462.08Z" style="fill:#37474f"></path><path d="M288.71,462.08c-.22-3.66-.32-7.32-.41-11s-.11-7.33-.12-11,0-7.32.12-11l.15-5.49c.09-1.83.14-3.66.26-5.49.12,1.83.17,3.66.26,5.49l.15,5.49c.09,3.67.11,7.33.12,11s0,7.33-.13,11S288.93,458.42,288.71,462.08Z" style="fill:#37474f"></path><path d="M332.66,462.08c-.22-3.66-.32-7.32-.41-11s-.11-7.33-.12-11,0-7.32.12-11l.15-5.49c.09-1.83.14-3.66.26-5.49.12,1.83.17,3.66.26,5.49l.15,5.49c.09,3.67.11,7.33.12,11s0,7.33-.13,11S332.88,458.42,332.66,462.08Z" style="fill:#37474f"></path><rect x="376.61" y="286.29" width="43.95" height="43.95" transform="translate(797.17 616.53) rotate(180)" style="fill:#455a64"></rect><rect x="332.66" y="286.29" width="43.95" height="43.95" transform="translate(709.27 616.53) rotate(180)" style="fill:#455a64"></rect><rect x="288.71" y="286.29" width="43.95" height="43.95" transform="translate(621.37 616.53) rotate(180)" style="fill:#455a64"></rect><rect x="288.71" y="242.34" width="43.95" height="43.95" transform="translate(621.37 528.63) rotate(180)" style="fill:#455a64"></rect><rect x="420.56" y="286.3" width="22.3" height="43.94" transform="translate(863.41 616.54) rotate(180)" style="fill:#37474f"></rect><path d="M332.66,330.24c-.22-3.66-.32-7.32-.41-11s-.11-7.32-.12-11,0-7.33.12-11l.15-5.49c.09-1.84.14-3.67.26-5.5.12,1.83.17,3.66.26,5.5l.15,5.49c.09,3.66.11,7.32.12,11s0,7.32-.13,11S332.88,326.58,332.66,330.24Z" style="fill:#37474f"></path><path d="M376.61,330.24c-.22-3.66-.32-7.32-.41-11s-.11-7.32-.12-11,0-7.33.12-11l.15-5.49c.09-1.84.14-3.67.26-5.5.12,1.83.17,3.66.26,5.5l.15,5.49c.09,3.66.1,7.32.12,11s0,7.32-.13,11S376.83,326.58,376.61,330.24Z" style="fill:#37474f"></path><path d="M288.71,286.29c3.66-.22,7.32-.32,11-.4s7.32-.11,11-.13,7.33,0,11,.13l5.5.14c1.83.09,3.66.14,5.49.26-1.83.12-3.66.17-5.49.26l-5.5.15c-3.66.09-7.32.11-11,.12s-7.32,0-11-.12S292.37,286.51,288.71,286.29Z" style="fill:#37474f"></path><rect x="376.61" y="242.34" width="43.95" height="43.95" transform="translate(797.17 528.63) rotate(180)" style="fill:#c7c7c7"></rect><rect x="332.66" y="242.34" width="43.95" height="43.95" transform="translate(709.27 528.63) rotate(180)" style="fill:#c7c7c7"></rect><rect x="376.61" y="198.39" width="43.95" height="43.95" transform="translate(797.17 440.73) rotate(180)" style="fill:#c7c7c7"></rect><rect x="332.66" y="198.39" width="43.95" height="43.95" transform="translate(709.27 440.73) rotate(180)" style="fill:#c7c7c7"></rect><rect x="420.56" y="198.41" width="22.3" height="87.88" transform="translate(863.41 484.71) rotate(180)" style="fill:#a6a6a6"></rect><path d="M376.59,242.34c-.22-3.66-.32-7.32-.41-11s-.11-7.32-.12-11,0-7.33.12-11l.15-5.49c.09-1.83.14-3.67.26-5.5.12,1.83.17,3.67.26,5.5l.14,5.49c.1,3.66.11,7.32.13,11s0,7.32-.13,11S376.8,238.68,376.59,242.34Z" style="fill:#a6a6a6"></path><path d="M376.59,286.29c-.22-3.66-.32-7.32-.41-11s-.11-7.32-.12-11,0-7.33.12-11l.15-5.49c.09-1.84.14-3.67.26-5.5.12,1.83.17,3.66.26,5.5l.14,5.49c.1,3.66.11,7.32.13,11s0,7.32-.13,11S376.8,282.63,376.59,286.29Z" style="fill:#a6a6a6"></path><path d="M376.59,242.34c3.66-.22,7.32-.32,11-.4s7.33-.11,11-.13,7.33,0,11,.13l5.49.14c1.83.09,3.67.14,5.5.26-1.83.12-3.67.17-5.5.26l-5.49.15c-3.66.09-7.33.11-11,.12s-7.32,0-11-.12S380.25,242.56,376.59,242.34Z" style="fill:#a6a6a6"></path><path d="M332.44,242.34c3.66-.22,7.32-.32,11-.4s7.32-.11,11-.13,7.33,0,11,.13l5.5.14c1.83.09,3.66.14,5.49.26-1.83.12-3.66.17-5.49.26l-5.5.15c-3.66.09-7.32.11-11,.12s-7.32,0-11-.12S336.1,242.56,332.44,242.34Z" style="fill:#a6a6a6"></path></g><g id="freepik--Character--inject-6"><path d="M201.82,461.88c-2.63.86-77.65.18-80.48-1.66-1.09-.68-1.63-11.62-1.9-24.85,0-.14,0-.28,0-.41-.06-2.73,1-47,1-47l49,.3-1.67,46.63,0,.82s28.6,13.1,31.51,15.46S204.45,461,201.82,461.88Z" style="fill:#ad6359"></path><path d="M201.83,461.88c-2.64.85-77.65.19-80.5-1.65-1.09-.69-1.62-11.62-1.89-24.86,0-.14,0-.28,0-.41,0-.52,0-3.38.09-6.31l48.53.1-.22,6.1,0,.82s28.6,13.1,31.51,15.46S204.45,461,201.83,461.88Z" style="fill:#fff"></path><path d="M202.58,462.15c-2.67.87-79.14.38-82-1.48-1.1-.7-1.68-11.84-2-25.32l49.3.17S197,448.81,200,451.19,205.26,461.27,202.58,462.15Z" style="fill:#a6a6a6"></path><path d="M201.51,459.08c-12.82-.4-64.54-.79-77.24-.21-.11,0-.11.08,0,.08,12.69.67,64.42.65,77.24.34C201.78,459.28,201.78,459.09,201.51,459.08Z" style="fill:#263238"></path><path d="M195.1,448.41a10.27,10.27,0,0,0-7.69,3.08,10,10,0,0,0-2.91,6.82c0,.08.14.08.15,0a11.91,11.91,0,0,1,10.45-9.74C195.2,448.56,195.2,448.41,195.1,448.41Z" style="fill:#263238"></path><path d="M172.8,436.83c-5.13-.1-11.09,1.67-14.3,5.84-.13.16.11.34.26.26a71,71,0,0,1,14.13-5.47A.32.32,0,0,0,172.8,436.83Z" style="fill:#263238"></path><path d="M176.75,438.4c-5.13-.11-11.09,1.67-14.3,5.84-.13.16.11.34.26.26A71,71,0,0,1,176.84,439,.32.32,0,0,0,176.75,438.4Z" style="fill:#263238"></path><path d="M180.7,440c-5.13-.11-11.09,1.67-14.3,5.84-.13.16.11.34.26.26a71,71,0,0,1,14.13-5.47A.32.32,0,0,0,180.7,440Z" style="fill:#263238"></path><path d="M184.65,441.54c-5.13-.11-11.08,1.67-14.3,5.84-.12.16.11.34.26.26a71,71,0,0,1,14.13-5.47A.32.32,0,0,0,184.65,441.54Z" style="fill:#263238"></path><path d="M178.44,423.18c-2.59-2.17-5.87-.09-7.49,2.13a27,27,0,0,0-4.74,13.09.13.13,0,0,0,.16.15.61.61,0,0,0,.91.42c3.67-2.5,7.91-4.72,10.7-8.28C179.61,428.62,180.88,425.23,178.44,423.18ZM172.07,434c-1.77,1.27-3.6,2.45-5.33,3.79.94-2.55,1.75-5.12,2.94-7.58a30.45,30.45,0,0,1,1.9-3.45c1.13-1.69,6.19-5.94,6.66-.36C178.5,429.52,174.19,432.52,172.07,434Z" style="fill:#263238"></path><path d="M153.45,440.22c4.46.72,9.08-.52,13.47-1.18a.63.63,0,0,0,.39-.93.14.14,0,0,0,0-.22A27,27,0,0,0,155,431.5c-2.7-.53-6.53.17-7,3.51C147.61,438.18,150.84,439.81,153.45,440.22Zm-3.08-2.94c-3.44-4.42,3.16-4.73,5.14-4.26a29.16,29.16,0,0,1,3.73,1.25,78.19,78.19,0,0,1,7.3,3.57c-2.17.19-4.32.56-6.48.83C157.47,439,152.27,439.72,150.37,437.28Z" style="fill:#263238"></path><path d="M158.57,462.39c-18.74-.27-36.65-.84-38-1.73-1.1-.69-1.69-11.83-2-25.32h1.52C132,443.7,146.76,454.06,158.57,462.39Z" style="opacity:0.1"></path><path d="M171.92,425.94l-56.26-.14s7.43-119.27,7-121.47c-.52-2.83-32.41-136.64-32.41-136.64l45.79.28S173,292.12,174.33,304.1C176.55,323.44,171.92,425.94,171.92,425.94Z" style="fill:#263238"></path><path d="M168.17,416.12c-8.48-.65-43.49-.8-48.49,0-.08,0-.08.16,0,.17,3.78.63,33.94.9,48.49,0A.12.12,0,0,0,168.17,416.12Z" style="fill:#37474f"></path><path d="M100.61,178c1.08,3.29,2,6.62,3,9.94s1.86,6.65,2.83,10c1.91,6.58,3.73,13.18,5.56,19.78,3.69,13.33,7.2,26.71,10.65,40.1q2.55,10,5,19.92c1.67,6.65,3.42,13.31,4.91,20a34.57,34.57,0,0,1,.94,9.61c-.2,3.31-8.4,104.16-9.56,106,0,.08-.18.07-.17,0,.53-12.24,9.13-107.77,8.7-111.16a86.93,86.93,0,0,0-2.1-9.81c-.8-3.29-1.62-6.58-2.43-9.87q-2.47-10-5-19.92-5.1-20-10.46-39.94T101.75,183c-.45-1.63-.89-3.27-1.29-4.91A.08.08,0,0,1,100.61,178Z" style="fill:#37474f"></path><path d="M90.27,167.69s18.92,79.4,27.84,117.17l14.31-116.92Z" style="fill:#37474f"></path><path d="M141,462.37c-2.64.82-77.64-1-80.45-2.91-1.08-.69-1.45-11.64-1.51-24.87v-.42c0-2.73,1.8-48.45,1.8-48.45l49,1.06-2.42,48,0,.82s28.39,13.54,31.27,15.94S143.66,461.56,141,462.37Z" style="fill:#ad6359"></path><path d="M141,462.37c-2.65.81-77.64-1-80.46-2.9-1.08-.71-1.44-11.65-1.51-24.88v-.42c0-.51.09-3.37.19-6.31l48.52.86-.32,6.1,0,.82s28.39,13.54,31.27,15.94S143.65,461.56,141,462.37Z" style="fill:#fff"></path><path d="M141.77,462.65c-2.69.83-79.13-.85-82-2.75-1.09-.72-1.5-11.87-1.61-25.35l49.29.94s29,13.73,31.91,16.16S144.46,461.81,141.77,462.65Z" style="fill:#a6a6a6"></path><path d="M140.74,459.56c-12.81-.59-64.52-1.79-77.23-1.4-.1,0-.1.07,0,.08,12.68.87,64.41,1.64,77.23,1.53C141,459.77,141,459.58,140.74,459.56Z" style="fill:#263238"></path><path d="M134.5,448.79a10.32,10.32,0,0,0-7.74,3,10,10,0,0,0-3,6.78c0,.08.14.08.15,0A11.9,11.9,0,0,1,134.49,449,.08.08,0,0,0,134.5,448.79Z" style="fill:#263238"></path><path d="M112.39,436.87c-5.13-.18-11.12,1.5-14.4,5.62-.12.16.11.34.26.26a71.71,71.71,0,0,1,14.21-5.25A.32.32,0,0,0,112.39,436.87Z" style="fill:#263238"></path><path d="M116.31,438.5c-5.13-.18-11.11,1.5-14.39,5.62-.13.16.1.34.26.26a71.25,71.25,0,0,1,14.21-5.25A.32.32,0,0,0,116.31,438.5Z" style="fill:#263238"></path><path d="M120.24,440.13c-5.13-.18-11.12,1.5-14.4,5.62-.12.16.11.34.26.27a70.48,70.48,0,0,1,14.21-5.25A.33.33,0,0,0,120.24,440.13Z" style="fill:#263238"></path><path d="M124.16,441.76c-5.12-.18-11.11,1.5-14.39,5.62-.13.16.1.34.26.27a70.26,70.26,0,0,1,14.21-5.25A.33.33,0,0,0,124.16,441.76Z" style="fill:#263238"></path><path d="M118.23,423.31c-2.55-2.21-5.87-.18-7.52,2a26.89,26.89,0,0,0-4.94,13,.13.13,0,0,0,.15.15.63.63,0,0,0,.92.44c3.7-2.45,8-4.6,10.82-8.12C119.32,428.77,120.64,425.4,118.23,423.31Zm-6.53,10.76c-1.8,1.25-3.64,2.4-5.39,3.71a80.38,80.38,0,0,1,3.06-7.54,28.05,28.05,0,0,1,1.95-3.41c1.15-1.67,6.28-5.85,6.67-.26C118.2,429.65,113.84,432.58,111.7,434.07Z" style="fill:#263238"></path><path d="M93,440c4.45.79,9.09-.38,13.49-1a.62.62,0,0,0,.4-.92.14.14,0,0,0,0-.22,26.9,26.9,0,0,0-12.27-6.58c-2.68-.58-6.52.06-7,3.4C87.17,437.83,90.38,439.51,93,440Zm-3-3c-3.38-4.48,3.24-4.69,5.2-4.18a28.61,28.61,0,0,1,3.71,1.3,79.49,79.49,0,0,1,7.25,3.68c-2.18.16-4.33.5-6.5.73C97,438.79,91.81,439.44,90,437Z" style="fill:#263238"></path><path d="M136.05,167.91s-.42,21.87-5.54,39.19c-.41,1.44-.85,2.84-1.33,4.2,0,0-2,0-10,4.8l-7.92,209.82-54-.9s9.3-111.17,9.27-118.3c0-11.45,6.74-89,6.09-90.93-6.59-20.07,6-49.22,6-49.22Z" style="fill:#263238"></path><path d="M109.47,415.92c-15.21-1-44.69-1.42-48.47-.87a.09.09,0,0,0,0,.17c3.76.69,39.57,1.6,48.48.94A.12.12,0,0,0,109.47,415.92Z" style="fill:#37474f"></path><path d="M113.5,360.07c-.55,13.56-1,27.13-1.68,40.69a.16.16,0,0,1-.31,0c.29-24.18,1.06-48.37,1.86-72.54s1.78-48.1,2.9-72.14c.64-13.56,1.92-26,2.79-39.6a.37.37,0,0,1,.74,0c-.74,24.17-2.46,47.26-3.4,71.43" style="fill:#37474f"></path><path d="M70.94,361.55c1.22-15.77,2.52-31.54,3.79-47.3L78.54,267c.63-7.89,1.25-15.77,1.91-23.65q.49-5.91,1-11.83a104.5,104.5,0,0,0,.78-11.71c-.13-4.27-1.9-8.08-2.87-12.18A47.45,47.45,0,0,1,78.2,195.7c.17-8.24,1.62-15.3,4.18-24.11.13-.44.42-.48.31,0-1.79,7.36-3.43,14.79-3.78,22.39a48.62,48.62,0,0,0,.72,11.3c.68,3.58,2.15,6.9,3,10.43s.34,7.4,0,11.09c-.33,3.94-.62,7.88-.93,11.82-.59,7.73-1.23,15.46-1.85,23.18-2.54,31.38-5,62.76-7.66,94.13-1.49,17.65-2.76,35.34-4.59,53,0,.13-.21.13-.2,0C68.32,393.07,69.72,377.31,70.94,361.55Z" style="fill:#37474f"></path><path d="M85,197c.91-.35,4.83-1.3,5.78-1.71a21.81,21.81,0,0,0,5-3,11.65,11.65,0,0,0,3.28-4.72c.41-1,2.39-6.19,2.52-6.21a.11.11,0,0,1,.13.06c.19.32-.42,2.26-.59,2.9-.31,1.12-.61,2.24-1,3.34a11.4,11.4,0,0,1-3.3,5.43,17.61,17.61,0,0,1-5.61,3.17,17.9,17.9,0,0,1-3.21.86,8.47,8.47,0,0,1-3.09.17C84.85,197.24,84.9,197,85,197Z" style="fill:#37474f"></path><path d="M126.41,203.72q.21-2.82.48-5.66c.4-4.3.88-8.62,1.66-12.87.06-.33.53-.2.5.12-.32,3.34-.72,6.67-1.05,10s-.76,6.67-.83,10c0,1,0,2.71,1.26,3,1.65.38,2.44-1.79,2.85-3a55.8,55.8,0,0,0,2.13-9.09c.56-3.51.87-7.06,1.23-10.59,0-.13.23-.11.22,0,0,7-.16,14.34-2.82,20.94-.52,1.29-1.42,2.6-2.92,2.76h-.07a.25.25,0,0,1,0,.12c0,.2-.09.39-.12.59s-.06.33-.1.49c-.07.34-.13.68-.21,1a.26.26,0,0,1-.51-.06.23.23,0,0,1-.15-.21,5.68,5.68,0,0,1,.47-2,2.48,2.48,0,0,1-1.8-1.53A9,9,0,0,1,126.41,203.72Z" style="fill:#37474f"></path><path d="M131.43,210a100.43,100.43,0,0,0-15.49,8,.18.18,0,0,0,.16.32c5.23-2.5,10.56-4.91,15.64-7.69A.35.35,0,0,0,131.43,210Z" style="fill:#37474f"></path><path d="M126.27,125.72c3.87,22.58,17.78,54.35,26.47,56.87,4.13,1.2,11.26,4.23,18,1,14.75-7.12,26.92-20.94,33.71-27.43,3.09-2.95-13.82-25.74-17.64-23.24-8.94,5.84-21.05,18.81-22.23,18.38-4.37-1.57-17.49-21.13-27.16-34.51C126.6,101.78,124.73,116.72,126.27,125.72Z" style="fill:#ad6359"></path><path d="M202.31,157.26c3.09-1.41,16.66-9.13,20-12.12s12.16-12.28,10.12-15-4.84-.24-4.84-.24,3.12-4.52.82-7.11-6.55,1.47-6.55,1.47,2.87-4.88.39-7.3-6.07,2.38-6.07,2.38,2.83-4.34,0-5.47c-3.47-1.36-7.78,7.22-11.67,10.25-.88.68-18.88,12.66-18.88,12.66Z" style="fill:#ad6359"></path><path d="M216.46,118.89c-3.19,6.3-5.67,8.51-11.64,12.08-.11.07,0,.26.09.2,6.16-3,9.68-5.29,11.86-12.14C216.88,118.7,216.61,118.59,216.46,118.89Z" style="fill:#263238"></path><path d="M222.07,123.71c-3.89,6.26-6.56,8.67-12.53,12.87-.08.06,0,.21.1.16,6.2-3.63,9.65-6,12.71-12.78C222.49,123.65,222.24,123.42,222.07,123.71Z" style="fill:#263238"></path><path d="M227.24,130.06c-4.2,5.78-7,8.56-13.33,11.89-.15.08,0,.31.1.24,6.78-2.77,10.32-6.21,13.39-12C227.61,129.81,227.5,129.7,227.24,130.06Z" style="fill:#263238"></path><path d="M181.71,138.71s3.28-8.21,5.51-11.51,15.09-12.49,17.24-9.83c2.77,3.44-3.61,10.21-7.16,13.12,0,0,6.42,7.95,2.89,13.8S181.71,138.71,181.71,138.71Z" style="fill:#ad6359"></path><path d="M204.91,118.56c.26,5-4.65,8.48-7.89,11.56a.41.41,0,0,0,.08.67c2.46,3.51,4.92,9.18,3.37,13.43a.1.1,0,0,0,.18.09c2.29-4.34.33-10.11-2.62-13.78,3.37-3.1,8.14-6.85,6.93-12C205,118.53,204.91,118.53,204.91,118.56Z" style="fill:#263238"></path><path d="M179.59,137.49l18.29,28.16s-21.89,19.67-33,19.75-13.79-2.08-16.35-3.58-17.39-25.16-22.26-55.2c-4.61-28.37,8-15.86,16.39-3.61,4.76,7,21,26.49,21.85,26.5S179.59,137.49,179.59,137.49Z" style="fill:#455a64"></path><path d="M175.65,142.52c2.9,4.28,5.66,8.65,8.39,13,1.34,2.15,6.33,10.91,7.78,13.4.06.1-.21.25-.28.16-1.51-2.2-6.95-11-8.25-13.13-2.65-4.43-5.28-8.88-7.76-13.41A.07.07,0,1,1,175.65,142.52Z" style="fill:#263238"></path><path d="M145,177.33c-5.42-8.42-15-27.69-18.75-50.71-2.45-15.1,0-18.62,4.08-16.76C132,116.93,140.45,156.05,145,177.33Z" style="opacity:0.1"></path><path d="M78.65,166.57l58.32,7.2,2.89-16.88s5.82-6,6.41-13.48c.64-7.91-11.79-30.49-12.86-31.8-4.27-5.26-12.23-6.65-16.59-3.86C93.51,122.69,78.65,166.57,78.65,166.57Z" style="fill:#263238"></path><path d="M78.65,166.57l58.32,7.2,2.89-16.88s5.82-6,6.41-13.48c.64-7.91-11.79-30.49-12.86-31.8-4.27-5.26-12.23-6.65-16.59-3.86C93.51,122.69,78.65,166.57,78.65,166.57Z" style="fill:#455a64"></path><path d="M146.28,143.41c-.6,7.45-6.42,13.48-6.42,13.48L137,173.76l-58.32-7.19A193.68,193.68,0,0,1,92,137.28c1.13.21,8.91,6.68,20.51,1.11,7-3.35,8.81-15.93,8.81-15.93l17.84-.27C142.74,129.58,146.64,138.88,146.28,143.41Z" style="fill:#263238"></path><path d="M123.72,124.67a1.06,1.06,0,1,1-2.11-.17,1,1,0,0,1,1.14-1A1.06,1.06,0,0,1,123.72,124.67Z" style="fill:#FCFB00"></path><path d="M139.28,123.5a.89.89,0,1,1-1.6.67.88.88,0,1,1,1.6-.67Z" style="fill:#FCFB00"></path><path d="M78.66,166.57l14.57,2c4.85.65,9.7,1.34,14.56,1.94s9.71,1.26,14.57,1.83,9.73,1.09,14.62,1.46c-4.91-.06-9.8-.45-14.68-.89s-9.75-1.05-14.61-1.66S98,169.87,93.14,169.1,83.47,167.51,78.66,166.57Z" style="fill:#455a64"></path><path d="M80.7,161.11,95,163c4.77.63,9.53,1.3,14.3,1.88s9.53,1.22,14.3,1.77,9.55,1.06,14.35,1.43c-4.81-.06-9.62-.43-14.41-.86s-9.57-1-14.34-1.6-9.53-1.3-14.28-2.05S85.42,162,80.7,161.11Z" style="fill:#455a64"></path><path d="M84.34,161.69a15.22,15.22,0,0,0-1,2.65,10.41,10.41,0,0,0-.29,1.37c-.08.46-.08.93-.13,1.42a4.93,4.93,0,0,1-.07-2.92A5.34,5.34,0,0,1,84.34,161.69Z" style="fill:#455a64"></path><path d="M85.62,161.79a16.13,16.13,0,0,0-1,2.65,12.31,12.31,0,0,0-.28,1.37c-.08.46-.09.93-.13,1.42a4.93,4.93,0,0,1-.07-2.92A5.34,5.34,0,0,1,85.62,161.79Z" style="fill:#455a64"></path><path d="M100.91,164.11a17.14,17.14,0,0,0-1,2.66,10.25,10.25,0,0,0-.28,1.36c-.08.47-.09.94-.13,1.43a4.93,4.93,0,0,1-.07-2.92A5.27,5.27,0,0,1,100.91,164.11Z" style="fill:#455a64"></path><path d="M102.19,164.21a15.62,15.62,0,0,0-1,2.66,10.25,10.25,0,0,0-.28,1.36c-.08.47-.09.94-.13,1.43a4.85,4.85,0,0,1-.07-2.92A5.32,5.32,0,0,1,102.19,164.21Z" style="fill:#455a64"></path><path d="M117.87,172.14a17,17,0,0,0,1-2.65,10.73,10.73,0,0,0,.28-1.37c.08-.46.09-.93.13-1.42a4.92,4.92,0,0,1,.07,2.92A5.4,5.4,0,0,1,117.87,172.14Z" style="fill:#455a64"></path><path d="M116.59,172a16.42,16.42,0,0,0,1-2.65,10.73,10.73,0,0,0,.28-1.37c.08-.46.09-.93.13-1.43a4.88,4.88,0,0,1,.07,2.93A5.24,5.24,0,0,1,116.59,172Z" style="fill:#455a64"></path><path d="M130.61,173.16a16.42,16.42,0,0,0,1-2.65,10.73,10.73,0,0,0,.28-1.37c.08-.46.09-.93.13-1.43a4.88,4.88,0,0,1,.07,2.93A5.24,5.24,0,0,1,130.61,173.16Z" style="fill:#455a64"></path><path d="M129.33,173.06a15.32,15.32,0,0,0,1-2.66,10.25,10.25,0,0,0,.28-1.36c.08-.47.09-.94.13-1.43a4.85,4.85,0,0,1,.07,2.92A5.23,5.23,0,0,1,129.33,173.06Z" style="fill:#455a64"></path><path d="M121.86,150.89A55.22,55.22,0,0,1,131,153c1.48.5,2.93,1.08,4.37,1.69.72.3,1.45.58,2.17.85a8.47,8.47,0,0,0,2.35.6c.07,0,.06.13,0,.13a14.34,14.34,0,0,1-2.27-.13,13.3,13.3,0,0,1-2.15-.55c-1.5-.49-3-1.06-4.48-1.57-3-1-6-2-9.13-2.8C121.67,151.15,121.71,150.87,121.86,150.89Z" style="fill:#263238"></path><path d="M114.13,153.8a59.37,59.37,0,0,1,7.66-.16c1.28.07,2.55.22,3.82.41.6.09,1.21.19,1.81.3s1.31.35,2,.46c.07,0,.06.14,0,.13-.63-.08-1.27-.05-1.91-.09l-1.9-.12c-1.28-.09-2.55-.15-3.82-.25-2.55-.19-5.09-.35-7.64-.44C114,154,114,153.81,114.13,153.8Z" style="fill:#263238"></path><polygon points="121.27 122.46 115.69 108.37 116.82 107.75 122.57 122.44 121.27 122.46" style="fill:#263238"></polygon><polygon points="137.47 122.22 131.27 109.62 132.8 110.34 138.73 122.2 137.47 122.22" style="fill:#263238"></polygon><path d="M134,71.29a1.77,1.77,0,0,1-1.3,3.19,1.85,1.85,0,0,1,0,.74,2,2,0,0,1-2.16,1.5,1.69,1.69,0,0,1,0,.63,1.78,1.78,0,0,1-2.13,1.33,1.81,1.81,0,0,1-1-.63,1.77,1.77,0,0,1-2.09,1.18,1.74,1.74,0,0,1-.67-.32l0,.15a1.78,1.78,0,0,1-3.37.28,1.77,1.77,0,0,1-3.3-.25,2,2,0,0,1-1.29.13,1.9,1.9,0,0,1-1.22-.89,1.91,1.91,0,0,1-1.47.25,2,2,0,0,1-1.51-1.79,1.8,1.8,0,0,1-.69,0,1.77,1.77,0,0,1-1.37-1.89,1.88,1.88,0,0,1-.85,0,1.93,1.93,0,0,1-1.22-2.93,1.15,1.15,0,0,1-.31,0,1.77,1.77,0,0,1-1.33-2.12,1.86,1.86,0,0,1,.46-.85,1.94,1.94,0,0,1-1.28-2.28,1.9,1.9,0,0,1,.52-.94,1.95,1.95,0,0,1,.26-3.4,1.76,1.76,0,0,1,.6-2.55,1.92,1.92,0,0,1-.4-1.69,1.94,1.94,0,0,1,1.75-1.5,1.74,1.74,0,0,1,0-.85,1.78,1.78,0,0,1,1.9-1.37,1.67,1.67,0,0,1,0-.83,1.94,1.94,0,0,1,2.34-1.46,1.5,1.5,0,0,1,.42.15,1.81,1.81,0,0,1,.05-.31,2,2,0,0,1,2.34-1.46,1.74,1.74,0,0,1,.45.17,2.07,2.07,0,0,1,0-.55,2,2,0,0,1,2.35-1.46,1.91,1.91,0,0,1,1.24.91,2,2,0,0,1,3,.28,1.76,1.76,0,0,1,3.23.27,1.79,1.79,0,0,1,1.48-.31,1.76,1.76,0,0,1,1.36,1.55,1.9,1.9,0,0,1,1.55-.3,1.94,1.94,0,0,1,1.51,2,1.75,1.75,0,0,1,2,2.15,1.51,1.51,0,0,1-.25.58l.12,0a2,2,0,0,1,1.46,2.35,1.5,1.5,0,0,1-.21.52,1.48,1.48,0,0,1,.47,0,1.77,1.77,0,0,1,.53,3.23,1.76,1.76,0,0,1-.23,2.81,2,2,0,0,1-.75,3.63,1.71,1.71,0,0,1,.48,1.65A1.77,1.77,0,0,1,134,71.29Z" style="fill:#263238"></path><path d="M167.14,70.12a1.77,1.77,0,0,1-1.29,3.19,1.91,1.91,0,0,1,0,.75,1.93,1.93,0,0,1-2.16,1.49,1.67,1.67,0,0,1,0,.63,1.78,1.78,0,0,1-2.13,1.33,1.71,1.71,0,0,1-1-.63,1.78,1.78,0,0,1-2.77.86.45.45,0,0,1,0,.16,1.77,1.77,0,0,1-3.36.28,1.77,1.77,0,0,1-3.3-.26,2,2,0,0,1-1.29.14,1.91,1.91,0,0,1-1.22-.89,2,2,0,0,1-1.47.25,1.94,1.94,0,0,1-1.51-1.8,1.79,1.79,0,0,1-.69,0,1.77,1.77,0,0,1-1.37-1.9,1.79,1.79,0,0,1-.86,0,1.94,1.94,0,0,1-1.46-2.34,1.79,1.79,0,0,1,.24-.59,1,1,0,0,1-.3,0,1.76,1.76,0,0,1-.87-3A2,2,0,0,1,139,65.48a2,2,0,0,1,.52-.93,2,2,0,0,1-.82-2.08,1.91,1.91,0,0,1,1.08-1.32,1.78,1.78,0,0,1-.27-1.41,1.76,1.76,0,0,1,.88-1.15,1.93,1.93,0,0,1-.41-1.68,2,2,0,0,1,1.75-1.51,1.74,1.74,0,0,1,0-.85,1.76,1.76,0,0,1,1.89-1.36,2,2,0,0,1,0-.84,2,2,0,0,1,2.34-1.46,1.59,1.59,0,0,1,.43.16,1.75,1.75,0,0,1,0-.32,2,2,0,0,1,2.34-1.46,1.7,1.7,0,0,1,.46.18,1.77,1.77,0,0,1,0-.56,2,2,0,0,1,2.35-1.46,1.93,1.93,0,0,1,1.24.91,1.93,1.93,0,0,1,1.84-.55,2,2,0,0,1,1.19.83,1.77,1.77,0,0,1,3.24.28,1.76,1.76,0,0,1,2.83,1.23,1.91,1.91,0,0,1,1.55-.3,2,2,0,0,1,1.52,2,1.75,1.75,0,0,1,2,2.15,1.65,1.65,0,0,1-.25.59l.11,0a2,2,0,0,1,1.47,2.34,2.25,2.25,0,0,1-.21.53,1.91,1.91,0,0,1,.47,0,1.77,1.77,0,0,1,.53,3.23,1.79,1.79,0,0,1,.54,1.72,1.73,1.73,0,0,1-.77,1.1,2,2,0,0,1,.93,2.13,1.93,1.93,0,0,1-1.68,1.49,1.77,1.77,0,0,1-1,3Z" style="fill:#263238"></path><path d="M121.18,109.08c.07,1.23,4.41,9.93,9.89,10.62,1.78.22,3.42-9.47,3.42-9.47l.28-.68,4-9.63-10.45-9.58-1.53-1.29s-.91,2.7-2,6.08c0,.16-.1.31-.15.48s-.14.37-.19.55c-.17.5-.35,1-.51,1.53s-.24.77-.36,1.19-.24.82-.37,1.23A65.7,65.7,0,0,0,121.18,109.08Z" style="fill:#ad6359"></path><path d="M124.74,95.13a20.9,20.9,0,0,0,10,14.42l4-9.63-10.45-9.58-1.53-1.29S125.85,91.75,124.74,95.13Z" style="fill:#263238"></path><path d="M156.1,88.65c-2.56,18.1-13.69,18.6-17.59,18C135,106.18,123,104,123.66,85.75S133.57,63,141.73,63.69,158.67,70.56,156.1,88.65Z" style="fill:#ad6359"></path><path d="M153.3,84.16c-.42-.13-.78-.32-1.18-.48A2.12,2.12,0,0,1,151,83a.66.66,0,0,1,.15-.79,1.6,1.6,0,0,1,1.64-.09,2.33,2.33,0,0,1,1.33,1.09A.7.7,0,0,1,153.3,84.16Z" style="fill:#263238"></path><path d="M140.51,84.84a10.73,10.73,0,0,0,1.23.35,2,2,0,0,0,1.32.13.66.66,0,0,0,.37-.71,1.6,1.6,0,0,0-1.23-1.09,2.4,2.4,0,0,0-1.73,0A.7.7,0,0,0,140.51,84.84Z" style="fill:#263238"></path><path d="M142.44,87s-.11,0-.11.1c-.11,1.25-.46,2.67-1.64,3,0,0,0,.07,0,.07C142.1,90,142.53,88.16,142.44,87Z" style="fill:#263238"></path><path d="M141.49,85.51c-2-.4-2.65,3.61-.8,4S143.15,85.85,141.49,85.51Z" style="fill:#263238"></path><path d="M140.66,85.6c-.38.17-.79.51-1.22.48s-.8-.51-1.05-1c0-.05-.07,0-.08,0-.13.77,0,1.6.84,1.85s1.38-.36,1.7-1.1C140.91,85.76,140.82,85.53,140.66,85.6Z" style="fill:#263238"></path><path d="M150,88.12s.09.08.08.13c-.29,1.22-.42,2.67.61,3.31,0,0,0,.08,0,.07C149.32,91.16,149.5,89.23,150,88.12Z" style="fill:#263238"></path><path d="M151.34,87.06c2,.25,1.36,4.26-.51,4S149.65,86.85,151.34,87.06Z" style="fill:#263238"></path><path d="M152.13,87.46c.28.26.53.7.91.79s.82-.28,1.17-.65c0,0,.06,0,.06.05-.11.77-.49,1.52-1.25,1.55s-1.08-.71-1.14-1.5C151.87,87.55,152,87.35,152.13,87.46Z" style="fill:#263238"></path><path d="M140.29,96.29c.2.37.37.85.79,1a3.43,3.43,0,0,0,1.39.1s.06,0,0,.07a1.71,1.71,0,0,1-1.73.19,1.36,1.36,0,0,1-.62-1.36C140.16,96.24,140.26,96.24,140.29,96.29Z" style="fill:#263238"></path><path d="M146.48,93.92s-.2,1.89-.41,2.75c0,.08-.24.07-.53,0,0,0,0,0,0,0a4.18,4.18,0,0,1-3.59-2.5.09.09,0,0,1,.15-.09,6.33,6.33,0,0,0,3.48,2c.11-.22.23-3.24.36-3.22a7.82,7.82,0,0,1,1.85.93c.52-3.92.42-7.89,1-11.78a.12.12,0,0,1,.24,0,64.35,64.35,0,0,1-.54,12.73C148.4,95.24,146.79,94.15,146.48,93.92Z" style="fill:#263238"></path><path d="M147.19,69.46a8.21,8.21,0,0,1-1.29,4.62c-2.84,3.57-7.45,1.4-9.47,2.61s-2.06,4.35-3.81,5.52c-2.42,1.62-3.4-.17-4,1.15s-2.58,5.53-4.48,5.69-3.31-31.67,19.64-25.43c0,0,3.64-.19,7.87,3.57,6,5.36,5.1,14.74,5.1,14.74a5.86,5.86,0,0,1-2-1.5c-.89-1.24-1.27-2.11-1.95-2.93-1.05-1.3-2-.77-3.12-2.06C148,73.49,147.19,69.46,147.19,69.46Z" style="fill:#263238"></path><path d="M147.21,68.43a16.32,16.32,0,0,1-.14,3.7,6.69,6.69,0,0,1-1.28,3.33,4.93,4.93,0,0,1-3.14,1.45c-1.19.16-2.43,0-3.73.19a3.83,3.83,0,0,0-1.82.81A5.18,5.18,0,0,0,136,79.54a6.49,6.49,0,0,1-2,2.91,4.11,4.11,0,0,1-3.4.59c-1.17-.27-2.38-.89-3.64-.64,1.28-.15,2.37.54,3.57.92a4.45,4.45,0,0,0,3.72-.5,6.55,6.55,0,0,0,2.25-3,4.55,4.55,0,0,1,1-1.44,3.19,3.19,0,0,1,1.55-.65c1.16-.2,2.42-.06,3.69-.24a6.37,6.37,0,0,0,1.86-.52,3.93,3.93,0,0,0,1.56-1.18,7,7,0,0,0,1.22-3.58A16,16,0,0,0,147.21,68.43Z" style="fill:#263238"></path><path d="M147.41,69.59A13.05,13.05,0,0,0,147.8,73a6,6,0,0,0,1.74,3.08,8.49,8.49,0,0,0,1.45,1,2.8,2.8,0,0,1,1.06,1.13,8.85,8.85,0,0,0,.7,1.6A3.9,3.9,0,0,0,154,81a4.23,4.23,0,0,1-1-1.34,8.44,8.44,0,0,1-.52-1.61,3,3,0,0,0-1.18-1.42,9.22,9.22,0,0,1-1.37-1,6.47,6.47,0,0,1-1.68-2.79A25.45,25.45,0,0,1,147.41,69.59Z" style="fill:#263238"></path><path d="M127.68,86.61s-2.6-6.46-5.44-5.66-1.79,9.53.92,11.32a3.09,3.09,0,0,0,4.41-.68Z" style="fill:#ad6359"></path><path d="M122.6,83.45s-.07,0,0,.07c1.88,1.32,2.53,3.5,2.83,5.67a1.71,1.71,0,0,0-2.38-1,.07.07,0,0,0,0,.13,1.89,1.89,0,0,1,1.89,1.12,9.25,9.25,0,0,1,.59,1.87c.06.21.42.19.39,0v-.06C126.58,88.55,125.38,84.37,122.6,83.45Z" style="fill:#263238"></path><rect x="155.52" y="115.03" width="43.95" height="43.95" transform="translate(398.88 172.57) rotate(151.46)" style="fill:#FCFB00"></rect><rect x="176.52" y="153.64" width="43.95" height="43.95" transform="translate(456.76 235.07) rotate(151.46)" style="fill:#FCFB00"></rect><rect x="194.13" y="94.03" width="43.95" height="43.95" transform="translate(461.38 114.68) rotate(151.46)" style="fill:#FCFB00"></rect><rect x="116.91" y="136.02" width="43.95" height="43.95" transform="translate(336.38 230.45) rotate(151.46)" style="fill:#FCFB00"></rect><rect x="234.06" y="78.21" width="22.3" height="43.95" transform="translate(508.48 71.06) rotate(151.46)" style="fill:#FCFB00"></rect><rect x="234.06" y="78.21" width="22.3" height="43.95" transform="translate(508.48 71.06) rotate(151.46)" style="opacity:0.1"></rect><rect x="216.44" y="137.82" width="22.3" height="43.95" transform="translate(503.86 191.44) rotate(151.46)" style="fill:#FCFB00"></rect><rect x="216.44" y="137.82" width="22.3" height="43.95" transform="translate(503.86 191.44) rotate(151.46)" style="opacity:0.1"></rect><path d="M168.71,166.84c-2-3.12-3.78-6.28-5.61-9.46s-3.59-6.38-5.36-9.6-3.47-6.44-5.14-9.71l-2.49-4.89c-.8-1.65-1.63-3.29-2.4-5,1,1.55,1.9,3.13,2.85,4.7l2.76,4.76c1.83,3.17,3.59,6.38,5.35,9.59s3.48,6.45,5.14,9.71S167.15,163.52,168.71,166.84Z" style="opacity:0.1"></path><path d="M207.32,145.84c-1.95-3.11-3.78-6.28-5.61-9.46s-3.59-6.38-5.36-9.59-3.47-6.45-5.14-9.71l-2.49-4.9c-.8-1.65-1.63-3.28-2.4-5,1,1.55,1.9,3.14,2.85,4.7l2.76,4.76c1.83,3.17,3.59,6.38,5.35,9.59s3.48,6.45,5.14,9.72S205.76,142.52,207.32,145.84Z" style="opacity:0.1"></path><path d="M168.69,166.8c3.11-1.94,6.28-3.78,9.46-5.6s6.38-3.6,9.59-5.36,6.45-3.47,9.71-5.14l4.9-2.49c1.65-.8,3.28-1.63,5-2.4-1.55,1-3.14,1.9-4.7,2.85l-4.76,2.75c-3.17,1.84-6.38,3.6-9.59,5.36s-6.45,3.48-9.72,5.14S172,165.25,168.69,166.8Z" style="opacity:0.1"></path><path d="M106.9,116.2C96.08,128.42,70.23,174.38,79,182.4s56.16-4.35,69.37-11.09c3.93-2-11.86-26.42-16.55-26.88-3.91-.38-23.59,9.27-24.19,8.14-.69-1.28,2.22-10.93,6.55-28.36C119.22,104.11,111.68,110.8,106.9,116.2Z" style="fill:#ad6359"></path><path d="M126,145.9s10.71-6.33,20.82-9.06c7-1.89,22.65-4.29,38.09,10.81,3.67,3.58,6.35,11.29-1.76,7.61-5.76-2.61-8.63-6-12.25-6.92,0,0,2.24,10.2-1.49,13.73A94.1,94.1,0,0,1,159,170.6a20.1,20.1,0,0,1-1.77-1.8s-3.8,3-11.11,2.47Z" style="fill:#ad6359"></path><path d="M153.74,136.1c3.41,1.67,10.58,5.32,15.41,10.34,5.35,5.58,14.17,17.77,10,21.68-3,2.87-6.82-1.49-6.82-1.49s2.58,5.81-.74,7.8c-3,1.81-5.75-1.73-5.75-1.73s1,3.79-2.29,5c-3.91,1.43-5.28-6.75-10.49-8.73C151.9,168.49,153.74,136.1,153.74,136.1Z" style="fill:#ad6359"></path><path d="M162.31,151.12a30.83,30.83,0,0,1,10.08,15.36c0,.16-.06.27-.13.13a75.36,75.36,0,0,0-10-15.44S162.27,151.1,162.31,151.12Z" style="fill:#263238"></path><path d="M156.83,156.69c2.36,2.07,7.71,9,9.15,15.94,0,.15-.07.26-.13.12a81.94,81.94,0,0,0-9.07-16S156.8,156.67,156.83,156.69Z" style="fill:#263238"></path><path d="M170.87,148.27c3.18.85,5.27,2.34,8,4.12a42,42,0,0,0,4.13,2.46c1.3.66,3.23,1.66,4.57.54a2.61,2.61,0,0,0,.51-2.59,12.68,12.68,0,0,0-1.83-3.54s0-.1.07-.06a18.11,18.11,0,0,1,2,3.15,4.23,4.23,0,0,1,.35,2.45c-.42,1.75-2.46,2-3.93,1.59a13.78,13.78,0,0,1-2.51-1.13c-.78-.42-1.53-.87-2.28-1.35-1.52-1-3-2-4.51-3a40.58,40.58,0,0,0-4.58-2.51C170.76,148.35,170.81,148.26,170.87,148.27Z" style="fill:#263238"></path><path d="M177.77,159.19a102,102,0,0,0-7-10.84,0,0,0,0,1,.06-.06c2.52,2.26,6.63,8.35,7.61,10.3a17.41,17.41,0,0,1,2.13,6.6c.09,3.3-2.08,4-2.88,4.16a4.31,4.31,0,0,1-2.82-.38,8.62,8.62,0,0,1-2.6-2.32c0-.05,0-.11.06-.07,1.18,1.27,3.11,2.5,4.89,2.22a3,3,0,0,0,2-1.16,3.84,3.84,0,0,0,.46-2.66A18.36,18.36,0,0,0,177.77,159.19Z" style="fill:#263238"></path><path d="M126,145.9l16.11,31.68s-59.31,15-64.73,4.74S94,130.8,104.14,118.69c11.73-14,13.4-9.42,11.06,2.81-2.45,12.81-7.35,31.36-7.35,31.36Z" style="fill:#455a64"></path><path d="M89.94,161.89a68.17,68.17,0,0,1,8.57-5.34,66.15,66.15,0,0,1,9.15-4c1.79-.65,3.6-1.2,5.41-1.77a0,0,0,1,1,0,.08,88.22,88.22,0,0,0-9.25,3.89q-4.5,2.15-8.91,4.46c-1.67.87-3.29,1.83-4.93,2.75A.07.07,0,1,1,89.94,161.89Z" style="fill:#263238"></path><path d="M125.85,145.69c-.31.09-16.95,6.09-17.5,6.39.07-.28,4-15.23,4.4-16.7l.12-.44c.29-.65.59-1.3.86-2,.35-.86.69-1.72,1-2.58,0,0,0,0,0,0l-1.13,2.52c-.17.39-.33.78-.49,1.18.28-1,.54-2.07.8-3.11.41-1.66.78-3.32,1.14-5,0,0-.06-.07-.07,0-.83,2.92-1.75,5.8-2.58,8.71s-5.18,18.61-5.16,18.6,18.34-7.14,18.7-7.31C126.07,145.87,126,145.64,125.85,145.69Z" style="fill:#263238"></path><path d="M127.46,166.71c-1.77-3.54-3.52-7.09-5.42-10.56-1.08-2-2.16-4-3.26-5.91a.08.08,0,0,0-.14.06c1.64,3.62,3.3,7.25,5.1,10.79s3.57,7.07,5.41,10.57c1,2,2.15,4,3.32,5.88,0,0,.09,0,.07,0C131,173.82,129.25,170.27,127.46,166.71Z" style="fill:#263238"></path></g><g id="freepik--light-bulb--inject-6"><path d="M416.5,98.5c-9.78,18.63-23.69,17.4-27.79,21.79a97.15,97.15,0,0,0-6.45,9l-20.38-7.83a94.23,94.23,0,0,0,1.23-11c-.08-6-11.25-14.42-6-34.8,3.43-13.39,20.85-29.92,42.42-21.63S422.92,86.25,416.5,98.5Z" style="fill:#FCFB00"></path><rect x="352.1" y="106.88" width="35.33" height="1" transform="translate(196.95 451.46) rotate(-79.52)" style="fill:#fff"></rect><rect x="368.17" y="113.06" width="35.33" height="1" transform="translate(86.82 382.55) rotate(-58.37)" style="fill:#fff"></rect><path d="M381.12,105.23a3.25,3.25,0,0,1-1.22-.22c-1.84-.71-2.87-3.07-3.22-5.72a2.59,2.59,0,0,1-2.12.3c-3-1.17-1.84-7.91-1.79-8.19l.49.09c0,.06-1.17,6.61,1.48,7.63a2.28,2.28,0,0,0,1.88-.36,14.72,14.72,0,0,1,.7-6.35c.67-1.75,1.72-2.49,2.86-2.06a2,2,0,0,1,1.29,1.58c.31,1.94-1.63,5-3.63,6.59a7.48,7.48,0,0,1-.69.5c.3,2.56,1.23,4.87,2.93,5.53,1.27.49,2.94,0,4.69-1.44l.44-.37a6.08,6.08,0,0,1-.34-1.29c-.42-2.67.56-6,2.15-7.29a2,2,0,0,1,2-.4A1.53,1.53,0,0,1,390,95c.3,1.91-1.63,5.46-4.19,7.85a3.21,3.21,0,0,0,1.75,1.66c1.88.72,5.25-3.11,6.4-4.65l.4.3c-.18.24-4.37,5.83-7,4.82a3.68,3.68,0,0,1-2-1.79c-.11.1-.22.2-.34.29A6.75,6.75,0,0,1,381.12,105.23Zm7.25-11.1a1.66,1.66,0,0,0-1,.42c-1.43,1.16-2.36,4.35-2,6.82a5.85,5.85,0,0,0,.25,1c2.35-2.26,4.17-5.56,3.9-7.27a1,1,0,0,0-.65-.87A1.43,1.43,0,0,0,388.37,94.13Zm-8.82-3.4c-.9,0-1.48,1.12-1.76,1.86a14.3,14.3,0,0,0-.69,5.86l.43-.32c1.85-1.5,3.72-4.38,3.45-6.12a1.47,1.47,0,0,0-1-1.19A1.29,1.29,0,0,0,379.55,90.73Z" style="fill:#fff"></path><rect x="358" y="124.3" width="26.94" height="5.27" transform="translate(70.32 -124.88) rotate(21.04)" style="fill:#263238"></rect><rect x="355.8" y="130.01" width="26.94" height="5.27" transform="translate(72.22 -123.71) rotate(21.04)" style="fill:#263238"></rect><rect x="353.61" y="135.72" width="26.94" height="5.27" transform="translate(74.13 -122.54) rotate(21.04)" style="fill:#263238"></rect><path d="M392.78,43.9a17.35,17.35,0,0,1,0-4.38,16.81,16.81,0,0,1,1-4.26,17.35,17.35,0,0,1,0,4.38A17.24,17.24,0,0,1,392.78,43.9Z" style="fill:#263238"></path><path d="M372.35,46.77a17,17,0,0,1-2.19-3.8,16.54,16.54,0,0,1-1.27-4.19,19.07,19.07,0,0,1,3.46,8Z" style="fill:#263238"></path><path d="M356.08,59.46a17,17,0,0,1-3.79-2.19,16.74,16.74,0,0,1-3.2-3,17,17,0,0,1,3.8,2.19A17.32,17.32,0,0,1,356.08,59.46Z" style="fill:#263238"></path><path d="M348.35,78.59a19.27,19.27,0,0,1-8.65-1,19.27,19.27,0,0,1,8.65,1Z" style="fill:#263238"></path><path d="M351.21,99a19.41,19.41,0,0,1-8,3.47,17,17,0,0,1,3.8-2.19A17.41,17.41,0,0,1,351.21,99Z" style="fill:#263238"></path><path d="M419.73,107.47a19.06,19.06,0,0,1,7,5.18,16.73,16.73,0,0,1-3.79-2.19A17.06,17.06,0,0,1,419.73,107.47Z" style="fill:#263238"></path><path d="M427.47,88.34a19.27,19.27,0,0,1,8.65,1,19.27,19.27,0,0,1-8.65-1Z" style="fill:#263238"></path><path d="M424.61,67.91a19.29,19.29,0,0,1,8-3.47,17,17,0,0,1-3.79,2.19A17.55,17.55,0,0,1,424.61,67.91Z" style="fill:#263238"></path><path d="M411.91,51.64a17.11,17.11,0,0,1,2.19-3.79,16.8,16.8,0,0,1,3-3.2,16.76,16.76,0,0,1-2.2,3.79A16.74,16.74,0,0,1,411.91,51.64Z" style="fill:#263238"></path></g></svg>
