<svg xmlns="http://www.w3.org/2000/svg" viewBox="0 0 500 500"><g id="freepik--background-complete--inject-247"><path d="M385.33,59.85h-76s7.54-20.57,19.13-20.57,15.22,14.2,15.22,14.2,7.82-7.71,14.25-7.71S370,56,370,56,379,50.48,385.33,59.85Z" style="fill:#ebebeb"></path><path d="M324.74,100.84h-35.5s7.93-11.5,14.18-11.5,8.1,7.66,8.1,7.66,4.41-3.57,8.5-2.93S324.74,100.84,324.74,100.84Z" style="fill:#ebebeb;opacity:0.5"></path><path d="M448.19,99.43h-35.5s7.93-11.5,14.18-11.5S435,95.6,435,95.6s4.41-3.58,8.5-2.94S448.19,99.43,448.19,99.43Z" style="fill:#ebebeb;opacity:0.5"></path><path d="M121,126H51.81s9.47-21.14,19.6-22.46,15,15.71,15,15.71,6.54-6,11.68-6,9.1,7.92,9.1,7.92S117.44,115.74,121,126Z" style="fill:#ebebeb"></path><path d="M156.24,67.62H109.53s8-15.31,16.73-15.54,13.28,11.6,13.28,11.6S153.08,52.81,156.24,67.62Z" style="fill:#ebebeb;opacity:0.5"></path><path d="M210.71,83.36H164s8-15.31,16.73-15.54S194,79.42,194,79.42,207.55,68.55,210.71,83.36Z" style="fill:#ebebeb;opacity:0.5"></path><path d="M80.64,151.58H109a4.3,4.3,0,0,1,4.3,4.3v36a0,0,0,0,1,0,0h-37a0,0,0,0,1,0,0v-36A4.3,4.3,0,0,1,80.64,151.58Z" style="fill:#ebebeb"></path><path d="M119.38,151.58h28.38a4.3,4.3,0,0,1,4.3,4.3v36a0,0,0,0,1,0,0h-37a0,0,0,0,1,0,0v-36A4.3,4.3,0,0,1,119.38,151.58Z" style="fill:#ebebeb"></path><path d="M158.12,151.58H186.5a4.3,4.3,0,0,1,4.3,4.3v36a0,0,0,0,1,0,0h-37a0,0,0,0,1,0,0v-36A4.3,4.3,0,0,1,158.12,151.58Z" style="fill:#ebebeb"></path><path d="M196.86,151.58h28.38a4.3,4.3,0,0,1,4.3,4.3v36a0,0,0,0,1,0,0h-37a0,0,0,0,1,0,0v-36A4.3,4.3,0,0,1,196.86,151.58Z" style="fill:#ebebeb"></path><path d="M235.6,151.58H264a4.3,4.3,0,0,1,4.3,4.3v36a0,0,0,0,1,0,0h-37a0,0,0,0,1,0,0v-36A4.3,4.3,0,0,1,235.6,151.58Z" style="fill:#ebebeb"></path><path d="M274.34,151.58h28.38a4.3,4.3,0,0,1,4.3,4.3v36a0,0,0,0,1,0,0H270a0,0,0,0,1,0,0v-36A4.3,4.3,0,0,1,274.34,151.58Z" style="fill:#ebebeb"></path><path d="M313.09,151.58h28.38a4.3,4.3,0,0,1,4.3,4.3v36a0,0,0,0,1,0,0h-37a0,0,0,0,1,0,0v-36A4.3,4.3,0,0,1,313.09,151.58Z" style="fill:#ebebeb"></path><path d="M351.83,151.58H380.2a4.3,4.3,0,0,1,4.3,4.3v36a0,0,0,0,1,0,0h-37a0,0,0,0,1,0,0v-36A4.3,4.3,0,0,1,351.83,151.58Z" style="fill:#ebebeb"></path><path d="M390.57,151.58h28.38a4.3,4.3,0,0,1,4.3,4.3v36a0,0,0,0,1,0,0h-37a0,0,0,0,1,0,0v-36A4.3,4.3,0,0,1,390.57,151.58Z" style="fill:#ebebeb"></path><path d="M61.2,167.76H89.58a4.3,4.3,0,0,1,4.3,4.3v34.42a0,0,0,0,1,0,0h-37a0,0,0,0,1,0,0V172.06A4.3,4.3,0,0,1,61.2,167.76Z" style="fill:#c7c7c7"></path><path d="M100,167.76h28.38a4.3,4.3,0,0,1,4.3,4.3v34.42a0,0,0,0,1,0,0h-37a0,0,0,0,1,0,0V172.06A4.3,4.3,0,0,1,100,167.76Z" style="fill:#c7c7c7"></path><path d="M138.81,167.76h28.38a4.3,4.3,0,0,1,4.3,4.3v34.42a0,0,0,0,1,0,0h-37a0,0,0,0,1,0,0V172.06A4.3,4.3,0,0,1,138.81,167.76Z" style="fill:#c7c7c7"></path><path d="M177.61,167.76H206a4.3,4.3,0,0,1,4.3,4.3v34.42a0,0,0,0,1,0,0h-37a0,0,0,0,1,0,0V172.06A4.3,4.3,0,0,1,177.61,167.76Z" style="fill:#c7c7c7"></path><path d="M216.41,167.76h28.38a4.3,4.3,0,0,1,4.3,4.3v34.42a0,0,0,0,1,0,0h-37a0,0,0,0,1,0,0V172.06A4.3,4.3,0,0,1,216.41,167.76Z" style="fill:#c7c7c7"></path><path d="M255.21,167.76h28.38a4.3,4.3,0,0,1,4.3,4.3v34.42a0,0,0,0,1,0,0h-37a0,0,0,0,1,0,0V172.06A4.3,4.3,0,0,1,255.21,167.76Z" style="fill:#c7c7c7"></path><path d="M294,167.76h28.38a4.3,4.3,0,0,1,4.3,4.3v34.42a0,0,0,0,1,0,0h-37a0,0,0,0,1,0,0V172.06A4.3,4.3,0,0,1,294,167.76Z" style="fill:#c7c7c7"></path><path d="M332.82,167.76h28.38a4.3,4.3,0,0,1,4.3,4.3v34.42a0,0,0,0,1,0,0h-37a0,0,0,0,1,0,0V172.06A4.3,4.3,0,0,1,332.82,167.76Z" style="fill:#c7c7c7"></path><path d="M371.62,167.76H400a4.3,4.3,0,0,1,4.3,4.3v34.42a0,0,0,0,1,0,0h-37a0,0,0,0,1,0,0V172.06A4.3,4.3,0,0,1,371.62,167.76Z" style="fill:#c7c7c7"></path><path d="M410.42,167.76H438.8a4.3,4.3,0,0,1,4.3,4.3v34.42a0,0,0,0,1,0,0h-37a0,0,0,0,1,0,0V172.06A4.3,4.3,0,0,1,410.42,167.76Z" style="fill:#c7c7c7"></path><path d="M80.64,183H109a4.3,4.3,0,0,1,4.3,4.3v36a0,0,0,0,1,0,0h-37a0,0,0,0,1,0,0v-36A4.3,4.3,0,0,1,80.64,183Z" style="fill:#dbdbdb"></path><path d="M119.38,183h28.38a4.3,4.3,0,0,1,4.3,4.3v36a0,0,0,0,1,0,0h-37a0,0,0,0,1,0,0v-36A4.3,4.3,0,0,1,119.38,183Z" style="fill:#dbdbdb"></path><path d="M158.12,183H186.5a4.3,4.3,0,0,1,4.3,4.3v36a0,0,0,0,1,0,0h-37a0,0,0,0,1,0,0v-36A4.3,4.3,0,0,1,158.12,183Z" style="fill:#dbdbdb"></path><path d="M196.86,183h28.38a4.3,4.3,0,0,1,4.3,4.3v36a0,0,0,0,1,0,0h-37a0,0,0,0,1,0,0v-36A4.3,4.3,0,0,1,196.86,183Z" style="fill:#dbdbdb"></path><path d="M235.6,183H264a4.3,4.3,0,0,1,4.3,4.3v36a0,0,0,0,1,0,0h-37a0,0,0,0,1,0,0v-36A4.3,4.3,0,0,1,235.6,183Z" style="fill:#dbdbdb"></path><path d="M274.34,183h28.38a4.3,4.3,0,0,1,4.3,4.3v36a0,0,0,0,1,0,0H270a0,0,0,0,1,0,0v-36A4.3,4.3,0,0,1,274.34,183Z" style="fill:#dbdbdb"></path><path d="M313.09,183h28.38a4.3,4.3,0,0,1,4.3,4.3v36a0,0,0,0,1,0,0h-37a0,0,0,0,1,0,0v-36A4.3,4.3,0,0,1,313.09,183Z" style="fill:#dbdbdb"></path><path d="M351.83,183H380.2a4.3,4.3,0,0,1,4.3,4.3v36a0,0,0,0,1,0,0h-37a0,0,0,0,1,0,0v-36A4.3,4.3,0,0,1,351.83,183Z" style="fill:#dbdbdb"></path><path d="M390.57,183h28.38a4.3,4.3,0,0,1,4.3,4.3v36a0,0,0,0,1,0,0h-37a0,0,0,0,1,0,0v-36A4.3,4.3,0,0,1,390.57,183Z" style="fill:#dbdbdb"></path><path d="M61.2,201.14H89.58a4.3,4.3,0,0,1,4.3,4.3v17.91a0,0,0,0,1,0,0h-37a0,0,0,0,1,0,0V205.44A4.3,4.3,0,0,1,61.2,201.14Z" style="fill:#ebebeb"></path><path d="M100,201.14h28.38a4.3,4.3,0,0,1,4.3,4.3v17.91a0,0,0,0,1,0,0h-37a0,0,0,0,1,0,0V205.44A4.3,4.3,0,0,1,100,201.14Z" style="fill:#ebebeb"></path><path d="M138.81,201.14h28.38a4.3,4.3,0,0,1,4.3,4.3v17.91a0,0,0,0,1,0,0h-37a0,0,0,0,1,0,0V205.44A4.3,4.3,0,0,1,138.81,201.14Z" style="fill:#ebebeb"></path><path d="M177.61,201.14H206a4.3,4.3,0,0,1,4.3,4.3v17.91a0,0,0,0,1,0,0h-37a0,0,0,0,1,0,0V205.44A4.3,4.3,0,0,1,177.61,201.14Z" style="fill:#ebebeb"></path><path d="M216.41,201.14h28.38a4.3,4.3,0,0,1,4.3,4.3v17.91a0,0,0,0,1,0,0h-37a0,0,0,0,1,0,0V205.44A4.3,4.3,0,0,1,216.41,201.14Z" style="fill:#ebebeb"></path><path d="M255.21,201.14h28.38a4.3,4.3,0,0,1,4.3,4.3v17.91a0,0,0,0,1,0,0h-37a0,0,0,0,1,0,0V205.44A4.3,4.3,0,0,1,255.21,201.14Z" style="fill:#ebebeb"></path><path d="M294,201.14h28.38a4.3,4.3,0,0,1,4.3,4.3v17.91a0,0,0,0,1,0,0h-37a0,0,0,0,1,0,0V205.44A4.3,4.3,0,0,1,294,201.14Z" style="fill:#ebebeb"></path><path d="M332.82,201.14h28.38a4.3,4.3,0,0,1,4.3,4.3v17.91a0,0,0,0,1,0,0h-37a0,0,0,0,1,0,0V205.44A4.3,4.3,0,0,1,332.82,201.14Z" style="fill:#ebebeb"></path><path d="M371.62,201.14H400a4.3,4.3,0,0,1,4.3,4.3v17.91a0,0,0,0,1,0,0h-37a0,0,0,0,1,0,0V205.44A4.3,4.3,0,0,1,371.62,201.14Z" style="fill:#ebebeb"></path><path d="M410.42,201.14H438.8a4.3,4.3,0,0,1,4.3,4.3v17.91a0,0,0,0,1,0,0h-37a0,0,0,0,1,0,0V205.44A4.3,4.3,0,0,1,410.42,201.14Z" style="fill:#ebebeb"></path><rect x="182.29" y="223.35" width="135.42" height="53.9" style="fill:#dbdbdb"></rect><rect x="317.71" y="223.35" width="135.42" height="53.9" style="fill:#ebebeb"></rect><ellipse cx="385.42" cy="250.3" rx="51.8" ry="15.54" transform="translate(-34.61 63.83) rotate(-9.06)" style="fill:#dbdbdb"></ellipse><rect x="46.87" y="223.35" width="135.42" height="53.9" style="fill:#ebebeb"></rect><ellipse cx="114.58" cy="250.3" rx="51.8" ry="15.54" transform="translate(-38 21.17) rotate(-9.06)" style="fill:#dbdbdb"></ellipse></g><g id="freepik--Shadow--inject-247"><ellipse cx="250" cy="442.44" rx="131.25" ry="13.96" style="fill:#ebebeb"></ellipse></g><g id="freepik--Floor--inject-247"><polygon points="46.87 277.25 97.65 277.01 148.44 276.92 250 276.75 351.56 276.92 402.35 277.01 453.13 277.25 402.35 277.5 351.56 277.58 250 277.75 148.44 277.58 97.65 277.5 46.87 277.25" style="fill:#263238"></polygon></g><g id="freepik--Grass--inject-247"><path d="M222.7,413c-.95-.39-1.36,1.15-.42,1.54a5.19,5.19,0,0,1,3,6.28.8.8,0,0,0,1.54.42A6.83,6.83,0,0,0,222.7,413Z" style="fill:#ebebeb"></path><path d="M229.7,411.47a12.36,12.36,0,0,0-.93,7.07c.16,1,1.7.58,1.55-.43a10.24,10.24,0,0,1,.76-5.83C231.49,411.34,230.11,410.53,229.7,411.47Z" style="fill:#ebebeb"></path><path d="M76.59,328c-1-.4-1.37,1.15-.43,1.54a5.18,5.18,0,0,1,3,6.27.8.8,0,0,0,1.55.43A6.83,6.83,0,0,0,76.59,328Z" style="fill:#ebebeb"></path><path d="M83.58,326.51a12.27,12.27,0,0,0-.92,7.07c.16,1,1.7.58,1.54-.42a10.43,10.43,0,0,1,.76-5.84C85.38,326.39,84,325.57,83.58,326.51Z" style="fill:#ebebeb"></path><path d="M348.12,388.2c-.91-.48-1.71.9-.8,1.38a4.92,4.92,0,0,1,2.64,4.84c-.08,1,1.52,1,1.6,0A6.48,6.48,0,0,0,348.12,388.2Z" style="fill:#ebebeb"></path><path d="M352.88,385.7c-.48-.91-1.87-.1-1.38.81a12.67,12.67,0,0,1,1.51,6.83c-.05,1,1.55,1,1.6,0A14.42,14.42,0,0,0,352.88,385.7Z" style="fill:#ebebeb"></path><path d="M356.59,386.76a8.33,8.33,0,0,0-1,5.1c.13,1,1.73,1,1.6,0a6.88,6.88,0,0,1,.8-4.29C358.47,386.67,357.09,385.86,356.59,386.76Z" style="fill:#ebebeb"></path><path d="M142.91,344.32c-.91-.48-1.72.9-.8,1.38a4.92,4.92,0,0,1,2.64,4.84c-.08,1,1.52,1,1.6,0A6.49,6.49,0,0,0,142.91,344.32Z" style="fill:#ebebeb"></path><path d="M147.67,341.82c-.49-.91-1.87-.1-1.38.8a12.73,12.73,0,0,1,1.51,6.84c-.05,1,1.55,1,1.6,0A14.42,14.42,0,0,0,147.67,341.82Z" style="fill:#ebebeb"></path><path d="M151.38,342.88a8.33,8.33,0,0,0-1,5.1c.12,1,1.73,1,1.6,0a6.88,6.88,0,0,1,.8-4.29C153.26,342.78,151.88,342,151.38,342.88Z" style="fill:#ebebeb"></path><path d="M134.56,405.29a.8.8,0,0,0-.81,1.38,6.48,6.48,0,0,1,3.21,6c-.05,1,1.55,1,1.6,0A8.07,8.07,0,0,0,134.56,405.29Z" style="fill:#ebebeb"></path><path d="M140.41,409.11c-.18,1.08-.37,2.15-.55,3.22s1.37,1.44,1.54.42l.55-3.21C142.12,408.53,140.58,408.1,140.41,409.11Z" style="fill:#ebebeb"></path><path d="M243.42,350a.8.8,0,0,0-.81,1.38,6.5,6.5,0,0,1,3.22,6c-.06,1,1.54,1,1.6,0A8.12,8.12,0,0,0,243.42,350Z" style="fill:#ebebeb"></path><path d="M249.27,353.85c-.18,1.07-.36,2.14-.55,3.21s1.37,1.44,1.54.43.37-2.15.56-3.22S249.45,352.83,249.27,353.85Z" style="fill:#ebebeb"></path><path d="M185,296a.8.8,0,0,0-.8,1.38,6.48,6.48,0,0,1,3.21,6c-.05,1,1.54,1,1.6,0A8.06,8.06,0,0,0,185,296Z" style="fill:#ebebeb"></path><path d="M190.88,299.84c-.19,1.08-.37,2.15-.55,3.22s1.36,1.44,1.54.42.37-2.14.55-3.21S191.05,298.83,190.88,299.84Z" style="fill:#ebebeb"></path><path d="M58.1,383.75c-.78-.65-1.92.47-1.13,1.13a7.44,7.44,0,0,1,2.77,6.26c-.06,1,1.54,1,1.6,0A8.91,8.91,0,0,0,58.1,383.75Z" style="fill:#ebebeb"></path><path d="M406.67,309.53c-.79-.65-1.93.48-1.13,1.13a7.45,7.45,0,0,1,2.76,6.26c-.05,1,1.55,1,1.6,0A8.93,8.93,0,0,0,406.67,309.53Z" style="fill:#ebebeb"></path><path d="M441.9,349.29c.78-.65,1.92.47,1.13,1.13a7.41,7.41,0,0,0-2.77,6.26c.06,1-1.54,1-1.6,0A8.91,8.91,0,0,1,441.9,349.29Z" style="fill:#ebebeb"></path><path d="M429.57,402a9.51,9.51,0,0,0-2.54,8.45c.19,1,1.73.59,1.55-.42a7.78,7.78,0,0,1,2.12-6.9C431.42,402.41,430.29,401.28,429.57,402Z" style="fill:#ebebeb"></path><path d="M423.75,402.89v5.37a.8.8,0,0,0,1.6,0v-5.37A.8.8,0,0,0,423.75,402.89Z" style="fill:#ebebeb"></path><path d="M432.3,404.58a4.94,4.94,0,0,0-2.26,4.35c0,1,1.65,1,1.6,0a3.32,3.32,0,0,1,1.47-3C434,405.4,433.16,404,432.3,404.58Z" style="fill:#ebebeb"></path><path d="M339.79,318.64a9.47,9.47,0,0,0-2.54,8.46c.18,1,1.72.58,1.54-.43a7.79,7.79,0,0,1,2.13-6.9C341.63,319,340.51,317.9,339.79,318.64Z" style="fill:#ebebeb"></path><path d="M334,319.52v5.36a.8.8,0,0,0,1.6,0v-5.36A.8.8,0,0,0,334,319.52Z" style="fill:#ebebeb"></path><path d="M342.52,321.2a4.93,4.93,0,0,0-2.26,4.35c0,1,1.64,1,1.59,0a3.32,3.32,0,0,1,1.47-3C344.18,322,343.38,320.64,342.52,321.2Z" style="fill:#ebebeb"></path></g><g id="freepik--soccer-goal--inject-247"><path d="M391.35,120.84H108.65l-21,170.68,32.13-10.66H380.18l32.13,10.66Zm-5.94,3.91L363,151.4H137l-22.42-26.65ZM92.32,285.85l19.46-158.37L134.06,154,117.71,277.43Zm29.4-8.9,16.1-121.64H362.18L378.28,277ZM365.94,154h0l22.28-26.46,19.46,158.36-25.39-8.42Z" style="fill:#FCFB00"></path><polygon points="363.07 162.13 136.93 162.13 137.05 161.18 362.95 161.18 363.07 162.13" style="fill:#263238"></polygon><polygon points="364.41 172.22 135.59 172.22 135.72 171.27 364.28 171.27 364.41 172.22" style="fill:#263238"></polygon><polygon points="365.74 182.31 134.26 182.31 134.38 181.36 365.62 181.36 365.74 182.31" style="fill:#263238"></polygon><polygon points="367.08 192.4 132.92 192.4 133.04 191.44 366.96 191.44 367.08 192.4" style="fill:#263238"></polygon><polygon points="368.42 202.48 131.58 202.48 131.71 201.53 368.29 201.53 368.42 202.48" style="fill:#263238"></polygon><polygon points="369.75 212.57 130.25 212.57 130.37 211.62 369.63 211.62 369.75 212.57" style="fill:#263238"></polygon><polygon points="371.09 222.65 128.91 222.65 129.03 221.7 370.97 221.7 371.09 222.65" style="fill:#263238"></polygon><polygon points="372.43 232.74 127.57 232.74 127.7 231.79 372.3 231.79 372.43 232.74" style="fill:#263238"></polygon><polygon points="373.76 242.84 126.24 242.84 126.36 241.88 373.64 241.88 373.76 242.84" style="fill:#263238"></polygon><polygon points="375.1 252.92 124.9 252.92 125.03 251.97 374.98 251.97 375.1 252.92" style="fill:#263238"></polygon><polygon points="376.44 263.01 123.56 263.01 123.7 262.06 376.3 262.06 376.44 263.01" style="fill:#263238"></polygon><polygon points="377.77 273.09 122.23 273.09 122.36 272.14 377.64 272.14 377.77 273.09" style="fill:#263238"></polygon><rect x="301.15" y="155.32" width="0.95" height="121.63" style="fill:#263238"></rect><rect x="291.07" y="155.32" width="0.95" height="121.63" style="fill:#263238"></rect><rect x="311.24" y="155.32" width="0.95" height="121.63" style="fill:#263238"></rect><rect x="321.33" y="155.32" width="0.95" height="121.63" style="fill:#263238"></rect><rect x="331.42" y="155.32" width="0.95" height="121.63" style="fill:#263238"></rect><rect x="341.51" y="155.32" width="0.95" height="121.63" style="fill:#263238"></rect><rect x="351.59" y="155.32" width="0.95" height="121.63" style="fill:#263238"></rect><polygon points="362.63 158.75 362.63 276.95 361.68 276.95 361.68 155.32 362.17 155.32 362.63 158.75" style="fill:#263238"></polygon><polygon points="372.71 234.92 372.71 276.95 371.76 276.95 371.76 227.75 372.3 231.79 372.43 232.74 372.71 234.92" style="fill:#263238"></polygon><rect x="280.98" y="155.32" width="0.95" height="121.63" style="fill:#263238"></rect><rect x="270.89" y="155.32" width="0.95" height="121.63" style="fill:#263238"></rect><rect x="260.81" y="155.32" width="0.95" height="121.63" style="fill:#263238"></rect><rect x="250.72" y="155.32" width="0.95" height="121.63" style="fill:#263238"></rect><rect x="240.63" y="155.32" width="0.95" height="121.63" style="fill:#263238"></rect><rect x="230.54" y="155.32" width="0.95" height="121.63" style="fill:#263238"></rect><rect x="220.45" y="155.32" width="0.95" height="121.63" style="fill:#263238"></rect><rect x="210.37" y="155.32" width="0.95" height="121.63" style="fill:#263238"></rect><rect x="200.28" y="155.32" width="0.95" height="121.63" style="fill:#263238"></rect><rect x="190.2" y="155.32" width="0.95" height="121.63" style="fill:#263238"></rect><rect x="180.11" y="155.32" width="0.95" height="121.63" style="fill:#263238"></rect><rect x="170.01" y="155.32" width="0.95" height="121.63" style="fill:#263238"></rect><rect x="159.93" y="155.32" width="0.95" height="121.63" style="fill:#263238"></rect><rect x="149.84" y="155.32" width="0.95" height="121.63" style="fill:#263238"></rect><rect x="139.76" y="155.32" width="0.95" height="121.63" style="fill:#263238"></rect><polygon points="130.62 209.75 130.62 276.95 129.67 276.95 129.67 216.93 130.25 212.57 130.37 211.62 130.62 209.75" style="fill:#263238"></polygon><polygon points="134.06 153.97 134.03 154.22 132.24 152.4 131.65 151.8 125.96 145.99 125.37 145.38 119.68 139.59 119.09 138.98 113.4 133.18 112.81 132.58 111.34 131.08 111.48 129.94 112.84 131.34 113.43 131.94 119.11 137.8 119.71 138.41 125.39 144.28 125.97 144.89 129.36 148.38 131.66 151.13 132.25 151.83 134.06 153.97" style="fill:#263238"></polygon><polygon points="132.86 163.04 132.74 163.96 132.05 163.35 131.46 162.82 125.76 157.71 125.16 157.19 119.46 152.09 118.87 151.56 113.17 146.46 112.58 145.92 109.82 143.46 109.96 142.29 112.6 144.67 113.19 145.21 118.89 150.38 119.48 150.91 125.18 156.08 125.78 156.62 131.48 161.79 132.07 162.33 132.86 163.04" style="fill:#263238"></polygon><polygon points="131.54 173 131.42 173.94 131.26 173.84 125.55 169.42 124.96 168.97 119.24 164.57 118.65 164.11 112.94 159.71 112.35 159.25 108.27 156.12 108.41 154.91 112.36 158 112.96 158.47 118.67 162.93 119.26 163.4 124.98 167.86 125.57 168.33 131.28 172.8 131.54 173" style="fill:#263238"></polygon><polygon points="130.18 183.21 130.06 184.19 125.34 181.14 124.75 180.76 119.02 177.06 118.42 176.67 112.71 172.97 112.11 172.58 106.68 169.07 106.83 167.84 112.13 171.33 112.73 171.73 118.45 175.49 119.04 175.88 124.77 179.65 125.36 180.04 130.18 183.21" style="fill:#263238"></polygon><polygon points="128.8 193.7 128.66 194.69 125.14 192.85 124.54 192.54 118.81 189.54 118.21 189.22 112.47 186.23 111.87 185.92 106.14 182.92 105.54 182.6 105.04 182.35 105.2 181.08 105.56 181.27 106.16 181.6 111.9 184.66 112.5 184.98 118.22 188.04 118.82 188.37 124.56 191.44 125.16 191.75 128.8 193.7" style="fill:#263238"></polygon><polygon points="127.37 204.47 127.24 205.49 124.93 204.57 124.33 204.32 118.59 202.03 117.99 201.79 112.24 199.49 111.64 199.24 105.89 196.94 105.29 196.71 103.37 195.94 103.53 194.65 105.32 195.38 105.92 195.62 111.66 197.99 112.26 198.24 118.01 200.6 118.61 200.85 124.35 203.22 124.95 203.47 127.37 204.47" style="fill:#263238"></polygon><polygon points="125.91 215.51 125.77 216.56 124.73 216.27 124.12 216.11 118.37 214.5 117.76 214.34 112 212.74 111.41 212.58 105.64 210.97 105.04 210.8 101.66 209.87 101.82 208.54 105.07 209.48 105.67 209.65 111.42 211.32 112.02 211.49 117.79 213.16 118.39 213.34 124.14 215 124.75 215.18 125.91 215.51" style="fill:#263238"></polygon><polygon points="124.41 226.86 124.27 227.95 123.92 227.9 118.14 226.99 117.54 226.9 111.78 226 111.17 225.9 105.39 225 104.8 224.91 99.91 224.14 100.08 222.79 104.81 223.58 105.42 223.68 111.2 224.65 111.8 224.75 117.56 225.71 118.17 225.82 123.94 226.78 124.41 226.86" style="fill:#263238"></polygon><polygon points="122.86 238.54 122.72 239.66 117.92 239.49 117.32 239.47 111.54 239.27 110.94 239.25 105.15 239.04 104.55 239.03 98.76 238.83 98.16 238.81 98.11 238.81 98.17 238.29 98.17 238.24 98.28 237.41 98.78 237.43 104.57 237.7 105.18 237.72 110.96 237.99 111.56 238.02 117.34 238.28 117.94 238.31 122.86 238.54" style="fill:#263238"></polygon><polygon points="121.27 250.54 121.12 251.68 117.7 251.97 117.1 252.03 111.3 252.52 110.7 252.58 104.9 253.07 104.29 253.13 98.5 253.62 97.9 253.68 96.27 253.82 96.44 252.39 97.92 252.28 98.52 252.24 104.32 251.8 104.92 251.75 110.72 251.32 111.33 251.28 117.12 250.85 117.72 250.8 121.27 250.54" style="fill:#263238"></polygon><polygon points="119.64 262.86 119.49 264.05 117.48 264.46 116.88 264.58 111.07 265.78 110.47 265.91 104.65 267.11 104.05 267.23 98.23 268.43 97.64 268.55 94.37 269.23 94.55 267.75 97.66 267.15 98.26 267.03 104.07 265.9 104.67 265.78 110.48 264.65 111.09 264.54 116.9 263.41 117.5 263.28 119.64 262.86" style="fill:#263238"></polygon><polygon points="117.96 275.55 117.8 276.77 117.27 276.95 116.66 277.14 110.84 279.04 110.23 279.24 104.41 281.14 103.8 281.34 97.98 283.24 97.38 283.43 92.43 285.04 92.61 283.53 97.4 282.02 98 281.83 103.82 280 104.43 279.81 110.26 277.98 110.86 277.79 116.68 275.96 117.28 275.76 117.96 275.55" style="fill:#263238"></polygon><polygon points="132.25 151.83 132.24 152.4 132.07 162.33 132.05 163.35 131.94 169.98 131.54 173 131.42 173.94 131.25 175.21 131.26 173.84 131.28 172.8 131.46 162.82 131.48 161.79 131.65 151.8 131.66 151.13 132.25 151.83" style="fill:#263238"></polygon><polygon points="125.4 143.67 125.98 144.38 125.97 144.89 125.96 145.99 125.78 156.62 125.76 157.71 125.57 168.33 125.55 169.42 125.36 180.04 125.34 181.14 125.16 191.75 125.14 192.85 124.95 203.47 124.93 204.57 124.75 215.18 124.73 216.27 124.56 225.7 124.41 226.86 124.27 227.95 123.87 230.95 123.92 227.9 123.94 226.78 124.12 216.11 124.14 215 124.33 204.32 124.35 203.22 124.54 192.54 124.56 191.44 124.75 180.76 124.77 179.65 124.96 168.97 124.98 167.86 125.16 157.19 125.18 156.08 125.37 145.38 125.39 144.28 125.4 143.67" style="fill:#263238"></polygon><polygon points="119.73 136.93 119.71 138.41 119.68 139.59 119.48 150.91 119.46 152.09 119.26 163.4 119.24 164.57 119.04 175.88 119.02 177.06 118.82 188.37 118.81 189.54 118.61 200.85 118.59 202.03 118.39 213.34 118.37 214.5 118.17 225.82 118.14 226.99 117.94 238.31 117.92 239.49 117.72 250.8 117.7 251.97 117.5 263.28 117.48 264.46 117.28 275.76 117.27 276.95 117.26 277.58 116.65 277.79 116.66 277.14 116.68 275.96 116.88 264.58 116.9 263.41 117.1 252.03 117.12 250.85 117.32 239.47 117.34 238.28 117.54 226.9 117.56 225.71 117.76 214.34 117.79 213.16 117.99 201.79 118.01 200.6 118.21 189.22 118.22 188.04 118.42 176.67 118.45 175.49 118.65 164.11 118.67 162.93 118.87 151.56 118.89 150.38 119.09 138.98 119.11 137.8 119.14 136.23 119.73 136.93" style="fill:#263238"></polygon><polygon points="113.47 129.49 113.43 131.94 113.4 133.18 113.19 145.21 113.17 146.46 112.96 158.47 112.94 159.71 112.73 171.73 112.71 172.97 112.5 184.98 112.47 186.23 112.26 198.24 112.24 199.49 112.02 211.49 112 212.74 111.8 224.75 111.78 226 111.56 238.02 111.54 239.27 111.33 251.28 111.3 252.52 111.09 264.54 111.07 265.78 110.86 277.79 110.84 279.04 110.83 279.72 110.22 279.92 110.23 279.24 110.26 277.98 110.47 265.91 110.48 264.65 110.7 252.58 110.72 251.32 110.94 239.25 110.96 237.99 111.17 225.9 111.2 224.65 111.41 212.58 111.42 211.32 111.64 199.24 111.66 197.99 111.87 185.92 111.9 184.66 112.11 172.58 112.13 171.33 112.35 159.25 112.36 158 112.58 145.92 112.6 144.67 112.81 132.58 112.84 131.34 112.88 128.78 113.47 129.49" style="fill:#263238"></polygon><polygon points="105.63 177.58 106.33 171.92 106.16 181.6 106.14 182.92 105.92 195.62 105.89 196.94 105.67 209.65 105.64 210.97 105.42 223.68 105.39 225 105.18 237.72 105.15 239.04 104.92 251.75 104.9 253.07 104.67 265.78 104.65 267.11 104.43 279.81 104.41 281.14 104.4 281.85 103.79 282.06 103.8 281.34 103.82 280 104.05 267.23 104.07 265.9 104.29 253.13 104.32 251.8 104.55 239.03 104.57 237.7 104.8 224.91 104.81 223.58 105.04 210.8 105.07 209.48 105.29 196.71 105.32 195.38 105.54 182.6 105.56 181.27 105.63 177.62 105.63 177.58" style="fill:#263238"></polygon><polygon points="98.87 232.69 98.78 237.43 98.76 238.83 98.52 252.24 98.5 253.62 98.26 267.03 98.23 268.43 98 281.83 97.98 283.24 97.96 283.99 97.36 284.19 97.38 283.43 97.4 282.02 97.64 268.55 97.66 267.15 97.9 253.68 97.92 252.28 98.16 238.81 98.17 238.29 98.17 238.24 98.28 237.41 98.87 232.69" style="fill:#263238"></polygon><polygon points="365.96 153.97 365.99 154.22 367.78 152.4 368.37 151.8 374.06 145.99 374.65 145.38 380.34 139.59 380.93 138.98 386.62 133.18 387.21 132.58 388.68 131.08 388.54 129.94 387.18 131.34 386.59 131.94 380.91 137.8 380.31 138.41 374.63 144.28 374.05 144.89 370.66 148.38 368.36 151.13 367.77 151.83 365.96 153.97" style="fill:#263238"></polygon><polygon points="367.16 163.04 367.28 163.96 367.97 163.35 368.56 162.82 374.26 157.71 374.86 157.19 380.56 152.09 381.15 151.56 386.85 146.46 387.44 145.92 390.2 143.46 390.06 142.29 387.42 144.67 386.83 145.21 381.13 150.38 380.54 150.91 374.84 156.08 374.25 156.62 368.54 161.79 367.95 162.33 367.16 163.04" style="fill:#263238"></polygon><polygon points="368.48 173 368.6 173.94 368.75 173.84 374.47 169.42 375.06 168.97 380.78 164.57 381.37 164.11 387.08 159.71 387.67 159.25 391.75 156.12 391.61 154.91 387.65 158 387.06 158.47 381.35 162.93 380.76 163.4 375.04 167.86 374.45 168.33 368.74 172.8 368.48 173" style="fill:#263238"></polygon><polygon points="369.84 183.21 369.96 184.19 374.68 181.14 375.27 180.76 381 177.06 381.6 176.67 387.31 172.97 387.91 172.58 393.34 169.07 393.19 167.84 387.89 171.33 387.29 171.73 381.57 175.49 380.98 175.88 375.25 179.65 374.66 180.04 369.84 183.21" style="fill:#263238"></polygon><polygon points="371.23 193.7 371.36 194.69 374.88 192.85 375.48 192.54 381.22 189.54 381.81 189.22 387.55 186.23 388.15 185.92 393.88 182.92 394.48 182.6 394.98 182.35 394.82 181.08 394.45 181.27 393.86 181.6 388.12 184.66 387.52 184.98 381.8 188.04 381.2 188.37 375.46 191.44 374.86 191.75 371.23 193.7" style="fill:#263238"></polygon><polygon points="372.65 204.47 372.78 205.49 375.09 204.57 375.69 204.32 381.43 202.03 382.03 201.79 387.78 199.49 388.38 199.24 394.13 196.94 394.73 196.71 396.65 195.94 396.49 194.65 394.7 195.38 394.1 195.62 388.36 197.99 387.76 198.24 382.01 200.6 381.42 200.85 375.67 203.22 375.07 203.47 372.65 204.47" style="fill:#263238"></polygon><polygon points="374.11 215.51 374.25 216.56 375.29 216.27 375.9 216.11 381.65 214.5 382.26 214.34 388.02 212.74 388.61 212.58 394.38 210.97 394.98 210.8 398.36 209.87 398.2 208.54 394.95 209.48 394.35 209.65 388.6 211.32 388 211.49 382.23 213.16 381.63 213.34 375.88 215 375.27 215.18 374.11 215.51" style="fill:#263238"></polygon><polygon points="375.61 226.86 375.75 227.95 376.1 227.9 381.88 226.99 382.48 226.9 388.24 226 388.85 225.9 394.63 225 395.22 224.91 400.12 224.14 399.94 222.79 395.2 223.58 394.6 223.68 388.82 224.65 388.23 224.75 382.46 225.71 381.85 225.82 376.08 226.78 375.61 226.86" style="fill:#263238"></polygon><polygon points="377.16 238.54 377.3 239.66 382.1 239.49 382.7 239.47 388.48 239.27 389.08 239.25 394.87 239.04 395.47 239.03 401.26 238.83 401.86 238.81 401.91 238.81 401.85 238.29 401.85 238.24 401.74 237.41 401.24 237.43 395.45 237.7 394.84 237.72 389.06 237.99 388.46 238.02 382.68 238.28 382.08 238.31 377.16 238.54" style="fill:#263238"></polygon><polygon points="378.75 250.54 378.9 251.68 382.32 251.97 382.92 252.03 388.72 252.52 389.32 252.58 395.12 253.07 395.73 253.13 401.52 253.62 402.12 253.68 403.75 253.82 403.58 252.39 402.1 252.28 401.5 252.24 395.7 251.8 395.1 251.75 389.3 251.32 388.69 251.28 382.9 250.85 382.3 250.8 378.75 250.54" style="fill:#263238"></polygon><polygon points="380.38 262.86 380.53 264.05 382.54 264.46 383.14 264.58 388.95 265.78 389.55 265.91 395.37 267.11 395.98 267.23 401.79 268.43 402.38 268.55 405.65 269.23 405.47 267.75 402.36 267.15 401.76 267.03 395.95 265.9 395.35 265.78 389.54 264.65 388.93 264.54 383.13 263.41 382.52 263.28 380.38 262.86" style="fill:#263238"></polygon><polygon points="382.06 275.55 382.22 276.77 382.75 276.95 383.36 277.14 389.18 279.04 389.79 279.24 395.61 281.14 396.22 281.34 402.04 283.24 402.64 283.43 407.59 285.04 407.41 283.53 402.62 282.02 402.02 281.83 396.2 280 395.6 279.81 389.76 277.98 389.16 277.79 383.34 275.96 382.74 275.76 382.06 275.55" style="fill:#263238"></polygon><polygon points="367.77 151.83 367.78 152.4 367.95 162.33 367.97 163.35 368.08 169.98 368.48 173 368.6 173.94 368.77 175.21 368.75 173.84 368.74 172.8 368.56 162.82 368.54 161.79 368.37 151.8 368.36 151.13 367.77 151.83" style="fill:#263238"></polygon><polygon points="374.63 143.67 374.04 144.38 374.05 144.89 374.06 145.99 374.25 156.62 374.26 157.71 374.45 168.33 374.47 169.42 374.66 180.04 374.68 181.14 374.86 191.75 374.88 192.85 375.07 203.47 375.09 204.57 375.27 215.18 375.29 216.27 375.46 225.7 375.61 226.86 375.75 227.95 376.15 230.95 376.1 227.9 376.08 226.78 375.9 216.11 375.88 215 375.69 204.32 375.67 203.22 375.48 192.54 375.46 191.44 375.27 180.76 375.25 179.65 375.06 168.97 375.04 167.86 374.86 157.19 374.84 156.08 374.65 145.38 374.63 144.28 374.63 143.67" style="fill:#263238"></polygon><polygon points="380.3 136.93 380.31 138.41 380.34 139.59 380.54 150.91 380.56 152.09 380.76 163.4 380.78 164.57 380.98 175.88 381 177.06 381.2 188.37 381.22 189.54 381.42 200.85 381.43 202.03 381.63 213.34 381.65 214.5 381.85 225.82 381.88 226.99 382.08 238.31 382.1 239.49 382.3 250.8 382.32 251.97 382.52 263.28 382.54 264.46 382.74 275.76 382.75 276.95 382.76 277.58 383.37 277.79 383.36 277.14 383.34 275.96 383.14 264.58 383.13 263.41 382.92 252.03 382.9 250.85 382.7 239.47 382.68 238.28 382.48 226.9 382.46 225.71 382.26 214.34 382.23 213.16 382.03 201.79 382.01 200.6 381.81 189.22 381.8 188.04 381.6 176.67 381.57 175.49 381.37 164.11 381.35 162.93 381.15 151.56 381.13 150.38 380.93 138.98 380.91 137.8 380.88 136.23 380.3 136.93" style="fill:#263238"></polygon><polygon points="386.55 129.49 386.59 131.94 386.62 133.18 386.83 145.21 386.85 146.46 387.06 158.47 387.08 159.71 387.29 171.73 387.31 172.97 387.52 184.98 387.55 186.23 387.76 198.24 387.78 199.49 388 211.49 388.02 212.74 388.23 224.75 388.24 226 388.46 238.02 388.48 239.27 388.69 251.28 388.72 252.52 388.93 264.54 388.95 265.78 389.16 277.79 389.18 279.04 389.19 279.72 389.8 279.92 389.79 279.24 389.76 277.98 389.55 265.91 389.54 264.65 389.32 252.58 389.3 251.32 389.08 239.25 389.06 237.99 388.85 225.9 388.82 224.65 388.61 212.58 388.6 211.32 388.38 199.24 388.36 197.99 388.15 185.92 388.12 184.66 387.91 172.58 387.89 171.33 387.67 159.25 387.65 158 387.44 145.92 387.42 144.67 387.21 132.58 387.18 131.34 387.14 128.78 386.55 129.49" style="fill:#263238"></polygon><polygon points="394.39 177.58 393.69 171.92 393.86 181.6 393.88 182.92 394.1 195.62 394.13 196.94 394.35 209.65 394.38 210.97 394.6 223.68 394.63 225 394.84 237.72 394.87 239.04 395.1 251.75 395.12 253.07 395.35 265.78 395.37 267.11 395.6 279.81 395.61 281.14 395.62 281.85 396.23 282.06 396.22 281.34 396.2 280 395.98 267.23 395.95 265.9 395.73 253.13 395.7 251.8 395.47 239.03 395.45 237.7 395.22 224.91 395.2 223.58 394.98 210.8 394.95 209.48 394.73 196.71 394.7 195.38 394.48 182.6 394.45 181.27 394.39 177.62 394.39 177.58" style="fill:#263238"></polygon><polygon points="401.15 232.69 401.24 237.43 401.26 238.83 401.5 252.24 401.52 253.62 401.76 267.03 401.79 268.43 402.02 281.83 402.04 283.24 402.06 283.99 402.66 284.19 402.64 283.43 402.62 282.02 402.38 268.55 402.36 267.15 402.12 253.68 402.1 252.28 401.86 238.81 401.85 238.29 401.85 238.24 401.74 237.41 401.15 232.69" style="fill:#263238"></polygon><polygon points="380.91 130.1 380.4 130.71 119.6 130.71 119.09 130.1 380.91 130.1" style="fill:#263238"></polygon><polygon points="375.51 136.52 375 137.13 125 137.13 124.49 136.52 375.51 136.52" style="fill:#263238"></polygon><polygon points="370.11 142.94 369.6 143.55 130.4 143.55 129.89 142.94 370.11 142.94" style="fill:#263238"></polygon><polygon points="364.71 149.36 364.19 149.97 135.81 149.97 135.29 149.36 364.71 149.36" style="fill:#263238"></polygon><polygon points="311.94 124.75 309.43 130.1 309.15 130.71 306.42 136.52 306.14 137.13 303.42 142.94 303.14 143.55 300.41 149.36 300.13 149.97 299.45 151.4 298.52 151.4 299.19 149.97 299.46 149.36 302.14 143.55 302.43 142.94 305.1 137.13 305.38 136.52 308.06 130.71 308.34 130.1 310.8 124.75 311.94 124.75" style="fill:#263238"></polygon><polygon points="299.86 124.75 297.79 130.1 297.55 130.71 295.3 136.52 295.07 137.13 292.82 142.94 292.59 143.55 290.34 149.36 290.11 149.97 289.55 151.4 288.63 151.4 289.17 149.97 289.39 149.36 291.6 143.55 291.83 142.94 294.03 137.13 294.26 136.52 296.46 130.71 296.7 130.1 298.72 124.75 299.86 124.75" style="fill:#263238"></polygon><polygon points="324.01 124.75 321.08 130.1 320.74 130.71 317.55 136.52 317.21 137.13 314.01 142.94 313.68 143.55 310.48 149.36 310.15 149.97 309.36 151.4 308.43 151.4 309.21 149.97 309.54 149.36 312.69 143.55 313.01 142.94 316.17 137.13 316.5 136.52 319.65 130.71 319.98 130.1 322.88 124.75 324.01 124.75" style="fill:#263238"></polygon><polygon points="336.11 124.75 332.73 130.1 332.35 130.71 328.68 136.52 328.29 137.13 324.62 142.94 324.23 143.55 320.56 149.36 320.18 149.97 319.27 151.4 318.34 151.4 319.24 149.97 319.62 149.36 323.24 143.55 323.62 142.94 327.25 137.13 327.63 136.52 331.26 130.71 331.64 130.1 334.97 124.75 336.11 124.75" style="fill:#263238"></polygon><polygon points="348.18 124.75 344.37 130.1 343.94 130.71 339.79 136.52 339.36 137.13 335.21 142.94 334.77 143.55 330.63 149.36 330.19 149.97 329.17 151.4 328.24 151.4 329.25 149.97 329.67 149.36 333.77 143.55 334.2 142.94 338.31 137.13 338.74 136.52 342.85 130.71 343.27 130.1 347.04 124.75 348.18 124.75" style="fill:#263238"></polygon><polygon points="360.26 124.75 356.02 130.1 355.53 130.71 350.91 136.52 350.42 137.13 345.81 142.94 345.32 143.55 340.7 149.36 340.21 149.97 339.07 151.4 338.13 151.4 339.26 149.97 339.75 149.36 344.33 143.55 344.8 142.94 349.38 137.13 349.85 136.52 354.43 130.71 354.92 130.1 359.12 124.75 360.26 124.75" style="fill:#263238"></polygon><polygon points="372.34 124.75 367.65 130.1 367.12 130.71 362.02 136.52 361.49 137.13 356.39 142.94 355.86 143.55 350.76 149.36 350.23 149.97 348.97 151.4 348.04 151.4 349.28 149.97 349.82 149.36 354.87 143.55 355.4 142.94 360.45 137.13 360.98 136.52 366.03 130.71 366.56 130.1 371.2 124.75 372.34 124.75" style="fill:#263238"></polygon><polygon points="384.42 124.75 379.3 130.1 378.71 130.71 373.14 136.52 372.55 137.13 366.99 142.94 366.4 143.55 360.83 149.36 360.24 149.97 358.88 151.4 357.95 151.4 359.3 149.97 359.88 149.36 365.41 143.55 365.99 142.94 371.52 137.13 372.1 136.52 377.62 130.71 378.2 130.1 383.29 124.75 384.42 124.75" style="fill:#263238"></polygon><polygon points="287.79 124.75 286.16 130.1 285.97 130.71 284.2 136.52 284.01 137.13 282.23 142.94 282.05 143.55 280.28 149.36 280.1 149.97 279.66 151.4 278.72 151.4 279.15 149.97 279.33 149.36 281.06 143.55 281.24 142.94 282.96 137.13 283.14 136.52 284.87 130.71 285.05 130.1 286.64 124.75 287.79 124.75" style="fill:#263238"></polygon><polygon points="275.71 124.75 274.51 130.1 274.37 130.71 273.08 136.52 272.94 137.13 271.64 142.94 271.51 143.55 270.21 149.36 270.08 149.97 269.75 151.4 268.81 151.4 269.13 149.97 269.25 149.36 270.5 143.55 270.64 142.94 271.89 137.13 272.02 136.52 273.28 130.71 273.41 130.1 274.56 124.75 275.71 124.75" style="fill:#263238"></polygon><polygon points="263.62 124.75 262.87 130.1 262.78 130.71 261.96 136.52 261.87 137.13 261.05 142.94 260.96 143.55 260.14 149.36 260.06 149.97 259.85 151.4 258.92 151.4 259.12 149.97 259.19 149.36 259.97 143.55 260.06 142.94 260.84 137.13 260.91 136.52 261.69 130.71 261.78 130.1 262.49 124.75 263.62 124.75" style="fill:#263238"></polygon><polygon points="251.55 124.75 251.22 130.1 251.19 130.71 250.84 136.52 250.81 137.13 250.46 142.94 250.42 143.55 250.07 149.36 250.03 149.97 249.94 151.4 249.02 151.4 249.09 149.97 249.13 149.36 249.43 143.55 249.46 142.94 249.76 137.13 249.79 136.52 250.09 130.71 250.13 130.1 250.41 124.75 251.55 124.75" style="fill:#263238"></polygon><polygon points="240.04 151.4 239.11 151.4 239.06 149.97 239.05 149.36 238.87 143.55 238.86 142.94 238.69 137.13 238.67 136.52 238.5 130.71 238.48 130.1 238.32 124.75 239.46 124.75 239.57 130.1 239.58 130.71 239.71 136.52 239.72 137.13 239.85 142.94 239.87 143.55 239.99 149.36 240 149.97 240.04 151.4" style="fill:#263238"></polygon><polygon points="230.13 151.4 229.2 151.4 229.04 149.97 228.97 149.36 228.33 143.55 228.26 142.94 227.62 137.13 227.55 136.52 226.9 130.71 226.84 130.1 226.24 124.75 227.38 124.75 227.93 130.1 228 130.71 228.59 136.52 228.65 137.13 229.26 142.94 229.31 143.55 229.92 149.36 229.98 149.97 230.13 151.4" style="fill:#263238"></polygon><polygon points="220.24 151.4 219.29 151.4 219.02 149.97 218.91 149.36 217.78 143.55 217.67 142.94 216.54 137.13 216.43 136.52 215.31 130.71 215.19 130.1 214.16 124.75 215.3 124.75 216.29 130.1 216.4 130.71 217.48 136.52 217.59 137.13 218.67 142.94 218.78 143.55 219.86 149.36 219.97 149.97 220.24 151.4" style="fill:#263238"></polygon><polygon points="210.33 151.4 209.4 151.4 209 149.97 208.84 149.36 207.24 143.55 207.07 142.94 205.48 137.13 205.31 136.52 203.72 130.71 203.55 130.1 202.08 124.75 203.23 124.75 204.65 130.1 204.81 130.71 206.36 136.52 206.52 137.13 208.08 142.94 208.24 143.55 209.79 149.36 209.95 149.97 210.33 151.4" style="fill:#263238"></polygon><polygon points="200.43 151.4 199.5 151.4 198.99 149.97 198.77 149.36 196.7 143.55 196.48 142.94 194.41 137.13 194.2 136.52 192.12 130.71 191.91 130.1 190.01 124.75 191.15 124.75 193.01 130.1 193.22 130.71 195.24 136.52 195.46 137.13 197.48 142.94 197.69 143.55 199.72 149.36 199.93 149.97 200.43 151.4" style="fill:#263238"></polygon><polygon points="190.53 151.4 189.6 151.4 188.97 149.97 188.71 149.36 186.16 143.55 185.89 142.94 183.35 137.13 183.08 136.52 180.54 130.71 180.27 130.1 177.93 124.75 179.06 124.75 181.36 130.1 181.63 130.71 184.13 136.52 184.38 137.13 186.89 142.94 187.15 143.55 189.65 149.36 189.91 149.97 190.53 151.4" style="fill:#263238"></polygon><polygon points="180.62 151.4 179.69 151.4 178.95 149.97 178.64 149.36 175.62 143.55 175.29 142.94 172.27 137.13 171.96 136.52 168.94 130.71 168.63 130.1 165.84 124.75 166.98 124.75 169.72 130.1 170.03 130.71 173.01 136.52 173.32 137.13 176.29 142.94 176.6 143.55 179.58 149.36 179.89 149.97 180.62 151.4" style="fill:#263238"></polygon><polygon points="170.72 151.4 169.79 151.4 168.92 149.97 168.55 149.36 165.06 143.55 164.69 142.94 161.2 137.13 160.83 136.52 157.34 130.71 156.97 130.1 153.75 124.75 154.89 124.75 158.08 130.1 158.44 130.71 161.88 136.52 162.25 137.13 165.69 142.94 166.05 143.55 169.51 149.36 169.87 149.97 170.72 151.4" style="fill:#263238"></polygon><polygon points="160.82 151.4 159.88 151.4 158.9 149.97 158.48 149.36 154.51 143.55 154.1 142.94 150.13 137.13 149.72 136.52 145.75 130.71 145.33 130.1 141.67 124.75 142.81 124.75 146.43 130.1 146.84 130.71 150.76 136.52 151.18 137.13 155.1 142.94 155.51 143.55 159.44 149.36 159.85 149.97 160.82 151.4" style="fill:#263238"></polygon><polygon points="150.91 151.4 149.98 151.4 148.89 149.97 148.43 149.36 143.98 143.55 143.52 142.94 139.06 137.13 138.61 136.52 134.15 130.71 133.69 130.1 129.6 124.75 130.73 124.75 134.79 130.1 135.24 130.71 139.64 136.52 140.11 137.13 144.5 142.94 144.97 143.55 149.37 149.36 149.83 149.97 150.91 151.4" style="fill:#263238"></polygon><polygon points="141.01 151.4 140.08 151.4 138.87 149.97 138.35 149.36 133.43 143.55 132.92 142.94 128 137.13 127.48 136.52 122.56 130.71 122.05 130.1 117.52 124.75 118.66 124.75 123.14 130.1 123.66 130.71 128.53 136.52 129.04 137.13 133.91 142.94 134.43 143.55 139.3 149.36 139.81 149.97 141.01 151.4" style="fill:#263238"></polygon><g style="opacity:0.30000000000000004"><path d="M391.35,120.84H108.65l-21,170.68,32.13-10.66H380.18l32.13,10.66Zm-5.94,3.91L363,151.4H137l-22.42-26.65ZM92.32,285.85l19.46-158.37L134.06,154,117.71,277.43Zm29.4-8.9,16.1-121.64H362.18L378.28,277ZM365.94,154h0l22.28-26.46,19.46,158.36-25.39-8.42Z" style="fill:#fff"></path><polygon points="363.07 162.13 136.93 162.13 137.05 161.18 362.95 161.18 363.07 162.13" style="fill:#fff"></polygon><polygon points="364.41 172.22 135.59 172.22 135.72 171.27 364.28 171.27 364.41 172.22" style="fill:#fff"></polygon><polygon points="365.74 182.31 134.26 182.31 134.38 181.36 365.62 181.36 365.74 182.31" style="fill:#fff"></polygon><polygon points="367.08 192.4 132.92 192.4 133.04 191.44 366.96 191.44 367.08 192.4" style="fill:#fff"></polygon><polygon points="368.42 202.48 131.58 202.48 131.71 201.53 368.29 201.53 368.42 202.48" style="fill:#fff"></polygon><polygon points="369.75 212.57 130.25 212.57 130.37 211.62 369.63 211.62 369.75 212.57" style="fill:#fff"></polygon><polygon points="371.09 222.65 128.91 222.65 129.03 221.7 370.97 221.7 371.09 222.65" style="fill:#fff"></polygon><polygon points="372.43 232.74 127.57 232.74 127.7 231.79 372.3 231.79 372.43 232.74" style="fill:#fff"></polygon><polygon points="373.76 242.84 126.24 242.84 126.36 241.88 373.64 241.88 373.76 242.84" style="fill:#fff"></polygon><polygon points="375.1 252.92 124.9 252.92 125.03 251.97 374.98 251.97 375.1 252.92" style="fill:#fff"></polygon><polygon points="376.44 263.01 123.56 263.01 123.7 262.06 376.3 262.06 376.44 263.01" style="fill:#fff"></polygon><polygon points="377.77 273.09 122.23 273.09 122.36 272.14 377.64 272.14 377.77 273.09" style="fill:#fff"></polygon><rect x="301.15" y="155.32" width="0.95" height="121.63" style="fill:#fff"></rect><rect x="291.07" y="155.32" width="0.95" height="121.63" style="fill:#fff"></rect><rect x="311.24" y="155.32" width="0.95" height="121.63" style="fill:#fff"></rect><rect x="321.33" y="155.32" width="0.95" height="121.63" style="fill:#fff"></rect><rect x="331.42" y="155.32" width="0.95" height="121.63" style="fill:#fff"></rect><rect x="341.51" y="155.32" width="0.95" height="121.63" style="fill:#fff"></rect><rect x="351.59" y="155.32" width="0.95" height="121.63" style="fill:#fff"></rect><polygon points="362.63 158.75 362.63 276.95 361.68 276.95 361.68 155.32 362.17 155.32 362.63 158.75" style="fill:#fff"></polygon><polygon points="372.71 234.92 372.71 276.95 371.76 276.95 371.76 227.75 372.3 231.79 372.43 232.74 372.71 234.92" style="fill:#fff"></polygon><rect x="280.98" y="155.32" width="0.95" height="121.63" style="fill:#fff"></rect><rect x="270.89" y="155.32" width="0.95" height="121.63" style="fill:#fff"></rect><rect x="260.81" y="155.32" width="0.95" height="121.63" style="fill:#fff"></rect><rect x="250.72" y="155.32" width="0.95" height="121.63" style="fill:#fff"></rect><rect x="240.63" y="155.32" width="0.95" height="121.63" style="fill:#fff"></rect><rect x="230.54" y="155.32" width="0.95" height="121.63" style="fill:#fff"></rect><rect x="220.45" y="155.32" width="0.95" height="121.63" style="fill:#fff"></rect><rect x="210.37" y="155.32" width="0.95" height="121.63" style="fill:#fff"></rect><rect x="200.28" y="155.32" width="0.95" height="121.63" style="fill:#fff"></rect><rect x="190.2" y="155.32" width="0.95" height="121.63" style="fill:#fff"></rect><rect x="180.11" y="155.32" width="0.95" height="121.63" style="fill:#fff"></rect><rect x="170.01" y="155.32" width="0.95" height="121.63" style="fill:#fff"></rect><rect x="159.93" y="155.32" width="0.95" height="121.63" style="fill:#fff"></rect><rect x="149.84" y="155.32" width="0.95" height="121.63" style="fill:#fff"></rect><rect x="139.76" y="155.32" width="0.95" height="121.63" style="fill:#fff"></rect><polygon points="130.62 209.75 130.62 276.95 129.67 276.95 129.67 216.93 130.25 212.57 130.37 211.62 130.62 209.75" style="fill:#fff"></polygon><polygon points="134.06 153.97 134.03 154.22 132.24 152.4 131.65 151.8 125.96 145.99 125.37 145.38 119.68 139.59 119.09 138.98 113.4 133.18 112.81 132.58 111.34 131.08 111.48 129.94 112.84 131.34 113.43 131.94 119.11 137.8 119.71 138.41 125.39 144.28 125.97 144.89 129.36 148.38 131.66 151.13 132.25 151.83 134.06 153.97" style="fill:#fff"></polygon><polygon points="132.86 163.04 132.74 163.96 132.05 163.35 131.46 162.82 125.76 157.71 125.16 157.19 119.46 152.09 118.87 151.56 113.17 146.46 112.58 145.92 109.82 143.46 109.96 142.29 112.6 144.67 113.19 145.21 118.89 150.38 119.48 150.91 125.18 156.08 125.78 156.62 131.48 161.79 132.07 162.33 132.86 163.04" style="fill:#fff"></polygon><polygon points="131.54 173 131.42 173.94 131.26 173.84 125.55 169.42 124.96 168.97 119.24 164.57 118.65 164.11 112.94 159.71 112.35 159.25 108.27 156.12 108.41 154.91 112.36 158 112.96 158.47 118.67 162.93 119.26 163.4 124.98 167.86 125.57 168.33 131.28 172.8 131.54 173" style="fill:#fff"></polygon><polygon points="130.18 183.21 130.06 184.19 125.34 181.14 124.75 180.76 119.02 177.06 118.42 176.67 112.71 172.97 112.11 172.58 106.68 169.07 106.83 167.84 112.13 171.33 112.73 171.73 118.45 175.49 119.04 175.88 124.77 179.65 125.36 180.04 130.18 183.21" style="fill:#fff"></polygon><polygon points="128.8 193.7 128.66 194.69 125.14 192.85 124.54 192.54 118.81 189.54 118.21 189.22 112.47 186.23 111.87 185.92 106.14 182.92 105.54 182.6 105.04 182.35 105.2 181.08 105.56 181.27 106.16 181.6 111.9 184.66 112.5 184.98 118.22 188.04 118.82 188.37 124.56 191.44 125.16 191.75 128.8 193.7" style="fill:#fff"></polygon><polygon points="127.37 204.47 127.24 205.49 124.93 204.57 124.33 204.32 118.59 202.03 117.99 201.79 112.24 199.49 111.64 199.24 105.89 196.94 105.29 196.71 103.37 195.94 103.53 194.65 105.32 195.38 105.92 195.62 111.66 197.99 112.26 198.24 118.01 200.6 118.61 200.85 124.35 203.22 124.95 203.47 127.37 204.47" style="fill:#fff"></polygon><polygon points="125.91 215.51 125.77 216.56 124.73 216.27 124.12 216.11 118.37 214.5 117.76 214.34 112 212.74 111.41 212.58 105.64 210.97 105.04 210.8 101.66 209.87 101.82 208.54 105.07 209.48 105.67 209.65 111.42 211.32 112.02 211.49 117.79 213.16 118.39 213.34 124.14 215 124.75 215.18 125.91 215.51" style="fill:#fff"></polygon><polygon points="124.41 226.86 124.27 227.95 123.92 227.9 118.14 226.99 117.54 226.9 111.78 226 111.17 225.9 105.39 225 104.8 224.91 99.91 224.14 100.08 222.79 104.81 223.58 105.42 223.68 111.2 224.65 111.8 224.75 117.56 225.71 118.17 225.82 123.94 226.78 124.41 226.86" style="fill:#fff"></polygon><polygon points="122.86 238.54 122.72 239.66 117.92 239.49 117.32 239.47 111.54 239.27 110.94 239.25 105.15 239.04 104.55 239.03 98.76 238.83 98.16 238.81 98.11 238.81 98.17 238.29 98.17 238.24 98.28 237.41 98.78 237.43 104.57 237.7 105.18 237.72 110.96 237.99 111.56 238.02 117.34 238.28 117.94 238.31 122.86 238.54" style="fill:#fff"></polygon><polygon points="121.27 250.54 121.12 251.68 117.7 251.97 117.1 252.03 111.3 252.52 110.7 252.58 104.9 253.07 104.29 253.13 98.5 253.62 97.9 253.68 96.27 253.82 96.44 252.39 97.92 252.28 98.52 252.24 104.32 251.8 104.92 251.75 110.72 251.32 111.33 251.28 117.12 250.85 117.72 250.8 121.27 250.54" style="fill:#fff"></polygon><polygon points="119.64 262.86 119.49 264.05 117.48 264.46 116.88 264.58 111.07 265.78 110.47 265.91 104.65 267.11 104.05 267.23 98.23 268.43 97.64 268.55 94.37 269.23 94.55 267.75 97.66 267.15 98.26 267.03 104.07 265.9 104.67 265.78 110.48 264.65 111.09 264.54 116.9 263.41 117.5 263.28 119.64 262.86" style="fill:#fff"></polygon><polygon points="117.96 275.55 117.8 276.77 117.27 276.95 116.66 277.14 110.84 279.04 110.23 279.24 104.41 281.14 103.8 281.34 97.98 283.24 97.38 283.43 92.43 285.04 92.61 283.53 97.4 282.02 98 281.83 103.82 280 104.43 279.81 110.26 277.98 110.86 277.79 116.68 275.96 117.28 275.76 117.96 275.55" style="fill:#fff"></polygon><polygon points="132.25 151.83 132.24 152.4 132.07 162.33 132.05 163.35 131.94 169.98 131.54 173 131.42 173.94 131.25 175.21 131.26 173.84 131.28 172.8 131.46 162.82 131.48 161.79 131.65 151.8 131.66 151.13 132.25 151.83" style="fill:#fff"></polygon><polygon points="125.4 143.67 125.98 144.38 125.97 144.89 125.96 145.99 125.78 156.62 125.76 157.71 125.57 168.33 125.55 169.42 125.36 180.04 125.34 181.14 125.16 191.75 125.14 192.85 124.95 203.47 124.93 204.57 124.75 215.18 124.73 216.27 124.56 225.7 124.41 226.86 124.27 227.95 123.87 230.95 123.92 227.9 123.94 226.78 124.12 216.11 124.14 215 124.33 204.32 124.35 203.22 124.54 192.54 124.56 191.44 124.75 180.76 124.77 179.65 124.96 168.97 124.98 167.86 125.16 157.19 125.18 156.08 125.37 145.38 125.39 144.28 125.4 143.67" style="fill:#fff"></polygon><polygon points="119.73 136.93 119.71 138.41 119.68 139.59 119.48 150.91 119.46 152.09 119.26 163.4 119.24 164.57 119.04 175.88 119.02 177.06 118.82 188.37 118.81 189.54 118.61 200.85 118.59 202.03 118.39 213.34 118.37 214.5 118.17 225.82 118.14 226.99 117.94 238.31 117.92 239.49 117.72 250.8 117.7 251.97 117.5 263.28 117.48 264.46 117.28 275.76 117.27 276.95 117.26 277.58 116.65 277.79 116.66 277.14 116.68 275.96 116.88 264.58 116.9 263.41 117.1 252.03 117.12 250.85 117.32 239.47 117.34 238.28 117.54 226.9 117.56 225.71 117.76 214.34 117.79 213.16 117.99 201.79 118.01 200.6 118.21 189.22 118.22 188.04 118.42 176.67 118.45 175.49 118.65 164.11 118.67 162.93 118.87 151.56 118.89 150.38 119.09 138.98 119.11 137.8 119.14 136.23 119.73 136.93" style="fill:#fff"></polygon><polygon points="113.47 129.49 113.43 131.94 113.4 133.18 113.19 145.21 113.17 146.46 112.96 158.47 112.94 159.71 112.73 171.73 112.71 172.97 112.5 184.98 112.47 186.23 112.26 198.24 112.24 199.49 112.02 211.49 112 212.74 111.8 224.75 111.78 226 111.56 238.02 111.54 239.27 111.33 251.28 111.3 252.52 111.09 264.54 111.07 265.78 110.86 277.79 110.84 279.04 110.83 279.72 110.22 279.92 110.23 279.24 110.26 277.98 110.47 265.91 110.48 264.65 110.7 252.58 110.72 251.32 110.94 239.25 110.96 237.99 111.17 225.9 111.2 224.65 111.41 212.58 111.42 211.32 111.64 199.24 111.66 197.99 111.87 185.92 111.9 184.66 112.11 172.58 112.13 171.33 112.35 159.25 112.36 158 112.58 145.92 112.6 144.67 112.81 132.58 112.84 131.34 112.88 128.78 113.47 129.49" style="fill:#fff"></polygon><polygon points="105.63 177.58 106.33 171.92 106.16 181.6 106.14 182.92 105.92 195.62 105.89 196.94 105.67 209.65 105.64 210.97 105.42 223.68 105.39 225 105.18 237.72 105.15 239.04 104.92 251.75 104.9 253.07 104.67 265.78 104.65 267.11 104.43 279.81 104.41 281.14 104.4 281.85 103.79 282.06 103.8 281.34 103.82 280 104.05 267.23 104.07 265.9 104.29 253.13 104.32 251.8 104.55 239.03 104.57 237.7 104.8 224.91 104.81 223.58 105.04 210.8 105.07 209.48 105.29 196.71 105.32 195.38 105.54 182.6 105.56 181.27 105.63 177.62 105.63 177.58" style="fill:#fff"></polygon><polygon points="98.87 232.69 98.78 237.43 98.76 238.83 98.52 252.24 98.5 253.62 98.26 267.03 98.23 268.43 98 281.83 97.98 283.24 97.96 283.99 97.36 284.19 97.38 283.43 97.4 282.02 97.64 268.55 97.66 267.15 97.9 253.68 97.92 252.28 98.16 238.81 98.17 238.29 98.17 238.24 98.28 237.41 98.87 232.69" style="fill:#fff"></polygon><polygon points="365.96 153.97 365.99 154.22 367.78 152.4 368.37 151.8 374.06 145.99 374.65 145.38 380.34 139.59 380.93 138.98 386.62 133.18 387.21 132.58 388.68 131.08 388.54 129.94 387.18 131.34 386.59 131.94 380.91 137.8 380.31 138.41 374.63 144.28 374.05 144.89 370.66 148.38 368.36 151.13 367.77 151.83 365.96 153.97" style="fill:#fff"></polygon><polygon points="367.16 163.04 367.28 163.96 367.97 163.35 368.56 162.82 374.26 157.71 374.86 157.19 380.56 152.09 381.15 151.56 386.85 146.46 387.44 145.92 390.2 143.46 390.06 142.29 387.42 144.67 386.83 145.21 381.13 150.38 380.54 150.91 374.84 156.08 374.25 156.62 368.54 161.79 367.95 162.33 367.16 163.04" style="fill:#fff"></polygon><polygon points="368.48 173 368.6 173.94 368.75 173.84 374.47 169.42 375.06 168.97 380.78 164.57 381.37 164.11 387.08 159.71 387.67 159.25 391.75 156.12 391.61 154.91 387.65 158 387.06 158.47 381.35 162.93 380.76 163.4 375.04 167.86 374.45 168.33 368.74 172.8 368.48 173" style="fill:#fff"></polygon><polygon points="369.84 183.21 369.96 184.19 374.68 181.14 375.27 180.76 381 177.06 381.6 176.67 387.31 172.97 387.91 172.58 393.34 169.07 393.19 167.84 387.89 171.33 387.29 171.73 381.57 175.49 380.98 175.88 375.25 179.65 374.66 180.04 369.84 183.21" style="fill:#fff"></polygon><polygon points="371.23 193.7 371.36 194.69 374.88 192.85 375.48 192.54 381.22 189.54 381.81 189.22 387.55 186.23 388.15 185.92 393.88 182.92 394.48 182.6 394.98 182.35 394.82 181.08 394.45 181.27 393.86 181.6 388.12 184.66 387.52 184.98 381.8 188.04 381.2 188.37 375.46 191.44 374.86 191.75 371.23 193.7" style="fill:#fff"></polygon><polygon points="372.65 204.47 372.78 205.49 375.09 204.57 375.69 204.32 381.43 202.03 382.03 201.79 387.78 199.49 388.38 199.24 394.13 196.94 394.73 196.71 396.65 195.94 396.49 194.65 394.7 195.38 394.1 195.62 388.36 197.99 387.76 198.24 382.01 200.6 381.42 200.85 375.67 203.22 375.07 203.47 372.65 204.47" style="fill:#fff"></polygon><polygon points="374.11 215.51 374.25 216.56 375.29 216.27 375.9 216.11 381.65 214.5 382.26 214.34 388.02 212.74 388.61 212.58 394.38 210.97 394.98 210.8 398.36 209.87 398.2 208.54 394.95 209.48 394.35 209.65 388.6 211.32 388 211.49 382.23 213.16 381.63 213.34 375.88 215 375.27 215.18 374.11 215.51" style="fill:#fff"></polygon><polygon points="375.61 226.86 375.75 227.95 376.1 227.9 381.88 226.99 382.48 226.9 388.24 226 388.85 225.9 394.63 225 395.22 224.91 400.12 224.14 399.94 222.79 395.2 223.58 394.6 223.68 388.82 224.65 388.23 224.75 382.46 225.71 381.85 225.82 376.08 226.78 375.61 226.86" style="fill:#fff"></polygon><polygon points="377.16 238.54 377.3 239.66 382.1 239.49 382.7 239.47 388.48 239.27 389.08 239.25 394.87 239.04 395.47 239.03 401.26 238.83 401.86 238.81 401.91 238.81 401.85 238.29 401.85 238.24 401.74 237.41 401.24 237.43 395.45 237.7 394.84 237.72 389.06 237.99 388.46 238.02 382.68 238.28 382.08 238.31 377.16 238.54" style="fill:#fff"></polygon><polygon points="378.75 250.54 378.9 251.68 382.32 251.97 382.92 252.03 388.72 252.52 389.32 252.58 395.12 253.07 395.73 253.13 401.52 253.62 402.12 253.68 403.75 253.82 403.58 252.39 402.1 252.28 401.5 252.24 395.7 251.8 395.1 251.75 389.3 251.32 388.69 251.28 382.9 250.85 382.3 250.8 378.75 250.54" style="fill:#fff"></polygon><polygon points="380.38 262.86 380.53 264.05 382.54 264.46 383.14 264.58 388.95 265.78 389.55 265.91 395.37 267.11 395.98 267.23 401.79 268.43 402.38 268.55 405.65 269.23 405.47 267.75 402.36 267.15 401.76 267.03 395.95 265.9 395.35 265.78 389.54 264.65 388.93 264.54 383.13 263.41 382.52 263.28 380.38 262.86" style="fill:#fff"></polygon><polygon points="382.06 275.55 382.22 276.77 382.75 276.95 383.36 277.14 389.18 279.04 389.79 279.24 395.61 281.14 396.22 281.34 402.04 283.24 402.64 283.43 407.59 285.04 407.41 283.53 402.62 282.02 402.02 281.83 396.2 280 395.6 279.81 389.76 277.98 389.16 277.79 383.34 275.96 382.74 275.76 382.06 275.55" style="fill:#fff"></polygon><polygon points="367.77 151.83 367.78 152.4 367.95 162.33 367.97 163.35 368.08 169.98 368.48 173 368.6 173.94 368.77 175.21 368.75 173.84 368.74 172.8 368.56 162.82 368.54 161.79 368.37 151.8 368.36 151.13 367.77 151.83" style="fill:#fff"></polygon><polygon points="374.63 143.67 374.04 144.38 374.05 144.89 374.06 145.99 374.25 156.62 374.26 157.71 374.45 168.33 374.47 169.42 374.66 180.04 374.68 181.14 374.86 191.75 374.88 192.85 375.07 203.47 375.09 204.57 375.27 215.18 375.29 216.27 375.46 225.7 375.61 226.86 375.75 227.95 376.15 230.95 376.1 227.9 376.08 226.78 375.9 216.11 375.88 215 375.69 204.32 375.67 203.22 375.48 192.54 375.46 191.44 375.27 180.76 375.25 179.65 375.06 168.97 375.04 167.86 374.86 157.19 374.84 156.08 374.65 145.38 374.63 144.28 374.63 143.67" style="fill:#fff"></polygon><polygon points="380.3 136.93 380.31 138.41 380.34 139.59 380.54 150.91 380.56 152.09 380.76 163.4 380.78 164.57 380.98 175.88 381 177.06 381.2 188.37 381.22 189.54 381.42 200.85 381.43 202.03 381.63 213.34 381.65 214.5 381.85 225.82 381.88 226.99 382.08 238.31 382.1 239.49 382.3 250.8 382.32 251.97 382.52 263.28 382.54 264.46 382.74 275.76 382.75 276.95 382.76 277.58 383.37 277.79 383.36 277.14 383.34 275.96 383.14 264.58 383.13 263.41 382.92 252.03 382.9 250.85 382.7 239.47 382.68 238.28 382.48 226.9 382.46 225.71 382.26 214.34 382.23 213.16 382.03 201.79 382.01 200.6 381.81 189.22 381.8 188.04 381.6 176.67 381.57 175.49 381.37 164.11 381.35 162.93 381.15 151.56 381.13 150.38 380.93 138.98 380.91 137.8 380.88 136.23 380.3 136.93" style="fill:#fff"></polygon><polygon points="386.55 129.49 386.59 131.94 386.62 133.18 386.83 145.21 386.85 146.46 387.06 158.47 387.08 159.71 387.29 171.73 387.31 172.97 387.52 184.98 387.55 186.23 387.76 198.24 387.78 199.49 388 211.49 388.02 212.74 388.23 224.75 388.24 226 388.46 238.02 388.48 239.27 388.69 251.28 388.72 252.52 388.93 264.54 388.95 265.78 389.16 277.79 389.18 279.04 389.19 279.72 389.8 279.92 389.79 279.24 389.76 277.98 389.55 265.91 389.54 264.65 389.32 252.58 389.3 251.32 389.08 239.25 389.06 237.99 388.85 225.9 388.82 224.65 388.61 212.58 388.6 211.32 388.38 199.24 388.36 197.99 388.15 185.92 388.12 184.66 387.91 172.58 387.89 171.33 387.67 159.25 387.65 158 387.44 145.92 387.42 144.67 387.21 132.58 387.18 131.34 387.14 128.78 386.55 129.49" style="fill:#fff"></polygon><polygon points="394.39 177.58 393.69 171.92 393.86 181.6 393.88 182.92 394.1 195.62 394.13 196.94 394.35 209.65 394.38 210.97 394.6 223.68 394.63 225 394.84 237.72 394.87 239.04 395.1 251.75 395.12 253.07 395.35 265.78 395.37 267.11 395.6 279.81 395.61 281.14 395.62 281.85 396.23 282.06 396.22 281.34 396.2 280 395.98 267.23 395.95 265.9 395.73 253.13 395.7 251.8 395.47 239.03 395.45 237.7 395.22 224.91 395.2 223.58 394.98 210.8 394.95 209.48 394.73 196.71 394.7 195.38 394.48 182.6 394.45 181.27 394.39 177.62 394.39 177.58" style="fill:#fff"></polygon><polygon points="401.15 232.69 401.24 237.43 401.26 238.83 401.5 252.24 401.52 253.62 401.76 267.03 401.79 268.43 402.02 281.83 402.04 283.24 402.06 283.99 402.66 284.19 402.64 283.43 402.62 282.02 402.38 268.55 402.36 267.15 402.12 253.68 402.1 252.28 401.86 238.81 401.85 238.29 401.85 238.24 401.74 237.41 401.15 232.69" style="fill:#fff"></polygon></g></g><g id="freepik--Character--inject-247"><path d="M224.4,419s83.15,29.32,122.07,14.74c15.14-5.67,26.38-24.46,18.08-39.8-7.75-14.32-51.94-27.31-64.61-35.38-4-2.53-4-13.23-4-13.23l-32.35.93s-12.27,18.08-7,26.79c.08.15,2.3,2.48,2.42,2.63l-16.25-4.27Z" style="fill:#ad6359"></path><path d="M337.69,375.57c-17.41.82-32.83,22.22-32.83,22.22-17-6-42.07-20.12-46.3-22.52h0c-.68-.73-1.95-2.07-2-2.18-5.26-8.71,7-26.79,7-26.79l32.35-.93s0,10.7,4,13.23C306.84,363,323.08,368.83,337.69,375.57Z" style="fill:#455a64"></path><path d="M258.16,374.61c2.29,1.2,4.48,2.62,6.7,3.93s4.4,2.56,6.64,3.76c4.52,2.44,9.14,4.7,13.81,6.84a231.59,231.59,0,0,0,29,11.07c5.52,1.68,11.1,3.32,16.76,4.47.13,0,.08.21-.05.19-4.12-.8-8.23-1.59-12.31-2.56,2.19,1.26,4.35,2.57,6.54,3.85a.1.1,0,0,1-.1.17c-2.39-1.3-4.8-2.55-7.17-3.89a.23.23,0,0,1-.07-.33c-.7-.17-1.4-.33-2.09-.51q-7.59-2-15-4.61a181,181,0,0,1-28.19-12.79c-2.54-1.43-5.05-2.9-7.54-4.43a68.5,68.5,0,0,1-7.18-4.86C257.77,374.77,258,374.51,258.16,374.61Z" style="fill:#263238"></path><path d="M167.54,437.15c-.1,2.9,8.21,3.38,11.59,1.36a78.66,78.66,0,0,0,7.69-6.88c8-7.69,19-18.91,19-18.91s27.64,10.13,50.77,15.53l12.69-46h0l-9.88-6.66c-13.18-4-33.94-10.21-35.88-10.88l-.53-.18c-13-4.39-23.81-7.67-24.86-6.86C195.28,359.85,167.63,434.22,167.54,437.15Z" style="fill:#FCFB00"></path><path d="M167.54,437.15c-.1,2.9,8.21,3.38,11.59,1.36a78.66,78.66,0,0,0,7.69-6.88c8-7.69,19-18.91,19-18.91s27.64,10.13,50.77,15.53l12.69-46h0l-9.88-6.66c-13.18-4-33.94-10.21-35.88-10.88l-.53-.18c-13-4.39-23.81-7.67-24.86-6.86C195.28,359.85,167.63,434.22,167.54,437.15Z" style="fill:#fff;opacity:0.4"></path><path d="M265.7,379.85l-13.14,47.43-2.91-.75,13.43-48.45Z" style="fill:#FCFB00"></path><path d="M260,376l-13.75,49.62c-1-.25-1.93-.52-2.89-.79l13.82-49.9,2.24.68Z" style="fill:#FCFB00"></path><polygon points="167.65 436.03 163.85 432.89 165.78 427.5 170.48 428.07 167.65 436.03" style="fill:#263238"></polygon><polygon points="171.89 424.66 168.09 421.53 170.02 416.14 174.72 416.7 171.89 424.66" style="fill:#263238"></polygon><polygon points="176.13 413.29 172.33 410.16 174.26 404.77 178.97 405.33 176.13 413.29" style="fill:#263238"></polygon><polygon points="180.37 401.92 176.57 398.79 178.5 393.4 183.21 393.97 180.37 401.92" style="fill:#263238"></polygon><polygon points="184.61 390.56 180.81 387.42 182.74 382.03 187.45 382.6 184.61 390.56" style="fill:#263238"></polygon><polygon points="188.85 379.19 185.06 376.06 186.98 370.67 191.69 371.23 188.85 379.19" style="fill:#263238"></polygon><polygon points="193.1 367.82 189.3 364.69 191.22 359.3 195.93 359.86 193.1 367.82" style="fill:#263238"></polygon><path d="M166.84,438.24c.06-3,27.26-79.05,30.14-81.29,1.08-.87,12.4,2.45,26,6.85l.42.14-17,49.28-.82-.31s-23.44,24.46-26.86,26.59S166.78,441.22,166.84,438.24Z" style="fill:#FCFB00"></path><path d="M170.1,438.44c4.9-12.71,23.47-64.45,27.35-77.39,0-.1,0-.13-.08,0-5.13,12.5-23.28,64.38-27.48,77.34C169.8,438.64,170,438.71,170.1,438.44Z" style="fill:#263238"></path><path d="M204.26,418.64c2.75-4.71,4.18-11.16,2-16.31-.08-.19-.36-.07-.37.11a75.49,75.49,0,0,1-2.22,15.95A.34.34,0,0,0,204.26,418.64Z" style="fill:#263238"></path><path d="M200.76,421.49c2.75-4.71,4.18-11.16,2-16.3-.09-.2-.37-.07-.38.11a75.49,75.49,0,0,1-2.22,15.95A.34.34,0,0,0,200.76,421.49Z" style="fill:#263238"></path><path d="M197.27,424.35c2.74-4.71,4.17-11.16,2-16.3-.09-.2-.37-.07-.38.11a75.29,75.29,0,0,1-2.21,15.94A.34.34,0,0,0,197.27,424.35Z" style="fill:#263238"></path><path d="M212.92,429.13c3.44-1,3.53-5.13,2.52-7.87a28.64,28.64,0,0,0-8.78-11.91.15.15,0,0,0-.23,0,.66.66,0,0,0-.91.57c0,4.72-.48,9.77,1,14.33C207.42,427,209.67,430.09,212.92,429.13Zm-5.86-12c-.08-2.32-.05-4.63-.22-6.95a84.81,84.81,0,0,1,5,7.07,30.34,30.34,0,0,1,1.93,3.71c.83,2,1.61,9-3.61,6.1C207.27,425.46,207.16,419.87,207.06,417.11Z" style="fill:#263238"></path><path d="M212.56,397c-3.26,3.53-4.88,8.34-6.89,12.61a.67.67,0,0,0,.6.9.13.13,0,0,0,.18.14,28.58,28.58,0,0,0,12.93-7.18c2.07-2.07,3.7-5.86,1-8.21C217.81,393,214.46,394.94,212.56,397Zm4.41-1c5.94-.44,2.33,5.59.75,7.05a30.12,30.12,0,0,1-3.3,2.57c-2.38,1.66-4.95,2.95-7.47,4.36,1.12-2,2.05-4.15,3.09-6.23C211.28,401.28,213.7,396.25,217,396Z" style="fill:#263238"></path><path d="M166.85,438.24c-.07,3,8.41,3.37,11.82,1.25s26.86-26.58,26.86-26.58l.83.31,13.44-39L190,372.85C181.05,395.92,166.88,436.1,166.85,438.24Z" style="opacity:0.1"></path><path d="M284.78,345.62l-55.63,1.51s-10.52,30.5-5.26,39.22,57,19.31,57,19.31L208.54,384l-18.27,47.47s78.58,29.08,129.53,13.82c16.42-4.91,26.72-25.16,16-41.84-11.26-17.54-50.39-40.55-50.39-40.55Z" style="fill:#ad6359"></path><path d="M229.15,347.13s-14.1,37.36-1.92,42.46,46.13,16.14,46.13,16.14,16.2-19.57,45.58-20.74l-33.52-22.1-.64-17.27Z" style="fill:#455a64"></path><path d="M278.35,400.87c-.59.5-1.12,1-1.6,1.41-8.12-4.51-16.75-6.95-24.5-9.15-9-2.56-16.83-4.77-21.17-9.51-3-3.32-3.07-11.43-.1-24.12,1.1-4.71,2.42-9.21,3.47-12.51l2.1-.06c-3.56,11.09-8.49,30.43-4,35.34,3.95,4.32,11.5,6.46,20.23,8.94C260.86,393.5,269.85,396,278.35,400.87Z" style="fill:#FCFB00"></path><path d="M268.87,391.88l.69-1.35,1-.92,5.09,3.57.42-.4,1.36,1L275.05,396l-1.36-1,.48-.45-3.73-2.62-.63.6Z" style="fill:#FCFB00"></path><path d="M277.83,388a8.84,8.84,0,0,1,1.42,1.2,3.34,3.34,0,0,1,.68,1.06,1.49,1.49,0,0,1,0,.93,2,2,0,0,1-.55.83,2.61,2.61,0,0,1-.91.56,2.34,2.34,0,0,1-1.13.12,4.94,4.94,0,0,1-1.39-.38,9.8,9.8,0,0,1-1.67-1,8.24,8.24,0,0,1-1.41-1.2,3.22,3.22,0,0,1-.69-1.06,1.52,1.52,0,0,1,0-.94,2.08,2.08,0,0,1,.55-.82,2.5,2.5,0,0,1,.91-.57,2.61,2.61,0,0,1,1.13-.12,5,5,0,0,1,1.39.4A10,10,0,0,1,277.83,388Zm.1,3a.3.3,0,0,0,.11-.34.92.92,0,0,0-.38-.41l-2.5-1.76a1.33,1.33,0,0,0-.56-.25.52.52,0,0,0-.4.15.31.31,0,0,0-.1.34.92.92,0,0,0,.38.41l2.5,1.76a1.19,1.19,0,0,0,.55.24A.46.46,0,0,0,277.93,391Z" style="fill:#FCFB00"></path><path d="M227,389.33c20.59,7.39,25.29,7.89,50.85,17,3.1,1.1,6.27,2,9.42,3s6.51,2.2,9.83,3a.13.13,0,0,1-.07.25c-2.87-.95-5.85-1.58-8.76-2.4s-5.71-1.62-8.54-2.47c-1.23-.37-2.45-.76-3.67-1.14l.75.47c1.14.7,2.28,1.4,3.4,2.12,2.32,1.48,4.49,3.27,6.91,4.58.15.08,0,.32-.13.23-2.31-1.5-4.89-2.59-7.26-4-1.15-.69-2.27-1.4-3.4-2.13a22.75,22.75,0,0,1-3-2.11c-3.6-1.12-7.18-2.26-10.76-3.45-11.25-3.76-29.82-10-35.85-12.74C226.43,389.4,226.69,389.21,227,389.33Z" style="fill:#263238"></path><path d="M286.45,363.43a154.1,154.1,0,0,1,18.05,10.92c5.75,3.89,11.34,8,16.68,12.48q4.05,3.36,7.84,7a55.84,55.84,0,0,1,6.72,7.45,27.11,27.11,0,0,1,5.33,16.76,29.09,29.09,0,0,1-1.82,9.37,34.15,34.15,0,0,1-4.81,8.17c-.08.1-.23,0-.14-.14a21.91,21.91,0,0,0,4-7.79,28.67,28.67,0,0,0-3.21-24.38c-3.65-5.52-8.86-10-13.82-14.31a199.14,199.14,0,0,0-16-12.51c-3.11-2.2-6.27-4.32-9.46-6.4s-6.44-4.08-9.56-6.27A.21.21,0,0,1,286.45,363.43Z" style="fill:#263238"></path><path d="M270.38,366.35A65.35,65.35,0,0,1,284.47,363c4.72-.73,9.45-1.18,14.22-1.45.12,0,.12.18,0,.19-4.81.63-9.61,1.44-14.37,2.37s-9.21,2.09-13.87,2.66C270.18,366.84,270.16,366.44,270.38,366.35Z" style="fill:#263238"></path><path d="M133.36,449.7c-.09,2.9,8.22,3.38,11.59,1.37a80.76,80.76,0,0,0,7.69-6.89c8-7.68,19-18.91,19-18.91s32,11.1,49.52,15.54l14.24-48.55s-43.2-14-46.06-15l-.53-.18c-13-4.39-23.81-7.67-24.87-6.86C161.11,372.4,133.46,446.77,133.36,449.7Z" style="fill:#FCFB00"></path><path d="M133.36,449.7c-.09,2.9,8.22,3.38,11.59,1.37a80.76,80.76,0,0,0,7.69-6.89c8-7.68,19-18.91,19-18.91s32,11.1,49.52,15.54l14.24-48.55s-43.2-14-46.06-15l-.53-.18c-13-4.39-23.81-7.67-24.87-6.86C161.11,372.4,133.46,446.77,133.36,449.7Z" style="fill:#fff;opacity:0.7000000000000001"></path><path d="M231.27,390.92l-14.93,48.61-2.88-.82,15-48.71Z" style="fill:#FCFB00"></path><path d="M225.05,388.9l-15,48.82-2.87-.86,15-48.89Z" style="fill:#FCFB00"></path><polygon points="133.31 448.91 129.54 445.74 131.52 440.37 136.22 440.98 133.31 448.91" style="fill:#263238"></polygon><polygon points="137.66 437.58 133.89 434.41 135.87 429.04 140.57 429.65 137.66 437.58" style="fill:#263238"></polygon><polygon points="142.01 426.25 138.24 423.08 140.22 417.71 144.92 418.32 142.01 426.25" style="fill:#263238"></polygon><polygon points="146.36 414.93 142.59 411.76 144.57 406.39 149.27 407 146.36 414.93" style="fill:#263238"></polygon><polygon points="150.71 403.6 146.94 400.43 148.92 395.06 153.62 395.67 150.71 403.6" style="fill:#263238"></polygon><polygon points="155.06 392.27 151.29 389.1 153.27 383.73 157.97 384.34 155.06 392.27" style="fill:#263238"></polygon><polygon points="159.41 380.95 155.64 377.78 157.62 372.41 162.32 373.01 159.41 380.95" style="fill:#263238"></polygon><path d="M132.64,450.38c.09-3,28.34-78.67,31.25-80.87,1.09-.85,12.36,2.62,25.86,7.21l.42.15-17.68,49-.82-.33s-23.78,24.14-27.23,26.22S132.53,453.36,132.64,450.38Z" style="fill:#FCFB00"></path><path d="M135.89,450.62c5.08-12.64,24.36-64.12,28.41-77,0-.1,0-.13-.08,0-5.3,12.42-24.16,64.05-28.54,77C135.59,450.82,135.78,450.89,135.89,450.62Z" style="fill:#263238"></path><path d="M170.32,431.29c2.81-4.67,4.33-11.1,2.19-16.27-.09-.2-.37-.08-.38.1A75.33,75.33,0,0,1,169.69,431,.34.34,0,0,0,170.32,431.29Z" style="fill:#263238"></path><path d="M166.78,434.1c2.81-4.67,4.34-11.1,2.19-16.27-.08-.2-.37-.08-.38.1a75.13,75.13,0,0,1-2.43,15.91A.34.34,0,0,0,166.78,434.1Z" style="fill:#263238"></path><path d="M163.25,436.91c2.81-4.67,4.33-11.1,2.18-16.27-.08-.2-.36-.08-.37.1a75.14,75.14,0,0,1-2.44,15.91A.35.35,0,0,0,163.25,436.91Z" style="fill:#263238"></path><path d="M178.84,441.91c3.45-1,3.6-5.09,2.62-7.84a28.59,28.59,0,0,0-8.62-12,.14.14,0,0,0-.22,0,.66.66,0,0,0-.92.55c0,4.72-.61,9.77.82,14.35C173.36,439.67,175.57,442.82,178.84,441.91Zm-5.7-12.11c0-2.32,0-4.63-.12-6.95,1.67,2.35,3.44,4.62,4.88,7.14a32.54,32.54,0,0,1,1.88,3.73c.8,2,1.49,9-3.69,6.06C173.23,438.15,173.2,432.57,173.14,429.8Z" style="fill:#263238"></path><path d="M178.92,409.77c-3.31,3.48-5,8.27-7.07,12.51a.66.66,0,0,0,.59.9.14.14,0,0,0,.18.15,28.64,28.64,0,0,0,13-7c2.09-2,3.78-5.81,1.1-8.2C184.22,405.88,180.85,407.74,178.92,409.77Zm4.42-.93c5.95-.36,2.25,5.62.65,7.06a31.74,31.74,0,0,1-3.34,2.52,85.49,85.49,0,0,1-7.52,4.26c1.15-2,2.11-4.13,3.18-6.19C177.58,414,180.07,409,183.34,408.84Z" style="fill:#263238"></path><path d="M301.24,295.31c12.88,6.67,42.63,26.25,54,21.35s2.47-18.42-5.75-24c-6.78-4.58-32.69-7.28-44.68-9.57C293.4,280.94,284.66,286.72,301.24,295.31Z" style="fill:#ad6359"></path><path d="M315.92,305.5,331.57,286s-27-5.28-35.39-4.59c-9.43.77-7,5.43-.16,11.3S315.92,305.5,315.92,305.5Z" style="fill:#FCFB00"></path><path d="M313,302.36c.44-.76,5.27-6.88,6.35-8.19s5.43-6.7,6.65-8c.06-.06.15,0,.1.07-1,1.46-5.33,6.91-6.41,8.27s-6,7.31-6.61,7.89C313,302.49,313,302.41,313,302.36Z" style="fill:#263238"></path><path d="M320.5,299.78l-4.58,5.72s-13.09-6.93-19.9-12.81c-5.87-5.06-8.51-9.22-3.08-10.76Z" style="opacity:0.1"></path><path d="M345.44,314.33c7.35,6.83,15.47.84,15.7-6.16.53-16.43-11.25-43.27-20.48-56.51-2.74-3.93-26.81,7.81-24.74,12.48C318.81,270.68,330.52,300.5,345.44,314.33Z" style="fill:#ad6359"></path><path d="M336.49,303.87a65.83,65.83,0,0,1-4.09-5.17c-1.3-1.77-2.51-3.62-3.68-5.49s-2.24-3.79-3.23-5.77a52.9,52.9,0,0,1-2.64-6.08c.58.95,1.07,1.93,1.65,2.86s1.08,1.91,1.64,2.85c1.14,1.87,2.24,3.76,3.41,5.62Z" style="fill:#263238"></path><path d="M342.1,257.14c-.22-1.77-.87-16.78-4.61-23.67-2-3.65-8.57-13.06-10.94-12.14-2.16.85-1,3.88-1,3.88s-3-4.16-6-3-.76,6.22-.76,6.22-3.39-4-6.29-2.62.19,6.07.19,6.07-2.92-3.84-4.82-1.66c-2.28,2.62,3.91,9.09,5.36,13.45.33,1,5.23,20.56,5.23,20.56Z" style="fill:#ad6359"></path><path d="M312.62,232.09c4.55,4.78,5.71,7.65,7,14,0,.12.22.11.2,0-.68-6.34-1.62-10.15-7-14.22C312.58,231.66,312.41,231.87,312.62,232.09Z" style="fill:#263238"></path><path d="M318.7,228.63c4.28,5.37,5.57,8.47,7.39,15,0,.09.19.05.17,0C325,237,324,233.26,319,228.46,318.78,228.24,318.5,228.39,318.7,228.63Z" style="fill:#263238"></path><path d="M325.64,225.52c3.77,5.5,5.33,8.84,6.28,15.44a.12.12,0,1,0,.24,0c-.31-6.82-2.23-11-6.34-15.51C325.53,225.12,325.4,225.18,325.64,225.52Z" style="fill:#263238"></path><path d="M322.6,270.09s-7.19-4.06-10-6.54-9.67-15.5-6.95-17.15c3.53-2.14,9,4.6,11.24,8.25,0,0,8.15-4.94,13.12-1S322.6,270.09,322.6,270.09Z" style="fill:#ad6359"></path><path d="M306.86,246.13c4.62.37,7.26,5.35,9.71,8.73a.38.38,0,0,0,.62,0c3.55-1.85,9.1-3.41,12.84-1.45a.1.1,0,0,0,.11-.16c-3.73-2.65-9.3-1.56-13.07.71-2.45-3.5-5.32-8.38-10.2-7.9C306.84,246.09,306.83,246.13,306.86,246.13Z" style="fill:#263238"></path><path d="M227.23,348.84c2,1.75,75.55,11.53,75.55,11.53L305,334.32s7-5.62,8.32-13.41c1.75-10.4-8.82-33.42-9.78-34.92-3.88-6-9-8.22-14.63-7.81C265.66,279.92,227.23,348.84,227.23,348.84Z" style="fill:#FCFB00"></path><path d="M294,326.31a72.77,72.77,0,0,0-10.85.13c-1.79.18-3.56.44-5.34.74-.88.15-1.77.27-2.66.38a11.41,11.41,0,0,1-2.8.1.07.07,0,0,0,0,.13,19.53,19.53,0,0,0,2.63.35,18.49,18.49,0,0,0,2.58-.09c1.82-.17,3.63-.41,5.44-.6,3.67-.37,7.33-.74,11-.84A.15.15,0,0,0,294,326.31Z" style="fill:#263238"></path><path d="M302.37,330.81a79.8,79.8,0,0,0-8.78-1.77c-1.48-.21-3-.33-4.45-.41-.72,0-1.43-.07-2.14-.08s-1.58.06-2.36,0c-.08,0-.1.12,0,.13.74.05,1.47.23,2.21.32l2.21.28c1.48.19,3,.39,4.44.56,3,.35,5.91.73,8.85,1.18C302.49,331.08,302.52,330.85,302.37,330.81Z" style="fill:#263238"></path><path d="M285.51,299.93l3.77-1.09,3.12.34-2,17.87,1.36.15-.53,4.77-7.6-.84.53-4.77,1.55.17,1.44-13.09-2-.23Z" style="fill:#455a64"></path><path d="M304.42,312a31.9,31.9,0,0,1-1,5.38,12.78,12.78,0,0,1-1.55,3.5,5,5,0,0,1-2,1.84,4.55,4.55,0,0,1-2.44.38,4.61,4.61,0,0,1-2.3-.9,5.16,5.16,0,0,1-1.56-2.24,12.77,12.77,0,0,1-.75-3.75,31.35,31.35,0,0,1,.2-5.47,30.29,30.29,0,0,1,1-5.36,12.6,12.6,0,0,1,1.54-3.51,5.1,5.1,0,0,1,2-1.84,4.48,4.48,0,0,1,2.44-.38,4.4,4.4,0,0,1,2.3.9,5,5,0,0,1,1.56,2.23,12.92,12.92,0,0,1,.75,3.76A32,32,0,0,1,304.42,312ZM298,317.88a.89.89,0,0,0,.88-.42,3.64,3.64,0,0,0,.46-1.61l1-8.79a3.67,3.67,0,0,0-.1-1.68.91.91,0,0,0-.77-.6.89.89,0,0,0-.88.42,3.79,3.79,0,0,0-.46,1.62l-1,8.78a3.56,3.56,0,0,0,.09,1.68A.89.89,0,0,0,298,317.88Z" style="fill:#455a64"></path><path d="M278.62,291.05c-14.51.1-49.9,4.07-57.81-5.45s6.15-17.54,16-18.77c8.12-1,32.44,8.34,44.16,11.73C292.12,281.79,297.28,290.91,278.62,291.05Z" style="fill:#ad6359"></path><path d="M260.91,293.48l-5.1-24.5s26.47,7.54,33.62,11.95c8.06,5,3.76,8-5,10.15S260.91,293.48,260.91,293.48Z" style="fill:#FCFB00"></path><path d="M264.94,292c-.05-.87-1.58-8.52-1.95-10.17s-1.8-8.44-2.32-10.12c0-.07-.14-.06-.13,0,.2,1.74,1.63,8.58,2,10.28s2,9.23,2.32,10C264.85,292.11,264.94,292.06,264.94,292Z" style="fill:#263238"></path><path d="M260.25,290.31c.31,1,.6,2.08.86,3.13l-.22-.17c2-.21,3.92-.43,5.89-.59s3.92-.39,5.89-.54l5.89-.51c2-.17,3.93-.33,5.89-.55a57.43,57.43,0,0,1-5.83,1.06c-2,.3-3.92.5-5.88.71s-3.94.36-5.9.5-3.94.26-5.92.34h-.19l0-.18C260.52,292.46,260.38,291.39,260.25,290.31Z" style="fill:#263238"></path><path d="M279.44,291.86a10.15,10.15,0,0,1,2.14.07,10.86,10.86,0,0,1,2.08.44,6.47,6.47,0,0,1-2.15.05A7.32,7.32,0,0,1,279.44,291.86Z" style="fill:#263238"></path><path d="M288.1,280.31c-.06,1.32,3.64,11,9.39,12.33,1.88.42,4.64-9.7,4.64-9.7l.37-.71,5.24-9.81-11.6-12.83S288.13,279.75,288.1,280.31Z" style="fill:#ad6359"></path><path d="M307.74,272.41l-5.24,9.82a22.37,22.37,0,0,1-9.08-15.75c1.37-3.5,2.53-6.4,2.69-6.83a.28.28,0,0,0,0-.06l1.49,1.54Z" style="fill:#263238"></path><path d="M297.36,262.46c-3.26-2.32-10.44-4.92-15.56-.85-11,8.72-1.11,26.75-4.74,42.77-4.39,19.34.84,31.72,11,29.43,11.38-2.57,16.29-18.1,4.9-41.2-7.11-14.45-6-22.91-2.78-23.9a12.15,12.15,0,0,1,6.38,0Z" style="fill:#263238"></path><path d="M289.23,284.55c1,2.37,2.2,4.62,3.33,6.9s2.33,4.54,3.42,6.84,2.1,4.62,2.94,7a38.62,38.62,0,0,1,1.9,7.3,19.6,19.6,0,0,1-.19,7.44,22.06,22.06,0,0,1-3.11,6.87,16.81,16.81,0,0,1-5.57,5.17,15.73,15.73,0,0,1-3.57,1.48,13.57,13.57,0,0,1-1.9.37,7,7,0,0,1-1.94,0,9.91,9.91,0,0,0,3.91-.11,16,16,0,0,0,3.77-1.27,16.65,16.65,0,0,0,6.06-5.16,20.12,20.12,0,0,0,2.05-3.42l.42-.9.37-.92a15.76,15.76,0,0,0,.62-1.91,20.33,20.33,0,0,0,.26-7.88,48.3,48.3,0,0,0-5.18-14.53c-1.17-2.28-2.45-4.5-3.74-6.7S290.44,286.8,289.23,284.55Z" style="fill:#263238"></path><path d="M295.91,261.61a21.29,21.29,0,0,0-4.91-2,11.53,11.53,0,0,0-9.83,2,15,15,0,0,0-1.88,1.77,12.76,12.76,0,0,0-1.55,2,14.93,14.93,0,0,0-1.67,4.82,24.26,24.26,0,0,0-.23,5.19c.15,3.5.72,7,1.16,10.57a71.32,71.32,0,0,1,.64,10.76,69,69,0,0,1-1.45,10.67A82.34,82.34,0,0,0,274.51,318a21.13,21.13,0,0,0,.2,5.27l.26,1.3c.12.42.27.84.4,1.26l.2.63.28.61.56,1.21a18,18,0,0,1-2.58-10.31,80.46,80.46,0,0,1,1.3-10.65,78.4,78.4,0,0,0,1.18-10.52,70.67,70.67,0,0,0-.71-10.55c-.4-3.53-1-7.06-1.09-10.69a26.43,26.43,0,0,1,.35-5.46,15,15,0,0,1,2-5.16,13.41,13.41,0,0,1,1.74-2.15,14.91,14.91,0,0,1,2.08-1.81,11.61,11.61,0,0,1,10.45-1.69A18.87,18.87,0,0,1,295.91,261.61Z" style="fill:#263238"></path><path d="M300.82,261.55c-1-.78-2.92-1-3.59-.46s-2.15,7.11-1.18,8.48,3.73-.05,3.73-.05Z" style="fill:#FCFB00"></path><path d="M325.83,258.87c-3.25,19.26-15.15,19.48-19.3,18.77-3.77-.64-16.52-3.3-15.27-22.79s11.23-24.06,19.92-23S329.09,239.62,325.83,258.87Z" style="fill:#ad6359"></path><path d="M319.11,237.89a8.71,8.71,0,0,1-1.84,4.78c-3.39,3.53-8.07.76-10.35,1.84s-2.63,4.43-4.61,5.5c-2.74,1.48-5.22-.27-6,1.07s-3.3,5.63-5.34,5.61-.37-33.49,23.45-24.56c0,0,3.76-.25,8,4,4.73,4.73,4.11,14.87,4.11,14.87s-.08-.16-.66-1.17c-.83-1.41-1-2.51-1.6-3.45-1-1.49-1.86-1.34-2.92-2.82A16.67,16.67,0,0,1,319.11,237.89Z" style="fill:#263238"></path><path d="M319.18,236.43a17.12,17.12,0,0,1-.51,3.92,7.14,7.14,0,0,1-1.7,3.42,5.27,5.27,0,0,1-3.49,1.24c-1.28,0-2.59-.25-4-.17a4,4,0,0,0-2,.68,5.45,5.45,0,0,0-1.32,1.62,7,7,0,0,1-2.44,2.9,4.41,4.41,0,0,1-3.69.29c-1.21-.4-2.45-1.18-3.81-1,1.37,0,2.47.81,3.71,1.33a4.77,4.77,0,0,0,4-.15,7.12,7.12,0,0,0,2.71-3,4.55,4.55,0,0,1,1.19-1.43,3.36,3.36,0,0,1,1.71-.54c1.26-.1,2.59.17,4,.11a6.68,6.68,0,0,0,2-.37,4.14,4.14,0,0,0,1.78-1.1,7.42,7.42,0,0,0,1.66-3.69A17.22,17.22,0,0,0,319.18,236.43Z" style="fill:#263238"></path><path d="M319.28,237.68a13.65,13.65,0,0,0,.07,3.72,6.55,6.55,0,0,0,1.54,3.46,9.87,9.87,0,0,0,1.46,1.2,3,3,0,0,1,1,1.3,9.62,9.62,0,0,0,.58,1.77,4.18,4.18,0,0,0,1.24,1.4,4.49,4.49,0,0,1-1-1.53,10.22,10.22,0,0,1-.39-1.77,3.25,3.25,0,0,0-1.11-1.63,10.06,10.06,0,0,1-1.37-1.16,7,7,0,0,1-1.5-3.14A27,27,0,0,1,319.28,237.68Z" style="fill:#263238"></path><path d="M294.06,256.85s-2.59-7-5.65-6.2-2.17,10.14.66,12.12a3.3,3.3,0,0,0,4.73-.6Z" style="fill:#ad6359"></path><path d="M288.73,253.33c-.05,0-.08,0,0,.08,2,1.46,2.61,3.81,2.87,6.14a1.82,1.82,0,0,0-2.52-1.17c-.07,0,0,.13,0,.13a2,2,0,0,1,2,1.25,10.14,10.14,0,0,1,.58,2c.05.22.43.21.42,0v-.06C292.84,258.89,291.68,254.4,288.73,253.33Z" style="fill:#263238"></path><path d="M323.07,255a12.26,12.26,0,0,0-1.14-.73,2.11,2.11,0,0,0-1.3-.52.67.67,0,0,0-.59.6,1.7,1.7,0,0,0,.92,1.48,2.48,2.48,0,0,0,1.76.48A.74.74,0,0,0,323.07,255Z" style="fill:#263238"></path><path d="M309.61,252.19c.43-.15.86-.21,1.31-.32a2.17,2.17,0,0,1,1.4-.06.69.69,0,0,1,.36.77,1.71,1.71,0,0,1-1.36,1.09,2.49,2.49,0,0,1-1.82-.13A.74.74,0,0,1,309.61,252.19Z" style="fill:#263238"></path><path d="M308.35,268.58c.22.39.41.88.87,1.05a3.46,3.46,0,0,0,1.47.07,0,0,0,0,1,0,.08,1.79,1.79,0,0,1-1.82.24,1.42,1.42,0,0,1-.69-1.42C308.21,268.52,308.32,268.52,308.35,268.58Z" style="fill:#263238"></path><path d="M315.83,264.59s-.16,2-.36,2.92a19.25,19.25,0,0,0-5.46-.39c-.43.05-.36-.29.16-.46a7.92,7.92,0,0,1,4.69-.12c.12-.24.18-3.09.33-3.07a8.55,8.55,0,0,1,2,.93c.44-4.16.22-8.36.72-12.5a.13.13,0,0,1,.26,0,68.27,68.27,0,0,1-.21,13.49C317.9,265.93,316.16,264.83,315.83,264.59Z" style="fill:#263238"></path><path d="M313.22,267.15s-1.36,2-2.79,1.91c-1.63-.12-1.72-2.15.21-2.57A5,5,0,0,1,313.22,267.15Z" style="fill:#263238"></path><path d="M312.28,268.22a2.74,2.74,0,0,1-1.85.84,1.17,1.17,0,0,1-1.22-1.27h0s0,0,0,0C311,267.22,311.89,267.67,312.28,268.22Z" style="fill:#ff99ba"></path><path d="M309.15,258a1.32,1.32,0,0,1-.41.17.84.84,0,0,1-.68-.13c-.62-.42-.54-1.25-.22-1.94,0,0,.07-.07.08,0,.09.49.21,1,.63,1.16a1.55,1.55,0,0,0,.91-.11A3.93,3.93,0,0,0,309.15,258Z" style="fill:#263238"></path><path d="M311.55,259.51a2,2,0,0,1-.63.81,1.42,1.42,0,0,1-1.1.2,1.23,1.23,0,0,1-.85-.75,2.2,2.2,0,0,1-.13-1c0-.2.06-.4.1-.6a2.86,2.86,0,0,1,.56-1.13,4.19,4.19,0,0,0-.17.9,5.82,5.82,0,0,0,0,.83c0,.57.24,1.08.66,1.16a1.1,1.1,0,0,0,1.16-.65,9,9,0,0,0,.74-1.59A4,4,0,0,1,311.55,259.51Z" style="fill:#263238"></path><path d="M321.63,260.22a1.35,1.35,0,0,0,.31.32.85.85,0,0,0,.68.17c.73-.14,1-.93,1-1.69,0-.06,0-.09-.06,0-.28.41-.61.84-1,.8a1.53,1.53,0,0,1-.79-.46A3.9,3.9,0,0,1,321.63,260.22Z" style="fill:#263238"></path><path d="M318.82,260.64a2.06,2.06,0,0,0,.25,1,1.42,1.42,0,0,0,.93.63,1.25,1.25,0,0,0,1.07-.34,2.19,2.19,0,0,0,.53-.86,4.39,4.39,0,0,0,.15-.6,2.77,2.77,0,0,0-.05-1.25,4.28,4.28,0,0,1-.21.89,6.56,6.56,0,0,1-.32.77c-.27.49-.65.88-1.07.78s-.72-.49-.8-1.05a9.44,9.44,0,0,1,0-1.77A4,4,0,0,0,318.82,260.64Z" style="fill:#263238"></path><path d="M320,272.8a16.63,16.63,0,0,0,1.56-2.42,24.6,24.6,0,0,0,1.26-2.58,41.11,41.11,0,0,0,1.86-5.41,56,56,0,0,0,1.17-5.62c.16-.95.25-1.9.38-2.86s.18-1.92.3-2.88c.05,1,.05,1.94.07,2.91s-.08,1.93-.18,2.9a35,35,0,0,1-1,5.74,28.86,28.86,0,0,1-2.06,5.47A17.42,17.42,0,0,1,320,272.8Z" style="fill:#263238"></path><path d="M229.51,287.82c-9.88,1.71-13.42-7.73-9.8-13.73,8.52-14.06,37.18-32,52.14-38,4.44-1.8,12.58,24.92,8.3,27.71C274.16,267.68,249.56,284.35,229.51,287.82Z" style="fill:#ad6359"></path><path d="M242.72,283.93c2.12-.58,4.19-1.32,6.25-2.1s4.07-1.67,6.07-2.6,4-2,5.86-3.08a51.74,51.74,0,0,0,5.52-3.66c-1,.48-1.94,1-2.94,1.51s-2,1-2.93,1.49c-2,.95-3.93,1.93-5.92,2.85Z" style="fill:#263238"></path><path d="M264.23,242.31s6-8.72,10.24-14.24c2.35-3.08,6.85-8,9.61-9.47,4.13-2.2,22.81-8.77,24.5-4.27,1.53,4.06-15.23,7.67-15.23,7.67s16.59-5.13,17.53.1-18.54,6.8-18.54,6.8,17.17-4.9,17.29.66c.09,4.2-17.48,6.6-17.48,6.6s14.79-4.1,15.06.21c.31,4.76-15.76,8-15.76,8-1.15,11.08-6.32,18.4-13.6,20.8C276.7,265.56,264.23,242.31,264.23,242.31Z" style="fill:#ad6359"></path><path d="M287.5,223.41c1.92-.67,3.87-1.37,5.85-1.87s4-.93,6-1.24a35.45,35.45,0,0,1,8-.48c-4.75.09-11.87,1.77-13.85,2.27s-4,.9-6,1.4C287.46,223.5,287.45,223.43,287.5,223.41Z" style="fill:#263238"></path><path d="M289.17,230.59c2.5-.75,4.95-1.59,7.49-2.23s5-1,7.52-1.5c.2,0,.15.09-.05.13-2.53.57-4.83,1.29-7.36,1.88s-5.09,1.1-7.58,1.79C289.15,230.67,289.13,230.61,289.17,230.59Z" style="fill:#263238"></path><path d="M289.5,237a58.39,58.39,0,0,1,11.71-2.55c.19,0,.12.12-.08.16-3.91.77-7,1.35-11.58,2.52C289.48,237.17,289.42,237.05,289.5,237Z" style="fill:#263238"></path></g><g id="freepik--Line--inject-247"><path d="M112,86.71a16.21,16.21,0,0,1,8.12-1.9,22.83,22.83,0,0,1,8.22,1.73,33.48,33.48,0,0,1,7.32,4.2,56,56,0,0,1,6.3,5.63,87,87,0,0,1,10.2,13.43,154.94,154.94,0,0,1,8.12,14.79l-.61-.11a106.12,106.12,0,0,1,16.61-13c6-3.73,12.4-7,19.4-8.35a31.59,31.59,0,0,1,5.32-.56,17.55,17.55,0,0,1,5.34.71,29.28,29.28,0,0,1,9.43,5,71.65,71.65,0,0,1,14.34,15.52c8.16,11.51,14.39,24.22,19.91,37.13a416.93,416.93,0,0,1,14.27,39.64c-4.37-13.34-9.26-26.52-14.83-39.4-2.81-6.42-5.82-12.77-9.12-19a162.6,162.6,0,0,0-11-17.9A70.81,70.81,0,0,0,215.18,109a28.33,28.33,0,0,0-9.12-4.76,22,22,0,0,0-10.21-.16c-6.82,1.33-13.19,4.48-19.11,8.15A112.32,112.32,0,0,0,160.19,125l-.38.37-.23-.47a152.35,152.35,0,0,0-8-14.79,87.67,87.67,0,0,0-10-13.43A54.28,54.28,0,0,0,135.43,91a33,33,0,0,0-7.19-4.27,22.85,22.85,0,0,0-8.14-1.83A16.08,16.08,0,0,0,112,86.71Z" style="fill:#263238"></path></g><g id="freepik--Ball--inject-247"><g id="freepik--Grupo--inject-247"><path d="M115.91,83.75a11.32,11.32,0,0,1-.16,2,11.51,11.51,0,0,1-11.35,9.57h-.29l-.48,0a11.46,11.46,0,0,1-7-3,7.71,7.71,0,0,1-.7-.7,11.48,11.48,0,0,1-3-6.93c0-.28,0-.56,0-.85a11.54,11.54,0,0,1,4.75-9.31A11.6,11.6,0,0,1,99,73.57a11.42,11.42,0,0,1,5.37-1.33h.07l.53,0a11.48,11.48,0,0,1,8.36,4.26l.23.3A11.42,11.42,0,0,1,115.91,83.75Z" style="fill:#FCFB00"></path><path d="M114.77,86.28c-.25-.48-.47-.94-.72-1.38a14.46,14.46,0,0,0-1.79-2.46.66.66,0,0,1-.17-.56,17.94,17.94,0,0,0,.07-3.59c0-.38-.12-.75-.19-1.17.43-.08,1.53-.31,1.62-.3l-.23-.3-1.56.31a.46.46,0,0,1-.25-.08,21.72,21.72,0,0,0-3.22-1.65c-.36-.15-.74-.25-1.11-.38a.53.53,0,0,1-.23-.16,12.46,12.46,0,0,0-2-2.3h0l-.53,0,0,0a13.66,13.66,0,0,1,2.13,2.36l.08.15a16.43,16.43,0,0,0-1.25,1.08c-.63.62-1.21,1.28-1.82,1.92a.24.24,0,0,1-.17.09c-1,.06-1.92.08-2.88.19s-1.75.3-2.62.47c-.14,0-.23,0-.31-.11-.35-.62-.71-1.23-1.07-1.84a.35.35,0,0,1,0-.42A16.76,16.76,0,0,1,99,73.57a11.6,11.6,0,0,0-1.39.87l-.51.54c-.29.33-.54.7-.82,1a2.1,2.1,0,0,1-.37.36l-.84.6a11.43,11.43,0,0,0-2.21,6.77c0,.29,0,.57,0,.85,0-.14.06-.29.1-.43s.06-.19.09-.3l.93.07c.36,0,.72.09,1.08.12a.24.24,0,0,1,.23.17,23.17,23.17,0,0,0,2.76,4.48c.15.18.31.35.45.53a.34.34,0,0,1,.08.23,11.58,11.58,0,0,0-.14,3v.18c-.46-.18-.91-.35-1.35-.54s-.82-.4-1.23-.58a7.71,7.71,0,0,0,.7.7l1.94.79a.78.78,0,0,1,.22.12l.06,0a7.45,7.45,0,0,0,2.71,1.36c.38.12.76.2,1.14.29l.61.16a.93.93,0,0,1,.33.24l.48,0-.13-.13-.13-.15a15.38,15.38,0,0,0,2.93-2.2.31.31,0,0,1,.21-.06,8.85,8.85,0,0,0,4.44-.88l.72-.33.33.45a11.49,11.49,0,0,0,3.27-6.26Zm-11.06,2.54-2.93.21H99a.43.43,0,0,1-.28-.13,21.3,21.3,0,0,1-3-4.64.45.45,0,0,1,0-.3,16,16,0,0,1,1.63-4.28c.47-.77.55-.82,1.43-1a25.65,25.65,0,0,1,4.45-.47.38.38,0,0,1,.36.19c1,1.49,2,3,3.08,4.46a.45.45,0,0,1,.06.42,20.12,20.12,0,0,1-1.66,3.7c-.32.56-.69,1.1-1,1.65A.36.36,0,0,1,103.71,88.82Zm10.54-1.64a17.2,17.2,0,0,1-1.75,3.61,1,1,0,0,1-.35.31,10.89,10.89,0,0,1-3.36,1.2,11.81,11.81,0,0,1-1.46.11.57.57,0,0,1-.45-.2,20,20,0,0,1-2-2.57c-.19-.26-.36-.52-.54-.78.45-.77.9-1.51,1.32-2.27A17,17,0,0,0,107,83.3c.06-.2.19-.2.35-.22,1.31-.19,2.63-.37,3.93-.61a.66.66,0,0,1,.76.26,17.88,17.88,0,0,1,2,3A1.64,1.64,0,0,1,114.25,87.18Z" style="fill:#263238"></path></g></g></svg>
